  0
SECTION
  2
HEADER
  9
$ACADVER
  1
AC1024
  9
$ACADMAINTVER
 70
6
  9
$DWGCODEPAGE
  3
ANSI_1252
  9
$LASTSAVEDBY
  1
ezdxf
  9
$INSBASE
 10
0.0
 20
0.0
 30
0.0
  9
$EXTMIN
 10
1e+20
 20
1e+20
 30
1e+20
  9
$EXTMAX
 10
-1e+20
 20
-1e+20
 30
-1e+20
  9
$LIMMIN
 10
0.0
 20
0.0
  9
$LIMMAX
 10
420.0
 20
297.0
  9
$ORTHOMODE
 70
0
  9
$REGENMODE
 70
1
  9
$FILLMODE
 70
1
  9
$QTEXTMODE
 70
0
  9
$MIRRTEXT
 70
1
  9
$LTSCALE
 40
1.0
  9
$ATTMODE
 70
1
  9
$TEXTSIZE
 40
2.5
  9
$TRACEWID
 40
1.0
  9
$TEXTSTYLE
  7
Standard
  9
$CLAYER
  8
0
  9
$CELTYPE
  6
ByLayer
  9
$CECOLOR
 62
256
  9
$CELTSCALE
 40
1.0
  9
$DISPSILH
 70
0
  9
$DIMSCALE
 40
1.0
  9
$DIMASZ
 40
2.5
  9
$DIMEXO
 40
0.625
  9
$DIMDLI
 40
3.75
  9
$DIMRND
 40
0.0
  9
$DIMDLE
 40
0.0
  9
$DIMEXE
 40
1.25
  9
$DIMTP
 40
0.0
  9
$DIMTM
 40
0.0
  9
$DIMTXT
 40
2.5
  9
$DIMCEN
 40
2.5
  9
$DIMTSZ
 40
0.0
  9
$DIMTOL
 70
0
  9
$DIMLIM
 70
0
  9
$DIMTIH
 70
0
  9
$DIMTOH
 70
0
  9
$DIMSE1
 70
0
  9
$DIMSE2
 70
0
  9
$DIMTAD
 70
1
  9
$DIMZIN
 70
8
  9
$DIMBLK
  1

  9
$DIMASO
 70
1
  9
$DIMSHO
 70
1
  9
$DIMPOST
  1

  9
$DIMAPOST
  1

  9
$DIMALT
 70
0
  9
$DIMALTD
 70
3
  9
$DIMALTF
 40
0.03937007874
  9
$DIMLFAC
 40
1.0
  9
$DIMTOFL
 70
1
  9
$DIMTVP
 40
0.0
  9
$DIMTIX
 70
0
  9
$DIMSOXD
 70
0
  9
$DIMSAH
 70
0
  9
$DIMBLK1
  1

  9
$DIMBLK2
  1

  9
$DIMSTYLE
  2
ISO-25
  9
$DIMCLRD
 70
0
  9
$DIMCLRE
 70
0
  9
$DIMCLRT
 70
0
  9
$DIMTFAC
 40
1.0
  9
$DIMGAP
 40
0.625
  9
$DIMJUST
 70
0
  9
$DIMSD1
 70
0
  9
$DIMSD2
 70
0
  9
$DIMTOLJ
 70
0
  9
$DIMTZIN
 70
8
  9
$DIMALTZ
 70
0
  9
$DIMALTTZ
 70
0
  9
$DIMUPT
 70
0
  9
$DIMDEC
 70
2
  9
$DIMTDEC
 70
2
  9
$DIMALTU
 70
2
  9
$DIMALTTD
 70
3
  9
$DIMTXSTY
  7
Standard
  9
$DIMAUNIT
 70
0
  9
$DIMADEC
 70
0
  9
$DIMALTRND
 40
0.0
  9
$DIMAZIN
 70
0
  9
$DIMDSEP
 70
44
  9
$DIMATFIT
 70
3
  9
$DIMFRAC
 70
0
  9
$DIMLDRBLK
  1

  9
$DIMLUNIT
 70
2
  9
$DIMLWD
 70
-2
  9
$DIMLWE
 70
-2
  9
$DIMTMOVE
 70
0
  9
$DIMFXL
 40
1.0
  9
$DIMFXLON
 70
0
  9
$DIMJOGANG
 40
0.785398163397
  9
$DIMTFILL
 70
0
  9
$DIMTFILLCLR
 70
0
  9
$DIMARCSYM
 70
0
  9
$DIMLTYPE
  6

  9
$DIMLTEX1
  6

  9
$DIMLTEX2
  6

  9
$DIMTXTDIRECTION
 70
0
  9
$LUNITS
 70
2
  9
$LUPREC
 70
4
  9
$SKETCHINC
 40
1.0
  9
$FILLETRAD
 40
10.0
  9
$AUNITS
 70
0
  9
$AUPREC
 70
2
  9
$MENU
  1
.
  9
$ELEVATION
 40
0.0
  9
$PELEVATION
 40
0.0
  9
$THICKNESS
 40
0.0
  9
$LIMCHECK
 70
0
  9
$CHAMFERA
 40
0.0
  9
$CHAMFERB
 40
0.0
  9
$CHAMFERC
 40
0.0
  9
$CHAMFERD
 40
0.0
  9
$SKPOLY
 70
0
  9
$TDCREATE
 40
2461237.2234375
  9
$TDUCREATE
 40
2458532.153996898
  9
$TDUPDATE
 40
2461237.2234375
  9
$TDUUPDATE
 40
2458532.1544311
  9
$TDINDWG
 40
0.0
  9
$TDUSRTIMER
 40
0.0
  9
$USRTIMER
 70
1
  9
$ANGBASE
 50
0.0
  9
$ANGDIR
 70
0
  9
$PDMODE
 70
0
  9
$PDSIZE
 40
0.0
  9
$PLINEWID
 40
0.0
  9
$SPLFRAME
 70
0
  9
$SPLINETYPE
 70
6
  9
$SPLINESEGS
 70
8
  9
$HANDSEED
  5
1E7
  9
$SURFTAB1
 70
6
  9
$SURFTAB2
 70
6
  9
$SURFTYPE
 70
6
  9
$SURFU
 70
6
  9
$SURFV
 70
6
  9
$UCSBASE
  2

  9
$UCSNAME
  2

  9
$UCSORG
 10
0.0
 20
0.0
 30
0.0
  9
$UCSXDIR
 10
1.0
 20
0.0
 30
0.0
  9
$UCSYDIR
 10
0.0
 20
1.0
 30
0.0
  9
$UCSORTHOREF
  2

  9
$UCSORTHOVIEW
 70
0
  9
$UCSORGTOP
 10
0.0
 20
0.0
 30
0.0
  9
$UCSORGBOTTOM
 10
0.0
 20
0.0
 30
0.0
  9
$UCSORGLEFT
 10
0.0
 20
0.0
 30
0.0
  9
$UCSORGRIGHT
 10
0.0
 20
0.0
 30
0.0
  9
$UCSORGFRONT
 10
0.0
 20
0.0
 30
0.0
  9
$UCSORGBACK
 10
0.0
 20
0.0
 30
0.0
  9
$PUCSBASE
  2

  9
$PUCSNAME
  2

  9
$PUCSORG
 10
0.0
 20
0.0
 30
0.0
  9
$PUCSXDIR
 10
1.0
 20
0.0
 30
0.0
  9
$PUCSYDIR
 10
0.0
 20
1.0
 30
0.0
  9
$PUCSORTHOREF
  2

  9
$PUCSORTHOVIEW
 70
0
  9
$PUCSORGTOP
 10
0.0
 20
0.0
 30
0.0
  9
$PUCSORGBOTTOM
 10
0.0
 20
0.0
 30
0.0
  9
$PUCSORGLEFT
 10
0.0
 20
0.0
 30
0.0
  9
$PUCSORGRIGHT
 10
0.0
 20
0.0
 30
0.0
  9
$PUCSORGFRONT
 10
0.0
 20
0.0
 30
0.0
  9
$PUCSORGBACK
 10
0.0
 20
0.0
 30
0.0
  9
$USERI1
 70
0
  9
$USERI2
 70
0
  9
$USERI3
 70
0
  9
$USERI4
 70
0
  9
$USERI5
 70
0
  9
$USERR1
 40
0.0
  9
$USERR2
 40
0.0
  9
$USERR3
 40
0.0
  9
$USERR4
 40
0.0
  9
$USERR5
 40
0.0
  9
$WORLDVIEW
 70
1
  9
$SHADEDGE
 70
3
  9
$SHADEDIF
 70
70
  9
$TILEMODE
 70
1
  9
$MAXACTVP
 70
64
  9
$PINSBASE
 10
0.0
 20
0.0
 30
0.0
  9
$PLIMCHECK
 70
0
  9
$PEXTMIN
 10
1e+20
 20
1e+20
 30
1e+20
  9
$PEXTMAX
 10
-1e+20
 20
-1e+20
 30
-1e+20
  9
$PLIMMIN
 10
0.0
 20
0.0
  9
$PLIMMAX
 10
420.0
 20
297.0
  9
$UNITMODE
 70
0
  9
$VISRETAIN
 70
1
  9
$PLINEGEN
 70
0
  9
$PSLTSCALE
 70
1
  9
$TREEDEPTH
 70
3020
  9
$CMLSTYLE
  2
Standard
  9
$CMLJUST
 70
0
  9
$CMLSCALE
 40
20.0
  9
$PROXYGRAPHICS
 70
1
  9
$MEASUREMENT
 70
1
  9
$CELWEIGHT
370
-1
  9
$ENDCAPS
280
0
  9
$JOINSTYLE
280
0
  9
$LWDISPLAY
290
0
  9
$INSUNITS
 70
6
  9
$HYPERLINKBASE
  1

  9
$STYLESHEET
  1

  9
$XEDIT
290
1
  9
$CEPSNTYPE
380
0
  9
$PSTYLEMODE
290
1
  9
$FINGERPRINTGUID
  2
{5F7ABE12-C0DD-4059-871A-55D8A13E8592}
  9
$VERSIONGUID
  2
{B9853079-F0F3-4204-A64F-E81D2AA8F5B5}
  9
$EXTNAMES
290
1
  9
$PSVPSCALE
 40
0.0
  9
$OLESTARTUP
290
0
  9
$SORTENTS
280
127
  9
$INDEXCTL
280
0
  9
$HIDETEXT
280
1
  9
$XCLIPFRAME
280
1
  9
$HALOGAP
280
0
  9
$OBSCOLOR
 70
257
  9
$OBSLTYPE
280
0
  9
$INTERSECTIONDISPLAY
280
0
  9
$INTERSECTIONCOLOR
 70
257
  9
$DIMASSOC
280
2
  9
$PROJECTNAME
  1

  9
$CAMERADISPLAY
290
0
  9
$LENSLENGTH
 40
50.0
  9
$CAMERAHEIGHT
 40
0.0
  9
$STEPSPERSEC
 40
24.0
  9
$STEPSIZE
 40
100.0
  9
$3DDWFPREC
 40
2.0
  9
$PSOLWIDTH
 40
0.005
  9
$PSOLHEIGHT
 40
0.08
  9
$LOFTANG1
 40
1.570796326795
  9
$LOFTANG2
 40
1.570796326795
  9
$LOFTMAG1
 40
0.0
  9
$LOFTMAG2
 40
0.0
  9
$LOFTPARAM
 70
7
  9
$LOFTNORMALS
280
1
  9
$LATITUDE
 40
37.795
  9
$LONGITUDE
 40
-122.394
  9
$NORTHDIRECTION
 40
0.0
  9
$TIMEZONE
 70
-8000
  9
$LIGHTGLYPHDISPLAY
280
1
  9
$TILEMODELIGHTSYNCH
280
1
  9
$CMATERIAL
347
20
  9
$SOLIDHIST
280
0
  9
$SHOWHIST
280
1
  9
$DWFFRAME
280
2
  9
$DGNFRAME
280
2
  9
$REALWORLDSCALE
290
1
  9
$INTERFERECOLOR
 62
256
  9
$CSHADOW
280
0
  9
$SHADOWPLANELOCATION
 40
0.0
  0
ENDSEC
  0
SECTION
  2
CLASSES
  0
CLASS
  1
ACDBDICTIONARYWDFLT
  2
AcDbDictionaryWithDefault
  3
ObjectDBX Classes
 90
0
 91
0
280
0
281
0
  0
CLASS
  1
SUN
  2
AcDbSun
  3
SCENEOE
 90
1153
 91
0
280
0
281
0
  0
CLASS
  1
VISUALSTYLE
  2
AcDbVisualStyle
  3
ObjectDBX Classes
 90
4095
 91
0
280
0
281
0
  0
CLASS
  1
MATERIAL
  2
AcDbMaterial
  3
ObjectDBX Classes
 90
1153
 91
0
280
0
281
0
  0
CLASS
  1
SCALE
  2
AcDbScale
  3
ObjectDBX Classes
 90
1153
 91
0
280
0
281
0
  0
CLASS
  1
TABLESTYLE
  2
AcDbTableStyle
  3
ObjectDBX Classes
 90
4095
 91
0
280
0
281
0
  0
CLASS
  1
MLEADERSTYLE
  2
AcDbMLeaderStyle
  3
ACDB_MLEADERSTYLE_CLASS
 90
4095
 91
0
280
0
281
0
  0
CLASS
  1
DICTIONARYVAR
  2
AcDbDictionaryVar
  3
ObjectDBX Classes
 90
0
 91
0
280
0
281
0
  0
CLASS
  1
CELLSTYLEMAP
  2
AcDbCellStyleMap
  3
ObjectDBX Classes
 90
1152
 91
0
280
0
281
0
  0
CLASS
  1
MENTALRAYRENDERSETTINGS
  2
AcDbMentalRayRenderSettings
  3
SCENEOE
 90
1024
 91
0
280
0
281
0
  0
CLASS
  1
ACDBDETAILVIEWSTYLE
  2
AcDbDetailViewStyle
  3
ObjectDBX Classes
 90
1025
 91
0
280
0
281
0
  0
CLASS
  1
ACDBSECTIONVIEWSTYLE
  2
AcDbSectionViewStyle
  3
ObjectDBX Classes
 90
1025
 91
0
280
0
281
0
  0
CLASS
  1
RASTERVARIABLES
  2
AcDbRasterVariables
  3
ISM
 90
0
 91
0
280
0
281
0
  0
CLASS
  1
LAYOUT
  2
AcDbLayout
  3
ObjectDBX Classes
 90
0
 91
0
280
0
281
0
  0
CLASS
  1
ACDBPLACEHOLDER
  2
AcDbPlaceHolder
  3
ObjectDBX Classes
 90
0
 91
0
280
0
281
0
  0
ENDSEC
  0
SECTION
  2
TABLES
  0
TABLE
  2
VPORT
  5
8
330
0
100
AcDbSymbolTable
 70
1
  0
VPORT
  5
23
330
8
100
AcDbSymbolTableRecord
100
AcDbViewportTableRecord
  2
*Active
 70
0
 10
0.0
 20
0.0
 11
1.0
 21
1.0
 12
0.0
 22
0.0
 13
0.0
 23
0.0
 14
0.5
 24
0.5
 15
0.5
 25
0.5
 16
0.0
 26
0.0
 36
1.0
 17
0.0
 27
0.0
 37
0.0
 40
1000.0
 41
1.34
 42
50.0
 43
0.0
 44
0.0
 50
0.0
 51
0.0
 71
0
 72
1000
 73
1
 74
3
 75
0
 76
0
 77
0
 78
0
281
0
 65
0
146
0.0
  0
ENDTAB
  0
TABLE
  2
LTYPE
  5
2
330
0
100
AcDbSymbolTable
 70
3
  0
LTYPE
  5
24
330
2
100
AcDbSymbolTableRecord
100
AcDbLinetypeTableRecord
  2
ByBlock
 70
0
  3

 72
65
 73
0
 40
0.0
  0
LTYPE
  5
25
330
2
100
AcDbSymbolTableRecord
100
AcDbLinetypeTableRecord
  2
ByLayer
 70
0
  3

 72
65
 73
0
 40
0.0
  0
LTYPE
  5
26
330
2
100
AcDbSymbolTableRecord
100
AcDbLinetypeTableRecord
  2
Continuous
 70
0
  3

 72
65
 73
0
 40
0.0
  0
ENDTAB
  0
TABLE
  2
LAYER
  5
1
330
0
100
AcDbSymbolTable
 70
7
  0
LAYER
  5
27
330
1
100
AcDbSymbolTableRecord
100
AcDbLayerTableRecord
  2
0
 70
0
 62
7
  6
Continuous
370
-3
390
13
347
21
  0
LAYER
  5
28
330
1
100
AcDbSymbolTableRecord
100
AcDbLayerTableRecord
  2
Defpoints
 70
0
 62
7
  6
Continuous
290
0
370
-3
390
13
347
21
  0
LAYER
  5
2F
330
1
100
AcDbSymbolTableRecord
100
AcDbLayerTableRecord
  2
TANK_BOUNDARY
 70
0
 62
7
  6
Continuous
370
-3
390
13
347
21
  0
LAYER
  5
30
330
1
100
AcDbSymbolTableRecord
100
AcDbLayerTableRecord
  2
OBSERVED_GEOMETRY
 70
0
 62
3
  6
Continuous
370
-3
390
13
347
21
  0
LAYER
  5
31
330
1
100
AcDbSymbolTableRecord
100
AcDbLayerTableRecord
  2
PREDICTED_GEOMETRY_HIGH
 70
0
 62
5
  6
Continuous
370
-3
390
13
347
21
  0
LAYER
  5
32
330
1
100
AcDbSymbolTableRecord
100
AcDbLayerTableRecord
  2
PREDICTED_GEOMETRY_MEDIUM
 70
0
 62
2
  6
Continuous
370
-3
390
13
347
21
  0
LAYER
  5
33
330
1
100
AcDbSymbolTableRecord
100
AcDbLayerTableRecord
  2
PREDICTED_GEOMETRY_LOW
 70
0
 62
1
  6
Continuous
370
-3
390
13
347
21
  0
ENDTAB
  0
TABLE
  2
STYLE
  5
5
330
0
100
AcDbSymbolTable
 70
1
  0
STYLE
  5
29
330
5
100
AcDbSymbolTableRecord
100
AcDbTextStyleTableRecord
  2
Standard
 70
0
 40
0.0
 41
1.0
 50
0.0
 71
0
 42
2.5
  3
txt
  4

  0
ENDTAB
  0
TABLE
  2
VIEW
  5
7
330
0
100
AcDbSymbolTable
 70
0
  0
ENDTAB
  0
TABLE
  2
UCS
  5
6
330
0
100
AcDbSymbolTable
 70
0
  0
ENDTAB
  0
TABLE
  2
APPID
  5
3
330
0
100
AcDbSymbolTable
 70
4
  0
APPID
  5
2A
330
3
100
AcDbSymbolTableRecord
100
AcDbRegAppTableRecord
  2
ACAD
 70
0
  0
APPID
  5
C6
330
3
100
AcDbSymbolTableRecord
100
AcDbRegAppTableRecord
  2
DXF_PREDICTOR
 70
0
  0
APPID
  5
1E4
330
3
100
AcDbSymbolTableRecord
100
AcDbRegAppTableRecord
  2
HATCHBACKGROUNDCOLOR
 70
0
  0
APPID
  5
1E5
330
3
100
AcDbSymbolTableRecord
100
AcDbRegAppTableRecord
  2
EZDXF
 70
0
  0
ENDTAB
  0
TABLE
  2
DIMSTYLE
  5
4
330
0
100
AcDbSymbolTable
 70
1
100
AcDbDimStyleTable
  0
DIMSTYLE
105
2B
330
4
100
AcDbSymbolTableRecord
100
AcDbDimStyleTableRecord
  2
Standard
 70
0
 40
1.0
 41
2.5
 42
0.625
 43
3.75
 44
1.25
 45
0.0
 46
0.0
 47
0.0
 48
0.0
 49
2.5
140
2.5
141
2.5
142
0.0
143
0.03937007874
144
1.0
145
0.0
146
1.0
147
0.625
148
0.0
 69
0
 70
0
 71
0
 72
0
 73
0
 74
0
 75
0
 76
0
 77
1
 78
8
 79
3
170
0
171
3
172
1
173
0
174
0
175
0
176
0
177
0
178
0
179
2
271
2
272
2
273
2
274
3
275
0
276
0
277
2
278
44
279
0
280
0
281
0
282
0
283
0
284
8
285
0
286
0
288
0
289
3
290
0
371
-2
372
-2
  0
ENDTAB
  0
TABLE
  2
BLOCK_RECORD
  5
9
330
0
100
AcDbSymbolTable
 70
2
  0
BLOCK_RECORD
  5
17
330
9
100
AcDbSymbolTableRecord
100
AcDbBlockTableRecord
  2
*Model_Space
340
1A
 70
0
280
1
281
0
  0
BLOCK_RECORD
  5
1B
330
9
100
AcDbSymbolTableRecord
100
AcDbBlockTableRecord
  2
*Paper_Space
340
1E
 70
0
280
1
281
0
  0
ENDTAB
  0
ENDSEC
  0
SECTION
  2
BLOCKS
  0
BLOCK
  5
18
330
17
100
AcDbEntity
  8
0
100
AcDbBlockBegin
  2
*Model_Space
 70
0
 10
0.0
 20
0.0
 30
0.0
  3
*Model_Space
  1

  0
ENDBLK
  5
19
330
17
100
AcDbEntity
  8
0
100
AcDbBlockEnd
  0
BLOCK
  5
1C
330
1B
100
AcDbEntity
  8
0
100
AcDbBlockBegin
  2
*Paper_Space
 70
0
 10
0.0
 20
0.0
 30
0.0
  3
*Paper_Space
  1

  0
ENDBLK
  5
1D
330
1B
100
AcDbEntity
  8
0
100
AcDbBlockEnd
  0
ENDSEC
  0
SECTION
  2
ENTITIES
  0
CIRCLE
  5
34
330
17
100
AcDbEntity
  8
TANK_BOUNDARY
100
AcDbCircle
 10
0.0
 20
0.0
 30
0.0
 40
22.86
  0
LINE
  5
35
330
17
100
AcDbEntity
  8
OBSERVED_GEOMETRY
100
AcDbLine
 10
-20.51533445957231
 20
-5.9436
 30
0.0
 11
-20.409033026338168
 21
-5.9436
 31
0.0
  0
LINE
  5
36
330
17
100
AcDbEntity
  8
OBSERVED_GEOMETRY
100
AcDbLine
 10
20.409014112305282
 20
-5.9436
 30
0.0
 11
20.51533445957232
 21
-5.9436
 31
0.0
  0
LINE
  5
37
330
17
100
AcDbEntity
  8
OBSERVED_GEOMETRY
100
AcDbLine
 10
-20.88121448841041
 20
-4.419600000000001
 30
0.0
 11
-20.791533566771413
 21
-4.419600000000001
 31
0.0
  0
LINE
  5
38
330
17
100
AcDbEntity
  8
OBSERVED_GEOMETRY
100
AcDbLine
 10
20.793338767283682
 20
-4.419600000000001
 30
0.0
 11
20.88121448841041
 21
-4.419600000000001
 31
0.0
  0
LINE
  5
39
330
17
100
AcDbEntity
  8
OBSERVED_GEOMETRY
100
AcDbLine
 10
-20.51533445957231
 20
5.9436
 30
0.0
 11
-20.406979706434566
 21
5.9436
 31
0.0
  0
LINE
  5
3A
330
17
100
AcDbEntity
  8
OBSERVED_GEOMETRY
100
AcDbLine
 10
20.406980292380567
 20
5.9436
 30
0.0
 11
20.51533445957232
 21
5.9436
 31
0.0
  0
LINE
  5
3B
330
17
100
AcDbEntity
  8
OBSERVED_GEOMETRY
100
AcDbLine
 10
-20.35448792497917
 20
6.613574033560627
 30
0.0
 11
-21.13848131823047
 21
3.348006532898617
 31
0.0
  0
LINE
  5
3C
330
17
100
AcDbEntity
  8
OBSERVED_GEOMETRY
100
AcDbLine
 10
-18.491997164837866
 20
-13.435222368009104
 30
0.0
 11
-17.31456160697546
 21
-12.57976536123635
 31
0.0
  0
LINE
  5
3D
330
17
100
AcDbEntity
  8
OBSERVED_GEOMETRY
100
AcDbLine
 10
-19.06929948634244
 20
-9.71629339232252
 30
0.0
 11
-17.31456160697536
 21
-12.57976536123649
 31
0.0
  0
LINE
  5
3E
330
17
100
AcDbEntity
  8
OBSERVED_GEOMETRY
100
AcDbLine
 10
-20.367229790486803
 20
-10.377621913953908
 30
0.0
 11
-19.06929948634252
 21
-9.71629339232236
 31
0.0
  0
LINE
  5
3F
330
17
100
AcDbEntity
  8
OBSERVED_GEOMETRY
100
AcDbLine
 10
-20.35448792497918
 20
-6.61357403356061
 30
0.0
 11
-19.06929948634244
 21
-9.716293392322541
 31
0.0
  0
LINE
  5
40
330
17
100
AcDbEntity
  8
OBSERVED_GEOMETRY
100
AcDbLine
 10
-21.736168464404457
 20
-7.062509254721346
 30
0.0
 11
-20.35448792497925
 21
-6.613574033560392
 31
0.0
  0
LINE
  5
41
330
17
100
AcDbEntity
  8
OBSERVED_GEOMETRY
100
AcDbLine
 10
-21.13848131823047
 20
-3.348006532898601
 30
0.0
 11
-20.35448792497918
 21
-6.613574033560615
 31
0.0
  0
LINE
  5
42
330
17
100
AcDbEntity
  8
OBSERVED_GEOMETRY
100
AcDbLine
 10
-22.573726411716496
 20
-3.575327023758656
 30
0.0
 11
-21.13848131823052
 21
-3.348006532898344
 31
0.0
  0
LINE
  5
43
330
17
100
AcDbEntity
  8
OBSERVED_GEOMETRY
100
AcDbLine
 10
-21.40197514682956
 20
1.87e-14
 30
0.0
 11
-21.13848131823048
 21
-3.348006532898586
 31
0.0
  0
LINE
  5
44
330
17
100
AcDbEntity
  8
OBSERVED_GEOMETRY
100
AcDbLine
 10
-22.855719901792227
 20
4.199119336368279e-15
 30
0.0
 11
-21.40197514682957
 21
3.9e-15
 31
0.0
  0
LINE
  5
45
330
17
100
AcDbEntity
  8
OBSERVED_GEOMETRY
100
AcDbLine
 10
-21.13848131823048
 20
3.348006532898609
 30
0.0
 11
-21.40197514682957
 21
8e-15
 31
0.0
  0
LINE
  5
46
330
17
100
AcDbEntity
  8
OBSERVED_GEOMETRY
100
AcDbLine
 10
-22.575185006200773
 20
3.575558042429977
 30
0.0
 11
-21.13848131823048
 21
3.348006532898604
 31
0.0
  0
LINE
  5
47
330
17
100
AcDbEntity
  8
OBSERVED_GEOMETRY
100
AcDbLine
 10
-17.31456160697538
 20
-12.57976536123645
 30
0.0
 11
-15.13348175710914
 21
-15.13348175710915
 31
0.0
  0
LINE
  5
48
330
17
100
AcDbEntity
  8
OBSERVED_GEOMETRY
100
AcDbLine
 10
-21.738977538784347
 20
7.0634219783157866
 30
0.0
 11
-20.35448792497918
 21
6.613574033560599
 31
0.0
  0
LINE
  5
49
330
17
100
AcDbEntity
  8
OBSERVED_GEOMETRY
100
AcDbLine
 10
-19.06929948634243
 20
9.716293392322557
 30
0.0
 11
-20.35448792497919
 21
6.613574033560612
 31
0.0
  0
LINE
  5
4A
330
17
100
AcDbEntity
  8
OBSERVED_GEOMETRY
100
AcDbLine
 10
-20.36760582152477
 20
10.377813511337752
 30
0.0
 11
-19.06929948634244
 21
9.716293392322516
 31
0.0
  0
LINE
  5
4B
330
17
100
AcDbEntity
  8
OBSERVED_GEOMETRY
100
AcDbLine
 10
-17.31456160697535
 20
12.5797653612365
 30
0.0
 11
-19.06929948634244
 21
9.716293392322527
 31
0.0
  0
LINE
  5
4C
330
17
100
AcDbEntity
  8
OBSERVED_GEOMETRY
100
AcDbLine
 10
-18.489949006984432
 20
13.433734294224685
 30
0.0
 11
-17.31456160697539
 21
12.57976536123647
 31
0.0
  0
LINE
  5
4D
330
17
100
AcDbEntity
  8
OBSERVED_GEOMETRY
100
AcDbLine
 10
-15.13348175710914
 20
15.13348175710915
 30
0.0
 11
-17.31456160697538
 21
12.57976536123646
 31
0.0
  0
LINE
  5
4E
330
17
100
AcDbEntity
  8
OBSERVED_GEOMETRY
100
AcDbLine
 10
-16.16110821553652
 20
16.16110821553653
 30
0.0
 11
-15.13348175710914
 21
15.13348175710915
 31
0.0
  0
LINE
  5
4F
330
17
100
AcDbEntity
  8
OBSERVED_GEOMETRY
100
AcDbLine
 10
-12.57976536123645
 20
17.31456160697538
 30
0.0
 11
-15.13348175710914
 21
15.13348175710914
 31
0.0
  0
LINE
  5
50
330
17
100
AcDbEntity
  8
OBSERVED_GEOMETRY
100
AcDbLine
 10
-13.434385292702986
 20
18.49084502952022
 30
0.0
 11
-12.57976536123646
 21
17.31456160697538
 31
0.0
  0
LINE
  5
51
330
17
100
AcDbEntity
  8
OBSERVED_GEOMETRY
100
AcDbLine
 10
-9.7162933923225
 20
19.06929948634245
 30
0.0
 11
-12.57976536123645
 21
17.31456160697538
 31
0.0
  0
LINE
  5
52
330
17
100
AcDbEntity
  8
OBSERVED_GEOMETRY
100
AcDbLine
 10
-10.376807690842494
 20
20.365631787654124
 30
0.0
 11
-9.716293392322516
 21
19.06929948634245
 31
0.0
  0
LINE
  5
53
330
17
100
AcDbEntity
  8
OBSERVED_GEOMETRY
100
AcDbLine
 10
-21.3420044462292
 20
0.762
 30
0.0
 11
-21.241527935685923
 21
0.762
 31
0.0
  0
LINE
  5
54
330
17
100
AcDbEntity
  8
OBSERVED_GEOMETRY
100
AcDbLine
 10
21.241071786105675
 20
0.762
 30
0.0
 11
21.34200444622921
 21
0.762
 31
0.0
  0
LINE
  5
55
330
17
100
AcDbEntity
  8
OBSERVED_GEOMETRY
100
AcDbLine
 10
-21.3420044462292
 20
-0.762
 30
0.0
 11
-21.242579366991954
 21
-0.762
 31
0.0
  0
LINE
  5
56
330
17
100
AcDbEntity
  8
OBSERVED_GEOMETRY
100
AcDbLine
 10
21.243945996817384
 20
-0.762
 30
0.0
 11
21.34200444622921
 21
-0.762
 31
0.0
  0
LINE
  5
57
330
17
100
AcDbEntity
  8
OBSERVED_GEOMETRY
100
AcDbLine
 10
-6.613574033560567
 20
20.3544879249792
 30
0.0
 11
-9.716293392322507
 21
19.06929948634245
 31
0.0
  0
LINE
  5
58
330
17
100
AcDbEntity
  8
OBSERVED_GEOMETRY
100
AcDbLine
 10
-3.348006532898595
 20
-21.13848131823047
 30
0.0
 11
3.4e-15
 21
-21.40197514682956
 31
0.0
  0
LINE
  5
59
330
17
100
AcDbEntity
  8
OBSERVED_GEOMETRY
100
AcDbLine
 10
-3.575822094233825
 20
-22.576852163677252
 30
0.0
 11
-3.348006532898607
 21
-21.13848131823048
 31
0.0
  0
LINE
  5
5A
330
17
100
AcDbEntity
  8
OBSERVED_GEOMETRY
100
AcDbLine
 10
-6.61357403356058
 20
-20.35448792497919
 30
0.0
 11
-3.348006532898544
 21
-21.13848131823049
 31
0.0
  0
LINE
  5
5B
330
17
100
AcDbEntity
  8
OBSERVED_GEOMETRY
100
AcDbLine
 10
-7.064057741244208
 20
-21.74093421588262
 30
0.0
 11
-6.61357403356062
 21
-20.35448792497918
 31
0.0
  0
LINE
  5
5C
330
17
100
AcDbEntity
  8
OBSERVED_GEOMETRY
100
AcDbLine
 10
-9.716293392322484
 20
-19.06929948634246
 30
0.0
 11
-6.613574033560546
 21
-20.35448792497921
 31
0.0
  0
LINE
  5
5D
330
17
100
AcDbEntity
  8
OBSERVED_GEOMETRY
100
AcDbLine
 10
-10.375945688299927
 20
-20.363940012408207
 30
0.0
 11
-9.716293392322553
 21
-19.06929948634242
 31
0.0
  0
LINE
  5
5E
330
17
100
AcDbEntity
  8
OBSERVED_GEOMETRY
100
AcDbLine
 10
-12.57976536123645
 20
-17.31456160697538
 30
0.0
 11
-9.716293392322495
 21
-19.06929948634246
 31
0.0
  0
LINE
  5
5F
330
17
100
AcDbEntity
  8
OBSERVED_GEOMETRY
100
AcDbLine
 10
-13.434137287083047
 20
-18.490503679068652
 30
0.0
 11
-12.57976536123651
 21
-17.31456160697534
 31
0.0
  0
LINE
  5
60
330
17
100
AcDbEntity
  8
OBSERVED_GEOMETRY
100
AcDbLine
 10
-15.13348175710913
 20
-15.13348175710915
 30
0.0
 11
-12.57976536123644
 21
-17.3145616069754
 31
0.0
  0
LINE
  5
61
330
17
100
AcDbEntity
  8
OBSERVED_GEOMETRY
100
AcDbLine
 10
-16.16185409663527
 20
-16.16185409663512
 30
0.0
 11
-15.13348175710922
 21
-15.13348175710907
 31
0.0
  0
LINE
  5
62
330
17
100
AcDbEntity
  8
OBSERVED_GEOMETRY
100
AcDbLine
 10
16.16297302586598
 20
-16.16297302586607
 30
0.0
 11
15.13348175710909
 21
-15.13348175710919
 31
0.0
  0
LINE
  5
63
330
17
100
AcDbEntity
  8
OBSERVED_GEOMETRY
100
AcDbLine
 10
21.40197514682957
 20
-3.02e-14
 30
0.0
 11
21.13848131823048
 21
3.348006532898578
 31
0.0
  0
LINE
  5
64
330
17
100
AcDbEntity
  8
OBSERVED_GEOMETRY
100
AcDbLine
 10
22.8588847572341
 20
-2.5490015297993905e-13
 30
0.0
 11
21.40197514682957
 21
-2.551e-13
 31
0.0
  0
LINE
  5
65
330
17
100
AcDbEntity
  8
OBSERVED_GEOMETRY
100
AcDbLine
 10
21.13848131823047
 20
-3.348006532898589
 30
0.0
 11
21.40197514682957
 21
2.31e-14
 31
0.0
  0
LINE
  5
66
330
17
100
AcDbEntity
  8
OBSERVED_GEOMETRY
100
AcDbLine
 10
22.573413876190315
 20
-3.57527752299474
 30
0.0
 11
21.13848131823044
 21
-3.34800653289881
 31
0.0
  0
LINE
  5
67
330
17
100
AcDbEntity
  8
OBSERVED_GEOMETRY
100
AcDbLine
 10
20.3544879249792
 20
-6.613574033560585
 30
0.0
 11
21.13848131823049
 21
-3.348006532898568
 31
0.0
  0
LINE
  5
68
330
17
100
AcDbEntity
  8
OBSERVED_GEOMETRY
100
AcDbLine
 10
21.736569723703884
 20
-7.062639631771436
 30
0.0
 11
20.35448792497913
 21
-6.613574033560761
 31
0.0
  0
LINE
  5
69
330
17
100
AcDbEntity
  8
OBSERVED_GEOMETRY
100
AcDbLine
 10
19.06929948634246
 20
-9.716293392322502
 30
0.0
 11
20.35448792497921
 21
-6.613574033560553
 31
0.0
  0
LINE
  5
6A
330
17
100
AcDbEntity
  8
OBSERVED_GEOMETRY
100
AcDbLine
 10
20.36469188359933
 20
-10.376328785806646
 30
0.0
 11
19.06929948634239
 21
-9.716293392322635
 31
0.0
  0
LINE
  5
6B
330
17
100
AcDbEntity
  8
OBSERVED_GEOMETRY
100
AcDbLine
 10
17.31456160697538
 20
-12.57976536123645
 30
0.0
 11
19.06929948634245
 21
-9.716293392322505
 31
0.0
  0
LINE
  5
6C
330
17
100
AcDbEntity
  8
OBSERVED_GEOMETRY
100
AcDbLine
 10
18.491485089925735
 20
-13.4348503238082
 30
0.0
 11
17.31456160697532
 21
-12.57976536123654
 31
0.0
  0
LINE
  5
6D
330
17
100
AcDbEntity
  8
OBSERVED_GEOMETRY
100
AcDbLine
 10
15.13348175710914
 20
-15.13348175710913
 30
0.0
 11
17.31456160697539
 21
-12.57976536123644
 31
0.0
  0
LINE
  5
6E
330
17
100
AcDbEntity
  8
OBSERVED_GEOMETRY
100
AcDbLine
 10
22.576122757032977
 20
3.575706567570692
 30
0.0
 11
21.13848131823048
 21
3.348006532898598
 31
0.0
  0
LINE
  5
6F
330
17
100
AcDbEntity
  8
OBSERVED_GEOMETRY
100
AcDbLine
 10
12.57976536123647
 20
-17.31456160697536
 30
0.0
 11
15.13348175710919
 21
-15.1334817571091
 31
0.0
  0
LINE
  5
70
330
17
100
AcDbEntity
  8
OBSERVED_GEOMETRY
100
AcDbLine
 10
13.436369612400474
 20
-18.493576211276356
 30
0.0
 11
12.57976536123643
 21
-17.31456160697541
 31
0.0
  0
LINE
  5
71
330
17
100
AcDbEntity
  8
OBSERVED_GEOMETRY
100
AcDbLine
 10
9.716293392322516
 20
-19.06929948634244
 30
0.0
 11
12.57976536123646
 21
-17.31456160697538
 31
0.0
  0
LINE
  5
72
330
17
100
AcDbEntity
  8
OBSERVED_GEOMETRY
100
AcDbLine
 10
-18.20592040674212
 20
-11.1252
 30
0.0
 11
-18.113725651392734
 21
-11.1252
 31
0.0
  0
LINE
  5
73
330
17
100
AcDbEntity
  8
OBSERVED_GEOMETRY
100
AcDbLine
 10
18.112558838470783
 20
-11.1252
 30
0.0
 11
18.20592040674212
 21
-11.1252
 31
0.0
  0
LINE
  5
74
330
17
100
AcDbEntity
  8
OBSERVED_GEOMETRY
100
AcDbLine
 10
-7.555329592563302
 20
-19.9644
 30
0.0
 11
-7.294736412421774
 21
-19.9644
 31
0.0
  0
LINE
  5
75
330
17
100
AcDbEntity
  8
OBSERVED_GEOMETRY
100
AcDbLine
 10
7.295746718552443
 20
-19.9644
 30
0.0
 11
7.555329592563304
 21
-19.9644
 31
0.0
  0
LINE
  5
76
330
17
100
AcDbEntity
  8
OBSERVED_GEOMETRY
100
AcDbLine
 10
13.75970260150845
 20
-16.3068
 30
0.0
 11
13.634226883335947
 21
-16.3068
 31
0.0
  0
LINE
  5
77
330
17
100
AcDbEntity
  8
OBSERVED_GEOMETRY
100
AcDbLine
 10
-13.632647710653817
 20
-16.3068
 30
0.0
 11
-13.75970260150844
 21
-16.3068
 31
0.0
  0
LINE
  5
78
330
17
100
AcDbEntity
  8
OBSERVED_GEOMETRY
100
AcDbLine
 10
-15.43299227260045
 20
-14.7828
 30
0.0
 11
-15.27308319957919
 21
-14.7828
 31
0.0
  0
LINE
  5
79
330
17
100
AcDbEntity
  8
OBSERVED_GEOMETRY
100
AcDbLine
 10
15.271861243193046
 20
-14.7828
 30
0.0
 11
15.43299227260044
 21
-14.7828
 31
0.0
  0
LINE
  5
7A
330
17
100
AcDbEntity
  8
OBSERVED_GEOMETRY
100
AcDbLine
 10
-19.812
 20
-7.697600518190316
 30
0.0
 11
-19.812
 21
-7.923255739468986
 31
0.0
  0
LINE
  5
7B
330
17
100
AcDbEntity
  8
OBSERVED_GEOMETRY
100
AcDbLine
 10
19.812
 20
-7.69800073975016
 30
0.0
 11
19.812
 21
-7.92325573946899
 31
0.0
  0
LINE
  5
7C
330
17
100
AcDbEntity
  8
OBSERVED_GEOMETRY
100
AcDbLine
 10
-1.8288
 20
-21.176056526313207
 30
0.0
 11
-1.8288
 21
-21.2580454653887
 31
0.0
  0
LINE
  5
7D
330
17
100
AcDbEntity
  8
OBSERVED_GEOMETRY
100
AcDbLine
 10
5.486400000000001
 20
-20.534473471940178
 30
0.0
 11
5.486400000000001
 21
-20.62509846822374
 31
0.0
  0
LINE
  5
7E
330
17
100
AcDbEntity
  8
OBSERVED_GEOMETRY
100
AcDbLine
 10
-5.486400000000001
 20
-20.53482879849735
 30
0.0
 11
-5.486400000000001
 21
-20.62509846822375
 31
0.0
  0
LINE
  5
7F
330
17
100
AcDbEntity
  8
OBSERVED_GEOMETRY
100
AcDbLine
 10
1.8288
 20
-21.17612171607877
 30
0.0
 11
1.8288
 21
-21.2580454653887
 31
0.0
  0
LINE
  5
80
330
17
100
AcDbEntity
  8
OBSERVED_GEOMETRY
100
AcDbLine
 10
-19.11697273038195
 20
-9.601200000000002
 30
0.0
 11
-18.96258616625788
 21
-9.601200000000002
 31
0.0
  0
LINE
  5
81
330
17
100
AcDbEntity
  8
OBSERVED_GEOMETRY
100
AcDbLine
 10
18.963210617924954
 20
-9.601200000000002
 30
0.0
 11
19.11697273038195
 21
-9.601200000000002
 31
0.0
  0
LINE
  5
82
330
17
100
AcDbEntity
  8
OBSERVED_GEOMETRY
100
AcDbLine
 10
21.13848131823048
 20
3.348006532898567
 30
0.0
 11
20.35448792497919
 21
6.613574033560584
 31
0.0
  0
LINE
  5
83
330
17
100
AcDbEntity
  8
OBSERVED_GEOMETRY
100
AcDbLine
 10
21.737773575680134
 20
7.0630307869896845
 30
0.0
 11
20.35448792497919
 21
6.613574033560595
 31
0.0
  0
LINE
  5
84
330
17
100
AcDbEntity
  8
OBSERVED_GEOMETRY
100
AcDbLine
 10
20.3544879249792
 20
6.613574033560563
 30
0.0
 11
19.06929948634246
 21
9.716293392322502
 31
0.0
  0
LINE
  5
85
330
17
100
AcDbEntity
  8
OBSERVED_GEOMETRY
100
AcDbLine
 10
20.364503911464077
 20
10.376233009219789
 30
0.0
 11
19.06929948634244
 21
9.716293392322513
 31
0.0
  0
LINE
  5
86
330
17
100
AcDbEntity
  8
OBSERVED_GEOMETRY
100
AcDbLine
 10
19.06929948634246
 20
9.716293392322491
 30
0.0
 11
17.31456160697538
 21
12.57976536123645
 31
0.0
  0
LINE
  5
87
330
17
100
AcDbEntity
  8
OBSERVED_GEOMETRY
100
AcDbLine
 10
18.49011967236436
 20
13.433858289881263
 30
0.0
 11
17.31456160697538
 21
12.57976536123646
 31
0.0
  0
LINE
  5
88
330
17
100
AcDbEntity
  8
OBSERVED_GEOMETRY
100
AcDbLine
 10
17.31456160697538
 20
12.57976536123646
 30
0.0
 11
15.13348175710914
 21
15.13348175710915
 31
0.0
  0
LINE
  5
89
330
17
100
AcDbEntity
  8
OBSERVED_GEOMETRY
100
AcDbLine
 10
16.160735296501336
 20
16.160735296501326
 30
0.0
 11
15.13348175710914
 21
15.13348175710914
 31
0.0
  0
LINE
  5
8A
330
17
100
AcDbEntity
  8
OBSERVED_GEOMETRY
100
AcDbLine
 10
15.13348175710915
 20
15.13348175710914
 30
0.0
 11
12.57976536123646
 21
17.31456160697538
 31
0.0
  0
LINE
  5
8B
330
17
100
AcDbEntity
  8
OBSERVED_GEOMETRY
100
AcDbLine
 10
13.435873486681716
 20
18.4928933528067
 30
0.0
 11
12.57976536123646
 21
17.31456160697538
 31
0.0
  0
LINE
  5
8C
330
17
100
AcDbEntity
  8
OBSERVED_GEOMETRY
100
AcDbLine
 10
10.37695136953693
 20
20.36591377296924
 30
0.0
 11
9.716293392322516
 21
19.06929948634244
 31
0.0
  0
LINE
  5
8D
330
17
100
AcDbEntity
  8
OBSERVED_GEOMETRY
100
AcDbLine
 10
9.716293392322514
 20
19.06929948634245
 30
0.0
 11
6.613574033560594
 21
20.35448792497919
 31
0.0
  0
LINE
  5
8E
330
17
100
AcDbEntity
  8
OBSERVED_GEOMETRY
100
AcDbLine
 10
7.062949293341716
 20
21.737522764021385
 30
0.0
 11
6.613574033560599
 21
20.35448792497919
 31
0.0
  0
LINE
  5
8F
330
17
100
AcDbEntity
  8
OBSERVED_GEOMETRY
100
AcDbLine
 10
6.613574033560607
 20
20.35448792497919
 30
0.0
 11
3.348006532898602
 21
21.13848131823048
 31
0.0
  0
LINE
  5
90
330
17
100
AcDbEntity
  8
OBSERVED_GEOMETRY
100
AcDbLine
 10
3.575376525665566
 20
22.57403895445455
 30
0.0
 11
3.348006532898603
 21
21.13848131823048
 31
0.0
  0
LINE
  5
91
330
17
100
AcDbEntity
  8
OBSERVED_GEOMETRY
100
AcDbLine
 10
3.348006532898606
 20
21.13848131823048
 30
0.0
 11
9e-16
 21
21.40197514682957
 31
0.0
  0
LINE
  5
92
330
17
100
AcDbEntity
  8
OBSERVED_GEOMETRY
100
AcDbLine
 10
2.799304374277554e-15
 20
22.854928802040845
 30
0.0
 11
2.6e-15
 21
21.40197514682957
 31
0.0
  0
LINE
  5
93
330
17
100
AcDbEntity
  8
OBSERVED_GEOMETRY
100
AcDbLine
 10
4.4e-15
 20
21.40197514682956
 30
0.0
 11
-3.348006532898603
 21
21.13848131823047
 31
0.0
  0
LINE
  5
94
330
17
100
AcDbEntity
  8
OBSERVED_GEOMETRY
100
AcDbLine
 10
-3.576020154415904
 20
22.57810266645192
 30
0.0
 11
-3.348006532898597
 21
21.13848131823048
 31
0.0
  0
LINE
  5
95
330
17
100
AcDbEntity
  8
OBSERVED_GEOMETRY
100
AcDbLine
 10
-3.3480065328986
 20
21.13848131823047
 30
0.0
 11
-6.613574033560599
 21
20.35448792497919
 31
0.0
  0
LINE
  5
96
330
17
100
AcDbEntity
  8
OBSERVED_GEOMETRY
100
AcDbLine
 10
-7.0635360825881275
 20
21.739328715624872
 30
0.0
 11
-6.613574033560594
 21
20.35448792497919
 31
0.0
  0
LINE
  5
97
330
17
100
AcDbEntity
  8
OBSERVED_GEOMETRY
100
AcDbLine
 10
12.57976536123649
 20
17.31456160697536
 30
0.0
 11
9.71629339232252
 21
19.06929948634244
 31
0.0
  0
LINE
  5
98
330
17
100
AcDbEntity
  8
OBSERVED_GEOMETRY
100
AcDbLine
 10
0.0
 20
-22.857038502801498
 30
0.0
 11
0.0
 21
-21.40197514682957
 31
0.0
  0
LINE
  5
99
330
17
100
AcDbEntity
  8
OBSERVED_GEOMETRY
100
AcDbLine
 10
7.5e-15
 20
-21.40197514682956
 30
0.0
 11
3.348006532898606
 21
-21.13848131823048
 31
0.0
  0
LINE
  5
9A
330
17
100
AcDbEntity
  8
OBSERVED_GEOMETRY
100
AcDbLine
 10
3.348006532898605
 20
-21.13848131823047
 30
0.0
 11
3.575475532905829
 21
-22.574664061567695
 31
0.0
  0
LINE
  5
9B
330
17
100
AcDbEntity
  8
OBSERVED_GEOMETRY
100
AcDbLine
 10
3.575475532905822
 20
-22.574664061567695
 30
0.0
 11
3.3480065328986
 21
-21.13848131823048
 31
0.0
  0
LINE
  5
9C
330
17
100
AcDbEntity
  8
OBSERVED_GEOMETRY
100
AcDbLine
 10
3.348006532898606
 20
-21.13848131823047
 30
0.0
 11
6.613574033560608
 21
-20.35448792497918
 31
0.0
  0
LINE
  5
9D
330
17
100
AcDbEntity
  8
OBSERVED_GEOMETRY
100
AcDbLine
 10
7.062688524199096
 20
-21.73672019912416
 30
0.0
 11
6.613574033560591
 21
-20.35448792497919
 31
0.0
  0
LINE
  5
9E
330
17
100
AcDbEntity
  8
OBSERVED_GEOMETRY
100
AcDbLine
 10
6.613574033560601
 20
-20.35448792497919
 30
0.0
 11
9.716293392322523
 21
-19.06929948634245
 31
0.0
  0
LINE
  5
9F
330
17
100
AcDbEntity
  8
OBSERVED_GEOMETRY
100
AcDbLine
 10
10.375897802769055
 20
-20.363846031762403
 30
0.0
 11
9.716293392322497
 21
-19.06929948634246
 31
0.0
  0
LINE
  5
A0
330
17
100
AcDbEntity
  8
OBSERVED_GEOMETRY
100
AcDbLine
 10
-16.764
 20
-13.066346354791571
 30
0.0
 11
-16.764
 21
-13.2243901798818
 31
0.0
  0
LINE
  5
A1
330
17
100
AcDbEntity
  8
OBSERVED_GEOMETRY
100
AcDbLine
 10
16.764
 20
13.068194243838063
 30
0.0
 11
16.764
 21
13.2243901798818
 31
0.0
  0
LINE
  5
A2
330
17
100
AcDbEntity
  8
OBSERVED_GEOMETRY
100
AcDbLine
 10
-16.764
 20
13.072316573612389
 30
0.0
 11
-16.764
 21
13.2243901798818
 31
0.0
  0
LINE
  5
A3
330
17
100
AcDbEntity
  8
OBSERVED_GEOMETRY
100
AcDbLine
 10
7.62
 20
19.842248553558353
 30
0.0
 11
7.62
 21
19.9644
 31
0.0
  0
LINE
  5
A4
330
17
100
AcDbEntity
  8
OBSERVED_GEOMETRY
100
AcDbLine
 10
-9.144
 20
19.187232366260112
 30
0.0
 11
-9.144
 21
19.30635117109894
 31
0.0
  0
LINE
  5
A5
330
17
100
AcDbEntity
  8
OBSERVED_GEOMETRY
100
AcDbLine
 10
12.192
 20
17.410234050635378
 30
0.0
 11
12.192
 21
17.55218452595445
 31
0.0
  0
LINE
  5
A6
330
17
100
AcDbEntity
  8
OBSERVED_GEOMETRY
100
AcDbLine
 10
-12.192
 20
17.41122634364509
 30
0.0
 11
-12.192
 21
17.55218452595444
 31
0.0
  0
LINE
  5
A7
330
17
100
AcDbEntity
  8
OBSERVED_GEOMETRY
100
AcDbLine
 10
10.668
 20
18.385245109562707
 30
0.0
 11
10.668
 21
18.4860929270797
 31
0.0
  0
LINE
  5
A8
330
17
100
AcDbEntity
  8
OBSERVED_GEOMETRY
100
AcDbLine
 10
9.144
 20
19.187861087082787
 30
0.0
 11
9.144
 21
19.30635117109894
 31
0.0
  0
LINE
  5
A9
330
17
100
AcDbEntity
  8
OBSERVED_GEOMETRY
100
AcDbLine
 10
-7.62
 20
19.841901431754273
 30
0.0
 11
-7.62
 21
19.9644
 31
0.0
  0
LINE
  5
AA
330
17
100
AcDbEntity
  8
OBSERVED_GEOMETRY
100
AcDbLine
 10
-10.668
 20
18.38712903572426
 30
0.0
 11
-10.668
 21
18.4860929270797
 31
0.0
  0
LINE
  5
AB
330
17
100
AcDbEntity
  8
OBSERVED_GEOMETRY
100
AcDbLine
 10
13.75970260150845
 20
16.3068
 30
0.0
 11
13.6341253742182
 21
16.3068
 31
0.0
  0
LINE
  5
AC
330
17
100
AcDbEntity
  8
OBSERVED_GEOMETRY
100
AcDbLine
 10
-13.632647710653817
 20
16.3068
 30
0.0
 11
-13.75970260150844
 21
16.3068
 31
0.0
  0
LINE
  5
AD
330
17
100
AcDbEntity
  8
OBSERVED_GEOMETRY
100
AcDbLine
 10
-7.555329592563302
 20
19.9644
 30
0.0
 11
-7.292709317825791
 21
19.9644
 31
0.0
  0
LINE
  5
AE
330
17
100
AcDbEntity
  8
OBSERVED_GEOMETRY
100
AcDbLine
 10
7.295373178262625
 20
19.9644
 30
0.0
 11
7.555329592563304
 21
19.9644
 31
0.0
  0
LINE
  5
AF
330
17
100
AcDbEntity
  8
OBSERVED_GEOMETRY
100
AcDbLine
 10
5.486400000000001
 20
20.537204535831318
 30
0.0
 11
5.486400000000001
 21
20.62509846822374
 31
0.0
  0
LINE
  5
B0
330
17
100
AcDbEntity
  8
OBSERVED_GEOMETRY
100
AcDbLine
 10
-1.8288
 20
21.178158846840393
 30
0.0
 11
-1.8288
 21
21.2580454653887
 31
0.0
  0
LINE
  5
B1
330
17
100
AcDbEntity
  8
OBSERVED_GEOMETRY
100
AcDbLine
 10
-5.486400000000001
 20
20.53615400416919
 30
0.0
 11
-5.486400000000001
 21
20.62509846822375
 31
0.0
  0
LINE
  5
B2
330
17
100
AcDbEntity
  8
OBSERVED_GEOMETRY
100
AcDbLine
 10
1.8288
 20
21.177958344743214
 30
0.0
 11
1.8288
 21
21.2580454653887
 31
0.0
  0
LINE
  5
B3
330
17
100
AcDbEntity
  8
OBSERVED_GEOMETRY
100
AcDbLine
 10
19.812
 20
7.702452204005157
 30
0.0
 11
19.812
 21
7.92325573946899
 31
0.0
  0
LINE
  5
B4
330
17
100
AcDbEntity
  8
OBSERVED_GEOMETRY
100
AcDbLine
 10
-15.43299227260045
 20
14.7828
 30
0.0
 11
-15.273365702435383
 21
14.7828
 31
0.0
  0
LINE
  5
B5
330
17
100
AcDbEntity
  8
OBSERVED_GEOMETRY
100
AcDbLine
 10
15.274498157820855
 20
14.7828
 30
0.0
 11
15.43299227260044
 21
14.7828
 31
0.0
  0
LINE
  5
B6
330
17
100
AcDbEntity
  8
OBSERVED_GEOMETRY
100
AcDbLine
 10
-10.668
 20
-18.383600576488426
 30
0.0
 11
-10.668
 21
-18.4860929270797
 31
0.0
  0
LINE
  5
B7
330
17
100
AcDbEntity
  8
OBSERVED_GEOMETRY
100
AcDbLine
 10
10.668
 20
-18.384215731837905
 30
0.0
 11
10.668
 21
-18.4860929270797
 31
0.0
  0
LINE
  5
B8
330
17
100
AcDbEntity
  8
OBSERVED_GEOMETRY
100
AcDbLine
 10
9.144
 20
-19.1887832740397
 30
0.0
 11
9.144
 21
-19.30635117109894
 31
0.0
  0
LINE
  5
B9
330
17
100
AcDbEntity
  8
OBSERVED_GEOMETRY
100
AcDbLine
 10
-9.144
 20
-19.19064002733235
 30
0.0
 11
-9.144
 21
-19.30635117109894
 31
0.0
  0
LINE
  5
BA
330
17
100
AcDbEntity
  8
OBSERVED_GEOMETRY
100
AcDbLine
 10
-12.192
 20
-17.411632715890157
 30
0.0
 11
-12.192
 21
-17.55218452595444
 31
0.0
  0
LINE
  5
BB
330
17
100
AcDbEntity
  8
OBSERVED_GEOMETRY
100
AcDbLine
 10
-7.62
 20
-19.844682097864144
 30
0.0
 11
-7.62
 21
-19.9644
 31
0.0
  0
LINE
  5
BC
330
17
100
AcDbEntity
  8
OBSERVED_GEOMETRY
100
AcDbLine
 10
12.192
 20
-17.414658948812217
 30
0.0
 11
12.192
 21
-17.55218452595445
 31
0.0
  0
LINE
  5
BD
330
17
100
AcDbEntity
  8
OBSERVED_GEOMETRY
100
AcDbLine
 10
7.62
 20
-19.843663781120082
 30
0.0
 11
7.62
 21
-19.9644
 31
0.0
  0
LINE
  5
BE
330
17
100
AcDbEntity
  8
OBSERVED_GEOMETRY
100
AcDbLine
 10
16.764
 20
-13.067680087445456
 30
0.0
 11
16.764
 21
-13.2243901798818
 31
0.0
  0
LINE
  5
BF
330
17
100
AcDbEntity
  8
OBSERVED_GEOMETRY
100
AcDbLine
 10
-20.88121448841041
 20
4.419600000000001
 30
0.0
 11
-20.790736833322256
 21
4.419600000000001
 31
0.0
  0
LINE
  5
C0
330
17
100
AcDbEntity
  8
OBSERVED_GEOMETRY
100
AcDbLine
 10
20.79013110604188
 20
4.419600000000001
 30
0.0
 11
20.88121448841041
 21
4.419600000000001
 31
0.0
  0
LINE
  5
C1
330
17
100
AcDbEntity
  8
OBSERVED_GEOMETRY
100
AcDbLine
 10
-18.20592040674212
 20
11.1252
 30
0.0
 11
-18.11064516510644
 21
11.1252
 31
0.0
  0
LINE
  5
C2
330
17
100
AcDbEntity
  8
OBSERVED_GEOMETRY
100
AcDbLine
 10
18.11102040128498
 20
11.1252
 30
0.0
 11
18.20592040674212
 21
11.1252
 31
0.0
  0
LINE
  5
C3
330
17
100
AcDbEntity
  8
OBSERVED_GEOMETRY
100
AcDbLine
 10
-19.11697273038195
 20
9.601200000000002
 30
0.0
 11
-18.9660094621162
 21
9.601200000000002
 31
0.0
  0
LINE
  5
C4
330
17
100
AcDbEntity
  8
OBSERVED_GEOMETRY
100
AcDbLine
 10
18.964167739342844
 20
9.601200000000002
 30
0.0
 11
19.11697273038195
 21
9.601200000000002
 31
0.0
  0
LINE
  5
C5
330
17
100
AcDbEntity
  8
PREDICTED_GEOMETRY_HIGH
100
AcDbLine
 10
-9.144
 20
-0.761999999999993
 30
0.0
 11
-9.144000000000004
 21
-4.419599999999994
 31
0.0
1001
DXF_PREDICTOR
1000
150ft_family
1040
0.9199390129842979
1000
line:10000059
  0
LINE
  5
C7
330
17
100
AcDbEntity
  8
PREDICTED_GEOMETRY_HIGH
100
AcDbLine
 10
-18.288
 20
-0.7619999999999861
 30
0.0
 11
-18.288000000000004
 21
-4.4195999999999875
 31
0.0
1001
DXF_PREDICTOR
1000
150ft_family
1040
0.9199390129842979
1000
line:1000005D
  0
LINE
  5
C8
330
17
100
AcDbEntity
  8
PREDICTED_GEOMETRY_HIGH
100
AcDbLine
 10
-12.192
 20
-0.7619999999999908
 30
0.0
 11
-12.192000000000002
 21
-4.419599999999992
 31
0.0
1001
DXF_PREDICTOR
1000
150ft_family
1040
0.9199390129842979
1000
line:10000061
  0
LINE
  5
C9
330
17
100
AcDbEntity
  8
PREDICTED_GEOMETRY_HIGH
100
AcDbLine
 10
-16.764
 20
-0.7619999999999872
 30
0.0
 11
-16.764
 21
-4.419599999999988
 31
0.0
1001
DXF_PREDICTOR
1000
150ft_family
1040
0.9199390129842979
1000
line:10000065
  0
LINE
  5
CA
330
17
100
AcDbEntity
  8
PREDICTED_GEOMETRY_HIGH
100
AcDbLine
 10
-3.0480000000000005
 20
-0.7619999999999976
 30
0.0
 11
-3.048000000000003
 21
-4.419599999999998
 31
0.0
1001
DXF_PREDICTOR
1000
150ft_family
1040
0.9199390129842979
1000
line:10000069
  0
LINE
  5
CB
330
17
100
AcDbEntity
  8
PREDICTED_GEOMETRY_HIGH
100
AcDbLine
 10
-13.716
 20
-0.7619999999999897
 30
0.0
 11
-13.716000000000001
 21
-4.419599999999991
 31
0.0
1001
DXF_PREDICTOR
1000
150ft_family
1040
0.9199390129842979
1000
line:1000006D
  0
LINE
  5
CC
330
17
100
AcDbEntity
  8
PREDICTED_GEOMETRY_HIGH
100
AcDbLine
 10
-4.572000000000001
 20
-0.7619999999999965
 30
0.0
 11
-4.572000000000004
 21
-4.419599999999998
 31
0.0
1001
DXF_PREDICTOR
1000
150ft_family
1040
0.9199390129842979
1000
line:10000071
  0
LINE
  5
CD
330
17
100
AcDbEntity
  8
PREDICTED_GEOMETRY_HIGH
100
AcDbLine
 10
-1.5240000000000005
 20
-0.7619999999999989
 30
0.0
 11
-1.5240000000000034
 21
-4.4196
 31
0.0
1001
DXF_PREDICTOR
1000
150ft_family
1040
0.9199390129842979
1000
line:10000075
  0
LINE
  5
CE
330
17
100
AcDbEntity
  8
PREDICTED_GEOMETRY_HIGH
100
AcDbLine
 10
-20.409033026338168
 20
-5.943599999999985
 30
0.0
 11
20.409014112305286
 21
-5.943600000000015
 31
0.0
1001
DXF_PREDICTOR
1000
150ft_family
1040
0.9199390129842979
1000
line:10000079
  0
LINE
  5
CF
330
17
100
AcDbEntity
  8
PREDICTED_GEOMETRY_HIGH
100
AcDbLine
 10
-12.801600000000004
 20
-4.419599999999992
 30
0.0
 11
-12.801600000000006
 21
-5.943599999999991
 31
0.0
1001
DXF_PREDICTOR
1000
150ft_family
1040
0.9199390129842979
1000
line:1000007D
  0
LINE
  5
D0
330
17
100
AcDbEntity
  8
PREDICTED_GEOMETRY_HIGH
100
AcDbLine
 10
20.1168
 20
-4.419600000000016
 30
0.0
 11
20.116799999999998
 21
-5.943600000000017
 31
0.0
1001
DXF_PREDICTOR
1000
150ft_family
1040
0.9199390129842979
1000
line:10000085
  0
LINE
  5
D1
330
17
100
AcDbEntity
  8
PREDICTED_GEOMETRY_HIGH
100
AcDbLine
 10
-1.8288000000000035
 20
-4.4196
 30
0.0
 11
-1.8288000000000044
 21
-5.943599999999999
 31
0.0
1001
DXF_PREDICTOR
1000
150ft_family
1040
0.9199390129842979
1000
line:10000089
  0
LINE
  5
D2
330
17
100
AcDbEntity
  8
PREDICTED_GEOMETRY_HIGH
100
AcDbLine
 10
16.459199999999996
 20
-4.419600000000014
 30
0.0
 11
16.459199999999996
 21
-5.943600000000014
 31
0.0
1001
DXF_PREDICTOR
1000
150ft_family
1040
0.9199390129842979
1000
line:1000008D
  0
LINE
  5
D3
330
17
100
AcDbEntity
  8
PREDICTED_GEOMETRY_HIGH
100
AcDbLine
 10
5.486399999999997
 20
-4.419600000000005
 30
0.0
 11
5.486399999999996
 21
-5.943600000000005
 31
0.0
1001
DXF_PREDICTOR
1000
150ft_family
1040
0.9199390129842979
1000
line:10000091
  0
LINE
  5
D4
330
17
100
AcDbEntity
  8
PREDICTED_GEOMETRY_HIGH
100
AcDbLine
 10
-5.486400000000003
 20
-4.419599999999996
 30
0.0
 11
-5.486400000000005
 21
-5.943599999999997
 31
0.0
1001
DXF_PREDICTOR
1000
150ft_family
1040
0.9199390129842979
1000
line:10000095
  0
LINE
  5
D5
330
17
100
AcDbEntity
  8
PREDICTED_GEOMETRY_HIGH
100
AcDbLine
 10
12.801599999999999
 20
-4.419600000000011
 30
0.0
 11
12.801599999999995
 21
-5.9436000000000115
 31
0.0
1001
DXF_PREDICTOR
1000
150ft_family
1040
0.9199390129842979
1000
line:10000099
  0
LINE
  5
D6
330
17
100
AcDbEntity
  8
PREDICTED_GEOMETRY_HIGH
100
AcDbLine
 10
-9.144000000000005
 20
-4.419599999999994
 30
0.0
 11
-9.144000000000007
 21
-5.943599999999995
 31
0.0
1001
DXF_PREDICTOR
1000
150ft_family
1040
0.9199390129842979
1000
line:1000009D
  0
LINE
  5
D7
330
17
100
AcDbEntity
  8
PREDICTED_GEOMETRY_HIGH
100
AcDbLine
 10
-16.459200000000003
 20
-4.419599999999988
 30
0.0
 11
-16.459200000000003
 21
-5.9435999999999884
 31
0.0
1001
DXF_PREDICTOR
1000
150ft_family
1040
0.9199390129842979
1000
line:100000A1
  0
LINE
  5
D8
330
17
100
AcDbEntity
  8
PREDICTED_GEOMETRY_HIGH
100
AcDbLine
 10
1.8287999999999964
 20
-4.419600000000003
 30
0.0
 11
1.8287999999999955
 21
-5.943600000000003
 31
0.0
1001
DXF_PREDICTOR
1000
150ft_family
1040
0.9199390129842979
1000
line:100000A5
  0
LINE
  5
D9
330
17
100
AcDbEntity
  8
PREDICTED_GEOMETRY_HIGH
100
AcDbLine
 10
-20.116800000000005
 20
-4.419599999999986
 30
0.0
 11
-20.11680000000001
 21
-5.943599999999986
 31
0.0
1001
DXF_PREDICTOR
1000
150ft_family
1040
0.9199390129842979
1000
line:100000A9
  0
LINE
  5
DA
330
17
100
AcDbEntity
  8
PREDICTED_GEOMETRY_HIGH
100
AcDbLine
 10
-12.801600000000008
 20
-9.601199999999992
 30
0.0
 11
-12.801600000000008
 21
-11.125199999999989
 31
0.0
1001
DXF_PREDICTOR
1000
150ft_family
1040
0.9199390129842979
1000
line:100000AD
  0
LINE
  5
DB
330
17
100
AcDbEntity
  8
PREDICTED_GEOMETRY_HIGH
100
AcDbLine
 10
9.143999999999998
 20
-4.419600000000008
 30
0.0
 11
9.143999999999997
 21
-5.943600000000008
 31
0.0
1001
DXF_PREDICTOR
1000
150ft_family
1040
0.9199390129842979
1000
line:100000B1
  0
LINE
  5
DC
330
17
100
AcDbEntity
  8
PREDICTED_GEOMETRY_HIGH
100
AcDbLine
 10
-20.1168
 20
0.7620000000000152
 30
0.0
 11
-20.1168
 21
-0.7619999999999848
 31
0.0
1001
DXF_PREDICTOR
1000
150ft_family
1040
0.9199390129842979
1000
line:100000B5
  0
LINE
  5
DD
330
17
100
AcDbEntity
  8
PREDICTED_GEOMETRY_HIGH
100
AcDbLine
 10
-16.4592
 20
0.7620000000000123
 30
0.0
 11
-16.4592
 21
-0.7619999999999877
 31
0.0
1001
DXF_PREDICTOR
1000
150ft_family
1040
0.9199390129842979
1000
line:100000B9
  0
LINE
  5
DE
330
17
100
AcDbEntity
  8
PREDICTED_GEOMETRY_HIGH
100
AcDbLine
 10
-3.7541091282237506e-16
 20
-0.762
 30
0.0
 11
-3.1373832943697766e-15
 21
-4.419600000000001
 31
0.0
1001
DXF_PREDICTOR
1000
150ft_family
1040
0.9199390129842979
1000
line:100000BD
  0
LINE
  5
DF
330
17
100
AcDbEntity
  8
PREDICTED_GEOMETRY_HIGH
100
AcDbLine
 10
-20.791533566771413
 20
-4.419599999999985
 30
0.0
 11
20.79333876728368
 21
-4.419600000000017
 31
0.0
1001
DXF_PREDICTOR
1000
150ft_family
1040
0.9199390129842979
1000
line:100000C1
  0
LINE
  5
E0
330
17
100
AcDbEntity
  8
PREDICTED_GEOMETRY_HIGH
100
AcDbLine
 10
1.5239999999999994
 20
-0.7620000000000011
 30
0.0
 11
1.5239999999999965
 21
-4.419600000000003
 31
0.0
1001
DXF_PREDICTOR
1000
150ft_family
1040
0.9199390129842979
1000
line:100000C5
  0
LINE
  5
E1
330
17
100
AcDbEntity
  8
PREDICTED_GEOMETRY_HIGH
100
AcDbLine
 10
3.047999999999999
 20
-0.7620000000000023
 30
0.0
 11
3.0479999999999965
 21
-4.4196000000000035
 31
0.0
1001
DXF_PREDICTOR
1000
150ft_family
1040
0.9199390129842979
1000
line:100000C9
  0
LINE
  5
E2
330
17
100
AcDbEntity
  8
PREDICTED_GEOMETRY_HIGH
100
AcDbLine
 10
4.571999999999999
 20
-0.7620000000000035
 30
0.0
 11
4.571999999999997
 21
-4.419600000000004
 31
0.0
1001
DXF_PREDICTOR
1000
150ft_family
1040
0.9199390129842979
1000
line:100000CD
  0
LINE
  5
E3
330
17
100
AcDbEntity
  8
PREDICTED_GEOMETRY_HIGH
100
AcDbLine
 10
6.096
 20
-0.7620000000000046
 30
0.0
 11
6.095999999999996
 21
-4.419600000000005
 31
0.0
1001
DXF_PREDICTOR
1000
150ft_family
1040
0.9199390129842979
1000
line:100000D1
  0
LINE
  5
E4
330
17
100
AcDbEntity
  8
PREDICTED_GEOMETRY_HIGH
100
AcDbLine
 10
7.620000000000001
 20
-0.7620000000000057
 30
0.0
 11
7.6199999999999966
 21
-4.419600000000007
 31
0.0
1001
DXF_PREDICTOR
1000
150ft_family
1040
0.9199390129842979
1000
line:100000D5
  0
LINE
  5
E5
330
17
100
AcDbEntity
  8
PREDICTED_GEOMETRY_HIGH
100
AcDbLine
 10
9.144
 20
-0.762000000000007
 30
0.0
 11
9.143999999999997
 21
-4.419600000000008
 31
0.0
1001
DXF_PREDICTOR
1000
150ft_family
1040
0.9199390129842979
1000
line:100000D9
  0
LINE
  5
E6
330
17
100
AcDbEntity
  8
PREDICTED_GEOMETRY_HIGH
100
AcDbLine
 10
-19.812
 20
-0.761999999999985
 30
0.0
 11
-19.812
 21
-4.419599999999986
 31
0.0
1001
DXF_PREDICTOR
1000
150ft_family
1040
0.9199390129842979
1000
line:100000DD
  0
LINE
  5
E7
330
17
100
AcDbEntity
  8
PREDICTED_GEOMETRY_HIGH
100
AcDbLine
 10
12.192
 20
-0.7620000000000092
 30
0.0
 11
12.191999999999997
 21
-4.419600000000011
 31
0.0
1001
DXF_PREDICTOR
1000
150ft_family
1040
0.9199390129842979
1000
line:100000E1
  0
LINE
  5
E8
330
17
100
AcDbEntity
  8
PREDICTED_GEOMETRY_HIGH
100
AcDbLine
 10
-4.571999999999992
 20
11.125200000000003
 30
0.0
 11
-4.5719999999999885
 21
14.782800000000003
 31
0.0
1001
DXF_PREDICTOR
1000
150ft_family
1040
0.9199390129842979
1000
line:100000E5
  0
LINE
  5
E9
330
17
100
AcDbEntity
  8
PREDICTED_GEOMETRY_HIGH
100
AcDbLine
 10
5.486400000000008
 20
9.601199999999999
 30
0.0
 11
5.486400000000009
 21
11.125199999999996
 31
0.0
1001
DXF_PREDICTOR
1000
150ft_family
1040
0.9199390129842979
1000
line:100000E9
  0
LINE
  5
EA
330
17
100
AcDbEntity
  8
PREDICTED_GEOMETRY_HIGH
100
AcDbLine
 10
-6.095999999999995
 20
5.943600000000006
 30
0.0
 11
-6.095999999999992
 21
9.601200000000008
 31
0.0
1001
DXF_PREDICTOR
1000
150ft_family
1040
0.9199390129842979
1000
line:100000ED
  0
LINE
  5
EB
330
17
100
AcDbEntity
  8
PREDICTED_GEOMETRY_HIGH
100
AcDbLine
 10
-16.763999999999992
 20
5.943600000000014
 30
0.0
 11
-16.763999999999992
 21
9.601200000000015
 31
0.0
1001
DXF_PREDICTOR
1000
150ft_family
1040
0.9199390129842979
1000
line:100000F1
  0
LINE
  5
EC
330
17
100
AcDbEntity
  8
PREDICTED_GEOMETRY_HIGH
100
AcDbLine
 10
-12.191999999999995
 20
5.94360000000001
 30
0.0
 11
-12.191999999999991
 21
9.601200000000011
 31
0.0
1001
DXF_PREDICTOR
1000
150ft_family
1040
0.9199390129842979
1000
line:100000F5
  0
LINE
  5
ED
330
17
100
AcDbEntity
  8
PREDICTED_GEOMETRY_HIGH
100
AcDbLine
 10
-1.5239999999999956
 20
5.943600000000003
 30
0.0
 11
-1.5239999999999927
 21
9.601200000000004
 31
0.0
1001
DXF_PREDICTOR
1000
150ft_family
1040
0.9199390129842979
1000
line:100000F9
  0
LINE
  5
EE
330
17
100
AcDbEntity
  8
PREDICTED_GEOMETRY_HIGH
100
AcDbLine
 10
-18.287999999999997
 20
5.943600000000015
 30
0.0
 11
-18.287999999999993
 21
9.601200000000016
 31
0.0
1001
DXF_PREDICTOR
1000
150ft_family
1040
0.9199390129842979
1000
line:100000FD
  0
LINE
  5
EF
330
17
100
AcDbEntity
  8
PREDICTED_GEOMETRY_HIGH
100
AcDbLine
 10
4.688205120014527e-15
 20
5.943600000000001
 30
0.0
 11
7.450177501561926e-15
 21
9.601200000000002
 31
0.0
1001
DXF_PREDICTOR
1000
150ft_family
1040
0.9199390129842979
1000
line:10000101
  0
LINE
  5
F0
330
17
100
AcDbEntity
  8
PREDICTED_GEOMETRY_HIGH
100
AcDbLine
 10
-13.715999999999994
 20
5.9436000000000115
 30
0.0
 11
-13.715999999999992
 21
9.601200000000013
 31
0.0
1001
DXF_PREDICTOR
1000
150ft_family
1040
0.9199390129842979
1000
line:10000105
  0
LINE
  5
F1
330
17
100
AcDbEntity
  8
PREDICTED_GEOMETRY_HIGH
100
AcDbLine
 10
1.5240000000000045
 20
5.9436
 30
0.0
 11
1.5240000000000071
 21
9.6012
 31
0.0
1001
DXF_PREDICTOR
1000
150ft_family
1040
0.9199390129842979
1000
line:10000109
  0
LINE
  5
F2
330
17
100
AcDbEntity
  8
PREDICTED_GEOMETRY_HIGH
100
AcDbLine
 10
-9.143999999999995
 20
5.943600000000008
 30
0.0
 11
-9.143999999999993
 21
9.601200000000008
 31
0.0
1001
DXF_PREDICTOR
1000
150ft_family
1040
0.9199390129842979
1000
line:1000010D
  0
LINE
  5
F3
330
17
100
AcDbEntity
  8
PREDICTED_GEOMETRY_HIGH
100
AcDbLine
 10
-10.667999999999994
 20
5.943600000000009
 30
0.0
 11
-10.66799999999999
 21
9.60120000000001
 31
0.0
1001
DXF_PREDICTOR
1000
150ft_family
1040
0.9199390129842979
1000
line:10000111
  0
LINE
  5
F4
330
17
100
AcDbEntity
  8
PREDICTED_GEOMETRY_HIGH
100
AcDbLine
 10
-7.619999999999996
 20
5.943600000000008
 30
0.0
 11
-7.619999999999993
 21
9.601200000000008
 31
0.0
1001
DXF_PREDICTOR
1000
150ft_family
1040
0.9199390129842979
1000
line:10000115
  0
LINE
  5
F5
330
17
100
AcDbEntity
  8
PREDICTED_GEOMETRY_HIGH
100
AcDbLine
 10
-20.406979706434566
 20
5.943600000000015
 30
0.0
 11
20.406980292380563
 21
5.943599999999985
 31
0.0
1001
DXF_PREDICTOR
1000
150ft_family
1040
0.9199390129842979
1000
line:10000119
  0
LINE
  5
F6
330
17
100
AcDbEntity
  8
PREDICTED_GEOMETRY_HIGH
100
AcDbLine
 10
18.287999999999997
 20
-5.943600000000015
 30
0.0
 11
18.287999999999993
 21
-9.601200000000016
 31
0.0
1001
DXF_PREDICTOR
1000
150ft_family
1040
0.9199390129842979
1000
line:1000011D
  0
LINE
  5
F7
330
17
100
AcDbEntity
  8
PREDICTED_GEOMETRY_HIGH
100
AcDbLine
 10
-4.571999999999996
 20
5.943600000000005
 30
0.0
 11
-4.571999999999993
 21
9.601200000000006
 31
0.0
1001
DXF_PREDICTOR
1000
150ft_family
1040
0.9199390129842979
1000
line:10000121
  0
LINE
  5
F8
330
17
100
AcDbEntity
  8
PREDICTED_GEOMETRY_HIGH
100
AcDbLine
 10
9.144000000000005
 20
5.943599999999995
 30
0.0
 11
9.144000000000007
 21
9.601199999999995
 31
0.0
1001
DXF_PREDICTOR
1000
150ft_family
1040
0.9199390129842979
1000
line:10000125
  0
LINE
  5
F9
330
17
100
AcDbEntity
  8
PREDICTED_GEOMETRY_HIGH
100
AcDbLine
 10
13.716000000000005
 20
5.943599999999991
 30
0.0
 11
13.716000000000006
 21
9.601199999999992
 31
0.0
1001
DXF_PREDICTOR
1000
150ft_family
1040
0.9199390129842979
1000
line:10000129
  0
LINE
  5
FA
330
17
100
AcDbEntity
  8
PREDICTED_GEOMETRY_HIGH
100
AcDbLine
 10
18.288000000000007
 20
5.943599999999988
 30
0.0
 11
18.288000000000007
 21
9.601199999999988
 31
0.0
1001
DXF_PREDICTOR
1000
150ft_family
1040
0.9199390129842979
1000
line:1000012D
  0
LINE
  5
FB
330
17
100
AcDbEntity
  8
PREDICTED_GEOMETRY_HIGH
100
AcDbLine
 10
16.764000000000003
 20
5.9435999999999884
 30
0.0
 11
16.764000000000006
 21
9.60119999999999
 31
0.0
1001
DXF_PREDICTOR
1000
150ft_family
1040
0.9199390129842979
1000
line:10000131
  0
LINE
  5
FC
330
17
100
AcDbEntity
  8
PREDICTED_GEOMETRY_HIGH
100
AcDbLine
 10
-15.239999999999997
 20
5.943600000000012
 30
0.0
 11
-15.239999999999993
 21
9.601200000000013
 31
0.0
1001
DXF_PREDICTOR
1000
150ft_family
1040
0.9199390129842979
1000
line:10000135
  0
LINE
  5
FD
330
17
100
AcDbEntity
  8
PREDICTED_GEOMETRY_HIGH
100
AcDbLine
 10
3.0480000000000045
 20
5.943599999999999
 30
0.0
 11
3.0480000000000067
 21
9.601199999999999
 31
0.0
1001
DXF_PREDICTOR
1000
150ft_family
1040
0.9199390129842979
1000
line:10000139
  0
LINE
  5
FE
330
17
100
AcDbEntity
  8
PREDICTED_GEOMETRY_HIGH
100
AcDbLine
 10
6.0960000000000045
 20
5.943599999999996
 30
0.0
 11
6.096000000000007
 21
9.601199999999997
 31
0.0
1001
DXF_PREDICTOR
1000
150ft_family
1040
0.9199390129842979
1000
line:1000013D
  0
LINE
  5
FF
330
17
100
AcDbEntity
  8
PREDICTED_GEOMETRY_HIGH
100
AcDbLine
 10
12.192000000000004
 20
5.943599999999992
 30
0.0
 11
12.192000000000007
 21
9.601199999999993
 31
0.0
1001
DXF_PREDICTOR
1000
150ft_family
1040
0.9199390129842979
1000
line:10000141
  0
LINE
  5
100
330
17
100
AcDbEntity
  8
PREDICTED_GEOMETRY_HIGH
100
AcDbLine
 10
10.668000000000005
 20
5.943599999999994
 30
0.0
 11
10.668000000000006
 21
9.601199999999995
 31
0.0
1001
DXF_PREDICTOR
1000
150ft_family
1040
0.9199390129842979
1000
line:10000145
  0
LINE
  5
101
330
17
100
AcDbEntity
  8
PREDICTED_GEOMETRY_HIGH
100
AcDbLine
 10
-21.241527935685923
 20
0.762000000000016
 30
0.0
 11
21.241071786105675
 21
0.7619999999999839
 31
0.0
1001
DXF_PREDICTOR
1000
150ft_family
1040
0.9199390129842979
1000
line:100001A9
  0
LINE
  5
102
330
17
100
AcDbEntity
  8
PREDICTED_GEOMETRY_HIGH
100
AcDbLine
 10
-5.4864
 20
0.7620000000000041
 30
0.0
 11
-5.486400000000001
 21
-0.7619999999999959
 31
0.0
1001
DXF_PREDICTOR
1000
150ft_family
1040
0.9199390129842979
1000
line:100001AD
  0
LINE
  5
103
330
17
100
AcDbEntity
  8
PREDICTED_GEOMETRY_HIGH
100
AcDbLine
 10
-9.144000000000002
 20
0.762000000000007
 30
0.0
 11
-9.144000000000002
 21
-0.761999999999993
 31
0.0
1001
DXF_PREDICTOR
1000
150ft_family
1040
0.9199390129842979
1000
line:100001B1
  0
LINE
  5
104
330
17
100
AcDbEntity
  8
PREDICTED_GEOMETRY_HIGH
100
AcDbLine
 10
-12.8016
 20
0.7620000000000097
 30
0.0
 11
-12.8016
 21
-0.7619999999999904
 31
0.0
1001
DXF_PREDICTOR
1000
150ft_family
1040
0.9199390129842979
1000
line:100001B5
  0
LINE
  5
105
330
17
100
AcDbEntity
  8
PREDICTED_GEOMETRY_HIGH
100
AcDbLine
 10
1.8287999999999993
 20
-0.7620000000000013
 30
0.0
 11
5.4864
 21
-0.7620000000000041
 31
0.0
1001
DXF_PREDICTOR
1000
150ft_family
1040
0.9199390129842979
1000
line:100001B9
  0
LINE
  5
106
330
17
100
AcDbEntity
  8
PREDICTED_GEOMETRY_HIGH
100
AcDbLine
 10
20.1168
 20
0.7619999999999847
 30
0.0
 11
20.1168
 21
-0.7620000000000153
 31
0.0
1001
DXF_PREDICTOR
1000
150ft_family
1040
0.9199390129842979
1000
line:100001BD
  0
LINE
  5
107
330
17
100
AcDbEntity
  8
PREDICTED_GEOMETRY_HIGH
100
AcDbLine
 10
16.4592
 20
0.7619999999999876
 30
0.0
 11
16.4592
 21
-0.7620000000000124
 31
0.0
1001
DXF_PREDICTOR
1000
150ft_family
1040
0.9199390129842979
1000
line:100001C1
  0
LINE
  5
108
330
17
100
AcDbEntity
  8
PREDICTED_GEOMETRY_HIGH
100
AcDbLine
 10
12.8016
 20
0.7619999999999902
 30
0.0
 11
12.8016
 21
-0.7620000000000098
 31
0.0
1001
DXF_PREDICTOR
1000
150ft_family
1040
0.9199390129842979
1000
line:100001C5
  0
LINE
  5
109
330
17
100
AcDbEntity
  8
PREDICTED_GEOMETRY_HIGH
100
AcDbLine
 10
9.144000000000002
 20
0.761999999999993
 30
0.0
 11
9.144000000000002
 21
-0.762000000000007
 31
0.0
1001
DXF_PREDICTOR
1000
150ft_family
1040
0.9199390129842979
1000
line:100001C9
  0
LINE
  5
10A
330
17
100
AcDbEntity
  8
PREDICTED_GEOMETRY_HIGH
100
AcDbLine
 10
5.486400000000001
 20
0.7619999999999958
 30
0.0
 11
5.4864
 21
-0.7620000000000042
 31
0.0
1001
DXF_PREDICTOR
1000
150ft_family
1040
0.9199390129842979
1000
line:100001CD
  0
LINE
  5
10B
330
17
100
AcDbEntity
  8
PREDICTED_GEOMETRY_HIGH
100
AcDbLine
 10
1.8288000000000006
 20
0.7619999999999986
 30
0.0
 11
1.8287999999999993
 21
-0.7620000000000015
 31
0.0
1001
DXF_PREDICTOR
1000
150ft_family
1040
0.9199390129842979
1000
line:100001D1
  0
LINE
  5
10C
330
17
100
AcDbEntity
  8
PREDICTED_GEOMETRY_HIGH
100
AcDbLine
 10
-21.242579366991954
 20
-0.7619999999999839
 30
0.0
 11
21.243945996817384
 21
-0.762000000000016
 31
0.0
1001
DXF_PREDICTOR
1000
150ft_family
1040
0.9199390129842979
1000
line:100001D5
  0
LINE
  5
10D
330
17
100
AcDbEntity
  8
PREDICTED_GEOMETRY_HIGH
100
AcDbLine
 10
-18.113725651392734
 20
-11.125199999999985
 30
0.0
 11
18.112558838470786
 21
-11.125200000000014
 31
0.0
1001
DXF_PREDICTOR
1000
150ft_family
1040
0.9199390129842979
1000
line:10000245
  0
LINE
  5
10E
330
17
100
AcDbEntity
  8
PREDICTED_GEOMETRY_HIGH
100
AcDbLine
 10
-1.828800000000011
 20
-14.782799999999998
 30
0.0
 11
-1.8288000000000124
 21
-16.306799999999996
 31
0.0
1001
DXF_PREDICTOR
1000
150ft_family
1040
0.9199390129842979
1000
line:10000249
  0
LINE
  5
10F
330
17
100
AcDbEntity
  8
PREDICTED_GEOMETRY_HIGH
100
AcDbLine
 10
9.14399999999999
 20
-14.782800000000009
 30
0.0
 11
9.14399999999999
 21
-16.306800000000006
 31
0.0
1001
DXF_PREDICTOR
1000
150ft_family
1040
0.9199390129842979
1000
line:1000024D
  0
LINE
  5
110
330
17
100
AcDbEntity
  8
PREDICTED_GEOMETRY_HIGH
100
AcDbLine
 10
-12.801600000000011
 20
-14.782799999999991
 30
0.0
 11
-12.801600000000013
 21
-16.30679999999999
 31
0.0
1001
DXF_PREDICTOR
1000
150ft_family
1040
0.9199390129842979
1000
line:10000251
  0
LINE
  5
111
330
17
100
AcDbEntity
  8
PREDICTED_GEOMETRY_HIGH
100
AcDbLine
 10
1.8287999999999927
 20
-9.601200000000004
 30
0.0
 11
1.8287999999999918
 21
-11.1252
 31
0.0
1001
DXF_PREDICTOR
1000
150ft_family
1040
0.9199390129842979
1000
line:10000255
  0
LINE
  5
112
330
17
100
AcDbEntity
  8
PREDICTED_GEOMETRY_HIGH
100
AcDbLine
 10
-16.459200000000006
 20
-9.60119999999999
 30
0.0
 11
-16.459200000000006
 21
-11.125199999999987
 31
0.0
1001
DXF_PREDICTOR
1000
150ft_family
1040
0.9199390129842979
1000
line:10000259
  0
LINE
  5
113
330
17
100
AcDbEntity
  8
PREDICTED_GEOMETRY_HIGH
100
AcDbLine
 10
-9.144000000000009
 20
-9.601199999999995
 30
0.0
 11
-9.14400000000001
 21
-11.125199999999992
 31
0.0
1001
DXF_PREDICTOR
1000
150ft_family
1040
0.9199390129842979
1000
line:1000025D
  0
LINE
  5
114
330
17
100
AcDbEntity
  8
PREDICTED_GEOMETRY_HIGH
100
AcDbLine
 10
12.801599999999993
 20
-9.601200000000013
 30
0.0
 11
12.801599999999993
 21
-11.125200000000008
 31
0.0
1001
DXF_PREDICTOR
1000
150ft_family
1040
0.9199390129842979
1000
line:10000261
  0
LINE
  5
115
330
17
100
AcDbEntity
  8
PREDICTED_GEOMETRY_HIGH
100
AcDbLine
 10
-5.486400000000008
 20
-9.601199999999999
 30
0.0
 11
-5.486400000000009
 21
-11.125199999999996
 31
0.0
1001
DXF_PREDICTOR
1000
150ft_family
1040
0.9199390129842979
1000
line:10000265
  0
LINE
  5
116
330
17
100
AcDbEntity
  8
PREDICTED_GEOMETRY_HIGH
100
AcDbLine
 10
5.4863999999999935
 20
-9.601200000000006
 30
0.0
 11
5.486399999999992
 21
-11.125200000000003
 31
0.0
1001
DXF_PREDICTOR
1000
150ft_family
1040
0.9199390129842979
1000
line:10000269
  0
LINE
  5
117
330
17
100
AcDbEntity
  8
PREDICTED_GEOMETRY_HIGH
100
AcDbLine
 10
16.459199999999992
 20
-9.601200000000015
 30
0.0
 11
16.459199999999992
 21
-11.125200000000012
 31
0.0
1001
DXF_PREDICTOR
1000
150ft_family
1040
0.9199390129842979
1000
line:1000026D
  0
LINE
  5
118
330
17
100
AcDbEntity
  8
PREDICTED_GEOMETRY_HIGH
100
AcDbLine
 10
-1.8288000000000073
 20
-9.6012
 30
0.0
 11
-1.8288000000000082
 21
-11.125199999999998
 31
0.0
1001
DXF_PREDICTOR
1000
150ft_family
1040
0.9199390129842979
1000
line:10000271
  0
LINE
  5
119
330
17
100
AcDbEntity
  8
PREDICTED_GEOMETRY_HIGH
100
AcDbLine
 10
-10.668000000000005
 20
-5.943599999999994
 30
0.0
 11
-10.668000000000006
 21
-9.601199999999995
 31
0.0
1001
DXF_PREDICTOR
1000
150ft_family
1040
0.9199390129842979
1000
line:10000275
  0
LINE
  5
11A
330
17
100
AcDbEntity
  8
PREDICTED_GEOMETRY_HIGH
100
AcDbLine
 10
6.095999999999995
 20
-5.943600000000006
 30
0.0
 11
6.095999999999992
 21
-9.601200000000008
 31
0.0
1001
DXF_PREDICTOR
1000
150ft_family
1040
0.9199390129842979
1000
line:10000279
  0
LINE
  5
11B
330
17
100
AcDbEntity
  8
PREDICTED_GEOMETRY_HIGH
100
AcDbLine
 10
-9.144000000000005
 20
-5.943599999999995
 30
0.0
 11
-9.144000000000007
 21
-9.601199999999995
 31
0.0
1001
DXF_PREDICTOR
1000
150ft_family
1040
0.9199390129842979
1000
line:1000027D
  0
LINE
  5
11C
330
17
100
AcDbEntity
  8
PREDICTED_GEOMETRY_HIGH
100
AcDbLine
 10
-4.5720000000000045
 20
-5.943599999999997
 30
0.0
 11
-4.572000000000007
 21
-9.601199999999999
 31
0.0
1001
DXF_PREDICTOR
1000
150ft_family
1040
0.9199390129842979
1000
line:10000281
  0
LINE
  5
11D
330
17
100
AcDbEntity
  8
PREDICTED_GEOMETRY_HIGH
100
AcDbLine
 10
-13.716000000000005
 20
-5.943599999999991
 30
0.0
 11
-13.716000000000006
 21
-9.601199999999992
 31
0.0
1001
DXF_PREDICTOR
1000
150ft_family
1040
0.9199390129842979
1000
line:10000285
  0
LINE
  5
11E
330
17
100
AcDbEntity
  8
PREDICTED_GEOMETRY_HIGH
100
AcDbLine
 10
-12.192000000000004
 20
-5.943599999999992
 30
0.0
 11
-12.192000000000007
 21
-9.601199999999993
 31
0.0
1001
DXF_PREDICTOR
1000
150ft_family
1040
0.9199390129842979
1000
line:10000289
  0
LINE
  5
11F
330
17
100
AcDbEntity
  8
PREDICTED_GEOMETRY_HIGH
100
AcDbLine
 10
-7.620000000000005
 20
-5.943599999999995
 30
0.0
 11
-7.620000000000008
 21
-9.601199999999995
 31
0.0
1001
DXF_PREDICTOR
1000
150ft_family
1040
0.9199390129842979
1000
line:1000028D
  0
LINE
  5
120
330
17
100
AcDbEntity
  8
PREDICTED_GEOMETRY_HIGH
100
AcDbLine
 10
12.191999999999995
 20
-5.94360000000001
 30
0.0
 11
12.191999999999991
 21
-9.601200000000011
 31
0.0
1001
DXF_PREDICTOR
1000
150ft_family
1040
0.9199390129842979
1000
line:10000291
  0
LINE
  5
121
330
17
100
AcDbEntity
  8
PREDICTED_GEOMETRY_HIGH
100
AcDbLine
 10
3.0479999999999956
 20
-5.9436000000000035
 30
0.0
 11
3.047999999999993
 21
-9.601200000000004
 31
0.0
1001
DXF_PREDICTOR
1000
150ft_family
1040
0.9199390129842979
1000
line:10000295
  0
LINE
  5
122
330
17
100
AcDbEntity
  8
PREDICTED_GEOMETRY_HIGH
100
AcDbLine
 10
-15.240000000000006
 20
-5.94359999999999
 30
0.0
 11
-15.240000000000009
 21
-9.60119999999999
 31
0.0
1001
DXF_PREDICTOR
1000
150ft_family
1040
0.9199390129842979
1000
line:10000299
  0
LINE
  5
123
330
17
100
AcDbEntity
  8
PREDICTED_GEOMETRY_HIGH
100
AcDbLine
 10
-7.294736412421774
 20
-19.964399999999998
 30
0.0
 11
7.295746718552443
 21
-19.964400000000005
 31
0.0
1001
DXF_PREDICTOR
1000
150ft_family
1040
0.9199390129842979
1000
line:1000029D
  0
LINE
  5
124
330
17
100
AcDbEntity
  8
PREDICTED_GEOMETRY_HIGH
100
AcDbLine
 10
13.634226883335947
 20
-16.30680000000001
 30
0.0
 11
-13.632647710653819
 21
-16.30679999999999
 31
0.0
1001
DXF_PREDICTOR
1000
150ft_family
1040
0.9199390129842979
1000
line:100002A1
  0
LINE
  5
125
330
17
100
AcDbEntity
  8
PREDICTED_GEOMETRY_HIGH
100
AcDbLine
 10
10.668
 20
-0.7620000000000081
 30
0.0
 11
10.667999999999996
 21
-4.41960000000001
 31
0.0
1001
DXF_PREDICTOR
1000
150ft_family
1040
0.9199390129842979
1000
line:100002A5
  0
LINE
  5
126
330
17
100
AcDbEntity
  8
PREDICTED_GEOMETRY_HIGH
100
AcDbLine
 10
-15.27308319957919
 20
-14.782799999999988
 30
0.0
 11
15.271861243193046
 21
-14.782800000000014
 31
0.0
1001
DXF_PREDICTOR
1000
150ft_family
1040
0.9199390129842979
1000
line:100002A9
  0
LINE
  5
127
330
17
100
AcDbEntity
  8
PREDICTED_GEOMETRY_HIGH
100
AcDbLine
 10
-3.0480000000000045
 20
-5.943599999999999
 30
0.0
 11
-3.0480000000000067
 21
-9.601199999999999
 31
0.0
1001
DXF_PREDICTOR
1000
150ft_family
1040
0.9199390129842979
1000
line:100002AD
  0
LINE
  5
128
330
17
100
AcDbEntity
  8
PREDICTED_GEOMETRY_HIGH
100
AcDbLine
 10
-6.0960000000000045
 20
-5.943599999999996
 30
0.0
 11
-6.096000000000007
 21
-9.601199999999997
 31
0.0
1001
DXF_PREDICTOR
1000
150ft_family
1040
0.9199390129842979
1000
line:100002B1
  0
LINE
  5
129
330
17
100
AcDbEntity
  8
PREDICTED_GEOMETRY_HIGH
100
AcDbLine
 10
13.715999999999994
 20
-5.9436000000000115
 30
0.0
 11
13.715999999999992
 21
-9.601200000000013
 31
0.0
1001
DXF_PREDICTOR
1000
150ft_family
1040
0.9199390129842979
1000
line:100002B5
  0
LINE
  5
12A
330
17
100
AcDbEntity
  8
PREDICTED_GEOMETRY_HIGH
100
AcDbLine
 10
7.619999999999996
 20
-5.943600000000008
 30
0.0
 11
7.619999999999993
 21
-9.601200000000008
 31
0.0
1001
DXF_PREDICTOR
1000
150ft_family
1040
0.9199390129842979
1000
line:100002B9
  0
LINE
  5
12B
330
17
100
AcDbEntity
  8
PREDICTED_GEOMETRY_HIGH
100
AcDbLine
 10
-16.764000000000003
 20
-5.9435999999999884
 30
0.0
 11
-16.764000000000006
 21
-9.60119999999999
 31
0.0
1001
DXF_PREDICTOR
1000
150ft_family
1040
0.9199390129842979
1000
line:100002BD
  0
LINE
  5
12C
330
17
100
AcDbEntity
  8
PREDICTED_GEOMETRY_HIGH
100
AcDbLine
 10
9.143999999999995
 20
-9.601200000000008
 30
0.0
 11
9.143999999999993
 21
-11.125200000000005
 31
0.0
1001
DXF_PREDICTOR
1000
150ft_family
1040
0.9199390129842979
1000
line:100002C1
  0
LINE
  5
12D
330
17
100
AcDbEntity
  8
PREDICTED_GEOMETRY_HIGH
100
AcDbLine
 10
4.571999999999996
 20
-5.943600000000005
 30
0.0
 11
4.571999999999993
 21
-9.601200000000006
 31
0.0
1001
DXF_PREDICTOR
1000
150ft_family
1040
0.9199390129842979
1000
line:100002C5
  0
LINE
  5
12E
330
17
100
AcDbEntity
  8
PREDICTED_GEOMETRY_HIGH
100
AcDbLine
 10
-19.812000000000005
 20
-5.943599999999986
 30
0.0
 11
-19.812000000000005
 21
-7.697600518190316
 31
0.0
1001
DXF_PREDICTOR
1000
150ft_family
1040
0.9199390129842979
1000
line:100002C9
  0
LINE
  5
12F
330
17
100
AcDbEntity
  8
PREDICTED_GEOMETRY_HIGH
100
AcDbLine
 10
1.5239999999999956
 20
-5.943600000000003
 30
0.0
 11
1.5239999999999927
 21
-9.601200000000004
 31
0.0
1001
DXF_PREDICTOR
1000
150ft_family
1040
0.9199390129842979
1000
line:100002CD
  0
LINE
  5
130
330
17
100
AcDbEntity
  8
PREDICTED_GEOMETRY_HIGH
100
AcDbLine
 10
19.811999999999994
 20
-5.943600000000017
 30
0.0
 11
19.811999999999994
 21
-7.69800073975016
 31
0.0
1001
DXF_PREDICTOR
1000
150ft_family
1040
0.9199390129842979
1000
line:100002D1
  0
LINE
  5
131
330
17
100
AcDbEntity
  8
PREDICTED_GEOMETRY_HIGH
100
AcDbLine
 10
-5.486400000000012
 20
-14.782799999999996
 30
0.0
 11
-5.486400000000012
 21
-16.306799999999992
 31
0.0
1001
DXF_PREDICTOR
1000
150ft_family
1040
0.9199390129842979
1000
line:100002D5
  0
LINE
  5
132
330
17
100
AcDbEntity
  8
PREDICTED_GEOMETRY_HIGH
100
AcDbLine
 10
12.80159999999999
 20
-14.78280000000001
 30
0.0
 11
12.801599999999988
 21
-16.30680000000001
 31
0.0
1001
DXF_PREDICTOR
1000
150ft_family
1040
0.9199390129842979
1000
line:100002D9
  0
LINE
  5
133
330
17
100
AcDbEntity
  8
PREDICTED_GEOMETRY_HIGH
100
AcDbLine
 10
-9.144000000000013
 20
-14.782799999999993
 30
0.0
 11
-9.144000000000014
 21
-16.306799999999992
 31
0.0
1001
DXF_PREDICTOR
1000
150ft_family
1040
0.9199390129842979
1000
line:100002DD
  0
LINE
  5
134
330
17
100
AcDbEntity
  8
PREDICTED_GEOMETRY_HIGH
100
AcDbLine
 10
1.8287999999999889
 20
-14.782800000000003
 30
0.0
 11
1.8287999999999875
 21
-16.3068
 31
0.0
1001
DXF_PREDICTOR
1000
150ft_family
1040
0.9199390129842979
1000
line:100002E1
  0
LINE
  5
135
330
17
100
AcDbEntity
  8
PREDICTED_GEOMETRY_HIGH
100
AcDbLine
 10
-1.8288000000000153
 20
-19.964399999999998
 30
0.0
 11
-1.8288000000000162
 21
-21.176056526313207
 31
0.0
1001
DXF_PREDICTOR
1000
150ft_family
1040
0.9199390129842979
1000
line:100002E5
  0
LINE
  5
136
330
17
100
AcDbEntity
  8
PREDICTED_GEOMETRY_HIGH
100
AcDbLine
 10
5.4863999999999855
 20
-19.964400000000005
 30
0.0
 11
5.486399999999985
 21
-20.534473471940178
 31
0.0
1001
DXF_PREDICTOR
1000
150ft_family
1040
0.9199390129842979
1000
line:100002E9
  0
LINE
  5
137
330
17
100
AcDbEntity
  8
PREDICTED_GEOMETRY_HIGH
100
AcDbLine
 10
-5.486400000000016
 20
-19.964399999999998
 30
0.0
 11
-5.486400000000017
 21
-20.53482879849735
 31
0.0
1001
DXF_PREDICTOR
1000
150ft_family
1040
0.9199390129842979
1000
line:100002ED
  0
LINE
  5
138
330
17
100
AcDbEntity
  8
PREDICTED_GEOMETRY_HIGH
100
AcDbLine
 10
1.8287999999999847
 20
-19.964400000000005
 30
0.0
 11
1.8287999999999838
 21
-21.17612171607877
 31
0.0
1001
DXF_PREDICTOR
1000
150ft_family
1040
0.9199390129842979
1000
line:100002F1
  0
LINE
  5
139
330
17
100
AcDbEntity
  8
PREDICTED_GEOMETRY_HIGH
100
AcDbLine
 10
-18.96258616625788
 20
-9.601199999999988
 30
0.0
 11
18.963210617924954
 21
-9.601200000000016
 31
0.0
1001
DXF_PREDICTOR
1000
150ft_family
1040
0.9199390129842979
1000
line:100002F9
  0
LINE
  5
13A
330
17
100
AcDbEntity
  8
PREDICTED_GEOMETRY_HIGH
100
AcDbLine
 10
5.486399999999989
 20
-14.782800000000005
 30
0.0
 11
5.486399999999988
 21
-16.306800000000003
 31
0.0
1001
DXF_PREDICTOR
1000
150ft_family
1040
0.9199390129842979
1000
line:100002FD
  0
LINE
  5
13B
330
17
100
AcDbEntity
  8
PREDICTED_GEOMETRY_HIGH
100
AcDbLine
 10
-1.8287999999999993
 20
0.7620000000000013
 30
0.0
 11
-1.8288000000000006
 21
-0.7619999999999987
 31
0.0
1001
DXF_PREDICTOR
1000
150ft_family
1040
0.9199390129842979
1000
line:10000329
  0
LINE
  5
13C
330
17
100
AcDbEntity
  8
PREDICTED_GEOMETRY_HIGH
100
AcDbLine
 10
-1.5239999999999916
 20
11.1252
 30
0.0
 11
-1.523999999999989
 21
14.782800000000002
 31
0.0
1001
DXF_PREDICTOR
1000
150ft_family
1040
0.9199390129842979
1000
line:1000037D
  0
LINE
  5
13D
330
17
100
AcDbEntity
  8
PREDICTED_GEOMETRY_HIGH
100
AcDbLine
 10
4.572000000000008
 20
11.125199999999996
 30
0.0
 11
4.572000000000012
 21
14.782799999999998
 31
0.0
1001
DXF_PREDICTOR
1000
150ft_family
1040
0.9199390129842979
1000
line:10000381
  0
LINE
  5
13E
330
17
100
AcDbEntity
  8
PREDICTED_GEOMETRY_HIGH
100
AcDbLine
 10
7.62000000000001
 20
11.125199999999992
 30
0.0
 11
7.620000000000012
 21
14.782799999999996
 31
0.0
1001
DXF_PREDICTOR
1000
150ft_family
1040
0.9199390129842979
1000
line:10000385
  0
LINE
  5
13F
330
17
100
AcDbEntity
  8
PREDICTED_GEOMETRY_HIGH
100
AcDbLine
 10
6.096000000000009
 20
11.125199999999994
 30
0.0
 11
6.096000000000011
 21
14.782799999999996
 31
0.0
1001
DXF_PREDICTOR
1000
150ft_family
1040
0.9199390129842979
1000
line:10000389
  0
LINE
  5
140
330
17
100
AcDbEntity
  8
PREDICTED_GEOMETRY_HIGH
100
AcDbLine
 10
9.143999999999995
 20
-5.943600000000008
 30
0.0
 11
9.143999999999993
 21
-9.601200000000008
 31
0.0
1001
DXF_PREDICTOR
1000
150ft_family
1040
0.9199390129842979
1000
line:1000038D
  0
LINE
  5
141
330
17
100
AcDbEntity
  8
PREDICTED_GEOMETRY_HIGH
100
AcDbLine
 10
10.667999999999994
 20
-5.943600000000009
 30
0.0
 11
10.66799999999999
 21
-9.60120000000001
 31
0.0
1001
DXF_PREDICTOR
1000
150ft_family
1040
0.9199390129842979
1000
line:10000391
  0
LINE
  5
142
330
17
100
AcDbEntity
  8
PREDICTED_GEOMETRY_HIGH
100
AcDbLine
 10
15.239999999999997
 20
-5.943600000000012
 30
0.0
 11
15.239999999999993
 21
-9.601200000000013
 31
0.0
1001
DXF_PREDICTOR
1000
150ft_family
1040
0.9199390129842979
1000
line:10000395
  0
LINE
  5
143
330
17
100
AcDbEntity
  8
PREDICTED_GEOMETRY_HIGH
100
AcDbLine
 10
-18.288000000000007
 20
-5.943599999999988
 30
0.0
 11
-18.288000000000007
 21
-9.601199999999988
 31
0.0
1001
DXF_PREDICTOR
1000
150ft_family
1040
0.9199390129842979
1000
line:10000399
  0
LINE
  5
144
330
17
100
AcDbEntity
  8
PREDICTED_GEOMETRY_HIGH
100
AcDbLine
 10
-4.2882051200145265e-15
 20
-5.943600000000001
 30
0.0
 11
-7.0501775015619274e-15
 21
-9.601200000000002
 31
0.0
1001
DXF_PREDICTOR
1000
150ft_family
1040
0.9199390129842979
1000
line:1000039D
  0
LINE
  5
145
330
17
100
AcDbEntity
  8
PREDICTED_GEOMETRY_HIGH
100
AcDbLine
 10
-15.240000000000009
 20
-11.125199999999987
 30
0.0
 11
-15.24000000000001
 21
-14.782799999999988
 31
0.0
1001
DXF_PREDICTOR
1000
150ft_family
1040
0.9199390129842979
1000
line:100003A1
  0
LINE
  5
146
330
17
100
AcDbEntity
  8
PREDICTED_GEOMETRY_HIGH
100
AcDbLine
 10
3.0479999999999916
 20
-11.125200000000001
 30
0.0
 11
3.0479999999999885
 21
-14.782800000000003
 31
0.0
1001
DXF_PREDICTOR
1000
150ft_family
1040
0.9199390129842979
1000
line:100003A5
  0
LINE
  5
147
330
17
100
AcDbEntity
  8
PREDICTED_GEOMETRY_HIGH
100
AcDbLine
 10
-3.048000000000008
 20
-11.125199999999996
 30
0.0
 11
-3.048000000000011
 21
-14.782799999999998
 31
0.0
1001
DXF_PREDICTOR
1000
150ft_family
1040
0.9199390129842979
1000
line:100003A9
  0
LINE
  5
148
330
17
100
AcDbEntity
  8
PREDICTED_GEOMETRY_HIGH
100
AcDbLine
 10
-6.096000000000009
 20
-11.125199999999994
 30
0.0
 11
-6.096000000000011
 21
-14.782799999999996
 31
0.0
1001
DXF_PREDICTOR
1000
150ft_family
1040
0.9199390129842979
1000
line:100003AD
  0
LINE
  5
149
330
17
100
AcDbEntity
  8
PREDICTED_GEOMETRY_HIGH
100
AcDbLine
 10
6.095999999999991
 20
-11.125200000000005
 30
0.0
 11
6.0959999999999885
 21
-14.782800000000005
 31
0.0
1001
DXF_PREDICTOR
1000
150ft_family
1040
0.9199390129842979
1000
line:100003B1
  0
LINE
  5
14A
330
17
100
AcDbEntity
  8
PREDICTED_GEOMETRY_HIGH
100
AcDbLine
 10
7.619999999999992
 20
-11.125200000000005
 30
0.0
 11
7.6199999999999894
 21
-14.782800000000005
 31
0.0
1001
DXF_PREDICTOR
1000
150ft_family
1040
0.9199390129842979
1000
line:100003B5
  0
LINE
  5
14B
330
17
100
AcDbEntity
  8
PREDICTED_GEOMETRY_HIGH
100
AcDbLine
 10
-16.764000000000006
 20
-11.125199999999987
 30
0.0
 11
-16.76400000000001
 21
-13.066346354791571
 31
0.0
1001
DXF_PREDICTOR
1000
150ft_family
1040
0.9199390129842979
1000
line:100003B9
  0
LINE
  5
14C
330
17
100
AcDbEntity
  8
PREDICTED_GEOMETRY_HIGH
100
AcDbLine
 10
-10.668000000000008
 20
-11.12519999999999
 30
0.0
 11
-10.66800000000001
 21
-14.782799999999993
 31
0.0
1001
DXF_PREDICTOR
1000
150ft_family
1040
0.9199390129842979
1000
line:100003BD
  0
LINE
  5
14D
330
17
100
AcDbEntity
  8
PREDICTED_GEOMETRY_HIGH
100
AcDbLine
 10
4.571999999999992
 20
-11.125200000000003
 30
0.0
 11
4.5719999999999885
 21
-14.782800000000003
 31
0.0
1001
DXF_PREDICTOR
1000
150ft_family
1040
0.9199390129842979
1000
line:100003C1
  0
LINE
  5
14E
330
17
100
AcDbEntity
  8
PREDICTED_GEOMETRY_HIGH
100
AcDbLine
 10
1.5239999999999916
 20
-11.1252
 30
0.0
 11
1.523999999999989
 21
-14.782800000000002
 31
0.0
1001
DXF_PREDICTOR
1000
150ft_family
1040
0.9199390129842979
1000
line:100003C5
  0
LINE
  5
14F
330
17
100
AcDbEntity
  8
PREDICTED_GEOMETRY_HIGH
100
AcDbLine
 10
12.191999999999991
 20
-11.125200000000008
 30
0.0
 11
12.19199999999999
 21
-14.78280000000001
 31
0.0
1001
DXF_PREDICTOR
1000
150ft_family
1040
0.9199390129842979
1000
line:100003C9
  0
LINE
  5
150
330
17
100
AcDbEntity
  8
PREDICTED_GEOMETRY_HIGH
100
AcDbLine
 10
-7.62000000000001
 20
-11.125199999999992
 30
0.0
 11
-7.620000000000012
 21
-14.782799999999996
 31
0.0
1001
DXF_PREDICTOR
1000
150ft_family
1040
0.9199390129842979
1000
line:100003CD
  0
LINE
  5
151
330
17
100
AcDbEntity
  8
PREDICTED_GEOMETRY_HIGH
100
AcDbLine
 10
-12.192000000000007
 20
-11.12519999999999
 30
0.0
 11
-12.192000000000009
 21
-14.782799999999991
 31
0.0
1001
DXF_PREDICTOR
1000
150ft_family
1040
0.9199390129842979
1000
line:100003D1
  0
LINE
  5
152
330
17
100
AcDbEntity
  8
PREDICTED_GEOMETRY_HIGH
100
AcDbLine
 10
-13.716000000000006
 20
-11.125199999999989
 30
0.0
 11
-13.71600000000001
 21
-14.782799999999991
 31
0.0
1001
DXF_PREDICTOR
1000
150ft_family
1040
0.9199390129842979
1000
line:100003D5
  0
LINE
  5
153
330
17
100
AcDbEntity
  8
PREDICTED_GEOMETRY_HIGH
100
AcDbLine
 10
-4.572000000000008
 20
-11.125199999999996
 30
0.0
 11
-4.572000000000012
 21
-14.782799999999998
 31
0.0
1001
DXF_PREDICTOR
1000
150ft_family
1040
0.9199390129842979
1000
line:100003D9
  0
LINE
  5
154
330
17
100
AcDbEntity
  8
PREDICTED_GEOMETRY_HIGH
100
AcDbLine
 10
-9.144000000000009
 20
-11.125199999999992
 30
0.0
 11
-9.144000000000013
 21
-14.782799999999993
 31
0.0
1001
DXF_PREDICTOR
1000
150ft_family
1040
0.9199390129842979
1000
line:100003DD
  0
LINE
  5
155
330
17
100
AcDbEntity
  8
PREDICTED_GEOMETRY_HIGH
100
AcDbLine
 10
13.715999999999992
 20
-11.125200000000008
 30
0.0
 11
13.715999999999989
 21
-14.78280000000001
 31
0.0
1001
DXF_PREDICTOR
1000
150ft_family
1040
0.9199390129842979
1000
line:100003E1
  0
LINE
  5
156
330
17
100
AcDbEntity
  8
PREDICTED_GEOMETRY_HIGH
100
AcDbLine
 10
3.048000000000012
 20
16.306799999999996
 30
0.0
 11
3.048000000000015
 21
19.964399999999998
 31
0.0
1001
DXF_PREDICTOR
1000
150ft_family
1040
0.9199390129842979
1000
line:100003E5
  0
LINE
  5
157
330
17
100
AcDbEntity
  8
PREDICTED_GEOMETRY_HIGH
100
AcDbLine
 10
-1.5239999999999876
 20
16.3068
 30
0.0
 11
-1.5239999999999847
 21
19.9644
 31
0.0
1001
DXF_PREDICTOR
1000
150ft_family
1040
0.9199390129842979
1000
line:100003E9
  0
LINE
  5
158
330
17
100
AcDbEntity
  8
PREDICTED_GEOMETRY_HIGH
100
AcDbLine
 10
12.801600000000011
 20
14.782799999999991
 30
0.0
 11
12.801600000000013
 21
16.30679999999999
 31
0.0
1001
DXF_PREDICTOR
1000
150ft_family
1040
0.9199390129842979
1000
line:100003ED
  0
LINE
  5
159
330
17
100
AcDbEntity
  8
PREDICTED_GEOMETRY_HIGH
100
AcDbLine
 10
9.144000000000013
 20
14.782799999999993
 30
0.0
 11
9.144000000000014
 21
16.306799999999992
 31
0.0
1001
DXF_PREDICTOR
1000
150ft_family
1040
0.9199390129842979
1000
line:100003F1
  0
LINE
  5
15A
330
17
100
AcDbEntity
  8
PREDICTED_GEOMETRY_HIGH
100
AcDbLine
 10
-9.14399999999999
 20
14.782800000000009
 30
0.0
 11
-9.14399999999999
 21
16.306800000000006
 31
0.0
1001
DXF_PREDICTOR
1000
150ft_family
1040
0.9199390129842979
1000
line:100003F5
  0
LINE
  5
15B
330
17
100
AcDbEntity
  8
PREDICTED_GEOMETRY_HIGH
100
AcDbLine
 10
-5.486399999999989
 20
14.782800000000005
 30
0.0
 11
-5.486399999999988
 21
16.306800000000003
 31
0.0
1001
DXF_PREDICTOR
1000
150ft_family
1040
0.9199390129842979
1000
line:100003F9
  0
LINE
  5
15C
330
17
100
AcDbEntity
  8
PREDICTED_GEOMETRY_HIGH
100
AcDbLine
 10
-12.80159999999999
 20
14.78280000000001
 30
0.0
 11
-12.801599999999988
 21
16.30680000000001
 31
0.0
1001
DXF_PREDICTOR
1000
150ft_family
1040
0.9199390129842979
1000
line:100003FD
  0
LINE
  5
15D
330
17
100
AcDbEntity
  8
PREDICTED_GEOMETRY_HIGH
100
AcDbLine
 10
1.828800000000011
 20
14.782799999999998
 30
0.0
 11
1.8288000000000124
 21
16.306799999999996
 31
0.0
1001
DXF_PREDICTOR
1000
150ft_family
1040
0.9199390129842979
1000
line:10000401
  0
LINE
  5
15E
330
17
100
AcDbEntity
  8
PREDICTED_GEOMETRY_HIGH
100
AcDbLine
 10
-1.8287999999999889
 20
14.782800000000003
 30
0.0
 11
-1.8287999999999875
 21
16.3068
 31
0.0
1001
DXF_PREDICTOR
1000
150ft_family
1040
0.9199390129842979
1000
line:10000405
  0
LINE
  5
15F
330
17
100
AcDbEntity
  8
PREDICTED_GEOMETRY_HIGH
100
AcDbLine
 10
5.486400000000012
 20
14.782799999999996
 30
0.0
 11
5.486400000000012
 21
16.306799999999992
 31
0.0
1001
DXF_PREDICTOR
1000
150ft_family
1040
0.9199390129842979
1000
line:10000409
  0
LINE
  5
160
330
17
100
AcDbEntity
  8
PREDICTED_GEOMETRY_HIGH
100
AcDbLine
 10
-1.2113793534398824e-14
 20
-16.3068
 30
0.0
 11
-1.4875765915946227e-14
 21
-19.9644
 31
0.0
1001
DXF_PREDICTOR
1000
150ft_family
1040
0.9199390129842979
1000
line:1000040D
  0
LINE
  5
161
330
17
100
AcDbEntity
  8
PREDICTED_GEOMETRY_HIGH
100
AcDbLine
 10
16.764000000000006
 20
11.125199999999987
 30
0.0
 11
16.76400000000001
 21
13.068194243838063
 31
0.0
1001
DXF_PREDICTOR
1000
150ft_family
1040
0.9199390129842979
1000
line:10000411
  0
LINE
  5
162
330
17
100
AcDbEntity
  8
PREDICTED_GEOMETRY_HIGH
100
AcDbLine
 10
-9.143999999999995
 20
9.601200000000008
 30
0.0
 11
-9.143999999999993
 21
11.125200000000005
 31
0.0
1001
DXF_PREDICTOR
1000
150ft_family
1040
0.9199390129842979
1000
line:10000415
  0
LINE
  5
163
330
17
100
AcDbEntity
  8
PREDICTED_GEOMETRY_HIGH
100
AcDbLine
 10
1.5240000000000082
 20
11.125199999999998
 30
0.0
 11
1.5240000000000111
 21
14.782800000000002
 31
0.0
1001
DXF_PREDICTOR
1000
150ft_family
1040
0.9199390129842979
1000
line:10000419
  0
LINE
  5
164
330
17
100
AcDbEntity
  8
PREDICTED_GEOMETRY_HIGH
100
AcDbLine
 10
9.144000000000009
 20
11.125199999999992
 30
0.0
 11
9.144000000000013
 21
14.782799999999993
 31
0.0
1001
DXF_PREDICTOR
1000
150ft_family
1040
0.9199390129842979
1000
line:1000041D
  0
LINE
  5
165
330
17
100
AcDbEntity
  8
PREDICTED_GEOMETRY_HIGH
100
AcDbLine
 10
9.144000000000009
 20
9.601199999999995
 30
0.0
 11
9.14400000000001
 21
11.125199999999992
 31
0.0
1001
DXF_PREDICTOR
1000
150ft_family
1040
0.9199390129842979
1000
line:10000421
  0
LINE
  5
166
330
17
100
AcDbEntity
  8
PREDICTED_GEOMETRY_HIGH
100
AcDbLine
 10
1.8288000000000073
 20
9.6012
 30
0.0
 11
1.8288000000000082
 21
11.125199999999998
 31
0.0
1001
DXF_PREDICTOR
1000
150ft_family
1040
0.9199390129842979
1000
line:10000425
  0
LINE
  5
167
330
17
100
AcDbEntity
  8
PREDICTED_GEOMETRY_HIGH
100
AcDbLine
 10
-9.143999999999991
 20
11.125200000000005
 30
0.0
 11
-9.14399999999999
 21
14.782800000000009
 31
0.0
1001
DXF_PREDICTOR
1000
150ft_family
1040
0.9199390129842979
1000
line:10000429
  0
LINE
  5
168
330
17
100
AcDbEntity
  8
PREDICTED_GEOMETRY_HIGH
100
AcDbLine
 10
-16.763999999999992
 20
11.125200000000012
 30
0.0
 11
-16.76399999999999
 21
13.072316573612389
 31
0.0
1001
DXF_PREDICTOR
1000
150ft_family
1040
0.9199390129842979
1000
line:1000042D
  0
LINE
  5
169
330
17
100
AcDbEntity
  8
PREDICTED_GEOMETRY_HIGH
100
AcDbLine
 10
-16.459199999999992
 20
9.601200000000015
 30
0.0
 11
-16.459199999999992
 21
11.125200000000012
 31
0.0
1001
DXF_PREDICTOR
1000
150ft_family
1040
0.9199390129842979
1000
line:10000431
  0
LINE
  5
16A
330
17
100
AcDbEntity
  8
PREDICTED_GEOMETRY_HIGH
100
AcDbLine
 10
4.5720000000000125
 20
16.306799999999996
 30
0.0
 11
4.572000000000015
 21
19.964399999999998
 31
0.0
1001
DXF_PREDICTOR
1000
150ft_family
1040
0.9199390129842979
1000
line:10000435
  0
LINE
  5
16B
330
17
100
AcDbEntity
  8
PREDICTED_GEOMETRY_HIGH
100
AcDbLine
 10
-3.0479999999999876
 20
16.3068
 30
0.0
 11
-3.0479999999999845
 21
19.964400000000005
 31
0.0
1001
DXF_PREDICTOR
1000
150ft_family
1040
0.9199390129842979
1000
line:10000439
  0
LINE
  5
16C
330
17
100
AcDbEntity
  8
PREDICTED_GEOMETRY_HIGH
100
AcDbLine
 10
7.620000000000013
 20
16.306799999999992
 30
0.0
 11
7.620000000000016
 21
19.842248553558353
 31
0.0
1001
DXF_PREDICTOR
1000
150ft_family
1040
0.9199390129842979
1000
line:1000043D
  0
LINE
  5
16D
330
17
100
AcDbEntity
  8
PREDICTED_GEOMETRY_HIGH
100
AcDbLine
 10
-9.143999999999988
 20
16.306800000000006
 30
0.0
 11
-9.143999999999986
 21
19.187232366260112
 31
0.0
1001
DXF_PREDICTOR
1000
150ft_family
1040
0.9199390129842979
1000
line:10000441
  0
LINE
  5
16E
330
17
100
AcDbEntity
  8
PREDICTED_GEOMETRY_HIGH
100
AcDbLine
 10
12.192000000000013
 20
16.30679999999999
 30
0.0
 11
12.192000000000013
 21
17.410234050635378
 31
0.0
1001
DXF_PREDICTOR
1000
150ft_family
1040
0.9199390129842979
1000
line:10000445
  0
LINE
  5
16F
330
17
100
AcDbEntity
  8
PREDICTED_GEOMETRY_HIGH
100
AcDbLine
 10
-12.191999999999986
 20
16.30680000000001
 30
0.0
 11
-12.191999999999986
 21
17.41122634364509
 31
0.0
1001
DXF_PREDICTOR
1000
150ft_family
1040
0.9199390129842979
1000
line:10000449
  0
LINE
  5
170
330
17
100
AcDbEntity
  8
PREDICTED_GEOMETRY_HIGH
100
AcDbLine
 10
10.668000000000012
 20
16.306799999999992
 30
0.0
 11
10.668000000000013
 21
18.385245109562707
 31
0.0
1001
DXF_PREDICTOR
1000
150ft_family
1040
0.9199390129842979
1000
line:1000044D
  0
LINE
  5
171
330
17
100
AcDbEntity
  8
PREDICTED_GEOMETRY_HIGH
100
AcDbLine
 10
-4.5719999999999885
 20
16.3068
 30
0.0
 11
-4.571999999999985
 21
19.964400000000005
 31
0.0
1001
DXF_PREDICTOR
1000
150ft_family
1040
0.9199390129842979
1000
line:10000451
  0
LINE
  5
172
330
17
100
AcDbEntity
  8
PREDICTED_GEOMETRY_HIGH
100
AcDbLine
 10
9.144000000000013
 20
16.306799999999992
 30
0.0
 11
9.144000000000014
 21
19.187861087082787
 31
0.0
1001
DXF_PREDICTOR
1000
150ft_family
1040
0.9199390129842979
1000
line:10000455
  0
LINE
  5
173
330
17
100
AcDbEntity
  8
PREDICTED_GEOMETRY_HIGH
100
AcDbLine
 10
1.5240000000000122
 20
16.3068
 30
0.0
 11
1.5240000000000151
 21
19.9644
 31
0.0
1001
DXF_PREDICTOR
1000
150ft_family
1040
0.9199390129842979
1000
line:10000459
  0
LINE
  5
174
330
17
100
AcDbEntity
  8
PREDICTED_GEOMETRY_HIGH
100
AcDbLine
 10
6.0960000000000125
 20
16.306799999999992
 30
0.0
 11
6.096000000000015
 21
19.964399999999998
 31
0.0
1001
DXF_PREDICTOR
1000
150ft_family
1040
0.9199390129842979
1000
line:1000045D
  0
LINE
  5
175
330
17
100
AcDbEntity
  8
PREDICTED_GEOMETRY_HIGH
100
AcDbLine
 10
-7.619999999999988
 20
16.306800000000003
 30
0.0
 11
-7.619999999999985
 21
19.841901431754273
 31
0.0
1001
DXF_PREDICTOR
1000
150ft_family
1040
0.9199390129842979
1000
line:10000461
  0
LINE
  5
176
330
17
100
AcDbEntity
  8
PREDICTED_GEOMETRY_HIGH
100
AcDbLine
 10
1.2513793534398826e-14
 20
16.3068
 30
0.0
 11
1.5275765915946228e-14
 21
19.9644
 31
0.0
1001
DXF_PREDICTOR
1000
150ft_family
1040
0.9199390129842979
1000
line:10000465
  0
LINE
  5
177
330
17
100
AcDbEntity
  8
PREDICTED_GEOMETRY_HIGH
100
AcDbLine
 10
-10.667999999999987
 20
16.306800000000006
 30
0.0
 11
-10.667999999999985
 21
18.38712903572426
 31
0.0
1001
DXF_PREDICTOR
1000
150ft_family
1040
0.9199390129842979
1000
line:10000469
  0
LINE
  5
178
330
17
100
AcDbEntity
  8
PREDICTED_GEOMETRY_HIGH
100
AcDbLine
 10
-6.095999999999987
 20
16.306800000000003
 30
0.0
 11
-6.095999999999984
 21
19.964400000000005
 31
0.0
1001
DXF_PREDICTOR
1000
150ft_family
1040
0.9199390129842979
1000
line:1000046D
  0
LINE
  5
179
330
17
100
AcDbEntity
  8
PREDICTED_GEOMETRY_HIGH
100
AcDbLine
 10
13.6341253742182
 20
16.30679999999999
 30
0.0
 11
-13.632647710653815
 21
16.30680000000001
 31
0.0
1001
DXF_PREDICTOR
1000
150ft_family
1040
0.9199390129842979
1000
line:10000471
  0
LINE
  5
17A
330
17
100
AcDbEntity
  8
PREDICTED_GEOMETRY_HIGH
100
AcDbLine
 10
-7.292709317825791
 20
19.964400000000005
 30
0.0
 11
7.295373178262625
 21
19.964399999999998
 31
0.0
1001
DXF_PREDICTOR
1000
150ft_family
1040
0.9199390129842979
1000
line:10000475
  0
LINE
  5
17B
330
17
100
AcDbEntity
  8
PREDICTED_GEOMETRY_HIGH
100
AcDbLine
 10
5.486400000000016
 20
19.964399999999998
 30
0.0
 11
5.486400000000017
 21
20.537204535831318
 31
0.0
1001
DXF_PREDICTOR
1000
150ft_family
1040
0.9199390129842979
1000
line:10000479
  0
LINE
  5
17C
330
17
100
AcDbEntity
  8
PREDICTED_GEOMETRY_HIGH
100
AcDbLine
 10
-1.8287999999999847
 20
19.964400000000005
 30
0.0
 11
-1.8287999999999838
 21
21.178158846840393
 31
0.0
1001
DXF_PREDICTOR
1000
150ft_family
1040
0.9199390129842979
1000
line:1000047D
  0
LINE
  5
17D
330
17
100
AcDbEntity
  8
PREDICTED_GEOMETRY_HIGH
100
AcDbLine
 10
-5.4863999999999855
 20
19.964400000000005
 30
0.0
 11
-5.486399999999985
 21
20.53615400416919
 31
0.0
1001
DXF_PREDICTOR
1000
150ft_family
1040
0.9199390129842979
1000
line:10000481
  0
LINE
  5
17E
330
17
100
AcDbEntity
  8
PREDICTED_GEOMETRY_HIGH
100
AcDbLine
 10
1.8288000000000153
 20
19.964399999999998
 30
0.0
 11
1.8288000000000162
 21
21.177958344743214
 31
0.0
1001
DXF_PREDICTOR
1000
150ft_family
1040
0.9199390129842979
1000
line:10000485
  0
LINE
  5
17F
330
17
100
AcDbEntity
  8
PREDICTED_GEOMETRY_HIGH
100
AcDbLine
 10
19.812000000000005
 20
5.943599999999986
 30
0.0
 11
19.812000000000005
 21
7.702452204005157
 31
0.0
1001
DXF_PREDICTOR
1000
150ft_family
1040
0.9199390129842979
1000
line:10000489
  0
LINE
  5
180
330
17
100
AcDbEntity
  8
PREDICTED_GEOMETRY_HIGH
100
AcDbLine
 10
-15.273365702435383
 20
14.782800000000014
 30
0.0
 11
15.274498157820855
 21
14.782799999999988
 31
0.0
1001
DXF_PREDICTOR
1000
150ft_family
1040
0.9199390129842979
1000
line:10000491
  0
LINE
  5
181
330
17
100
AcDbEntity
  8
PREDICTED_GEOMETRY_HIGH
100
AcDbLine
 10
16.459200000000006
 20
9.60119999999999
 30
0.0
 11
16.459200000000006
 21
11.125199999999987
 31
0.0
1001
DXF_PREDICTOR
1000
150ft_family
1040
0.9199390129842979
1000
line:10000495
  0
LINE
  5
182
330
17
100
AcDbEntity
  8
PREDICTED_GEOMETRY_HIGH
100
AcDbLine
 10
-5.4863999999999935
 20
9.601200000000006
 30
0.0
 11
-5.486399999999992
 21
11.125200000000003
 31
0.0
1001
DXF_PREDICTOR
1000
150ft_family
1040
0.9199390129842979
1000
line:10000499
  0
LINE
  5
183
330
17
100
AcDbEntity
  8
PREDICTED_GEOMETRY_HIGH
100
AcDbLine
 10
16.763999999999992
 20
-5.943600000000014
 30
0.0
 11
16.763999999999992
 21
-9.601200000000015
 31
0.0
1001
DXF_PREDICTOR
1000
150ft_family
1040
0.9199390129842979
1000
line:1000049D
  0
LINE
  5
184
330
17
100
AcDbEntity
  8
PREDICTED_GEOMETRY_HIGH
100
AcDbLine
 10
-1.5240000000000045
 20
-5.9436
 30
0.0
 11
-1.5240000000000071
 21
-9.6012
 31
0.0
1001
DXF_PREDICTOR
1000
150ft_family
1040
0.9199390129842979
1000
line:100004A1
  0
LINE
  5
185
330
17
100
AcDbEntity
  8
PREDICTED_GEOMETRY_HIGH
100
AcDbLine
 10
-10.668000000000012
 20
-16.306799999999992
 30
0.0
 11
-10.668000000000013
 21
-18.383600576488426
 31
0.0
1001
DXF_PREDICTOR
1000
150ft_family
1040
0.9199390129842979
1000
line:100004A5
  0
LINE
  5
186
330
17
100
AcDbEntity
  8
PREDICTED_GEOMETRY_HIGH
100
AcDbLine
 10
10.667999999999987
 20
-16.306800000000006
 30
0.0
 11
10.667999999999985
 21
-18.384215731837905
 31
0.0
1001
DXF_PREDICTOR
1000
150ft_family
1040
0.9199390129842979
1000
line:100004A9
  0
LINE
  5
187
330
17
100
AcDbEntity
  8
PREDICTED_GEOMETRY_HIGH
100
AcDbLine
 10
9.143999999999988
 20
-16.306800000000006
 30
0.0
 11
9.143999999999986
 21
-19.1887832740397
 31
0.0
1001
DXF_PREDICTOR
1000
150ft_family
1040
0.9199390129842979
1000
line:100004AD
  0
LINE
  5
188
330
17
100
AcDbEntity
  8
PREDICTED_GEOMETRY_HIGH
100
AcDbLine
 10
-1.5240000000000122
 20
-16.3068
 30
0.0
 11
-1.5240000000000151
 21
-19.9644
 31
0.0
1001
DXF_PREDICTOR
1000
150ft_family
1040
0.9199390129842979
1000
line:100004B1
  0
LINE
  5
189
330
17
100
AcDbEntity
  8
PREDICTED_GEOMETRY_HIGH
100
AcDbLine
 10
6.095999999999987
 20
-16.306800000000003
 30
0.0
 11
6.095999999999984
 21
-19.964400000000005
 31
0.0
1001
DXF_PREDICTOR
1000
150ft_family
1040
0.9199390129842979
1000
line:100004B5
  0
LINE
  5
18A
330
17
100
AcDbEntity
  8
PREDICTED_GEOMETRY_HIGH
100
AcDbLine
 10
-9.144000000000013
 20
-16.306799999999992
 30
0.0
 11
-9.144000000000014
 21
-19.19064002733235
 31
0.0
1001
DXF_PREDICTOR
1000
150ft_family
1040
0.9199390129842979
1000
line:100004B9
  0
LINE
  5
18B
330
17
100
AcDbEntity
  8
PREDICTED_GEOMETRY_HIGH
100
AcDbLine
 10
-4.5720000000000125
 20
-16.306799999999996
 30
0.0
 11
-4.572000000000015
 21
-19.964399999999998
 31
0.0
1001
DXF_PREDICTOR
1000
150ft_family
1040
0.9199390129842979
1000
line:100004BD
  0
LINE
  5
18C
330
17
100
AcDbEntity
  8
PREDICTED_GEOMETRY_HIGH
100
AcDbLine
 10
-12.192000000000013
 20
-16.30679999999999
 30
0.0
 11
-12.192000000000013
 21
-17.411632715890157
 31
0.0
1001
DXF_PREDICTOR
1000
150ft_family
1040
0.9199390129842979
1000
line:100004C1
  0
LINE
  5
18D
330
17
100
AcDbEntity
  8
PREDICTED_GEOMETRY_HIGH
100
AcDbLine
 10
-7.620000000000013
 20
-16.306799999999992
 30
0.0
 11
-7.620000000000016
 21
-19.844682097864144
 31
0.0
1001
DXF_PREDICTOR
1000
150ft_family
1040
0.9199390129842979
1000
line:100004C5
  0
LINE
  5
18E
330
17
100
AcDbEntity
  8
PREDICTED_GEOMETRY_HIGH
100
AcDbLine
 10
12.191999999999986
 20
-16.30680000000001
 30
0.0
 11
12.191999999999986
 21
-17.414658948812217
 31
0.0
1001
DXF_PREDICTOR
1000
150ft_family
1040
0.9199390129842979
1000
line:100004C9
  0
LINE
  5
18F
330
17
100
AcDbEntity
  8
PREDICTED_GEOMETRY_HIGH
100
AcDbLine
 10
1.5239999999999876
 20
-16.3068
 30
0.0
 11
1.5239999999999847
 21
-19.9644
 31
0.0
1001
DXF_PREDICTOR
1000
150ft_family
1040
0.9199390129842979
1000
line:100004CD
  0
LINE
  5
190
330
17
100
AcDbEntity
  8
PREDICTED_GEOMETRY_HIGH
100
AcDbLine
 10
4.5719999999999885
 20
-16.3068
 30
0.0
 11
4.571999999999985
 21
-19.964400000000005
 31
0.0
1001
DXF_PREDICTOR
1000
150ft_family
1040
0.9199390129842979
1000
line:100004D1
  0
LINE
  5
191
330
17
100
AcDbEntity
  8
PREDICTED_GEOMETRY_HIGH
100
AcDbLine
 10
-1.8287999999999927
 20
9.601200000000004
 30
0.0
 11
-1.8287999999999918
 21
11.1252
 31
0.0
1001
DXF_PREDICTOR
1000
150ft_family
1040
0.9199390129842979
1000
line:100004D5
  0
LINE
  5
192
330
17
100
AcDbEntity
  8
PREDICTED_GEOMETRY_HIGH
100
AcDbLine
 10
7.619999999999988
 20
-16.306800000000003
 30
0.0
 11
7.619999999999985
 21
-19.843663781120082
 31
0.0
1001
DXF_PREDICTOR
1000
150ft_family
1040
0.9199390129842979
1000
line:100004D9
  0
LINE
  5
193
330
17
100
AcDbEntity
  8
PREDICTED_GEOMETRY_HIGH
100
AcDbLine
 10
-6.0960000000000125
 20
-16.306799999999992
 30
0.0
 11
-6.096000000000015
 21
-19.964399999999998
 31
0.0
1001
DXF_PREDICTOR
1000
150ft_family
1040
0.9199390129842979
1000
line:100004DD
  0
LINE
  5
194
330
17
100
AcDbEntity
  8
PREDICTED_GEOMETRY_HIGH
100
AcDbLine
 10
-3.048000000000012
 20
-16.306799999999996
 30
0.0
 11
-3.048000000000015
 21
-19.964399999999998
 31
0.0
1001
DXF_PREDICTOR
1000
150ft_family
1040
0.9199390129842979
1000
line:100004E1
  0
LINE
  5
195
330
17
100
AcDbEntity
  8
PREDICTED_GEOMETRY_HIGH
100
AcDbLine
 10
3.0479999999999876
 20
-16.3068
 30
0.0
 11
3.0479999999999845
 21
-19.964400000000005
 31
0.0
1001
DXF_PREDICTOR
1000
150ft_family
1040
0.9199390129842979
1000
line:100004E5
  0
LINE
  5
196
330
17
100
AcDbEntity
  8
PREDICTED_GEOMETRY_HIGH
100
AcDbLine
 10
-8.200999327206676e-15
 20
-11.1252
 30
0.0
 11
-1.0962971708754076e-14
 21
-14.782800000000002
 31
0.0
1001
DXF_PREDICTOR
1000
150ft_family
1040
0.9199390129842979
1000
line:100004E9
  0
LINE
  5
197
330
17
100
AcDbEntity
  8
PREDICTED_GEOMETRY_HIGH
100
AcDbLine
 10
15.239999999999993
 20
-11.12520000000001
 30
0.0
 11
15.239999999999991
 21
-14.782800000000014
 31
0.0
1001
DXF_PREDICTOR
1000
150ft_family
1040
0.9199390129842979
1000
line:100004ED
  0
LINE
  5
198
330
17
100
AcDbEntity
  8
PREDICTED_GEOMETRY_HIGH
100
AcDbLine
 10
10.66799999999999
 20
-11.125200000000007
 30
0.0
 11
10.667999999999987
 21
-14.782800000000009
 31
0.0
1001
DXF_PREDICTOR
1000
150ft_family
1040
0.9199390129842979
1000
line:100004F1
  0
LINE
  5
199
330
17
100
AcDbEntity
  8
PREDICTED_GEOMETRY_HIGH
100
AcDbLine
 10
9.143999999999991
 20
-11.125200000000005
 30
0.0
 11
9.14399999999999
 21
-14.782800000000009
 31
0.0
1001
DXF_PREDICTOR
1000
150ft_family
1040
0.9199390129842979
1000
line:100004F5
  0
LINE
  5
19A
330
17
100
AcDbEntity
  8
PREDICTED_GEOMETRY_HIGH
100
AcDbLine
 10
16.763999999999992
 20
-11.125200000000012
 30
0.0
 11
16.76399999999999
 21
-13.067680087445456
 31
0.0
1001
DXF_PREDICTOR
1000
150ft_family
1040
0.9199390129842979
1000
line:100004F9
  0
LINE
  5
19B
330
17
100
AcDbEntity
  8
PREDICTED_GEOMETRY_HIGH
100
AcDbLine
 10
-1.5240000000000082
 20
-11.125199999999998
 30
0.0
 11
-1.5240000000000111
 21
-14.782800000000002
 31
0.0
1001
DXF_PREDICTOR
1000
150ft_family
1040
0.9199390129842979
1000
line:100004FD
  0
LINE
  5
19C
330
17
100
AcDbEntity
  8
PREDICTED_GEOMETRY_HIGH
100
AcDbLine
 10
-3.047999999999999
 20
0.7620000000000023
 30
0.0
 11
-3.0479999999999965
 21
4.4196000000000035
 31
0.0
1001
DXF_PREDICTOR
1000
150ft_family
1040
0.9199390129842979
1000
line:10000501
  0
LINE
  5
19D
330
17
100
AcDbEntity
  8
PREDICTED_GEOMETRY_HIGH
100
AcDbLine
 10
4.572000000000001
 20
0.7619999999999965
 30
0.0
 11
4.572000000000004
 21
4.419599999999998
 31
0.0
1001
DXF_PREDICTOR
1000
150ft_family
1040
0.9199390129842979
1000
line:10000505
  0
LINE
  5
19E
330
17
100
AcDbEntity
  8
PREDICTED_GEOMETRY_HIGH
100
AcDbLine
 10
-10.668
 20
0.7620000000000081
 30
0.0
 11
-10.667999999999996
 21
4.41960000000001
 31
0.0
1001
DXF_PREDICTOR
1000
150ft_family
1040
0.9199390129842979
1000
line:10000509
  0
LINE
  5
19F
330
17
100
AcDbEntity
  8
PREDICTED_GEOMETRY_HIGH
100
AcDbLine
 10
-13.716
 20
0.7620000000000103
 30
0.0
 11
-13.715999999999996
 21
4.4196000000000115
 31
0.0
1001
DXF_PREDICTOR
1000
150ft_family
1040
0.9199390129842979
1000
line:1000050D
  0
LINE
  5
1A0
330
17
100
AcDbEntity
  8
PREDICTED_GEOMETRY_HIGH
100
AcDbLine
 10
3.5373832943697764e-15
 20
4.419600000000001
 30
0.0
 11
1.5240000000000034
 21
4.4196
 31
0.0
1001
DXF_PREDICTOR
1000
150ft_family
1040
0.9199390129842979
1000
line:10000511
  0
LINE
  5
1A1
330
17
100
AcDbEntity
  8
PREDICTED_GEOMETRY_HIGH
100
AcDbLine
 10
-5.486399999999997
 20
4.419600000000005
 30
0.0
 11
-5.486399999999996
 21
5.943600000000005
 31
0.0
1001
DXF_PREDICTOR
1000
150ft_family
1040
0.9199390129842979
1000
line:10000515
  0
LINE
  5
1A2
330
17
100
AcDbEntity
  8
PREDICTED_GEOMETRY_HIGH
100
AcDbLine
 10
16.459200000000003
 20
4.419599999999988
 30
0.0
 11
16.459200000000003
 21
5.9435999999999884
 31
0.0
1001
DXF_PREDICTOR
1000
150ft_family
1040
0.9199390129842979
1000
line:10000519
  0
LINE
  5
1A3
330
17
100
AcDbEntity
  8
PREDICTED_GEOMETRY_HIGH
100
AcDbLine
 10
-12.801599999999999
 20
4.419600000000011
 30
0.0
 11
-12.801599999999995
 21
5.9436000000000115
 31
0.0
1001
DXF_PREDICTOR
1000
150ft_family
1040
0.9199390129842979
1000
line:1000051D
  0
LINE
  5
1A4
330
17
100
AcDbEntity
  8
PREDICTED_GEOMETRY_HIGH
100
AcDbLine
 10
-1.8287999999999964
 20
4.419600000000003
 30
0.0
 11
-1.8287999999999955
 21
5.943600000000001
 31
0.0
1001
DXF_PREDICTOR
1000
150ft_family
1040
0.9199390129842979
1000
line:10000521
  0
LINE
  5
1A5
330
17
100
AcDbEntity
  8
PREDICTED_GEOMETRY_HIGH
100
AcDbLine
 10
-1.5239999999999994
 20
0.7620000000000011
 30
0.0
 11
-1.5239999999999965
 21
4.419600000000003
 31
0.0
1001
DXF_PREDICTOR
1000
150ft_family
1040
0.9199390129842979
1000
line:10000525
  0
LINE
  5
1A6
330
17
100
AcDbEntity
  8
PREDICTED_GEOMETRY_HIGH
100
AcDbLine
 10
12.801600000000004
 20
4.419599999999992
 30
0.0
 11
12.801600000000006
 21
5.943599999999991
 31
0.0
1001
DXF_PREDICTOR
1000
150ft_family
1040
0.9199390129842979
1000
line:10000529
  0
LINE
  5
1A7
330
17
100
AcDbEntity
  8
PREDICTED_GEOMETRY_HIGH
100
AcDbLine
 10
9.144
 20
0.761999999999993
 30
0.0
 11
9.144000000000004
 21
4.419599999999994
 31
0.0
1001
DXF_PREDICTOR
1000
150ft_family
1040
0.9199390129842979
1000
line:1000052D
  0
LINE
  5
1A8
330
17
100
AcDbEntity
  8
PREDICTED_GEOMETRY_HIGH
100
AcDbLine
 10
9.144000000000005
 20
4.419599999999994
 30
0.0
 11
9.144000000000007
 21
5.943599999999995
 31
0.0
1001
DXF_PREDICTOR
1000
150ft_family
1040
0.9199390129842979
1000
line:10000531
  0
LINE
  5
1A9
330
17
100
AcDbEntity
  8
PREDICTED_GEOMETRY_HIGH
100
AcDbLine
 10
20.116800000000005
 20
4.419599999999986
 30
0.0
 11
20.11680000000001
 21
5.943599999999986
 31
0.0
1001
DXF_PREDICTOR
1000
150ft_family
1040
0.9199390129842979
1000
line:10000535
  0
LINE
  5
1AA
330
17
100
AcDbEntity
  8
PREDICTED_GEOMETRY_HIGH
100
AcDbLine
 10
-9.143999999999998
 20
4.419600000000008
 30
0.0
 11
-9.143999999999997
 21
5.943600000000008
 31
0.0
1001
DXF_PREDICTOR
1000
150ft_family
1040
0.9199390129842979
1000
line:10000539
  0
LINE
  5
1AB
330
17
100
AcDbEntity
  8
PREDICTED_GEOMETRY_HIGH
100
AcDbLine
 10
5.486400000000003
 20
4.419599999999996
 30
0.0
 11
5.486400000000005
 21
5.943599999999997
 31
0.0
1001
DXF_PREDICTOR
1000
150ft_family
1040
0.9199390129842979
1000
line:1000053D
  0
LINE
  5
1AC
330
17
100
AcDbEntity
  8
PREDICTED_GEOMETRY_HIGH
100
AcDbLine
 10
-16.459199999999996
 20
4.419600000000014
 30
0.0
 11
-16.459199999999996
 21
5.943600000000014
 31
0.0
1001
DXF_PREDICTOR
1000
150ft_family
1040
0.9199390129842979
1000
line:10000541
  0
LINE
  5
1AD
330
17
100
AcDbEntity
  8
PREDICTED_GEOMETRY_HIGH
100
AcDbLine
 10
1.8288000000000035
 20
4.4196
 30
0.0
 11
1.8288000000000044
 21
5.9436
 31
0.0
1001
DXF_PREDICTOR
1000
150ft_family
1040
0.9199390129842979
1000
line:10000545
  0
LINE
  5
1AE
330
17
100
AcDbEntity
  8
PREDICTED_GEOMETRY_HIGH
100
AcDbLine
 10
-20.1168
 20
4.419600000000016
 30
0.0
 11
-20.116799999999998
 21
5.943600000000017
 31
0.0
1001
DXF_PREDICTOR
1000
150ft_family
1040
0.9199390129842979
1000
line:10000549
  0
LINE
  5
1AF
330
17
100
AcDbEntity
  8
PREDICTED_GEOMETRY_HIGH
100
AcDbLine
 10
-3.0479999999999956
 20
5.9436000000000035
 30
0.0
 11
-3.047999999999993
 21
9.601200000000004
 31
0.0
1001
DXF_PREDICTOR
1000
150ft_family
1040
0.9199390129842979
1000
line:10000551
  0
LINE
  5
1B0
330
17
100
AcDbEntity
  8
PREDICTED_GEOMETRY_HIGH
100
AcDbLine
 10
7.620000000000005
 20
5.943599999999995
 30
0.0
 11
7.620000000000008
 21
9.601199999999995
 31
0.0
1001
DXF_PREDICTOR
1000
150ft_family
1040
0.9199390129842979
1000
line:10000555
  0
LINE
  5
1B1
330
17
100
AcDbEntity
  8
PREDICTED_GEOMETRY_HIGH
100
AcDbLine
 10
19.812
 20
0.761999999999985
 30
0.0
 11
19.812
 21
4.419599999999986
 31
0.0
1001
DXF_PREDICTOR
1000
150ft_family
1040
0.9199390129842979
1000
line:10000559
  0
LINE
  5
1B2
330
17
100
AcDbEntity
  8
PREDICTED_GEOMETRY_HIGH
100
AcDbLine
 10
7.754109128223751e-16
 20
0.762
 30
0.0
 11
3.5373832943697764e-15
 21
4.419600000000001
 31
0.0
1001
DXF_PREDICTOR
1000
150ft_family
1040
0.9199390129842979
1000
line:1000055D
  0
LINE
  5
1B3
330
17
100
AcDbEntity
  8
PREDICTED_GEOMETRY_HIGH
100
AcDbLine
 10
15.240000000000002
 20
0.7619999999999884
 30
0.0
 11
15.240000000000004
 21
4.419599999999989
 31
0.0
1001
DXF_PREDICTOR
1000
150ft_family
1040
0.9199390129842979
1000
line:10000561
  0
LINE
  5
1B4
330
17
100
AcDbEntity
  8
PREDICTED_GEOMETRY_HIGH
100
AcDbLine
 10
16.764
 20
0.7619999999999872
 30
0.0
 11
16.764
 21
4.419599999999988
 31
0.0
1001
DXF_PREDICTOR
1000
150ft_family
1040
0.9199390129842979
1000
line:10000565
  0
LINE
  5
1B5
330
17
100
AcDbEntity
  8
PREDICTED_GEOMETRY_HIGH
100
AcDbLine
 10
-20.790736833322256
 20
4.419600000000017
 30
0.0
 11
20.790131106041883
 21
4.419599999999985
 31
0.0
1001
DXF_PREDICTOR
1000
150ft_family
1040
0.9199390129842979
1000
line:10000569
  0
LINE
  5
1B6
330
17
100
AcDbEntity
  8
PREDICTED_GEOMETRY_HIGH
100
AcDbLine
 10
1.5240000000000005
 20
0.7619999999999989
 30
0.0
 11
1.5240000000000034
 21
4.4196
 31
0.0
1001
DXF_PREDICTOR
1000
150ft_family
1040
0.9199390129842979
1000
line:1000056D
  0
LINE
  5
1B7
330
17
100
AcDbEntity
  8
PREDICTED_GEOMETRY_HIGH
100
AcDbLine
 10
12.192
 20
0.7619999999999908
 30
0.0
 11
12.192000000000002
 21
4.419599999999992
 31
0.0
1001
DXF_PREDICTOR
1000
150ft_family
1040
0.9199390129842979
1000
line:10000571
  0
LINE
  5
1B8
330
17
100
AcDbEntity
  8
PREDICTED_GEOMETRY_HIGH
100
AcDbLine
 10
-12.192
 20
0.7620000000000092
 30
0.0
 11
-12.191999999999997
 21
4.419600000000011
 31
0.0
1001
DXF_PREDICTOR
1000
150ft_family
1040
0.9199390129842979
1000
line:10000575
  0
LINE
  5
1B9
330
17
100
AcDbEntity
  8
PREDICTED_GEOMETRY_HIGH
100
AcDbLine
 10
6.096
 20
0.7619999999999953
 30
0.0
 11
6.096000000000004
 21
4.419599999999996
 31
0.0
1001
DXF_PREDICTOR
1000
150ft_family
1040
0.9199390129842979
1000
line:10000579
  0
LINE
  5
1BA
330
17
100
AcDbEntity
  8
PREDICTED_GEOMETRY_HIGH
100
AcDbLine
 10
-16.764
 20
0.7620000000000127
 30
0.0
 11
-16.763999999999996
 21
4.419600000000014
 31
0.0
1001
DXF_PREDICTOR
1000
150ft_family
1040
0.9199390129842979
1000
line:1000057D
  0
LINE
  5
1BB
330
17
100
AcDbEntity
  8
PREDICTED_GEOMETRY_HIGH
100
AcDbLine
 10
-19.812
 20
0.7620000000000149
 30
0.0
 11
-19.811999999999998
 21
4.419600000000016
 31
0.0
1001
DXF_PREDICTOR
1000
150ft_family
1040
0.9199390129842979
1000
line:10000581
  0
LINE
  5
1BC
330
17
100
AcDbEntity
  8
PREDICTED_GEOMETRY_HIGH
100
AcDbLine
 10
-6.096
 20
0.7620000000000046
 30
0.0
 11
-6.095999999999996
 21
4.419600000000005
 31
0.0
1001
DXF_PREDICTOR
1000
150ft_family
1040
0.9199390129842979
1000
line:10000585
  0
LINE
  5
1BD
330
17
100
AcDbEntity
  8
PREDICTED_GEOMETRY_HIGH
100
AcDbLine
 10
15.240000000000006
 20
5.94359999999999
 30
0.0
 11
15.240000000000009
 21
9.60119999999999
 31
0.0
1001
DXF_PREDICTOR
1000
150ft_family
1040
0.9199390129842979
1000
line:10000589
  0
LINE
  5
1BE
330
17
100
AcDbEntity
  8
PREDICTED_GEOMETRY_HIGH
100
AcDbLine
 10
13.716
 20
0.7619999999999897
 30
0.0
 11
13.716000000000001
 21
4.419599999999991
 31
0.0
1001
DXF_PREDICTOR
1000
150ft_family
1040
0.9199390129842979
1000
line:1000058D
  0
LINE
  5
1BF
330
17
100
AcDbEntity
  8
PREDICTED_GEOMETRY_HIGH
100
AcDbLine
 10
18.288
 20
0.7619999999999861
 30
0.0
 11
18.288000000000004
 21
4.4195999999999875
 31
0.0
1001
DXF_PREDICTOR
1000
150ft_family
1040
0.9199390129842979
1000
line:10000591
  0
LINE
  5
1C0
330
17
100
AcDbEntity
  8
PREDICTED_GEOMETRY_HIGH
100
AcDbLine
 10
-4.571999999999999
 20
0.7620000000000035
 30
0.0
 11
-4.571999999999997
 21
4.419600000000004
 31
0.0
1001
DXF_PREDICTOR
1000
150ft_family
1040
0.9199390129842979
1000
line:10000595
  0
LINE
  5
1C1
330
17
100
AcDbEntity
  8
PREDICTED_GEOMETRY_HIGH
100
AcDbLine
 10
-7.620000000000001
 20
0.7620000000000057
 30
0.0
 11
-7.6199999999999966
 21
4.419600000000007
 31
0.0
1001
DXF_PREDICTOR
1000
150ft_family
1040
0.9199390129842979
1000
line:10000599
  0
LINE
  5
1C2
330
17
100
AcDbEntity
  8
PREDICTED_GEOMETRY_HIGH
100
AcDbLine
 10
3.0480000000000005
 20
0.7619999999999976
 30
0.0
 11
3.048000000000003
 21
4.419599999999998
 31
0.0
1001
DXF_PREDICTOR
1000
150ft_family
1040
0.9199390129842979
1000
line:1000059D
  0
LINE
  5
1C3
330
17
100
AcDbEntity
  8
PREDICTED_GEOMETRY_HIGH
100
AcDbLine
 10
7.620000000000001
 20
0.7619999999999942
 30
0.0
 11
7.6200000000000045
 21
4.4195999999999955
 31
0.0
1001
DXF_PREDICTOR
1000
150ft_family
1040
0.9199390129842979
1000
line:100005A1
  0
LINE
  5
1C4
330
17
100
AcDbEntity
  8
PREDICTED_GEOMETRY_HIGH
100
AcDbLine
 10
-18.288
 20
0.7620000000000138
 30
0.0
 11
-18.287999999999997
 21
4.419600000000015
 31
0.0
1001
DXF_PREDICTOR
1000
150ft_family
1040
0.9199390129842979
1000
line:100005A5
  0
LINE
  5
1C5
330
17
100
AcDbEntity
  8
PREDICTED_GEOMETRY_HIGH
100
AcDbLine
 10
-15.240000000000002
 20
0.7620000000000116
 30
0.0
 11
-15.239999999999998
 21
4.419600000000012
 31
0.0
1001
DXF_PREDICTOR
1000
150ft_family
1040
0.9199390129842979
1000
line:100005A9
  0
LINE
  5
1C6
330
17
100
AcDbEntity
  8
PREDICTED_GEOMETRY_HIGH
100
AcDbLine
 10
-9.144
 20
0.762000000000007
 30
0.0
 11
-9.143999999999997
 21
4.419600000000008
 31
0.0
1001
DXF_PREDICTOR
1000
150ft_family
1040
0.9199390129842979
1000
line:100005AD
  0
LINE
  5
1C7
330
17
100
AcDbEntity
  8
PREDICTED_GEOMETRY_HIGH
100
AcDbLine
 10
10.668
 20
0.7619999999999919
 30
0.0
 11
10.668000000000003
 21
4.419599999999993
 31
0.0
1001
DXF_PREDICTOR
1000
150ft_family
1040
0.9199390129842979
1000
line:100005B1
  0
LINE
  5
1C8
330
17
100
AcDbEntity
  8
PREDICTED_GEOMETRY_HIGH
100
AcDbLine
 10
10.668000000000008
 20
11.12519999999999
 30
0.0
 11
10.66800000000001
 21
14.782799999999993
 31
0.0
1001
DXF_PREDICTOR
1000
150ft_family
1040
0.9199390129842979
1000
line:100005B5
  0
LINE
  5
1C9
330
17
100
AcDbEntity
  8
PREDICTED_GEOMETRY_HIGH
100
AcDbLine
 10
-18.11064516510644
 20
11.125200000000014
 30
0.0
 11
18.11102040128498
 21
11.125199999999985
 31
0.0
1001
DXF_PREDICTOR
1000
150ft_family
1040
0.9199390129842979
1000
line:100005B9
  0
LINE
  5
1CA
330
17
100
AcDbEntity
  8
PREDICTED_GEOMETRY_HIGH
100
AcDbLine
 10
-18.9660094621162
 20
9.601200000000016
 30
0.0
 11
18.964167739342844
 21
9.601199999999988
 31
0.0
1001
DXF_PREDICTOR
1000
150ft_family
1040
0.9199390129842979
1000
line:100005BD
  0
LINE
  5
1CB
330
17
100
AcDbEntity
  8
PREDICTED_GEOMETRY_HIGH
100
AcDbLine
 10
-12.801599999999993
 20
9.601200000000013
 30
0.0
 11
-12.801599999999993
 21
11.125200000000008
 31
0.0
1001
DXF_PREDICTOR
1000
150ft_family
1040
0.9199390129842979
1000
line:100005C1
  0
LINE
  5
1CC
330
17
100
AcDbEntity
  8
PREDICTED_GEOMETRY_HIGH
100
AcDbLine
 10
-13.715999999999992
 20
11.125200000000008
 30
0.0
 11
-13.715999999999989
 21
14.78280000000001
 31
0.0
1001
DXF_PREDICTOR
1000
150ft_family
1040
0.9199390129842979
1000
line:100005C5
  0
LINE
  5
1CD
330
17
100
AcDbEntity
  8
PREDICTED_GEOMETRY_HIGH
100
AcDbLine
 10
15.240000000000009
 20
11.125199999999987
 30
0.0
 11
15.24000000000001
 21
14.782799999999988
 31
0.0
1001
DXF_PREDICTOR
1000
150ft_family
1040
0.9199390129842979
1000
line:100005C9
  0
LINE
  5
1CE
330
17
100
AcDbEntity
  8
PREDICTED_GEOMETRY_HIGH
100
AcDbLine
 10
-3.0479999999999916
 20
11.125200000000001
 30
0.0
 11
-3.0479999999999885
 21
14.782800000000003
 31
0.0
1001
DXF_PREDICTOR
1000
150ft_family
1040
0.9199390129842979
1000
line:100005CD
  0
LINE
  5
1CF
330
17
100
AcDbEntity
  8
PREDICTED_GEOMETRY_HIGH
100
AcDbLine
 10
-6.095999999999991
 20
11.125200000000005
 30
0.0
 11
-6.0959999999999885
 21
14.782800000000005
 31
0.0
1001
DXF_PREDICTOR
1000
150ft_family
1040
0.9199390129842979
1000
line:100005D1
  0
LINE
  5
1D0
330
17
100
AcDbEntity
  8
PREDICTED_GEOMETRY_HIGH
100
AcDbLine
 10
13.716000000000006
 20
11.125199999999989
 30
0.0
 11
13.71600000000001
 21
14.782799999999991
 31
0.0
1001
DXF_PREDICTOR
1000
150ft_family
1040
0.9199390129842979
1000
line:100005D5
  0
LINE
  5
1D1
330
17
100
AcDbEntity
  8
PREDICTED_GEOMETRY_HIGH
100
AcDbLine
 10
-12.191999999999991
 20
11.125200000000008
 30
0.0
 11
-12.19199999999999
 21
14.78280000000001
 31
0.0
1001
DXF_PREDICTOR
1000
150ft_family
1040
0.9199390129842979
1000
line:100005D9
  0
LINE
  5
1D2
330
17
100
AcDbEntity
  8
PREDICTED_GEOMETRY_HIGH
100
AcDbLine
 10
-10.66799999999999
 20
11.125200000000007
 30
0.0
 11
-10.667999999999987
 21
14.782800000000009
 31
0.0
1001
DXF_PREDICTOR
1000
150ft_family
1040
0.9199390129842979
1000
line:100005DD
  0
LINE
  5
1D3
330
17
100
AcDbEntity
  8
PREDICTED_GEOMETRY_HIGH
100
AcDbLine
 10
-7.619999999999992
 20
11.125200000000005
 30
0.0
 11
-7.6199999999999894
 21
14.782800000000005
 31
0.0
1001
DXF_PREDICTOR
1000
150ft_family
1040
0.9199390129842979
1000
line:100005E1
  0
LINE
  5
1D4
330
17
100
AcDbEntity
  8
PREDICTED_GEOMETRY_HIGH
100
AcDbLine
 10
4.5720000000000045
 20
5.943599999999997
 30
0.0
 11
4.572000000000007
 21
9.601199999999999
 31
0.0
1001
DXF_PREDICTOR
1000
150ft_family
1040
0.9199390129842979
1000
line:100005E5
  0
LINE
  5
1D5
330
17
100
AcDbEntity
  8
PREDICTED_GEOMETRY_HIGH
100
AcDbLine
 10
3.048000000000008
 20
11.125199999999996
 30
0.0
 11
3.048000000000011
 21
14.782799999999998
 31
0.0
1001
DXF_PREDICTOR
1000
150ft_family
1040
0.9199390129842979
1000
line:100005E9
  0
LINE
  5
1D6
330
17
100
AcDbEntity
  8
PREDICTED_GEOMETRY_HIGH
100
AcDbLine
 10
12.192000000000007
 20
11.12519999999999
 30
0.0
 11
12.192000000000009
 21
14.782799999999991
 31
0.0
1001
DXF_PREDICTOR
1000
150ft_family
1040
0.9199390129842979
1000
line:100005ED
  0
LINE
  5
1D7
330
17
100
AcDbEntity
  8
PREDICTED_GEOMETRY_HIGH
100
AcDbLine
 10
-15.239999999999993
 20
11.12520000000001
 30
0.0
 11
-15.239999999999991
 21
14.782800000000014
 31
0.0
1001
DXF_PREDICTOR
1000
150ft_family
1040
0.9199390129842979
1000
line:100005F1
  0
LINE
  5
1D8
330
17
100
AcDbEntity
  8
PREDICTED_GEOMETRY_HIGH
100
AcDbLine
 10
12.801600000000008
 20
9.601199999999992
 30
0.0
 11
12.801600000000008
 21
11.125199999999989
 31
0.0
1001
DXF_PREDICTOR
1000
150ft_family
1040
0.9199390129842979
1000
line:100005F5
  0
LINE
  5
1D9
330
17
100
AcDbEntity
  8
PREDICTED_GEOMETRY_HIGH
100
AcDbLine
 10
8.600999327206676e-15
 20
11.1252
 30
0.0
 11
1.1362971708754078e-14
 21
14.782800000000002
 31
0.0
1001
DXF_PREDICTOR
1000
150ft_family
1040
0.9199390129842979
1000
line:100005F9
  0
LINE
  5
1DA
330
17
100
AcDbEntity
  8
PREDICTED_GEOMETRY_HIGH
100
AcDbLine
 10
-7.620000000000001
 20
-0.7619999999999942
 30
0.0
 11
-7.6200000000000045
 21
-4.4195999999999955
 31
0.0
1001
DXF_PREDICTOR
1000
150ft_family
1040
0.9199390129842979
1000
line:100005FD
  0
LINE
  5
1DB
330
17
100
AcDbEntity
  8
PREDICTED_GEOMETRY_HIGH
100
AcDbLine
 10
-10.668
 20
-0.7619999999999919
 30
0.0
 11
-10.668000000000003
 21
-4.419599999999993
 31
0.0
1001
DXF_PREDICTOR
1000
150ft_family
1040
0.9199390129842979
1000
line:10000601
  0
LINE
  5
1DC
330
17
100
AcDbEntity
  8
PREDICTED_GEOMETRY_HIGH
100
AcDbLine
 10
-15.240000000000002
 20
-0.7619999999999884
 30
0.0
 11
-15.240000000000004
 21
-4.419599999999989
 31
0.0
1001
DXF_PREDICTOR
1000
150ft_family
1040
0.9199390129842979
1000
line:10000605
  0
LINE
  5
1DD
330
17
100
AcDbEntity
  8
PREDICTED_GEOMETRY_HIGH
100
AcDbLine
 10
-6.096
 20
-0.7619999999999953
 30
0.0
 11
-6.096000000000004
 21
-4.419599999999996
 31
0.0
1001
DXF_PREDICTOR
1000
150ft_family
1040
0.9199390129842979
1000
line:10000609
  0
LINE
  5
1DE
330
17
100
AcDbEntity
  8
PREDICTED_GEOMETRY_HIGH
100
AcDbLine
 10
-3.1373832943697766e-15
 20
-4.419600000000001
 30
0.0
 11
1.5239999999999965
 21
-4.419600000000003
 31
0.0
1001
DXF_PREDICTOR
1000
150ft_family
1040
0.9199390129842979
1000
line:1000060D
  0
LINE
  5
1DF
330
17
100
AcDbEntity
  8
PREDICTED_GEOMETRY_HIGH
100
AcDbLine
 10
19.812
 20
-0.7620000000000149
 30
0.0
 11
19.811999999999998
 21
-4.419600000000016
 31
0.0
1001
DXF_PREDICTOR
1000
150ft_family
1040
0.9199390129842979
1000
line:10000611
  0
LINE
  5
1E0
330
17
100
AcDbEntity
  8
PREDICTED_GEOMETRY_HIGH
100
AcDbLine
 10
18.288
 20
-0.7620000000000138
 30
0.0
 11
18.287999999999997
 21
-4.419600000000015
 31
0.0
1001
DXF_PREDICTOR
1000
150ft_family
1040
0.9199390129842979
1000
line:10000615
  0
LINE
  5
1E1
330
17
100
AcDbEntity
  8
PREDICTED_GEOMETRY_HIGH
100
AcDbLine
 10
16.764
 20
-0.7620000000000127
 30
0.0
 11
16.763999999999996
 21
-4.419600000000014
 31
0.0
1001
DXF_PREDICTOR
1000
150ft_family
1040
0.9199390129842979
1000
line:10000619
  0
LINE
  5
1E2
330
17
100
AcDbEntity
  8
PREDICTED_GEOMETRY_HIGH
100
AcDbLine
 10
15.240000000000002
 20
-0.7620000000000116
 30
0.0
 11
15.239999999999998
 21
-4.419600000000012
 31
0.0
1001
DXF_PREDICTOR
1000
150ft_family
1040
0.9199390129842979
1000
line:1000061D
  0
LINE
  5
1E3
330
17
100
AcDbEntity
  8
PREDICTED_GEOMETRY_HIGH
100
AcDbLine
 10
13.716
 20
-0.7620000000000103
 30
0.0
 11
13.715999999999996
 21
-4.4196000000000115
 31
0.0
1001
DXF_PREDICTOR
1000
150ft_family
1040
0.9199390129842979
1000
line:10000621
  0
ENDSEC
  0
SECTION
  2
OBJECTS
  0
DICTIONARY
  5
A
330
0
100
AcDbDictionary
281
1
  3
ACAD_COLOR
350
B
  3
ACAD_GROUP
350
C
  3
ACAD_LAYOUT
350
D
  3
ACAD_MATERIAL
350
E
  3
ACAD_MLEADERSTYLE
350
F
  3
ACAD_MLINESTYLE
350
10
  3
ACAD_PLOTSETTINGS
350
11
  3
ACAD_PLOTSTYLENAME
350
12
  3
ACAD_SCALELIST
350
14
  3
ACAD_TABLESTYLE
350
15
  3
ACAD_VISUALSTYLE
350
16
  3
EZDXF_META
350
2D
  0
DICTIONARY
  5
B
330
A
100
AcDbDictionary
281
1
  0
DICTIONARY
  5
C
330
A
100
AcDbDictionary
281
1
  0
DICTIONARY
  5
D
330
A
100
AcDbDictionary
281
1
  3
Model
350
1A
  3
Layout1
350
1E
  0
DICTIONARY
  5
E
330
A
100
AcDbDictionary
281
1
  3
ByBlock
350
1F
  3
ByLayer
350
20
  3
Global
350
21
  0
DICTIONARY
  5
F
330
A
100
AcDbDictionary
281
1
  3
Standard
350
2C
  0
DICTIONARY
  5
10
330
A
100
AcDbDictionary
281
1
  3
Standard
350
22
  0
DICTIONARY
  5
11
330
A
100
AcDbDictionary
281
1
  0
ACDBDICTIONARYWDFLT
  5
12
330
A
100
AcDbDictionary
281
1
  3
Normal
350
13
100
AcDbDictionaryWithDefault
340
13
  0
ACDBPLACEHOLDER
  5
13
330
12
  0
DICTIONARY
  5
14
330
A
100
AcDbDictionary
281
1
  0
DICTIONARY
  5
15
330
A
100
AcDbDictionary
281
1
  0
DICTIONARY
  5
16
330
A
100
AcDbDictionary
281
1
  0
LAYOUT
  5
1A
330
D
100
AcDbPlotSettings
  1

  4
A3
  6

 40
7.5
 41
20.0
 42
7.5
 43
20.0
 44
420.0
 45
297.0
 46
0.0
 47
0.0
 48
0.0
 49
0.0
140
0.0
141
0.0
142
1.0
143
1.0
 70
1024
 72
1
 73
0
 74
5
  7

 75
16
 76
0
 77
2
 78
300
147
1.0
148
0.0
149
0.0
100
AcDbLayout
  1
Model
 70
1
 71
0
 10
0.0
 20
0.0
 11
420.0
 21
297.0
 12
0.0
 22
0.0
 32
0.0
 14
1e+20
 24
1e+20
 34
1e+20
 15
-1e+20
 25
-1e+20
 35
-1e+20
146
0.0
 13
0.0
 23
0.0
 33
0.0
 16
1.0
 26
0.0
 36
0.0
 17
0.0
 27
1.0
 37
0.0
 76
1
330
17
  0
LAYOUT
  5
1E
330
D
100
AcDbPlotSettings
  1

  4
A3
  6

 40
7.5
 41
20.0
 42
7.5
 43
20.0
 44
420.0
 45
297.0
 46
0.0
 47
0.0
 48
0.0
 49
0.0
140
0.0
141
0.0
142
1.0
143
1.0
 70
0
 72
1
 73
0
 74
5
  7

 75
16
 76
0
 77
2
 78
300
147
1.0
148
0.0
149
0.0
100
AcDbLayout
  1
Layout1
 70
1
 71
1
 10
0.0
 20
0.0
 11
420.0
 21
297.0
 12
0.0
 22
0.0
 32
0.0
 14
1e+20
 24
1e+20
 34
1e+20
 15
-1e+20
 25
-1e+20
 35
-1e+20
146
0.0
 13
0.0
 23
0.0
 33
0.0
 16
1.0
 26
0.0
 36
0.0
 17
0.0
 27
1.0
 37
0.0
 76
1
330
1B
  0
MATERIAL
  5
1F
102
{ACAD_REACTORS
330
E
102
}
330
E
100
AcDbMaterial
  1
ByBlock
  2

 70
0
 40
1.0
 71
1
 41
1.0
 91
-1023410177
 42
1.0
 72
1
  3

 73
1
 74
1
 75
1
 44
0.5
 73
0
 45
1.0
 46
1.0
 77
1
  4

 78
1
 79
1
170
1
 48
1.0
171
1
  6

172
1
173
1
174
1
140
1.0
141
1.0
175
1
  7

176
1
177
1
178
1
143
1.0
179
1
  8

270
1
271
1
272
1
145
1.0
146
1.0
273
1
  9

274
1
275
1
276
1
 42
1.0
 72
1
  3

 73
1
 74
1
 75
1
 94
63
  0
MATERIAL
  5
20
102
{ACAD_REACTORS
330
E
102
}
330
E
100
AcDbMaterial
  1
ByLayer
  2

 70
0
 40
1.0
 71
1
 41
1.0
 91
-1023410177
 42
1.0
 72
1
  3

 73
1
 74
1
 75
1
 44
0.5
 73
0
 45
1.0
 46
1.0
 77
1
  4

 78
1
 79
1
170
1
 48
1.0
171
1
  6

172
1
173
1
174
1
140
1.0
141
1.0
175
1
  7

176
1
177
1
178
1
143
1.0
179
1
  8

270
1
271
1
272
1
145
1.0
146
1.0
273
1
  9

274
1
275
1
276
1
 42
1.0
 72
1
  3

 73
1
 74
1
 75
1
 94
63
  0
MATERIAL
  5
21
102
{ACAD_REACTORS
330
E
102
}
330
E
100
AcDbMaterial
  1
Global
  2

 70
0
 40
1.0
 71
1
 41
1.0
 91
-1023410177
 42
1.0
 72
1
  3

 73
1
 74
1
 75
1
 44
0.5
 73
0
 45
1.0
 46
1.0
 77
1
  4

 78
1
 79
1
170
1
 48
1.0
171
1
  6

172
1
173
1
174
1
140
1.0
141
1.0
175
1
  7

176
1
177
1
178
1
143
1.0
179
1
  8

270
1
271
1
272
1
145
1.0
146
1.0
273
1
  9

274
1
275
1
276
1
 42
1.0
 72
1
  3

 73
1
 74
1
 75
1
 94
63
  0
MLINESTYLE
  5
22
102
{ACAD_REACTORS
330
10
102
}
330
10
100
AcDbMlineStyle
  2
Standard
 70
0
  3

 62
256
 51
90.0
 52
90.0
 71
2
 49
0.5
 62
256
  6
BYLAYER
 49
-0.5
 62
256
  6
BYLAYER
  0
MLEADERSTYLE
  5
2C
102
{ACAD_REACTORS
330
F
102
}
330
F
100
AcDbMLeaderStyle
179
2
170
2
171
1
172
0
 90
2
 40
0.0
 41
0.0
173
1
 91
-1056964608
 92
-2
290
1
 42
2.0
291
1
 43
8.0
  3
Standard
 44
4.0
300

342
29
174
1
175
1
176
0
178
1
 93
-1056964608
 45
4.0
292
0
297
0
 46
4.0
 94
-1056964608
 47
1.0
 49
1.0
140
1.0
294
1
141
0.0
177
0
142
1.0
295
0
296
0
143
3.75
271
0
272
9
273
9
  0
DICTIONARY
  5
2D
330
A
100
AcDbDictionary
280
1
281
1
  3
CREATED_BY_EZDXF
350
2E
  3
WRITTEN_BY_EZDXF
350
1E6
  0
DICTIONARYVAR
  5
2E
330
2D
100
DictionaryVariables
280
0
  1
1.4.4 @ 2026-07-15T12:21:45.901198+00:00
  0
DICTIONARYVAR
  5
1E6
330
2D
100
DictionaryVariables
280
0
  1
1.4.4 @ 2026-07-15T12:21:45.915605+00:00
  0
ENDSEC
  0
EOF
