  0
SECTION
  2
HEADER
  9
$ACADVER
  1
AC1024
  9
$ACADMAINTVER
 70
6
  9
$DWGCODEPAGE
  3
ANSI_1252
  9
$LASTSAVEDBY
  1
ezdxf
  9
$INSBASE
 10
0.0
 20
0.0
 30
0.0
  9
$EXTMIN
 10
1e+20
 20
1e+20
 30
1e+20
  9
$EXTMAX
 10
-1e+20
 20
-1e+20
 30
-1e+20
  9
$LIMMIN
 10
0.0
 20
0.0
  9
$LIMMAX
 10
420.0
 20
297.0
  9
$ORTHOMODE
 70
0
  9
$REGENMODE
 70
1
  9
$FILLMODE
 70
1
  9
$QTEXTMODE
 70
0
  9
$MIRRTEXT
 70
1
  9
$LTSCALE
 40
1.0
  9
$ATTMODE
 70
1
  9
$TEXTSIZE
 40
2.5
  9
$TRACEWID
 40
1.0
  9
$TEXTSTYLE
  7
Standard
  9
$CLAYER
  8
0
  9
$CELTYPE
  6
ByLayer
  9
$CECOLOR
 62
256
  9
$CELTSCALE
 40
1.0
  9
$DISPSILH
 70
0
  9
$DIMSCALE
 40
1.0
  9
$DIMASZ
 40
2.5
  9
$DIMEXO
 40
0.625
  9
$DIMDLI
 40
3.75
  9
$DIMRND
 40
0.0
  9
$DIMDLE
 40
0.0
  9
$DIMEXE
 40
1.25
  9
$DIMTP
 40
0.0
  9
$DIMTM
 40
0.0
  9
$DIMTXT
 40
2.5
  9
$DIMCEN
 40
2.5
  9
$DIMTSZ
 40
0.0
  9
$DIMTOL
 70
0
  9
$DIMLIM
 70
0
  9
$DIMTIH
 70
0
  9
$DIMTOH
 70
0
  9
$DIMSE1
 70
0
  9
$DIMSE2
 70
0
  9
$DIMTAD
 70
1
  9
$DIMZIN
 70
8
  9
$DIMBLK
  1

  9
$DIMASO
 70
1
  9
$DIMSHO
 70
1
  9
$DIMPOST
  1

  9
$DIMAPOST
  1

  9
$DIMALT
 70
0
  9
$DIMALTD
 70
3
  9
$DIMALTF
 40
0.03937007874
  9
$DIMLFAC
 40
1.0
  9
$DIMTOFL
 70
1
  9
$DIMTVP
 40
0.0
  9
$DIMTIX
 70
0
  9
$DIMSOXD
 70
0
  9
$DIMSAH
 70
0
  9
$DIMBLK1
  1

  9
$DIMBLK2
  1

  9
$DIMSTYLE
  2
ISO-25
  9
$DIMCLRD
 70
0
  9
$DIMCLRE
 70
0
  9
$DIMCLRT
 70
0
  9
$DIMTFAC
 40
1.0
  9
$DIMGAP
 40
0.625
  9
$DIMJUST
 70
0
  9
$DIMSD1
 70
0
  9
$DIMSD2
 70
0
  9
$DIMTOLJ
 70
0
  9
$DIMTZIN
 70
8
  9
$DIMALTZ
 70
0
  9
$DIMALTTZ
 70
0
  9
$DIMUPT
 70
0
  9
$DIMDEC
 70
2
  9
$DIMTDEC
 70
2
  9
$DIMALTU
 70
2
  9
$DIMALTTD
 70
3
  9
$DIMTXSTY
  7
Standard
  9
$DIMAUNIT
 70
0
  9
$DIMADEC
 70
0
  9
$DIMALTRND
 40
0.0
  9
$DIMAZIN
 70
0
  9
$DIMDSEP
 70
44
  9
$DIMATFIT
 70
3
  9
$DIMFRAC
 70
0
  9
$DIMLDRBLK
  1

  9
$DIMLUNIT
 70
2
  9
$DIMLWD
 70
-2
  9
$DIMLWE
 70
-2
  9
$DIMTMOVE
 70
0
  9
$DIMFXL
 40
1.0
  9
$DIMFXLON
 70
0
  9
$DIMJOGANG
 40
0.785398163397
  9
$DIMTFILL
 70
0
  9
$DIMTFILLCLR
 70
0
  9
$DIMARCSYM
 70
0
  9
$DIMLTYPE
  6

  9
$DIMLTEX1
  6

  9
$DIMLTEX2
  6

  9
$DIMTXTDIRECTION
 70
0
  9
$LUNITS
 70
2
  9
$LUPREC
 70
4
  9
$SKETCHINC
 40
1.0
  9
$FILLETRAD
 40
10.0
  9
$AUNITS
 70
0
  9
$AUPREC
 70
2
  9
$MENU
  1
.
  9
$ELEVATION
 40
0.0
  9
$PELEVATION
 40
0.0
  9
$THICKNESS
 40
0.0
  9
$LIMCHECK
 70
0
  9
$CHAMFERA
 40
0.0
  9
$CHAMFERB
 40
0.0
  9
$CHAMFERC
 40
0.0
  9
$CHAMFERD
 40
0.0
  9
$SKPOLY
 70
0
  9
$TDCREATE
 40
2461234.971585648
  9
$TDUCREATE
 40
2458532.153996898
  9
$TDUPDATE
 40
2461234.971585648
  9
$TDUUPDATE
 40
2458532.1544311
  9
$TDINDWG
 40
0.0
  9
$TDUSRTIMER
 40
0.0
  9
$USRTIMER
 70
1
  9
$ANGBASE
 50
0.0
  9
$ANGDIR
 70
0
  9
$PDMODE
 70
0
  9
$PDSIZE
 40
0.0
  9
$PLINEWID
 40
0.0
  9
$SPLFRAME
 70
0
  9
$SPLINETYPE
 70
6
  9
$SPLINESEGS
 70
8
  9
$HANDSEED
  5
80
  9
$SURFTAB1
 70
6
  9
$SURFTAB2
 70
6
  9
$SURFTYPE
 70
6
  9
$SURFU
 70
6
  9
$SURFV
 70
6
  9
$UCSBASE
  2

  9
$UCSNAME
  2

  9
$UCSORG
 10
0.0
 20
0.0
 30
0.0
  9
$UCSXDIR
 10
1.0
 20
0.0
 30
0.0
  9
$UCSYDIR
 10
0.0
 20
1.0
 30
0.0
  9
$UCSORTHOREF
  2

  9
$UCSORTHOVIEW
 70
0
  9
$UCSORGTOP
 10
0.0
 20
0.0
 30
0.0
  9
$UCSORGBOTTOM
 10
0.0
 20
0.0
 30
0.0
  9
$UCSORGLEFT
 10
0.0
 20
0.0
 30
0.0
  9
$UCSORGRIGHT
 10
0.0
 20
0.0
 30
0.0
  9
$UCSORGFRONT
 10
0.0
 20
0.0
 30
0.0
  9
$UCSORGBACK
 10
0.0
 20
0.0
 30
0.0
  9
$PUCSBASE
  2

  9
$PUCSNAME
  2

  9
$PUCSORG
 10
0.0
 20
0.0
 30
0.0
  9
$PUCSXDIR
 10
1.0
 20
0.0
 30
0.0
  9
$PUCSYDIR
 10
0.0
 20
1.0
 30
0.0
  9
$PUCSORTHOREF
  2

  9
$PUCSORTHOVIEW
 70
0
  9
$PUCSORGTOP
 10
0.0
 20
0.0
 30
0.0
  9
$PUCSORGBOTTOM
 10
0.0
 20
0.0
 30
0.0
  9
$PUCSORGLEFT
 10
0.0
 20
0.0
 30
0.0
  9
$PUCSORGRIGHT
 10
0.0
 20
0.0
 30
0.0
  9
$PUCSORGFRONT
 10
0.0
 20
0.0
 30
0.0
  9
$PUCSORGBACK
 10
0.0
 20
0.0
 30
0.0
  9
$USERI1
 70
0
  9
$USERI2
 70
0
  9
$USERI3
 70
0
  9
$USERI4
 70
0
  9
$USERI5
 70
0
  9
$USERR1
 40
0.0
  9
$USERR2
 40
0.0
  9
$USERR3
 40
0.0
  9
$USERR4
 40
0.0
  9
$USERR5
 40
0.0
  9
$WORLDVIEW
 70
1
  9
$SHADEDGE
 70
3
  9
$SHADEDIF
 70
70
  9
$TILEMODE
 70
1
  9
$MAXACTVP
 70
64
  9
$PINSBASE
 10
0.0
 20
0.0
 30
0.0
  9
$PLIMCHECK
 70
0
  9
$PEXTMIN
 10
1e+20
 20
1e+20
 30
1e+20
  9
$PEXTMAX
 10
-1e+20
 20
-1e+20
 30
-1e+20
  9
$PLIMMIN
 10
0.0
 20
0.0
  9
$PLIMMAX
 10
420.0
 20
297.0
  9
$UNITMODE
 70
0
  9
$VISRETAIN
 70
1
  9
$PLINEGEN
 70
0
  9
$PSLTSCALE
 70
1
  9
$TREEDEPTH
 70
3020
  9
$CMLSTYLE
  2
Standard
  9
$CMLJUST
 70
0
  9
$CMLSCALE
 40
20.0
  9
$PROXYGRAPHICS
 70
1
  9
$MEASUREMENT
 70
1
  9
$CELWEIGHT
370
-1
  9
$ENDCAPS
280
0
  9
$JOINSTYLE
280
0
  9
$LWDISPLAY
290
0
  9
$INSUNITS
 70
6
  9
$HYPERLINKBASE
  1

  9
$STYLESHEET
  1

  9
$XEDIT
290
1
  9
$CEPSNTYPE
380
0
  9
$PSTYLEMODE
290
1
  9
$FINGERPRINTGUID
  2
{2C45CB4A-5C01-4ABC-A70B-132F22FA9790}
  9
$VERSIONGUID
  2
{F7EB3804-B6FF-49B3-AF8C-6E3832031B1C}
  9
$EXTNAMES
290
1
  9
$PSVPSCALE
 40
0.0
  9
$OLESTARTUP
290
0
  9
$SORTENTS
280
127
  9
$INDEXCTL
280
0
  9
$HIDETEXT
280
1
  9
$XCLIPFRAME
280
1
  9
$HALOGAP
280
0
  9
$OBSCOLOR
 70
257
  9
$OBSLTYPE
280
0
  9
$INTERSECTIONDISPLAY
280
0
  9
$INTERSECTIONCOLOR
 70
257
  9
$DIMASSOC
280
2
  9
$PROJECTNAME
  1

  9
$CAMERADISPLAY
290
0
  9
$LENSLENGTH
 40
50.0
  9
$CAMERAHEIGHT
 40
0.0
  9
$STEPSPERSEC
 40
24.0
  9
$STEPSIZE
 40
100.0
  9
$3DDWFPREC
 40
2.0
  9
$PSOLWIDTH
 40
0.005
  9
$PSOLHEIGHT
 40
0.08
  9
$LOFTANG1
 40
1.570796326795
  9
$LOFTANG2
 40
1.570796326795
  9
$LOFTMAG1
 40
0.0
  9
$LOFTMAG2
 40
0.0
  9
$LOFTPARAM
 70
7
  9
$LOFTNORMALS
280
1
  9
$LATITUDE
 40
37.795
  9
$LONGITUDE
 40
-122.394
  9
$NORTHDIRECTION
 40
0.0
  9
$TIMEZONE
 70
-8000
  9
$LIGHTGLYPHDISPLAY
280
1
  9
$TILEMODELIGHTSYNCH
280
1
  9
$CMATERIAL
347
20
  9
$SOLIDHIST
280
0
  9
$SHOWHIST
280
1
  9
$DWFFRAME
280
2
  9
$DGNFRAME
280
2
  9
$REALWORLDSCALE
290
1
  9
$INTERFERECOLOR
 62
256
  9
$CSHADOW
280
0
  9
$SHADOWPLANELOCATION
 40
0.0
  0
ENDSEC
  0
SECTION
  2
CLASSES
  0
CLASS
  1
ACDBDICTIONARYWDFLT
  2
AcDbDictionaryWithDefault
  3
ObjectDBX Classes
 90
0
 91
0
280
0
281
0
  0
CLASS
  1
SUN
  2
AcDbSun
  3
SCENEOE
 90
1153
 91
0
280
0
281
0
  0
CLASS
  1
VISUALSTYLE
  2
AcDbVisualStyle
  3
ObjectDBX Classes
 90
4095
 91
0
280
0
281
0
  0
CLASS
  1
MATERIAL
  2
AcDbMaterial
  3
ObjectDBX Classes
 90
1153
 91
0
280
0
281
0
  0
CLASS
  1
SCALE
  2
AcDbScale
  3
ObjectDBX Classes
 90
1153
 91
0
280
0
281
0
  0
CLASS
  1
TABLESTYLE
  2
AcDbTableStyle
  3
ObjectDBX Classes
 90
4095
 91
0
280
0
281
0
  0
CLASS
  1
MLEADERSTYLE
  2
AcDbMLeaderStyle
  3
ACDB_MLEADERSTYLE_CLASS
 90
4095
 91
0
280
0
281
0
  0
CLASS
  1
DICTIONARYVAR
  2
AcDbDictionaryVar
  3
ObjectDBX Classes
 90
0
 91
0
280
0
281
0
  0
CLASS
  1
CELLSTYLEMAP
  2
AcDbCellStyleMap
  3
ObjectDBX Classes
 90
1152
 91
0
280
0
281
0
  0
CLASS
  1
MENTALRAYRENDERSETTINGS
  2
AcDbMentalRayRenderSettings
  3
SCENEOE
 90
1024
 91
0
280
0
281
0
  0
CLASS
  1
ACDBDETAILVIEWSTYLE
  2
AcDbDetailViewStyle
  3
ObjectDBX Classes
 90
1025
 91
0
280
0
281
0
  0
CLASS
  1
ACDBSECTIONVIEWSTYLE
  2
AcDbSectionViewStyle
  3
ObjectDBX Classes
 90
1025
 91
0
280
0
281
0
  0
CLASS
  1
RASTERVARIABLES
  2
AcDbRasterVariables
  3
ISM
 90
0
 91
0
280
0
281
0
  0
CLASS
  1
ACDBPLACEHOLDER
  2
AcDbPlaceHolder
  3
ObjectDBX Classes
 90
0
 91
0
280
0
281
0
  0
CLASS
  1
LAYOUT
  2
AcDbLayout
  3
ObjectDBX Classes
 90
0
 91
0
280
0
281
0
  0
ENDSEC
  0
SECTION
  2
TABLES
  0
TABLE
  2
VPORT
  5
8
330
0
100
AcDbSymbolTable
 70
1
  0
VPORT
  5
23
330
8
100
AcDbSymbolTableRecord
100
AcDbViewportTableRecord
  2
*Active
 70
0
 10
0.0
 20
0.0
 11
1.0
 21
1.0
 12
0.0
 22
0.0
 13
0.0
 23
0.0
 14
0.5
 24
0.5
 15
0.5
 25
0.5
 16
0.0
 26
0.0
 36
1.0
 17
0.0
 27
0.0
 37
0.0
 40
1000.0
 41
1.34
 42
50.0
 43
0.0
 44
0.0
 50
0.0
 51
0.0
 71
0
 72
1000
 73
1
 74
3
 75
0
 76
0
 77
0
 78
0
281
0
 65
0
146
0.0
  0
ENDTAB
  0
TABLE
  2
LTYPE
  5
2
330
0
100
AcDbSymbolTable
 70
3
  0
LTYPE
  5
24
330
2
100
AcDbSymbolTableRecord
100
AcDbLinetypeTableRecord
  2
ByBlock
 70
0
  3

 72
65
 73
0
 40
0.0
  0
LTYPE
  5
25
330
2
100
AcDbSymbolTableRecord
100
AcDbLinetypeTableRecord
  2
ByLayer
 70
0
  3

 72
65
 73
0
 40
0.0
  0
LTYPE
  5
26
330
2
100
AcDbSymbolTableRecord
100
AcDbLinetypeTableRecord
  2
Continuous
 70
0
  3

 72
65
 73
0
 40
0.0
  0
ENDTAB
  0
TABLE
  2
LAYER
  5
1
330
0
100
AcDbSymbolTable
 70
5
  0
LAYER
  5
27
330
1
100
AcDbSymbolTableRecord
100
AcDbLayerTableRecord
  2
0
 70
0
 62
7
  6
Continuous
370
-3
390
13
347
21
  0
LAYER
  5
28
330
1
100
AcDbSymbolTableRecord
100
AcDbLayerTableRecord
  2
Defpoints
 70
0
 62
7
  6
Continuous
290
0
370
-3
390
13
347
21
  0
LAYER
  5
2F
330
1
100
AcDbSymbolTableRecord
100
AcDbLayerTableRecord
  2
TANK_BOUNDARY
 70
0
 62
7
  6
Continuous
370
-3
390
13
347
21
  0
LAYER
  5
30
330
1
100
AcDbSymbolTableRecord
100
AcDbLayerTableRecord
  2
OBSERVED_CIRCULAR_SCAN
 70
0
 62
3
  6
Continuous
370
-3
390
13
347
21
  0
LAYER
  5
31
330
1
100
AcDbSymbolTableRecord
100
AcDbLayerTableRecord
  2
SCAN_FOOTPRINTS
 70
0
 62
5
  6
Continuous
370
-3
390
13
347
21
  0
ENDTAB
  0
TABLE
  2
STYLE
  5
5
330
0
100
AcDbSymbolTable
 70
1
  0
STYLE
  5
29
330
5
100
AcDbSymbolTableRecord
100
AcDbTextStyleTableRecord
  2
Standard
 70
0
 40
0.0
 41
1.0
 50
0.0
 71
0
 42
2.5
  3
txt
  4

  0
ENDTAB
  0
TABLE
  2
VIEW
  5
7
330
0
100
AcDbSymbolTable
 70
0
  0
ENDTAB
  0
TABLE
  2
UCS
  5
6
330
0
100
AcDbSymbolTable
 70
0
  0
ENDTAB
  0
TABLE
  2
APPID
  5
3
330
0
100
AcDbSymbolTable
 70
3
  0
APPID
  5
2A
330
3
100
AcDbSymbolTableRecord
100
AcDbRegAppTableRecord
  2
ACAD
 70
0
  0
APPID
  5
7D
330
3
100
AcDbSymbolTableRecord
100
AcDbRegAppTableRecord
  2
HATCHBACKGROUNDCOLOR
 70
0
  0
APPID
  5
7E
330
3
100
AcDbSymbolTableRecord
100
AcDbRegAppTableRecord
  2
EZDXF
 70
0
  0
ENDTAB
  0
TABLE
  2
DIMSTYLE
  5
4
330
0
100
AcDbSymbolTable
 70
1
100
AcDbDimStyleTable
  0
DIMSTYLE
105
2B
330
4
100
AcDbSymbolTableRecord
100
AcDbDimStyleTableRecord
  2
Standard
 70
0
 40
1.0
 41
2.5
 42
0.625
 43
3.75
 44
1.25
 45
0.0
 46
0.0
 47
0.0
 48
0.0
 49
2.5
140
2.5
141
2.5
142
0.0
143
0.03937007874
144
1.0
145
0.0
146
1.0
147
0.625
148
0.0
 69
0
 70
0
 71
0
 72
0
 73
0
 74
0
 75
0
 76
0
 77
1
 78
8
 79
3
170
0
171
3
172
1
173
0
174
0
175
0
176
0
177
0
178
0
179
2
271
2
272
2
273
2
274
3
275
0
276
0
277
2
278
44
279
0
280
0
281
0
282
0
283
0
284
8
285
0
286
0
288
0
289
3
290
0
371
-2
372
-2
  0
ENDTAB
  0
TABLE
  2
BLOCK_RECORD
  5
9
330
0
100
AcDbSymbolTable
 70
2
  0
BLOCK_RECORD
  5
17
330
9
100
AcDbSymbolTableRecord
100
AcDbBlockTableRecord
  2
*Model_Space
340
1A
 70
0
280
1
281
0
  0
BLOCK_RECORD
  5
1B
330
9
100
AcDbSymbolTableRecord
100
AcDbBlockTableRecord
  2
*Paper_Space
340
1E
 70
0
280
1
281
0
  0
ENDTAB
  0
ENDSEC
  0
SECTION
  2
BLOCKS
  0
BLOCK
  5
18
330
17
100
AcDbEntity
  8
0
100
AcDbBlockBegin
  2
*Model_Space
 70
0
 10
0.0
 20
0.0
 30
0.0
  3
*Model_Space
  1

  0
ENDBLK
  5
19
330
17
100
AcDbEntity
  8
0
100
AcDbBlockEnd
  0
BLOCK
  5
1C
330
1B
100
AcDbEntity
  8
0
100
AcDbBlockBegin
  2
*Paper_Space
 70
0
 10
0.0
 20
0.0
 30
0.0
  3
*Paper_Space
  1

  0
ENDBLK
  5
1D
330
1B
100
AcDbEntity
  8
0
100
AcDbBlockEnd
  0
ENDSEC
  0
SECTION
  2
ENTITIES
  0
CIRCLE
  5
32
330
17
100
AcDbEntity
  8
TANK_BOUNDARY
100
AcDbCircle
 10
0.0
 20
0.0
 30
0.0
 40
3.6576
  0
LINE
  5
33
330
17
100
AcDbEntity
  8
OBSERVED_CIRCULAR_SCAN
100
AcDbLine
 10
-1.7601906298419365
 20
1.0100183504905547
 30
0.0
 11
-2.438400000000001
 21
1.010018350490554
 31
0.0
  0
LINE
  5
34
330
17
100
AcDbEntity
  8
OBSERVED_CIRCULAR_SCAN
100
AcDbLine
 10
-2.438400000000001
 20
-2.690848362943758
 30
0.0
 11
-2.438400000000001
 21
-2.5423296952680148
 31
0.0
  0
LINE
  5
35
330
17
100
AcDbEntity
  8
OBSERVED_CIRCULAR_SCAN
100
AcDbLine
 10
-2.438400000000001
 20
-2.342841715511113
 30
0.0
 11
-2.438400000000001
 21
-1.8877285818735596
 31
0.0
  0
LINE
  5
36
330
17
100
AcDbEntity
  8
OBSERVED_CIRCULAR_SCAN
100
AcDbLine
 10
-2.438400000000001
 20
-1.7138650919823648
 30
0.0
 11
-2.438400000000001
 21
-1.1577426251662855
 31
0.0
  0
LINE
  5
37
330
17
100
AcDbEntity
  8
OBSERVED_CIRCULAR_SCAN
100
AcDbLine
 10
-2.438400000000001
 20
-1.0359854355876443
 30
0.0
 11
-2.438400000000001
 21
-0.4818613119626778
 31
0.0
  0
LINE
  5
38
330
17
100
AcDbEntity
  8
OBSERVED_CIRCULAR_SCAN
100
AcDbLine
 10
-2.438400000000001
 20
-0.40697459457705687
 30
0.0
 11
-2.438400000000001
 21
0.09302540542294313
 31
0.0
  0
LINE
  5
39
330
17
100
AcDbEntity
  8
OBSERVED_CIRCULAR_SCAN
100
AcDbLine
 10
-2.438400000000001
 20
0.15288753440330227
 30
0.0
 11
-2.438400000000001
 21
0.6191131106656051
 31
0.0
  0
LINE
  5
3A
330
17
100
AcDbEntity
  8
OBSERVED_CIRCULAR_SCAN
100
AcDbLine
 10
-2.438400000000001
 20
0.694081766856641
 30
0.0
 11
-2.438400000000001
 21
1.1889141759744426
 31
0.0
  0
LINE
  5
3B
330
17
100
AcDbEntity
  8
OBSERVED_CIRCULAR_SCAN
100
AcDbLine
 10
-2.438400000000001
 20
1.3194034336807725
 30
0.0
 11
-2.438400000000001
 21
2.0484293994811793
 31
0.0
  0
LINE
  5
3C
330
17
100
AcDbEntity
  8
OBSERVED_CIRCULAR_SCAN
100
AcDbLine
 10
-1.219200000000001
 20
-3.439033730572368
 30
0.0
 11
-1.219200000000001
 21
-3.402636940720494
 31
0.0
  0
LINE
  5
3D
330
17
100
AcDbEntity
  8
OBSERVED_CIRCULAR_SCAN
100
AcDbLine
 10
-1.219200000000001
 20
-3.187570028378705
 30
0.0
 11
-1.219200000000001
 21
-2.516407757176469
 31
0.0
  0
LINE
  5
3E
330
17
100
AcDbEntity
  8
OBSERVED_CIRCULAR_SCAN
100
AcDbLine
 10
-1.219200000000001
 20
-2.2225863131552845
 30
0.0
 11
-1.219200000000001
 21
-1.659454056717895
 31
0.0
  0
LINE
  5
3F
330
17
100
AcDbEntity
  8
OBSERVED_CIRCULAR_SCAN
100
AcDbLine
 10
-1.219200000000001
 20
1.6166511063652944
 30
0.0
 11
-1.219200000000001
 21
1.888648811962807
 31
0.0
  0
LINE
  5
40
330
17
100
AcDbEntity
  8
OBSERVED_CIRCULAR_SCAN
100
AcDbLine
 10
-1.219200000000001
 20
1.8958074512792313
 30
0.0
 11
-1.219200000000001
 21
2.5459330230416093
 31
0.0
  0
LINE
  5
41
330
17
100
AcDbEntity
  8
OBSERVED_CIRCULAR_SCAN
100
AcDbLine
 10
-1.219200000000001
 20
3.3289953153791894
 30
0.0
 11
-1.219200000000001
 21
3.4353200793974823
 31
0.0
  0
LINE
  5
42
330
17
100
AcDbEntity
  8
OBSERVED_CIRCULAR_SCAN
100
AcDbLine
 10
0.870883373746347
 20
1.8288
 30
0.0
 11
1.2192
 21
1.8288
 31
0.0
  0
LINE
  5
43
330
17
100
AcDbEntity
  8
OBSERVED_CIRCULAR_SCAN
100
AcDbLine
 10
0.0
 20
-3.048
 30
0.0
 11
0.4654906019125971
 21
-3.048
 31
0.0
  0
LINE
  5
44
330
17
100
AcDbEntity
  8
OBSERVED_CIRCULAR_SCAN
100
AcDbLine
 10
0.6400474266450557
 20
-3.048
 30
0.0
 11
1.1088731508892955
 21
-3.048
 31
0.0
  0
LINE
  5
45
330
17
100
AcDbEntity
  8
OBSERVED_CIRCULAR_SCAN
100
AcDbLine
 10
-1.1088731508892984
 20
3.048
 30
0.0
 11
-0.6400474266450588
 21
3.048
 31
0.0
  0
LINE
  5
46
330
17
100
AcDbEntity
  8
OBSERVED_CIRCULAR_SCAN
100
AcDbLine
 10
-0.4654906019125975
 20
3.048
 30
0.0
 11
0.0
 21
3.048
 31
0.0
  0
LINE
  5
47
330
17
100
AcDbEntity
  8
OBSERVED_CIRCULAR_SCAN
100
AcDbLine
 10
2.4846065414924476
 20
-2.150585921832257
 30
0.0
 11
2.851717924833628
 21
-2.150585921832257
 31
0.0
  0
LINE
  5
48
330
17
100
AcDbEntity
  8
OBSERVED_CIRCULAR_SCAN
100
AcDbLine
 10
2.438400000000001
 20
0.2878140781677433
 30
0.0
 11
3.396955989503759
 21
0.28781407816774357
 31
0.0
  0
LINE
  5
49
330
17
100
AcDbEntity
  8
OBSERVED_CIRCULAR_SCAN
100
AcDbLine
 10
-2.438400000000001
 20
-0.2878140781677433
 30
0.0
 11
-3.396955989503758
 21
-0.28781407816774346
 31
0.0
  0
LINE
  5
4A
330
17
100
AcDbEntity
  8
OBSERVED_CIRCULAR_SCAN
100
AcDbLine
 10
1.2192
 20
3.4390337305723686
 30
0.0
 11
1.2192
 21
3.4026369407204937
 31
0.0
  0
LINE
  5
4B
330
17
100
AcDbEntity
  8
OBSERVED_CIRCULAR_SCAN
100
AcDbLine
 10
1.2192
 20
3.187570028378705
 30
0.0
 11
1.2192000000000003
 21
2.5164077571764687
 31
0.0
  0
LINE
  5
4C
330
17
100
AcDbEntity
  8
OBSERVED_CIRCULAR_SCAN
100
AcDbLine
 10
1.2192000000000003
 20
2.222586313155284
 30
0.0
 11
1.2192000000000003
 21
1.659454056717896
 31
0.0
  0
LINE
  5
4D
330
17
100
AcDbEntity
  8
OBSERVED_CIRCULAR_SCAN
100
AcDbLine
 10
1.2192000000000007
 20
-1.6166511063652935
 30
0.0
 11
1.2192000000000007
 21
-1.8886488119628062
 31
0.0
  0
LINE
  5
4E
330
17
100
AcDbEntity
  8
OBSERVED_CIRCULAR_SCAN
100
AcDbLine
 10
1.2192000000000007
 20
-1.8958074512792313
 30
0.0
 11
1.2192000000000007
 21
-2.5459330230416093
 31
0.0
  0
LINE
  5
4F
330
17
100
AcDbEntity
  8
OBSERVED_CIRCULAR_SCAN
100
AcDbLine
 10
1.219200000000001
 20
-3.3289953153791876
 30
0.0
 11
1.219200000000001
 21
-3.4353200793974823
 31
0.0
  0
LINE
  5
50
330
17
100
AcDbEntity
  8
OBSERVED_CIRCULAR_SCAN
100
AcDbLine
 10
-2.4846065414924468
 20
2.150585921832257
 30
0.0
 11
-2.8517179248336273
 21
2.150585921832257
 31
0.0
  0
LINE
  5
51
330
17
100
AcDbEntity
  8
OBSERVED_CIRCULAR_SCAN
100
AcDbLine
 10
0.0
 20
-3.6241074975493257
 30
0.0
 11
0.0
 21
-2.024107497549326
 31
0.0
  0
LINE
  5
52
330
17
100
AcDbEntity
  8
OBSERVED_CIRCULAR_SCAN
100
AcDbLine
 10
0.0
 20
2.0241074975493256
 30
0.0
 11
0.0
 21
3.6241074975493253
 31
0.0
  0
LINE
  5
53
330
17
100
AcDbEntity
  8
OBSERVED_CIRCULAR_SCAN
100
AcDbLine
 10
-0.8708833737463468
 20
-1.8288
 30
0.0
 11
-1.219200000000001
 21
-1.8288
 31
0.0
  0
LINE
  5
54
330
17
100
AcDbEntity
  8
OBSERVED_CIRCULAR_SCAN
100
AcDbLine
 10
-1.4552824316905335
 20
-1.4283816495094452
 30
0.0
 11
-1.95541349103275
 21
-1.4283816495094455
 31
0.0
  0
LINE
  5
55
330
17
100
AcDbEntity
  8
OBSERVED_CIRCULAR_SCAN
100
AcDbLine
 10
-2.0234467896359813
 20
-1.4283816495094457
 30
0.0
 11
-2.438400000000001
 21
-1.428381649509446
 31
0.0
  0
LINE
  5
56
330
17
100
AcDbEntity
  8
OBSERVED_CIRCULAR_SCAN
100
AcDbLine
 10
2.4384
 20
2.690848362943759
 30
0.0
 11
2.4384
 21
2.542329695268015
 31
0.0
  0
LINE
  5
57
330
17
100
AcDbEntity
  8
OBSERVED_CIRCULAR_SCAN
100
AcDbLine
 10
2.4384
 20
2.342841715511112
 30
0.0
 11
2.4384
 21
1.887728581873558
 31
0.0
  0
LINE
  5
58
330
17
100
AcDbEntity
  8
OBSERVED_CIRCULAR_SCAN
100
AcDbLine
 10
2.4384
 20
1.7138650919823648
 30
0.0
 11
2.4384000000000006
 21
1.157742625166285
 31
0.0
  0
LINE
  5
59
330
17
100
AcDbEntity
  8
OBSERVED_CIRCULAR_SCAN
100
AcDbLine
 10
2.4384000000000006
 20
1.0359854355876457
 30
0.0
 11
2.4384000000000006
 21
0.4818613119626791
 31
0.0
  0
LINE
  5
5A
330
17
100
AcDbEntity
  8
OBSERVED_CIRCULAR_SCAN
100
AcDbLine
 10
2.4384000000000006
 20
0.40697459457705776
 30
0.0
 11
2.4384000000000006
 21
-0.09302540542294313
 31
0.0
  0
LINE
  5
5B
330
17
100
AcDbEntity
  8
OBSERVED_CIRCULAR_SCAN
100
AcDbLine
 10
2.4384000000000006
 20
-0.15288753440330405
 30
0.0
 11
2.4384000000000006
 21
-0.6191131106656065
 31
0.0
  0
LINE
  5
5C
330
17
100
AcDbEntity
  8
OBSERVED_CIRCULAR_SCAN
100
AcDbLine
 10
2.4384000000000006
 20
-0.6940817668566392
 30
0.0
 11
2.4384000000000006
 21
-1.1889141759744395
 31
0.0
  0
LINE
  5
5D
330
17
100
AcDbEntity
  8
OBSERVED_CIRCULAR_SCAN
100
AcDbLine
 10
2.4384000000000006
 20
-1.3194034336807716
 30
0.0
 11
2.438400000000001
 21
-2.0484293994811775
 31
0.0
  0
LINE
  5
5E
330
17
100
AcDbEntity
  8
OBSERVED_CIRCULAR_SCAN
100
AcDbLine
 10
1.760190629841936
 20
-1.010018350490555
 30
0.0
 11
2.438400000000001
 21
-1.010018350490555
 31
0.0
  0
LINE
  5
5F
330
17
100
AcDbEntity
  8
OBSERVED_CIRCULAR_SCAN
100
AcDbLine
 10
1.4552824316905335
 20
1.428381649509445
 30
0.0
 11
1.9554134910327508
 21
1.428381649509445
 31
0.0
  0
LINE
  5
60
330
17
100
AcDbEntity
  8
OBSERVED_CIRCULAR_SCAN
100
AcDbLine
 10
2.023446789635981
 20
1.428381649509445
 30
0.0
 11
2.438400000000001
 21
1.428381649509445
 31
0.0
  0
LWPOLYLINE
  5
61
330
17
100
AcDbEntity
  8
SCAN_FOOTPRINTS
100
AcDbPolyline
 90
130
 70
1
 10
2.024107497549326
 20
0.006155281280882885
 10
2.0386806399070423
 20
0.03328146194181114
 10
2.0541732224882834
 20
0.05989322701651156
 10
2.070567109290373
 20
0.08595942411059987
 10
2.0878431092214873
 20
0.11144953948514669
 10
2.105980998566225
 20
0.13633373377681823
 10
2.1249595446599896
 20
0.16058287692857642
 10
2.144756530744475
 20
0.18416858229005073
 10
2.165348781975158
 20
0.20706323984765596
 10
2.1867121925503463
 20
0.2292400485455628
 10
2.208821753930029
 20
0.25067304765967724
 10
2.231651584111497
 20
0.27133714718791424
 10
2.255174957927462
 20
0.2912081572211769
 10
2.2793643383311943
 20
0.310262816260664
 10
2.3041914086320845
 20
0.3284788184483627
 10
2.32962710564386
 20
0.3458348396788391
 10
2.3556416537066767
 20
0.36231056256176597
 10
2.382204599543245
 20
0.3778867002059678
 10
2.4092848479081974
 20
0.39254501879713355
 10
2.4368506979889526
 20
0.40626835894277313
 10
2.464869880515478
 20
0.4190406557594315
 10
2.4933095955355014
 20
0.4308469576786387
 10
2.522136550810947
 20
0.44167344394958885
 10
2.5513170007906605
 20
0.4515074408180553
 10
2.5808167861137927
 20
0.46033743636260205
 10
2.6106013735975933
 20
0.46815309397072546
 10
2.640635896662817
 20
0.47494526443915075
 10
2.6708851961494067
 20
0.48070599668411673
 10
2.7013138614746834
 20
0.4854285470491111
 10
2.7318862720858528
 20
0.48910738719916425
 10
2.762566639158313
 20
0.4917382105924557
 10
2.793319047490942
 20
0.4933179375216572
 10
2.824107497549326
 20
0.49384471871911706
 10
2.855888716846937
 20
0.493283407068666
 10
2.8876302935475318
 20
0.4916001722745773
 10
2.9192926345026535
 20
0.48879711393529623
 10
2.9508362453992825
 20
0.4848777284714956
 10
2.982221780023433
 20
0.47984690476478264
 10
3.0134100893390157
 20
0.4737109180595087
 10
3.0443622703207494
 20
0.4664774221352843
 10
3.0750397144802077
 20
0.4581554397599663
 10
3.105404156024473
 20
0.44875535143502643
 10
3.135417719587327
 20
0.43828888244733544
 10
3.165042967473438
 20
0.4267690882435202
 10
3.194242946356615
 20
0.41421033814513053
 10
3.2229812333738797
 20
0.40062829742493333
 10
3.2512219815578614
 20
0.3860399077666916
 10
3.278929964550843
 20
0.3704633661327972
 10
3.3060706205446797
 20
0.3539181020661235
 10
3.3326100953917948
 20
0.33642475345440426
 10
3.358515284833457
 20
0.31800514078737585
 10
3.3837538757926877
 20
0.2986822399387863
 10
3.4082943866802724
 20
0.278480153507229
 10
3.432106206663613
 20
0.25742408075154244
 10
3.455159633849431
 20
0.23554028615828337
 10
3.4774259123327
 20
0.21285606668047663
 10
3.498877268065586
 20
0.18939971768850983
 10
3.519486943501666
 20
0.16520049767564116
 10
3.5392292309721967
 20
0.14028859176214858
 10
3.558079504752814
 20
0.11469507404364121
 10
3.5760142517806575
 20
0.08845186883050005
 10
3.5930111009836057
 20
0.06159171082679493
 10
3.6090488511850394
 20
0.03414810429834847
 10
3.6241074975493257
 20
0.0061552812808829405
 10
3.6241074975493257
 20
-0.49384471871911706
 10
3.6241074975493257
 20
-0.49384471871911706
 10
3.6090488511850394
 20
-0.46585189570165153
 10
3.5930111009836057
 20
-0.4384082891732051
 10
3.5760142517806575
 20
-0.4115481311694999
 10
3.558079504752814
 20
-0.38530492595635873
 10
3.5392292309721967
 20
-0.35971140823785147
 10
3.519486943501666
 20
-0.3347995023243588
 10
3.498877268065586
 20
-0.31060028231149023
 10
3.4774259123327
 20
-0.2871439333195233
 10
3.455159633849431
 20
-0.2644597138417167
 10
3.432106206663613
 20
-0.24257591924845762
 10
3.4082943866802724
 20
-0.22151984649277107
 10
3.3837538757926877
 20
-0.20131776006121366
 10
3.358515284833457
 20
-0.1819948592126242
 10
3.3326100953917948
 20
-0.1635752465455958
 10
3.3060706205446797
 20
-0.14608189793387655
 10
3.278929964550843
 20
-0.12953663386720277
 10
3.2512219815578614
 20
-0.11396009223330844
 10
3.2229812333738797
 20
-0.09937170257506672
 10
3.194242946356615
 20
-0.08578966185486953
 10
3.165042967473438
 20
-0.07323091175647972
 10
3.135417719587327
 20
-0.06171111755266451
 10
3.105404156024473
 20
-0.05124464856497363
 10
3.0750397144802077
 20
-0.041844560240033635
 10
3.0443622703207494
 20
-0.03352257786471574
 10
3.0134100893390157
 20
-0.026289081940491232
 10
2.982221780023433
 20
-0.0201530952352173
 10
2.9508362453992825
 20
-0.015122271528504483
 10
2.9192926345026535
 20
-0.01120288606470371
 10
2.8876302935475318
 20
-0.008399827725422637
 10
2.855888716846937
 20
-0.006716592931334031
 10
2.824107497549326
 20
-0.006155281280882996
 10
2.793319047490942
 20
-0.006682062478342743
 10
2.762566639158313
 20
-0.008261789407544351
 10
2.7318862720858528
 20
-0.0108926128008357
 10
2.7013138614746834
 20
-0.014571452950888963
 10
2.6708851961494067
 20
-0.019294003315883324
 10
2.640635896662817
 20
-0.025054735560849195
 10
2.6106013735975933
 20
-0.03184690602927459
 10
2.5808167861137927
 20
-0.03966256363739801
 10
2.5513170007906605
 20
-0.04849255918194478
 10
2.522136550810947
 20
-0.058326556050411205
 10
2.4933095955355014
 20
-0.06915304232136138
 10
2.464869880515478
 20
-0.08095934424056855
 10
2.4368506979889526
 20
-0.09373164105722681
 10
2.4092848479081974
 20
-0.1074549812028665
 10
2.382204599543245
 20
-0.12211329979403213
 10
2.3556416537066767
 20
-0.13768943743823397
 10
2.32962710564386
 20
-0.15416516032116095
 10
2.3041914086320845
 20
-0.17152118155163737
 10
2.2793643383311943
 20
-0.18973718373933607
 10
2.255174957927462
 20
-0.20879184277882318
 10
2.231651584111497
 20
-0.2286628528120857
 10
2.208821753930029
 20
-0.2493269523403227
 10
2.1867121925503463
 20
-0.27075995145443726
 10
2.165348781975158
 20
-0.292936760152344
 10
2.144756530744475
 20
-0.3158314177099493
 10
2.1249595446599896
 20
-0.33941712307142363
 10
2.105980998566225
 20
-0.3636662662231817
 10
2.0878431092214873
 20
-0.38855046051485326
 10
2.070567109290373
 20
-0.4140405758894001
 10
2.0541732224882834
 20
-0.44010677298348844
 10
2.0386806399070423
 20
-0.46671853805818886
 10
2.024107497549326
 20
-0.4938447187191171
 10
2.024107497549326
 20
0.0061552812808829405
  0
LWPOLYLINE
  5
62
330
17
100
AcDbEntity
  8
SCAN_FOOTPRINTS
100
AcDbPolyline
 90
130
 70
1
 10
1.9719892176779539
 20
0.4564072463107173
 10
1.9801608378753532
 20
0.48609614623606046
 10
1.9893433142469386
 20
0.5154881227451844
 10
1.999525897557379
 20
0.5445487688590188
 10
2.010696667821276
 20
0.5732440654621005
 10
2.022842548256993
 20
0.601540421126194
 10
2.0359493205946633
 20
0.6294047114332532
 10
2.0500016417204496
 20
0.6568043177516908
 10
2.064983061637575
 20
0.6837071654205593
 10
2.080876042723097
 20
0.7100817612969484
 10
2.0976619802578895
 20
0.7358972306226383
 10
2.115321224205785
 20
0.7611233531668643
 10
2.1338331022163985
 20
0.785730598602869
 10
2.153175943824696
 20
0.8096901610768359
 10
2.173327105818977
 20
0.8329739929287416
 10
2.194262998747586
 20
0.8555548375256437
 10
2.2159591145333066
 20
0.877406261168971
 10
2.2383900551631313
 20
0.8985026840384738
 10
2.261529562419804
 20
0.9188194101365931
 10
2.285350548620344
 20
0.9383326561982118
 10
2.309825128325561
 20
0.9570195795319381
 10
2.334924650983446
 20
0.9748583047603259
 10
2.3606197344682176
 20
0.9918279494277376
 10
2.3868802994757714
 20
1.0079086484458655
 10
2.4136756047352623
 20
1.0230815773482995
 10
2.4409742829955983
 20
1.037328974326914
 10
2.468744377744729
 20
1.050634161024285
 10
2.4969533806187307
 20
1.0629815620577885
 10
2.5255682694569077
 20
1.0743567232525306
 10
2.5545555469583547
 20
1.084746328561766
 10
2.5838812798947313
 20
1.094138215654993
 10
2.613511138833342
 20
1.1025213901554793
 10
2.6434104383240276
 20
1.1098860385105547
 10
2.674519739693139
 20
1.1164107867154718
 10
2.7058400437736574
 20
1.1218329194246215
 10
2.737332282895414
 20
1.1261456732907593
 10
2.76895717492348
 20
1.1293436687605727
 10
2.800675272257101
 20
1.1314229167849166
 10
2.832447011035024
 20
1.1323808237945903
 10
2.8642327604858475
 20
1.1322161949354508
 10
2.8959928723618265
 20
1.1309292355588234
 10
2.9276877303944815
 20
1.1285215509653568
 10
2.959277799710317
 20
1.124996144402635
 10
2.9907236761450093
 20
1.12035741331905
 10
3.021986135394556
 20
1.1146111438786026
 10
3.0530261819420708
 20
1.1077645037434787
 10
3.0838050976992033
 20
1.0998260331333989
 10
3.114284490301504
 20
1.0908056341728969
 10
3.144426340997491
 20
1.0807145585398135
 10
3.1741930520716934
 20
1.0695653934304112
 10
3.2035474937425086
 20
1.0573720458586213
 10
3.232453050476376
 20
1.0441497253089989
 10
3.2608736666605007
 20
1.0299149247650345
 10
3.2887738915771556
 20
1.014685400136477
 10
3.316118923623461
 20
0.9984801481113371
 10
3.342874653721485
 20
0.9813193824601931
 10
3.3690077078645153
 20
0.9632245088223577
 10
3.3944854887464353
 20
0.944218098005356
 10
3.419276216422275
 20
0.9243238578310211
 10
3.443348967949218
 20
0.9035666035633234
 10
3.466673715958618
 20
0.8819722269548225
 10
3.4892213661109164
 20
0.8595676639503511
 10
3.5109637933867335
 20
0.8363808610882145
 10
3.531873877168872
 20
0.8124407406408204
 10
3.643134344147029
 20
0.3249767845499086
 10
3.643134344147029
 20
0.3249767845499086
 10
3.6222242603648906
 20
0.3489169049973027
 10
3.6004818330890735
 20
0.37210370785943925
 10
3.577934182936775
 20
0.3945082708639108
 10
3.554609434927375
 20
0.4161026474724117
 10
3.5305366834004324
 20
0.4368599017401093
 10
3.5057459557245925
 20
0.4567541419144443
 10
3.4802681748426725
 20
0.4757605527314458
 10
3.4541351206996422
 20
0.49385542636928137
 10
3.4273793906016183
 20
0.5110161920204253
 10
3.4000343585553128
 20
0.527221444045565
 10
3.372134133638658
 20
0.5424509686741226
 10
3.343713517454533
 20
0.5566857692180871
 10
3.3148079607206657
 20
0.5699080897677095
 10
3.2854535190498506
 20
0.5821014373394994
 10
3.255686807975648
 20
0.5932506024489015
 10
3.225544957279661
 20
0.603341678081985
 10
3.1950655646773605
 20
0.612362077042487
 10
3.1642866489202284
 20
0.6203005476525668
 10
3.1332466023727132
 20
0.6271471877876907
 10
3.1019841431231665
 20
0.6328934572281381
 10
3.070538266688474
 20
0.6375321883117232
 10
3.0389481973726387
 20
0.6410575948744449
 10
3.0072533393399836
 20
0.6434652794679117
 10
2.9754932274640047
 20
0.6447522388445389
 10
2.9437074780131813
 20
0.6449168677036785
 10
2.911935739235258
 20
0.6439589606940047
 10
2.880217641901637
 20
0.6418797126696609
 10
2.8485927498735713
 20
0.6386817171998476
 10
2.8171005107518146
 20
0.6343689633337097
 10
2.785780206671296
 20
0.62894683062456
 10
2.7546709053021847
 20
0.6224220824196427
 10
2.7247716058114992
 20
0.6150574340645677
 10
2.6951417468728884
 20
0.6066742595640813
 10
2.665816013936512
 20
0.5972823724708541
 10
2.6368287364350653
 20
0.5868927671616188
 10
2.608213847596888
 20
0.5755176059668766
 10
2.580004844722886
 20
0.5631702049333732
 10
2.5522347499737554
 20
0.5498650182360023
 10
2.5249360717134195
 20
0.5356176212573877
 10
2.4981407664539286
 20
0.5204446923549537
 10
2.4718802014463748
 20
0.5043639933368257
 10
2.446185117961603
 20
0.48739434866941406
 10
2.421085595303718
 20
0.4695556234410262
 10
2.396611015598501
 20
0.45086870010730007
 10
2.372790029397961
 20
0.4313554540456812
 10
2.3496505221412884
 20
0.4110387279475619
 10
2.327219581511464
 20
0.3899423050780593
 10
2.3055234657257433
 20
0.36809088143473173
 10
2.2845875727971343
 20
0.3455100368378297
 10
2.264436410802853
 20
0.32222620498592397
 10
2.2450935691945557
 20
0.2982666425119571
 10
2.226581691183942
 20
0.27365939707595255
 10
2.2089224472360467
 20
0.2484332745317266
 10
2.1921365097012546
 20
0.22261780520603652
 10
2.176243528615732
 20
0.19624320932964756
 10
2.161262108698607
 20
0.16934036166077893
 10
2.1472097875728204
 20
0.14194075534234124
 10
2.13410301523515
 20
0.11407646503528224
 10
2.121957134799433
 20
0.08578010937118863
 10
2.110786364535536
 20
0.05708481276810706
 10
2.1006037812250957
 20
0.028024166654272542
 10
2.091421304853511
 20
-0.0013678098548514095
 10
2.083249684656111
 20
-0.03105670978019448
 10
1.9719892176779539
 20
0.4564072463107174
  0
LWPOLYLINE
  5
63
330
17
100
AcDbEntity
  8
SCAN_FOOTPRINTS
100
AcDbPolyline
 90
130
 70
1
 10
1.8209871641223452
 20
0.8837730462198431
 10
1.8223475030010157
 20
0.9145359399972947
 10
1.824759425454992
 20
0.9452342915084689
 10
1.8282201080278329
 20
0.9758321644992116
 10
1.8327254995584052
 20
1.0062937403380259
 10
1.8382703259232747
 20
1.0365833599462524
 10
1.8448480962107254
 20
1.066665565541473
 10
1.852451110319183
 20
1.0965051421452754
 10
1.8610704679711438
 20
1.1260671588067812
 10
1.8706960791320633
 20
1.1553170094936893
 10
1.8813166758219997
 20
1.1842204536029524
 10
1.8929198253061927
 20
1.2127436560436855
 10
1.9054919446491332
 20
1.2408532268453625
 10
1.9190183166150825
 20
1.2685162602449442
 10
1.9334831068964367
 20
1.2957003732071877
 10
1.9488693826497625
 20
1.322373743333031
 10
1.9651591323178024
 20
1.348505146111684
 10
1.9823332867142525
 20
1.37406399147282
 10
2.0003717413466284
 20
1.3990203595960733
 10
2.019253379951082
 20
1.423345035935922
 10
2.0389560992116262
 20
1.4470095454209668
 10
2.0594568346348274
 20
1.4699861857875545
 10
2.0807315875496744
 20
1.4922480600087382
 10
2.1027554532010195
 20
1.5137691077806075
 10
2.125502649903707
 20
1.534524136029127
 10
2.1489465492232522
 20
1.5544888484017765
 10
2.1730597071477513
 20
1.5736398737094655
 10
2.197813896214525
 20
1.5919547932854299
 10
2.2231801385538863
 20
1.6094121672290789
 10
2.2491287398113586
 20
1.6259915595040777
 10
2.2756293239086247
 20
1.641673561861281
 10
2.3026508686025196
 20
1.6564398165585097
 10
2.330161741800441
 20
1.6702730378505832
 10
2.359039174969276
 20
1.6835566677908984
 10
2.3883676756009207
 20
1.6958122796283952
 10
2.418110660519609
 20
1.7070245862126119
 10
2.448231029538776
 20
1.717179601769517
 10
2.478691211738319
 20
1.7262646593467932
 10
2.50945321232903
 20
1.7342684266140782
 10
2.5404786600457476
 20
1.7411809199984511
 10
2.571728855010108
 20
1.7469935171375326
 10
2.603164817003194
 20
1.7516989676346713
 10
2.6347473340878733
 20
1.755291402102789
 10
2.666437011520167
 20
1.7577663394856193
 10
2.69819432088865
 20
1.75912069264719
 10
2.7299796494205757
 20
1.759352772222594
 10
2.761753349393237
 20
1.758462288725232
 10
2.7934757875889176
 20
1.7564503529079076
 10
2.8251073947317495
 20
1.7533194743773195
 10
2.856608714844819
 20
1.749073558463679
 10
2.8879404544659386
 20
1.7437179013493624
 10
2.9190635316607128
 20
1.7372591834626676
 10
2.9499391247717472
 20
1.729705461144921
 10
2.980528720843202
 20
1.7210661566013252
 10
3.0107941636602833
 20
1.7113520461480847
 10
3.040697701343748
 20
1.7005752467704685
 10
3.0702020334400597
 20
1.6887492010085778
 10
3.099270357448453
 20
1.6758886601896674
 10
3.127866414726872
 20
1.662009666027944
 10
3.1559545357195224
 20
1.6471295306147837
 10
3.183499684449622
 20
1.6312668148243374
 10
3.2104675022218467
 20
1.6144413051614517
 10
3.236824350479968
 20
1.5966739890807893
 10
3.262537352766216
 20
1.5779870288079363
 10
3.479479222324995
 20
1.1275025948567265
 10
3.479479222324995
 20
1.1275025948567265
 10
3.453766220038747
 20
1.1461895551295798
 10
3.4274093717806258
 20
1.163956871210242
 10
3.400441554008401
 20
1.180782380873128
 10
3.372896405278302
 20
1.1966450966635742
 10
3.344808284285651
 20
1.2115252320767345
 10
3.316212227007232
 20
1.225404226238458
 10
3.287143902998839
 20
1.238264767057368
 10
3.257639570902527
 20
1.250090812819259
 10
3.2277360332190623
 20
1.260867612196875
 10
3.197470590401981
 20
1.2705817226501155
 10
3.1668809943305263
 20
1.2792210271937114
 10
3.136005401219492
 20
1.2867747495114583
 10
3.104882324024718
 20
1.293233467398153
 10
3.073550584403598
 20
1.2985891245124694
 10
3.0420492642905286
 20
1.30283504042611
 10
3.0104176571476966
 20
1.3059659189566981
 10
2.978695218952016
 20
1.3079778547740224
 10
2.9469215189793547
 20
1.3088683382713844
 10
2.915136190447429
 20
1.3086362586959805
 10
2.8833788810789462
 20
1.3072819055344098
 10
2.8516892036466523
 20
1.3048069681515797
 10
2.820106686561973
 20
1.3012145336834617
 10
2.788670724568887
 20
1.2965090831863233
 10
2.7574205296045267
 20
1.2906964860472414
 10
2.726395081887809
 20
1.2837839926628687
 10
2.695633081297098
 20
1.2757802253955834
 10
2.665172899097555
 20
1.2666951678183072
 10
2.6350525300783882
 20
1.2565401522614024
 10
2.6053095451596997
 20
1.2453278456771857
 10
2.575981044528055
 20
1.233072233839689
 10
2.54710361135922
 20
1.2197886038993735
 10
2.5195927381612986
 20
1.2059553826073002
 10
2.4925711934674037
 20
1.1911891279100715
 10
2.4660706093701377
 20
1.1755071255528682
 10
2.4401220081126653
 20
1.1589277332778694
 10
2.414755765773304
 20
1.1414703593342204
 10
2.390001576706531
 20
1.123155439758256
 10
2.3658884187820313
 20
1.1040044144505667
 10
2.342444519462486
 20
1.0840397020779173
 10
2.3196973227597986
 20
1.063284673829398
 10
2.2976734571084534
 20
1.0417636260575287
 10
2.2763987041936065
 20
1.0195017518363447
 10
2.2558979687704053
 20
0.9965251114697571
 10
2.236195249509861
 20
0.9728606019847126
 10
2.2173136109054075
 20
0.9485359256448637
 10
2.1992751562730315
 20
0.9235795575216106
 10
2.1821010018765814
 20
0.8980207121604743
 10
2.1658112522085418
 20
0.8718893093818214
 10
2.150424976455216
 20
0.8452159392559782
 10
2.1359601861738615
 20
0.8180318262937345
 10
2.122433814207912
 20
0.7903687928941527
 10
2.1098616948649718
 20
0.762259222092476
 10
2.0982585453807787
 20
0.7337360196517428
 10
2.0876379486908423
 20
0.7048325755424796
 10
2.078012337529923
 20
0.6755827248555718
 10
2.069392979877962
 20
0.6460207081940657
 10
2.0617899657695045
 20
0.6161811315902633
 10
2.0552121954820537
 20
0.5860989259950429
 10
2.0496673691171843
 20
0.5558093063868164
 10
2.045161977586612
 20
0.525347730548002
 10
2.041701295013771
 20
0.4947498575572594
 10
2.0392893725597947
 20
0.464051506046085
 10
2.037929033681124
 20
0.43328861226863347
 10
1.8209871641223452
 20
0.8837730462198432
  0
LWPOLYLINE
  5
64
330
17
100
AcDbEntity
  8
SCAN_FOOTPRINTS
100
AcDbPolyline
 90
130
 70
1
 10
1.578673210377441
 20
1.2668227752766466
 10
1.573154054865726
 20
1.2971170829575474
 10
1.5686744795389396
 20
1.3275824659408493
 10
1.5652397282994266
 20
1.3581832606911535
 10
1.562853821952455
 20
1.3888836451566788
 10
1.561519553499364
 20
1.419647680703445
 10
1.5612384848680056
 20
1.4504393541859315
 10
1.5620109450843138
 20
1.4812226201049632
 10
1.5638360298871379
 20
1.5119614428034673
 10
1.5667116027867936
 20
1.5426198386507126
 10
1.5706342975660912
 20
1.5731619181656384
 10
1.5755995222209127
 20
1.6035519280299793
 10
1.581601464335726
 20
1.6337542929419866
 10
1.5886330978877437
 20
1.6637336572617605
 10
1.5966861914717598
 20
1.6934549263994447
 10
1.6057513179360388
 20
1.7228833078978256
 10
1.615817865417971
 20
1.7519843521612466
 10
1.6268740497665852
 20
1.7807239927831653
 10
1.63890692833737
 20
1.8090685864251346
 10
1.6519024151432533
 20
1.8369849522005304
 10
1.6658452973440103
 20
1.8644404105169274
 10
1.680719253054792
 20
1.8914028213316392
 10
1.6965068704529322
 20
1.917840621775654
 10
1.7131896681606564
 20
1.9437228631019134
 10
1.7307481168798466
 20
1.9690192469146874
 10
1.7491616622535209
 20
1.9937001606376281
 10
1.7684087489272753
 20
2.0177367121789906
 10
1.7884668457825204
 20
2.041100763753433
 10
1.8093124723119667
 20
2.063764964820809
 10
1.830921226106492
 20
2.0857027841033897
 10
1.8532678114212084
 20
2.10688854064404
 10
1.8763260687872911
 20
2.1272974338689816
 10
1.9000690056349032
 20
2.1469055726199673
 10
1.9252665355227165
 20
2.166281987622865
 10
1.9511325792186636
 20
2.1847565310361987
 10
1.9776348724745714
 20
2.2023061584678465
 10
2.0047403574105105
 20
2.2189089792281678
 10
2.0324152237498465
 20
2.234544283635555
 10
2.060624950992799
 20
2.2491925688488483
 10
2.0893343514759075
 20
2.2628355631943826
 10
2.118507614263686
 20
2.275456248957328
 10
2.148108349817724
 20
2.287038883608895
 10
2.1780996353875146
 20
2.2975690194429212
 10
2.208444061066386
 20
2.3070335215973525
 10
2.239103776455093
 20
2.3154205844381344
 10
2.2700405378748663
 20
2.3227197462850753
 10
2.30121575607101
 20
2.3289219024613237
 10
2.332590544347573
 20
2.3340193166501706
 10
2.36412576707302
 20
2.3380056305450116
 10
2.3957820884964294
 20
2.3408758717804434
 10
2.4275200218132995
 20
2.3426264601345888
 10
2.459299978419782
 20
2.3432552119949177
 10
2.49108231729389
 20
2.3427613430819982
 10
2.522827394442093
 20
2.3411454694277736
 10
2.5544956123496183
 20
2.3384096066071507
 10
2.586047469372776
 20
2.3345571672238514
 10
2.6174436090116986
 20
2.329592956653673
 10
2.648644869002033
 20
2.323523167050456
 10
2.6796123301643546
 20
2.3163553696222454
 10
2.710307364950363
 20
2.308098505187273
 10
2.7406916856253107
 20
2.2987628730215466
 10
2.7707273920265614
 20
2.2883601180119535
 10
2.8003770188387107
 20
2.2769032161309006
 10
2.829603582326289
 20
2.2644064582506203
 10
3.1413484832556557
 20
1.8734907170166053
 10
3.1413484832556557
 20
1.8734907170166053
 10
3.1121219197680774
 20
1.885987474896886
 10
3.082472292955928
 20
1.8974443767779385
 10
3.0524365865546774
 20
1.9078471317875318
 10
3.0220522658797297
 20
1.9171827639532582
 10
2.9913572310937213
 20
1.9254396283882305
 10
2.9603897699313997
 20
1.9326074258164414
 10
2.9291885099410653
 20
1.938677215419658
 10
2.8977923703021427
 20
1.9436414259898367
 10
2.866240513278985
 20
1.9474938653731357
 10
2.83457229537146
 20
1.9502297281937588
 10
2.802827218223257
 20
1.951845601847983
 10
2.771044879349149
 20
1.9523394707609028
 10
2.7392649227426666
 20
1.9517107189005738
 10
2.707526989425796
 20
1.9499601305464282
 10
2.675870668002387
 20
1.9470898893109965
 10
2.6443354452769396
 20
1.9431035754161554
 10
2.612960657000377
 20
1.938006161227309
 10
2.581785438804233
 20
1.93180400505106
 10
2.55084867738446
 20
1.9245048432041192
 10
2.5201889619957525
 20
1.9161177803633378
 10
2.4898445363168813
 20
1.906653278208906
 10
2.4598532507470905
 20
1.8961231423748797
 10
2.4302525151930525
 20
1.884540507723313
 10
2.401079252405274
 20
1.8719198219603674
 10
2.3723698519221657
 20
1.8582768276148336
 10
2.344160124679213
 20
1.8436285424015404
 10
2.316485258339877
 20
1.8279932379941528
 10
2.289379773403938
 20
1.8113904172338318
 10
2.2628774801480303
 20
1.7938407898021838
 10
2.2370114364520832
 20
1.7753662463888502
 10
2.21181390656427
 20
1.7559898313859525
 10
2.188070969716658
 20
1.736381692634967
 10
2.1650127123505754
 20
1.715972799410025
 10
2.1426661270358585
 20
1.6947870428693748
 10
2.1210573732413334
 20
1.672849223586794
 10
2.1002117467118873
 20
1.6501850225194181
 10
2.080153649856642
 20
1.6268209709449755
 10
2.0609065631828876
 20
1.6027844194036132
 10
2.0424930178092136
 20
1.5781035056806725
 10
2.024934569090023
 20
1.5528071218678985
 10
2.008251771382299
 20
1.526924880541639
 10
1.992464153984159
 20
1.5004870800976242
 10
1.977590198273377
 20
1.4735246692829125
 10
1.9636473160726202
 20
1.4460692109665154
 10
1.950651829266737
 20
1.4181528451911196
 10
1.938618950695952
 20
1.3898082515491503
 10
1.9275627663473376
 20
1.3610686109272319
 10
1.9174962188654054
 20
1.3319675666638107
 10
1.9084310924011267
 20
1.3025391851654298
 10
1.9003779988171103
 20
1.2728179160277455
 10
1.8933463652650926
 20
1.2428385517079716
 10
1.8873444231502794
 20
1.2126361867959643
 10
1.8823791984954579
 20
1.1822461769316237
 10
1.8784565037161605
 20
1.1517040974166977
 10
1.8755809308165048
 20
1.1210457015694524
 10
1.8737558460136805
 20
1.090306878870948
 10
1.8729833857973723
 20
1.0595236129519163
 10
1.8732644544287307
 20
1.0287319394694303
 10
1.8745987228818217
 20
0.9979679039226639
 10
1.8769846292287933
 20
0.9672675194571386
 10
1.8804193804683065
 20
0.9366667247068344
 10
1.8848989557950926
 20
0.9062013417235324
 10
1.8904181113068077
 20
0.8759070340426316
 10
1.578673210377441
 20
1.2668227752766466
  0
LWPOLYLINE
  5
65
330
17
100
AcDbEntity
  8
SCAN_FOOTPRINTS
100
AcDbPolyline
 90
130
 70
1
 10
1.2571979898989658
 20
1.5863487205898459
 10
1.2450760935002085
 20
1.6146553590890633
 10
1.2339296450046224
 20
1.6433601120293495
 10
1.2237716927221767
 20
1.672429376912644
 10
1.214614127804576
 20
1.7018291245341375
 10
1.2064676703251822
 20
1.7315249388177034
 10
1.1993418567298315
 20
1.7614820571042127
 10
1.193245028673232
 20
1.791665410845569
 10
1.1881843232540152
 20
1.8220396666568228
 10
1.1841656646598717
 20
1.8525692676783125
 10
1.1811937572325495
 20
1.8832184751994054
 10
1.1792720799608336
 20
1.9139514104951258
 10
1.1784028824079553
 20
1.9447320968266828
 10
1.178587182078199
 20
1.9755245015567318
 10
1.1798247632257843
 20
2.006292578330081
 10
1.1821141771074255
 20
2.0370003092704514
 10
1.185452743678264
 20
2.067611747143894
 10
1.1898365547291978
 20
2.0980910574395244
 10
1.1952604784619276
 20
2.1284025603182855
 10
1.2017181654963665
 20
2.1585107723806582
 10
1.209202056303384
 20
2.1883804482044136
 10
1.2177033900541783
 20
2.2179766216037775
 10
1.2272122148759195
 20
2.2472646465617196
 10
1.237717399501661
 20
2.276210237787443
 10
1.2492066463008766
 20
2.3047795108515987
 10
1.261666505675374
 20
2.3329390218522423
 10
1.2750823918037273
 20
2.360655806565095
 10
1.2894385997158035
 20
2.3878974190322904
 10
1.3047183236773925
 20
2.414631969544413
 10
1.3209036768634155
 20
2.4408281619713916
 10
1.3379757122966884
 20
2.4664553303985253
 10
1.3559144450277256
 20
2.4914834750247654
 10
1.3746988755296188
 20
2.5158832972812317
 10
1.3949529927721138
 20
2.540380882989604
 10
1.4160595480942557
 20
2.5641479672290544
 10
1.4379922140395927
 20
2.5871549039078485
 10
1.4607236326949677
 20
2.6093729951113214
 10
1.4842254498156644
 20
2.630774526898488
 10
1.5084683501933345
 20
2.651332803871283
 10
1.5334220942225942
 20
2.6710221824733096
 10
1.5590555556206749
 20
2.68981810297657
 10
1.5853367602530781
 20
2.707697120116266
 10
1.6122329260168087
 20
2.7246369323354642
 10
1.6397105037314312
 20
2.740616409603155
 10
1.6677352189869519
 20
2.7556156197709862
 10
1.6962721148963187
 20
2.769615853435813
 10
1.7252855956992161
 20
2.7825996472770465
 10
1.754739471162768
 20
2.794550805839687
 10
1.784597001723754
 20
2.805454421735873
 10
1.814820944316047
 20
2.815296894239749
 10
1.8453735988260918
 20
2.8240659462524587
 10
1.8762168551184917
 20
2.831750639616095
 10
1.9073122405730356
 20
2.838341388757514
 10
1.9386209680738775
 20
2.8438299726449845
 10
1.9701039843910015
 20
2.8482095450427733
 10
2.00172201889363
 20
2.8514746430508557
 10
2.0334356325348053
 20
2.8536211939191167
 10
2.065205267046051
 20
2.8546465201275324
 10
2.09699129428074
 20
2.854549342726
 10
2.128754065644632
 20
2.8533297829296482
 10
2.160453961551912
 20
2.850989361967637
 10
2.1920514408450433
 20
2.847530999185639
 10
2.2235070901168
 20
2.8429590084043683
 10
2.2547816728729395
 20
2.8372790925386937
 10
2.6456974141069547
 20
2.525534191609327
 10
2.6456974141069547
 20
2.525534191609327
 10
2.6144228313508147
 20
2.531214107475001
 10
2.582967182079058
 20
2.5357860982562723
 10
2.5513697027859266
 20
2.5392444610382703
 10
2.519669806878647
 20
2.5415848820002815
 10
2.487907035514755
 20
2.5428044417966333
 10
2.4561210082800655
 20
2.5429016191981657
 10
2.4243513737688205
 20
2.5418762929897496
 10
2.392637760127645
 20
2.539729742121489
 10
2.3610197256250167
 20
2.5364646441134067
 10
2.3295367093078925
 20
2.532085071715618
 10
2.2982279818070506
 20
2.526596487828147
 10
2.2671325963525066
 20
2.5200057386867285
 10
2.236289340060107
 20
2.512321045323092
 10
2.205736685550062
 20
2.5035519933103823
 10
2.175512742957769
 20
2.493709520806506
 10
2.145655212396783
 20
2.4828059049103204
 10
2.1162013369332313
 20
2.4708547463476798
 10
2.0871878561303334
 20
2.457870952506446
 10
2.058650960220967
 20
2.443870718841619
 10
2.030626244965446
 20
2.4288715086737884
 10
2.0031486672508234
 20
2.4128920314060975
 10
1.976252501487093
 20
2.395952219186899
 10
1.9499712968546898
 20
2.3780732020472035
 10
1.9243378354566092
 20
2.359277281543943
 10
1.8993840914273494
 20
2.3395879029419158
 10
1.8751411910496791
 20
2.3190296259691214
 10
1.8516393739289827
 20
2.2976280941819547
 10
1.8289079552736074
 20
2.275410002978482
 10
1.8069752893282705
 20
2.2524030662996877
 10
1.7858687340061288
 20
2.228635982060237
 10
1.7656146167636337
 20
2.204138396351865
 10
1.7468301862617406
 20
2.1797385740953987
 10
1.7288914535307032
 20
2.154710429469158
 10
1.7118194180974302
 20
2.129083261042025
 10
1.6956340649114074
 20
2.102887068615046
 10
1.6803543409498185
 20
2.0761525181029237
 10
1.6659981330377422
 20
2.0489109056357284
 10
1.652582246909389
 20
2.021194120922875
 10
1.6401223875348916
 20
1.993034609922232
 10
1.6286331407356758
 20
1.964465336858076
 10
1.6181279561099344
 20
1.9355197456323525
 10
1.6086191312881932
 20
1.9062317206744106
 10
1.600117797537399
 20
1.876635547275047
 10
1.5926339067303814
 20
1.8467658714512916
 10
1.5861762196959426
 20
1.8166576593889185
 10
1.5807522959632128
 20
1.7863461565101575
 10
1.576368484912279
 20
1.7558668462145275
 10
1.5730299183414402
 20
1.7252554083410845
 10
1.5707405044597993
 20
1.6945476774007142
 10
1.569502923312214
 20
1.6637796006273649
 10
1.56931862364197
 20
1.632987195897316
 10
1.5701878211948483
 20
1.6022065095657592
 10
1.5721094984665644
 20
1.5714735742700385
 10
1.5750814058938867
 20
1.5408243667489456
 10
1.57910006448803
 20
1.5102947657274561
 10
1.5841607699072466
 20
1.479920509916202
 10
1.5902575979638462
 20
1.4497371561748458
 10
1.597383411559197
 20
1.4197800378883367
 10
1.6055298690385909
 20
1.3900842236047706
 10
1.6146874339561916
 20
1.3606844759832772
 10
1.6248453862386374
 20
1.3316152110999826
 10
1.6359918347342233
 20
1.3029104581596966
 10
1.6481137311329808
 20
1.274603819660479
 10
1.2571979898989658
 20
1.5863487205898459
  0
LWPOLYLINE
  5
66
330
17
100
AcDbEntity
  8
SCAN_FOOTPRINTS
100
AcDbPolyline
 90
130
 70
1
 10
0.8726816126053273
 20
1.8263285170372847
 10
0.8545648178215928
 20
1.8512280733022393
 10
0.837310425628291
 20
1.8767328200264735
 10
0.8209386344462697
 20
1.902812900718831
 10
0.8054686095016689
 20
1.9294377853878961
 10
0.7909184603906331
 20
1.9565763062811619
 10
0.7773052198797671
 20
1.9841966943707763
 10
0.7646448239671544
 20
2.012266616543157
 10
0.7529520932272822
 20
2.0407532134489372
 10
0.7422407154617068
 20
2.0696231379689416
 10
0.7325232296757754
 20
2.0988425942511486
 10
0.7238110114001512
 20
2.12837737727296
 10
0.7161142593743357
 20
2.1581929128824493
 10
0.7094419836077709
 20
2.188254298271724
 10
0.7038019948324967
 20
2.218526342835023
 10
0.6992008953597146
 20
2.2489736093637145
 10
0.6956440713509583
 20
2.279560455529972
 10
0.6931356865129169
 20
2.3102510756105747
 10
0.6916786772232989
 20
2.3410095424019732
 10
0.6912747490934342
 20
2.371799849277571
 10
0.6919243749716423
 20
2.4025859523379776
 10
0.6936267943897054
 20
2.4333318126048913
 10
0.6963800144530912
 20
2.4640014382092277
 10
0.7001808121738842
 20
2.4945589265240944
 10
0.7050247382436963
 20
2.5249685061933005
 10
0.7109061222421379
 20
2.555194579006196
 10
0.7178180792747523
 20
2.5852017615698237
 10
0.7257525180326447
 20
2.614954926729599
 10
0.7347001502643714
 20
2.6444192446900296
 10
0.7446505016489955
 20
2.673560223787344
 10
0.7555919240575888
 20
2.702343750866288
 10
0.7675116091888222
 20
2.7307361312138365
 10
0.7803956035626803
 20
2.7587041280030595
 10
0.7946906821474902
 20
2.7870944731764786
 10
0.809979378278675
 20
2.8149623173955796
 10
0.8262426214601049
 20
2.842272899447844
 10
0.8434601255853972
 20
2.8689921532268574
 10
0.8616104142419809
 20
2.8950867502249804
 10
0.8806708474998961
 20
2.9205241411059717
 10
0.9006176501519192
 20
2.945272596305701
 10
0.9214259413697893
 20
2.9693012456103145
 10
0.9430697657395355
 20
2.9925801166624804
 10
0.9655221256372049
 20
3.0150801723476848
 10
0.9887550149045954
 20
3.0367733470139466
 10
1.0127394537829975
 20
3.0576325814797647
 10
1.0374455250613626
 20
3.0776318567866383
 10
1.0628424113938113
 20
3.096746226654056
 10
1.0888984337399366
 20
3.1149518485964673
 10
1.1155810908799435
 20
3.132226013663428
 10
1.1428570999553491
 20
3.148547174765818
 10
1.17069243798466
 20
3.163894973552803
 10
1.199052384302254
 20
3.1782502658060094
 10
1.2279015638675215
 20
3.1915951453192433
 10
1.257203991390249
 20
3.203912966233961
 10
1.2869231162172041
 20
3.2151883638026346
 10
1.317021867923927
 20
3.225407273554111
 10
1.347462702554869
 20
3.234556948837061
 10
1.3782076494541906
 20
3.2426259767196304
 10
1.409218358628809
 20
3.249604292225467
 10
1.440456148584617
 20
3.2554831908883632
 10
1.4718820545762
 20
3.2602553396098486
 10
1.5034568772098706
 20
3.263914785806201
 10
1.535141231339396
 20
3.2664569648334556
 10
1.5668955951934203
 20
3.2678787056811553
 10
2.01738002914463
 20
3.0509368361223763
 10
2.01738002914463
 20
3.0509368361223763
 10
1.9856256652906057
 20
3.0495150952746766
 10
1.9539413111610804
 20
3.046972916247422
 10
1.9223664885274094
 20
3.0433134700510696
 10
1.8909405825358263
 20
3.038541321329584
 10
1.8597027925800185
 20
3.032662422666688
 10
1.8286920834054001
 20
3.0256841071608513
 10
1.7979471365060786
 20
3.017615079278282
 10
1.7675063018751365
 20
3.008465403995332
 10
1.7374075501684136
 20
2.9982464942438556
 10
1.7076884253414588
 20
2.986971096675182
 10
1.678385997818731
 20
2.9746532757604642
 10
1.6495368182534635
 20
2.9613083962472304
 10
1.6211768719358695
 20
2.9469531039940238
 10
1.5933415339065586
 20
2.931605305207039
 10
1.5660655248311532
 20
2.915284144104649
 10
1.539382867691146
 20
2.8980099790376883
 10
1.5133268453450208
 20
2.879804357095277
 10
1.487929959012572
 20
2.8606899872278593
 10
1.463223887734207
 20
2.8406907119209857
 10
1.439239448855805
 20
2.8198314774551676
 10
1.4160065595884144
 20
2.7981383027889057
 10
1.393554199690745
 20
2.775638247103701
 10
1.371910375320999
 20
2.7523593760515355
 10
1.351102084103129
 20
2.728330726746922
 10
1.3311552814511056
 20
2.7035822715471927
 10
1.3120948481931904
 20
2.6781448806662014
 10
1.2939445595366068
 20
2.652050283668078
 10
1.2767270554113144
 20
2.625331029889065
 10
1.2604638122298846
 20
2.5980204478368005
 10
1.2451751160987
 20
2.5701526036176996
 10
1.23088003751389
 20
2.5417622584442805
 10
1.2179960431400316
 20
2.5137942616550575
 10
1.2060763580087985
 20
2.485401881307509
 10
1.195134935600205
 20
2.456618354228565
 10
1.185184584215581
 20
2.4274773751312506
 10
1.1762369519838545
 20
2.39801305717082
 10
1.1683025132259617
 20
2.3682598920110447
 10
1.1613905561933475
 20
2.338252709447417
 10
1.155509172194906
 20
2.3080266366345215
 10
1.1506652461250937
 20
2.2776170569653154
 10
1.146864448404301
 20
2.2470595686504486
 10
1.144111228340915
 20
2.2163899430461123
 10
1.142408808922852
 20
2.1856440827791985
 10
1.1417591830446439
 20
2.154857979718792
 10
1.1421631111745085
 20
2.124067672843194
 10
1.1436201204641265
 20
2.0933092060517957
 10
1.1461285053021677
 20
2.062618585971193
 10
1.1496853293109244
 20
2.0320317398049355
 10
1.1542864287837062
 20
2.001584473276244
 10
1.1599264175589805
 20
1.9713124287129449
 10
1.1665986933255454
 20
1.94125104332367
 10
1.1742954453513608
 20
1.9114355077141807
 10
1.183007663626985
 20
1.8819007246923696
 10
1.1927251494129165
 20
1.8526812684101626
 10
1.2034365271784917
 20
1.8238113438901582
 10
1.2151292579183641
 20
1.7953247469843776
 10
1.2277896538309767
 20
1.7672548248119972
 10
1.2414028943418425
 20
1.7396344367223828
 10
1.2559530434528783
 20
1.7124959158291169
 10
1.2714230683974792
 20
1.6858710311600518
 10
1.2877948595795006
 20
1.6597909504676944
 10
1.3050492517728023
 20
1.6342862037434602
 10
1.323166046556537
 20
1.6093866474785057
 10
0.8726816126053272
 20
1.8263285170372847
  0
LWPOLYLINE
  5
67
330
17
100
AcDbEntity
  8
SCAN_FOOTPRINTS
100
AcDbPolyline
 90
130
 70
1
 10
0.44440533525459147
 20
1.9747285755567257
 10
0.4212020938254831
 20
1.9949724818648003
 10
0.3987049652071053
 20
2.0159983078736823
 10
0.3769402850980209
 20
2.0377814402282546
 10
0.35593353177434106
 20
2.060296379051748
 10
0.3357092962642222
 20
2.083516767796531
 10
0.3162912535609978
 20
2.1074154240977405
 10
0.2977021349086399
 20
2.1319643715936345
 10
0.27996370119200065
 20
2.157134872675416
 10
0.26309671746297775
 20
2.1828974621281962
 10
0.24712092863243074
 20
2.209221981623704
 10
0.23205503635629365
 20
2.236077615024378
 10
0.21791667714295276
 20
2.2634329244575055
 10
0.2047224017075122
 20
2.2912558871171744
 10
0.19248765559711273
 20
2.3195139327509695
 10
0.1812267611099912
 20
2.348173981787521
 10
0.17095290052944234
 20
2.3772024840602706
 10
0.1616781006923081
 20
2.406565458082135
 10
0.15341321891006499
 20
2.4362285308250784
 10
0.14616793025898495
 20
2.466156977958034
 10
0.13995071625424865
 20
2.4963157644960714
 10
0.13476885492127466
 20
2.5266695858132207
 10
0.13062841227588107
 20
2.5571829089709466
 10
0.1275342352232559
 20
2.5878200143138894
 10
0.12548994588405027
 20
2.6185450372841856
 10
0.12449793735423342
 20
2.6493220104054065
 10
0.12455937090367453
 20
2.6801149053869864
 10
0.12567417461673158
 20
2.710887675299832
 10
0.12784104347643876
 20
2.7416042967737577
 10
0.13105744089219012
 20
2.772228812167336
 10
0.13531960166913587
 20
2.8027253716608116
 10
0.14062253641581457
 20
2.833058275222786
 10
0.1469600373848573
 20
2.8631920144015703
 10
0.1545792623806897
 20
2.894051508585284
 10
0.1632834602568648
 20
2.9246227027089056
 10
0.17306177375188087
 20
2.9548674635114804
 10
0.18390200579621224
 20
2.984748064911667
 10
0.19579063472643693
 20
3.014227235065713
 10
0.208712831151607
 20
3.043268202858834
 10
0.22265247645082709
 20
3.071834743772002
 10
0.23759218287896516
 20
3.0998912250669335
 10
0.2535133152554154
 20
3.1274026502329138
 10
0.2703960142088643
 20
3.1543347026400177
 10
0.28821922094905883
 20
3.180653788344275
 10
0.3069607035346843
 20
3.2063270779913866
 10
0.3265970846045811
 20
3.2313225477667196
 10
0.3471038705377103
 20
3.2556090193405107
 10
0.36845548200550016
 20
3.279156198758444
 10
0.3906252858784549
 20
3.3019347142290907
 10
0.41358562844723723
 20
3.323916152761087
 10
0.43730786991677517
 20
3.345073095604341
 10
0.4617624201303764
 20
3.3653791524510615
 10
0.4869187754792817
 20
3.3848089943539534
 10
0.5127455569516243
 20
3.4033383853205135
 10
0.5392105492733283
 20
3.420944212544019
 10
0.5662807410921291
 20
3.4376045152334993
 10
0.5939223661545866
 20
3.453298512006734
 10
0.6221009454247342
 20
3.4680066268120986
 10
0.650781330091822
 20
3.481710513346934
 10
0.6799277454135101
 20
3.4943930779419774
 10
0.709503835339823
 20
3.5060385008833066
 10
0.7394727078622038
 20
3.5166322561452077
 10
0.7697969810311027
 20
3.5261611295093456
 10
0.8004388295846945
 20
3.534613235047644
 10
1.2879027856756062
 20
3.4233527680694866
 10
1.2879027856756062
 20
3.4233527680694866
 10
1.2572609371220147
 20
3.4149006625311884
 10
1.2269366639531156
 20
3.40537178916705
 10
1.1969677914307346
 20
3.3947780339051494
 10
1.167391701504422
 20
3.38313261096382
 10
1.138245286182734
 20
3.3704500463687768
 10
1.109564901515646
 20
3.3567461598339414
 10
1.0813863222454985
 20
3.342038045028577
 10
1.0537446971830409
 20
3.326344048255342
 10
1.0266745053642403
 20
3.309683745565861
 10
1.0002095130425361
 20
3.292077918342356
 10
0.9743827315701936
 20
3.2735485273757963
 10
0.949226376221288
 20
3.2541186854729043
 10
0.9247718260076869
 20
3.233812628626184
 10
0.9010495845381492
 20
3.21265568578293
 10
0.8780892419693668
 20
3.1906742472509335
 10
0.8559194380964119
 20
3.1678957317802867
 10
0.8345678266286222
 20
3.1443485523623536
 10
0.8140610406954929
 20
3.1200620807885624
 10
0.7944246596255962
 20
3.0950666110132294
 10
0.7756831770399706
 20
3.069393321366118
 10
0.757859970299776
 20
3.0430742356618605
 10
0.7409772713463272
 20
3.0161421832547566
 10
0.7250561389698769
 20
2.9886307580887763
 10
0.710116432541739
 20
2.960574276793845
 10
0.6961767872425187
 20
2.932007735880677
 10
0.6832545908173487
 20
2.902966768087556
 10
0.6713659618871242
 20
2.8734875979335097
 10
0.6605257298427927
 20
2.8436069965333233
 10
0.6507474163477766
 20
2.8133622357307484
 10
0.6420432184716016
 20
2.7827910416071266
 10
0.6344239934757692
 20
2.7519315474234127
 10
0.6280864925067263
 20
2.721797808244629
 10
0.6227835577600477
 20
2.6914649046826544
 10
0.6185213969831019
 20
2.660968345189179
 10
0.6153049995673506
 20
2.6303438297956006
 10
0.6131381307076434
 20
2.599627208321675
 10
0.6120233269945863
 20
2.5688544384088288
 10
0.6119618934451453
 20
2.5380615434272493
 10
0.6129539019749621
 20
2.507284570306028
 10
0.6149981913141678
 20
2.4765595473357322
 10
0.6180923683667929
 20
2.445922441992789
 10
0.6222328110121865
 20
2.4154091188350635
 10
0.6274146723451605
 20
2.3850552975179142
 10
0.6336318863498968
 20
2.3548965109798767
 10
0.6408771750009769
 20
2.3249680638469212
 10
0.6491420567832198
 20
2.295304991103978
 10
0.6584168566203541
 20
2.2659420170821134
 10
0.668690717200903
 20
2.2369135148093635
 10
0.6799516116880246
 20
2.2082534657728123
 10
0.6921863577984241
 20
2.1799954201390173
 10
0.7053806332338646
 20
2.1521724574793484
 10
0.7195189924472054
 20
2.124817148046221
 10
0.7345848847233425
 20
2.0979615146455464
 10
0.7505606735538897
 20
2.071636995150039
 10
0.7674276572829124
 20
2.045874405697259
 10
0.7851660909995517
 20
2.0207039046154773
 10
0.8037552096519096
 20
1.9961549571195834
 10
0.8231732523551339
 20
1.972256300818374
 10
0.8433974878652528
 20
1.9490359120735905
 10
0.8644042411889327
 20
1.926520973250097
 10
0.886168921298017
 20
1.904737840895525
 10
0.908666049916395
 20
1.8837120148866429
 10
0.9318692913455033
 20
1.8634681085785685
 10
0.4444053352545914
 20
1.9747285755567257
  0
LWPOLYLINE
  5
68
330
17
100
AcDbEntity
  8
SCAN_FOOTPRINTS
100
AcDbPolyline
 90
130
 70
1
 10
-0.006155281280882761
 20
2.024107497549326
 10
-0.033281461941811016
 20
2.0386806399070423
 10
-0.05989322701651144
 20
2.0541732224882834
 10
-0.08595942411059974
 20
2.070567109290373
 10
-0.11144953948514656
 20
2.0878431092214873
 10
-0.13633373377681812
 20
2.105980998566225
 10
-0.1605828769285763
 20
2.1249595446599896
 10
-0.1841685822900506
 20
2.144756530744475
 10
-0.20706323984765582
 20
2.165348781975158
 10
-0.22924004854556265
 20
2.1867121925503463
 10
-0.25067304765967713
 20
2.208821753930029
 10
-0.27133714718791413
 20
2.231651584111497
 10
-0.29120815722117677
 20
2.255174957927462
 10
-0.3102628162606639
 20
2.2793643383311943
 10
-0.3284788184483626
 20
2.3041914086320845
 10
-0.345834839678839
 20
2.32962710564386
 10
-0.36231056256176586
 20
2.3556416537066767
 10
-0.37788670020596765
 20
2.382204599543245
 10
-0.3925450187971334
 20
2.4092848479081974
 10
-0.40626835894277297
 20
2.4368506979889526
 10
-0.41904065575943134
 20
2.464869880515478
 10
-0.4308469576786385
 20
2.4933095955355014
 10
-0.4416734439495887
 20
2.522136550810947
 10
-0.4515074408180551
 20
2.5513170007906605
 10
-0.4603374363626019
 20
2.5808167861137927
 10
-0.4681530939707253
 20
2.6106013735975933
 10
-0.4749452644391506
 20
2.640635896662817
 10
-0.48070599668411657
 20
2.6708851961494067
 10
-0.4854285470491109
 20
2.7013138614746834
 10
-0.4891073871991641
 20
2.7318862720858528
 10
-0.49173821059245554
 20
2.762566639158313
 10
-0.49331793752165704
 20
2.793319047490942
 10
-0.4938447187191169
 20
2.824107497549326
 10
-0.49328340706866586
 20
2.855888716846937
 10
-0.49160017227457714
 20
2.8876302935475318
 10
-0.48879711393529607
 20
2.9192926345026535
 10
-0.4848777284714954
 20
2.9508362453992825
 10
-0.4798469047647825
 20
2.982221780023433
 10
-0.47371091805950855
 20
3.0134100893390157
 10
-0.46647742213528415
 20
3.0443622703207494
 10
-0.45815543975996614
 20
3.0750397144802077
 10
-0.44875535143502626
 20
3.105404156024473
 10
-0.43828888244733527
 20
3.135417719587327
 10
-0.42676908824352006
 20
3.165042967473438
 10
-0.41421033814513036
 20
3.194242946356615
 10
-0.40062829742493317
 20
3.2229812333738797
 10
-0.38603990776669145
 20
3.2512219815578614
 10
-0.37046336613279696
 20
3.278929964550843
 10
-0.3539181020661233
 20
3.3060706205446797
 10
-0.33642475345440404
 20
3.3326100953917948
 10
-0.31800514078737563
 20
3.358515284833457
 10
-0.29868223993878606
 20
3.3837538757926877
 10
-0.27848015350722877
 20
3.4082943866802724
 10
-0.2574240807515422
 20
3.432106206663613
 10
-0.23554028615828318
 20
3.455159633849431
 10
-0.21285606668047644
 20
3.4774259123327
 10
-0.18939971768850963
 20
3.498877268065586
 10
-0.16520049767564093
 20
3.519486943501666
 10
-0.14028859176214836
 20
3.5392292309721967
 10
-0.114695074043641
 20
3.558079504752814
 10
-0.08845186883049984
 20
3.5760142517806575
 10
-0.06159171082679471
 20
3.5930111009836057
 10
-0.03414810429834825
 20
3.6090488511850394
 10
-0.006155281280882719
 20
3.6241074975493257
 10
0.4938447187191173
 20
3.6241074975493257
 10
0.4938447187191173
 20
3.6241074975493257
 10
0.46585189570165175
 20
3.6090488511850394
 10
0.43840828917320535
 20
3.5930111009836057
 10
0.4115481311695001
 20
3.5760142517806575
 10
0.38530492595635896
 20
3.558079504752814
 10
0.3597114082378517
 20
3.5392292309721967
 10
0.334799502324359
 20
3.519486943501666
 10
0.31060028231149045
 20
3.498877268065586
 10
0.28714393331952354
 20
3.4774259123327
 10
0.2644597138417169
 20
3.455159633849431
 10
0.2425759192484578
 20
3.432106206663613
 10
0.22151984649277126
 20
3.4082943866802724
 10
0.20131776006121385
 20
3.3837538757926877
 10
0.1819948592126244
 20
3.358515284833457
 10
0.163575246545596
 20
3.3326100953917948
 10
0.14608189793387674
 20
3.3060706205446797
 10
0.12953663386720296
 20
3.278929964550843
 10
0.11396009223330864
 20
3.2512219815578614
 10
0.09937170257506692
 20
3.2229812333738797
 10
0.08578966185486972
 20
3.194242946356615
 10
0.07323091175647992
 20
3.165042967473438
 10
0.0617111175526647
 20
3.135417719587327
 10
0.051244648564973815
 20
3.105404156024473
 10
0.04184456024003382
 20
3.0750397144802077
 10
0.03352257786471593
 20
3.0443622703207494
 10
0.026289081940491416
 20
3.0134100893390157
 10
0.020153095235217484
 20
2.982221780023433
 10
0.015122271528504663
 20
2.9508362453992825
 10
0.011202886064703889
 20
2.9192926345026535
 10
0.008399827725422814
 20
2.8876302935475318
 10
0.0067165929313342055
 20
2.855888716846937
 10
0.006155281280883169
 20
2.824107497549326
 10
0.006682062478342914
 20
2.793319047490942
 10
0.008261789407544521
 20
2.762566639158313
 10
0.010892612800835868
 20
2.7318862720858528
 10
0.01457145295088913
 20
2.7013138614746834
 10
0.019294003315883487
 20
2.6708851961494067
 10
0.025054735560849358
 20
2.640635896662817
 10
0.03184690602927475
 20
2.6106013735975933
 10
0.03966256363739817
 20
2.5808167861137927
 10
0.04849255918194494
 20
2.5513170007906605
 10
0.05832655605041136
 20
2.522136550810947
 10
0.06915304232136153
 20
2.4933095955355014
 10
0.08095934424056869
 20
2.464869880515478
 10
0.09373164105722695
 20
2.4368506979889526
 10
0.10745498120286665
 20
2.4092848479081974
 10
0.12211329979403227
 20
2.382204599543245
 10
0.1376894374382341
 20
2.3556416537066767
 10
0.1541651603211611
 20
2.32962710564386
 10
0.1715211815516375
 20
2.3041914086320845
 10
0.1897371837393362
 20
2.2793643383311943
 10
0.20879184277882332
 20
2.255174957927462
 10
0.22866285281208584
 20
2.231651584111497
 10
0.24932695234032284
 20
2.208821753930029
 10
0.2707599514544374
 20
2.1867121925503463
 10
0.2929367601523441
 20
2.165348781975158
 10
0.31583141770994944
 20
2.144756530744475
 10
0.33941712307142374
 20
2.1249595446599896
 10
0.3636662662231818
 20
2.105980998566225
 10
0.38855046051485337
 20
2.0878431092214873
 10
0.4140405758894002
 20
2.070567109290373
 10
0.44010677298348855
 20
2.0541732224882834
 10
0.46671853805818897
 20
2.0386806399070423
 10
0.4938447187191172
 20
2.024107497549326
 10
-0.006155281280882816
 20
2.024107497549326
  0
LWPOLYLINE
  5
69
330
17
100
AcDbEntity
  8
SCAN_FOOTPRINTS
100
AcDbPolyline
 90
130
 70
1
 10
-0.4564072463107173
 20
1.9719892176779539
 10
-0.48609614623606034
 20
1.9801608378753532
 10
-0.5154881227451843
 20
1.9893433142469386
 10
-0.5445487688590187
 20
1.999525897557379
 10
-0.5732440654621004
 20
2.010696667821276
 10
-0.6015404211261939
 20
2.022842548256993
 10
-0.629404711433253
 20
2.0359493205946633
 10
-0.6568043177516907
 20
2.0500016417204496
 10
-0.6837071654205592
 20
2.064983061637575
 10
-0.7100817612969483
 20
2.080876042723097
 10
-0.7358972306226382
 20
2.0976619802578895
 10
-0.7611233531668642
 20
2.115321224205785
 10
-0.7857305986028689
 20
2.1338331022163985
 10
-0.8096901610768358
 20
2.153175943824696
 10
-0.8329739929287415
 20
2.173327105818977
 10
-0.8555548375256435
 20
2.194262998747586
 10
-0.877406261168971
 20
2.2159591145333066
 10
-0.8985026840384736
 20
2.2383900551631313
 10
-0.918819410136593
 20
2.261529562419804
 10
-0.9383326561982117
 20
2.285350548620344
 10
-0.957019579531938
 20
2.309825128325561
 10
-0.9748583047603259
 20
2.334924650983446
 10
-0.9918279494277374
 20
2.3606197344682176
 10
-1.0079086484458655
 20
2.3868802994757714
 10
-1.0230815773482993
 20
2.4136756047352623
 10
-1.037328974326914
 20
2.4409742829955983
 10
-1.0506341610242849
 20
2.468744377744729
 10
-1.0629815620577885
 20
2.4969533806187307
 10
-1.0743567232525306
 20
2.525568269456908
 10
-1.0847463285617658
 20
2.5545555469583547
 10
-1.094138215654993
 20
2.5838812798947313
 10
-1.1025213901554793
 20
2.613511138833342
 10
-1.1098860385105545
 20
2.6434104383240276
 10
-1.1164107867154718
 20
2.674519739693139
 10
-1.1218329194246213
 20
2.7058400437736574
 10
-1.126145673290759
 20
2.737332282895414
 10
-1.1293436687605727
 20
2.76895717492348
 10
-1.1314229167849164
 20
2.800675272257101
 10
-1.1323808237945903
 20
2.832447011035024
 10
-1.1322161949354506
 20
2.8642327604858475
 10
-1.1309292355588232
 20
2.8959928723618265
 10
-1.1285215509653566
 20
2.9276877303944815
 10
-1.1249961444026348
 20
2.959277799710317
 10
-1.1203574133190497
 20
2.9907236761450093
 10
-1.1146111438786024
 20
3.021986135394556
 10
-1.1077645037434785
 20
3.053026181942071
 10
-1.0998260331333987
 20
3.0838050976992033
 10
-1.0908056341728967
 20
3.114284490301504
 10
-1.0807145585398132
 20
3.144426340997491
 10
-1.069565393430411
 20
3.1741930520716934
 10
-1.0573720458586213
 20
3.203547493742509
 10
-1.0441497253089989
 20
3.232453050476376
 10
-1.0299149247650343
 20
3.2608736666605007
 10
-1.014685400136477
 20
3.2887738915771556
 10
-0.998480148111337
 20
3.316118923623461
 10
-0.9813193824601929
 20
3.342874653721485
 10
-0.9632245088223576
 20
3.3690077078645153
 10
-0.9442180980053558
 20
3.3944854887464353
 10
-0.924323857831021
 20
3.419276216422275
 10
-0.9035666035633233
 20
3.443348967949218
 10
-0.8819722269548225
 20
3.466673715958618
 10
-0.859567663950351
 20
3.4892213661109164
 10
-0.8363808610882144
 20
3.5109637933867335
 10
-0.8124407406408203
 20
3.531873877168872
 10
-0.3249767845499084
 20
3.643134344147029
 10
-0.3249767845499084
 20
3.643134344147029
 10
-0.34891690499730255
 20
3.6222242603648906
 10
-0.3721037078594391
 20
3.6004818330890735
 10
-0.39450827086391066
 20
3.577934182936775
 10
-0.41610264747241155
 20
3.554609434927375
 10
-0.43685990174010914
 20
3.5305366834004324
 10
-0.45675414191444413
 20
3.5057459557245925
 10
-0.4757605527314457
 20
3.4802681748426725
 10
-0.4938554263692812
 20
3.4541351206996422
 10
-0.5110161920204251
 20
3.4273793906016183
 10
-0.5272214440455649
 20
3.4000343585553128
 10
-0.5424509686741225
 20
3.372134133638658
 10
-0.556685769218087
 20
3.343713517454533
 10
-0.5699080897677093
 20
3.3148079607206657
 10
-0.5821014373394993
 20
3.2854535190498506
 10
-0.5932506024489014
 20
3.255686807975648
 10
-0.6033416780819849
 20
3.225544957279661
 10
-0.6123620770424869
 20
3.1950655646773605
 10
-0.6203005476525667
 20
3.1642866489202284
 10
-0.6271471877876906
 20
3.1332466023727132
 10
-0.632893457228138
 20
3.1019841431231665
 10
-0.6375321883117231
 20
3.070538266688474
 10
-0.6410575948744448
 20
3.0389481973726387
 10
-0.6434652794679114
 20
3.0072533393399836
 10
-0.6447522388445388
 20
2.9754932274640047
 10
-0.6449168677036784
 20
2.9437074780131813
 10
-0.6439589606940046
 20
2.911935739235258
 10
-0.6418797126696607
 20
2.880217641901637
 10
-0.6386817171998475
 20
2.8485927498735713
 10
-0.6343689633337096
 20
2.8171005107518146
 10
-0.6289468306245599
 20
2.785780206671296
 10
-0.6224220824196426
 20
2.7546709053021847
 10
-0.6150574340645676
 20
2.7247716058114992
 10
-0.6066742595640812
 20
2.6951417468728884
 10
-0.597282372470854
 20
2.665816013936512
 10
-0.5868927671616186
 20
2.6368287364350653
 10
-0.5755176059668765
 20
2.608213847596888
 10
-0.5631702049333731
 20
2.580004844722886
 10
-0.5498650182360022
 20
2.5522347499737554
 10
-0.5356176212573875
 20
2.5249360717134195
 10
-0.5204446923549536
 20
2.4981407664539286
 10
-0.5043639933368256
 20
2.4718802014463748
 10
-0.487394348669414
 20
2.446185117961603
 10
-0.4695556234410261
 20
2.421085595303718
 10
-0.45086870010729996
 20
2.396611015598501
 10
-0.4313554540456811
 20
2.372790029397961
 10
-0.41103872794756185
 20
2.3496505221412884
 10
-0.38994230507805927
 20
2.327219581511464
 10
-0.3680908814347316
 20
2.3055234657257433
 10
-0.34551003683782966
 20
2.2845875727971343
 10
-0.3222262049859239
 20
2.264436410802853
 10
-0.29826664251195706
 20
2.2450935691945557
 10
-0.27365939707595244
 20
2.226581691183942
 10
-0.24843327453172653
 20
2.2089224472360467
 10
-0.22261780520603647
 20
2.192136509701254
 10
-0.19624320932964745
 20
2.176243528615732
 10
-0.16934036166077887
 20
2.161262108698607
 10
-0.14194075534234118
 20
2.1472097875728204
 10
-0.11407646503528213
 20
2.13410301523515
 10
-0.08578010937118863
 20
2.121957134799433
 10
-0.05708481276810706
 20
2.110786364535536
 10
-0.02802416665427243
 20
2.1006037812250957
 10
0.0013678098548514095
 20
2.0914213048535104
 10
0.03105670978019459
 20
2.083249684656111
 10
-0.4564072463107173
 20
1.9719892176779539
  0
LWPOLYLINE
  5
6A
330
17
100
AcDbEntity
  8
SCAN_FOOTPRINTS
100
AcDbPolyline
 90
130
 70
1
 10
-0.883773046219843
 20
1.8209871641223452
 10
-0.9145359399972944
 20
1.8223475030010157
 10
-0.9452342915084687
 20
1.824759425454992
 10
-0.9758321644992114
 20
1.8282201080278329
 10
-1.0062937403380257
 20
1.8327254995584052
 10
-1.0365833599462522
 20
1.8382703259232747
 10
-1.0666655655414727
 20
1.8448480962107254
 10
-1.0965051421452752
 20
1.852451110319183
 10
-1.1260671588067812
 20
1.8610704679711438
 10
-1.155317009493689
 20
1.8706960791320633
 10
-1.1842204536029521
 20
1.8813166758219997
 10
-1.2127436560436853
 20
1.892919825306193
 10
-1.2408532268453623
 20
1.9054919446491332
 10
-1.268516260244944
 20
1.9190183166150825
 10
-1.2957003732071875
 20
1.9334831068964367
 10
-1.322373743333031
 20
1.9488693826497625
 10
-1.3485051461116837
 20
1.9651591323178024
 10
-1.3740639914728199
 20
1.9823332867142525
 10
-1.399020359596073
 20
2.0003717413466284
 10
-1.4233450359359219
 20
2.019253379951082
 10
-1.4470095454209666
 20
2.0389560992116262
 10
-1.4699861857875542
 20
2.0594568346348274
 10
-1.492248060008738
 20
2.0807315875496744
 10
-1.5137691077806072
 20
2.1027554532010195
 10
-1.5345241360291269
 20
2.125502649903707
 10
-1.5544888484017763
 20
2.1489465492232522
 10
-1.5736398737094652
 20
2.1730597071477518
 10
-1.5919547932854297
 20
2.197813896214525
 10
-1.6094121672290786
 20
2.2231801385538863
 10
-1.6259915595040775
 20
2.2491287398113586
 10
-1.6416735618612808
 20
2.2756293239086247
 10
-1.6564398165585095
 20
2.3026508686025196
 10
-1.670273037850583
 20
2.330161741800441
 10
-1.6835566677908982
 20
2.359039174969276
 10
-1.695812279628395
 20
2.3883676756009207
 10
-1.7070245862126117
 20
2.418110660519609
 10
-1.7171796017695167
 20
2.448231029538776
 10
-1.7262646593467927
 20
2.478691211738319
 10
-1.734268426614078
 20
2.50945321232903
 10
-1.7411809199984507
 20
2.5404786600457476
 10
-1.7469935171375326
 20
2.571728855010108
 10
-1.751698967634671
 20
2.603164817003194
 10
-1.755291402102789
 20
2.6347473340878733
 10
-1.757766339485619
 20
2.666437011520167
 10
-1.75912069264719
 20
2.69819432088865
 10
-1.7593527722225937
 20
2.7299796494205757
 10
-1.7584622887252317
 20
2.761753349393237
 10
-1.7564503529079074
 20
2.7934757875889176
 10
-1.7533194743773193
 20
2.8251073947317495
 10
-1.7490735584636787
 20
2.856608714844819
 10
-1.7437179013493624
 20
2.8879404544659386
 10
-1.7372591834626676
 20
2.9190635316607128
 10
-1.729705461144921
 20
2.9499391247717472
 10
-1.7210661566013248
 20
2.980528720843202
 10
-1.7113520461480842
 20
3.0107941636602833
 10
-1.7005752467704682
 20
3.040697701343748
 10
-1.6887492010085774
 20
3.0702020334400597
 10
-1.6758886601896672
 20
3.099270357448453
 10
-1.6620096660279438
 20
3.127866414726872
 10
-1.6471295306147835
 20
3.155954535719523
 10
-1.6312668148243372
 20
3.183499684449622
 10
-1.6144413051614515
 20
3.2104675022218467
 10
-1.596673989080789
 20
3.236824350479968
 10
-1.5779870288079358
 20
3.262537352766216
 10
-1.1275025948567263
 20
3.479479222324995
 10
-1.1275025948567263
 20
3.479479222324995
 10
-1.1461895551295795
 20
3.453766220038747
 10
-1.1639568712102417
 20
3.4274093717806258
 10
-1.1807823808731277
 20
3.400441554008401
 10
-1.196645096663574
 20
3.3728964052783015
 10
-1.211525232076734
 20
3.344808284285651
 10
-1.2254042262384577
 20
3.316212227007232
 10
-1.2382647670573679
 20
3.287143902998839
 10
-1.2500908128192587
 20
3.257639570902527
 10
-1.2608676121968747
 20
3.2277360332190623
 10
-1.2705817226501153
 20
3.197470590401981
 10
-1.2792210271937112
 20
3.1668809943305263
 10
-1.2867747495114579
 20
3.136005401219492
 10
-1.2932334673981527
 20
3.104882324024718
 10
-1.298589124512469
 20
3.073550584403598
 10
-1.3028350404261095
 20
3.0420492642905286
 10
-1.305965918956698
 20
3.0104176571476966
 10
-1.3079778547740222
 20
2.978695218952016
 10
-1.3088683382713842
 20
2.9469215189793547
 10
-1.3086362586959803
 20
2.915136190447429
 10
-1.3072819055344094
 20
2.8833788810789462
 10
-1.3048069681515795
 20
2.8516892036466523
 10
-1.3012145336834613
 20
2.820106686561973
 10
-1.296509083186323
 20
2.788670724568887
 10
-1.2906964860472412
 20
2.7574205296045267
 10
-1.2837839926628685
 20
2.726395081887809
 10
-1.2757802253955832
 20
2.695633081297098
 10
-1.266695167818307
 20
2.665172899097555
 10
-1.2565401522614021
 20
2.6350525300783882
 10
-1.2453278456771855
 20
2.6053095451596997
 10
-1.2330722338396887
 20
2.575981044528055
 10
-1.2197886038993733
 20
2.54710361135922
 10
-1.2059553826073
 20
2.5195927381612986
 10
-1.1911891279100713
 20
2.4925711934674037
 10
-1.175507125552868
 20
2.4660706093701377
 10
-1.1589277332778691
 20
2.4401220081126653
 10
-1.1414703593342201
 20
2.414755765773304
 10
-1.1231554397582557
 20
2.390001576706531
 10
-1.1040044144505665
 20
2.3658884187820313
 10
-1.0840397020779173
 20
2.342444519462486
 10
-1.0632846738293977
 20
2.3196973227597986
 10
-1.0417636260575285
 20
2.2976734571084534
 10
-1.0195017518363445
 20
2.2763987041936065
 10
-0.9965251114697569
 20
2.2558979687704053
 10
-0.9728606019847124
 20
2.236195249509861
 10
-0.9485359256448634
 20
2.2173136109054075
 10
-0.9235795575216104
 20
2.1992751562730315
 10
-0.8980207121604741
 20
2.1821010018765814
 10
-0.8718893093818212
 20
2.1658112522085418
 10
-0.8452159392559779
 20
2.150424976455216
 10
-0.8180318262937343
 20
2.1359601861738615
 10
-0.7903687928941525
 20
2.122433814207912
 10
-0.7622592220924758
 20
2.1098616948649718
 10
-0.7337360196517426
 20
2.0982585453807787
 10
-0.7048325755424795
 20
2.0876379486908423
 10
-0.6755827248555716
 20
2.078012337529923
 10
-0.6460207081940655
 20
2.069392979877962
 10
-0.6161811315902631
 20
2.0617899657695045
 10
-0.5860989259950427
 20
2.0552121954820537
 10
-0.5558093063868161
 20
2.0496673691171843
 10
-0.5253477305480019
 20
2.045161977586612
 10
-0.4947498575572592
 20
2.041701295013771
 10
-0.4640515060460848
 20
2.0392893725597947
 10
-0.43328861226863336
 20
2.037929033681124
 10
-0.883773046219843
 20
1.8209871641223452
  0
LWPOLYLINE
  5
6B
330
17
100
AcDbEntity
  8
SCAN_FOOTPRINTS
100
AcDbPolyline
 90
130
 70
1
 10
-1.2668227752766466
 20
1.5786732103774415
 10
-1.2971170829575474
 20
1.5731540548657261
 10
-1.3275824659408493
 20
1.5686744795389398
 10
-1.3581832606911535
 20
1.5652397282994268
 10
-1.3888836451566788
 20
1.5628538219524555
 10
-1.419647680703445
 20
1.5615195534993642
 10
-1.4504393541859315
 20
1.561238484868006
 10
-1.4812226201049632
 20
1.5620109450843143
 10
-1.5119614428034673
 20
1.5638360298871383
 10
-1.5426198386507126
 20
1.566711602786794
 10
-1.5731619181656384
 20
1.5706342975660916
 10
-1.6035519280299793
 20
1.575599522220913
 10
-1.6337542929419868
 20
1.5816014643357261
 10
-1.6637336572617605
 20
1.5886330978877439
 10
-1.6934549263994447
 20
1.5966861914717603
 10
-1.7228833078978256
 20
1.605751317936039
 10
-1.7519843521612466
 20
1.6158178654179711
 10
-1.7807239927831653
 20
1.6268740497665855
 10
-1.8090685864251346
 20
1.6389069283373705
 10
-1.8369849522005304
 20
1.6519024151432538
 10
-1.8644404105169274
 20
1.6658452973440105
 10
-1.8914028213316394
 20
1.6807192530547925
 10
-1.917840621775654
 20
1.6965068704529327
 10
-1.9437228631019134
 20
1.7131896681606569
 10
-1.9690192469146874
 20
1.730748116879847
 10
-1.9937001606376281
 20
1.749161662253521
 10
-2.0177367121789906
 20
1.7684087489272757
 10
-2.041100763753433
 20
1.7884668457825208
 10
-2.063764964820809
 20
1.8093124723119671
 10
-2.0857027841033897
 20
1.8309212261064924
 10
-2.10688854064404
 20
1.8532678114212089
 10
-2.127297433868982
 20
1.8763260687872916
 10
-2.1469055726199677
 20
1.9000690056349037
 10
-2.1662819876228654
 20
1.925266535522717
 10
-2.1847565310361987
 20
1.951132579218664
 10
-2.202306158467847
 20
1.9776348724745718
 10
-2.2189089792281678
 20
2.004740357410511
 10
-2.234544283635555
 20
2.032415223749847
 10
-2.2491925688488483
 20
2.0606249509927994
 10
-2.2628355631943826
 20
2.089334351475908
 10
-2.275456248957328
 20
2.1185076142636863
 10
-2.287038883608895
 20
2.1481083498177242
 10
-2.2975690194429212
 20
2.178099635387515
 10
-2.3070335215973525
 20
2.2084440610663862
 10
-2.3154205844381344
 20
2.2391037764550936
 10
-2.3227197462850753
 20
2.2700405378748667
 10
-2.3289219024613237
 20
2.3012157560710107
 10
-2.3340193166501706
 20
2.3325905443475734
 10
-2.3380056305450116
 20
2.3641257670730207
 10
-2.3408758717804434
 20
2.39578208849643
 10
-2.3426264601345888
 20
2.4275200218133
 10
-2.3432552119949177
 20
2.4592999784197827
 10
-2.3427613430819982
 20
2.4910823172938907
 10
-2.3411454694277736
 20
2.5228273944420936
 10
-2.3384096066071507
 20
2.5544956123496187
 10
-2.3345571672238514
 20
2.5860474693727764
 10
-2.329592956653673
 20
2.617443609011699
 10
-2.3235231670504564
 20
2.6486448690020334
 10
-2.3163553696222454
 20
2.679612330164355
 10
-2.308098505187273
 20
2.7103073649503635
 10
-2.2987628730215466
 20
2.740691685625311
 10
-2.2883601180119535
 20
2.7707273920265623
 10
-2.2769032161309006
 20
2.800377018838711
 10
-2.2644064582506203
 20
2.8296035823262895
 10
-1.873490717016605
 20
3.141348483255656
 10
-1.873490717016605
 20
3.141348483255656
 10
-1.885987474896886
 20
3.112121919768078
 10
-1.8974443767779383
 20
3.082472292955929
 10
-1.9078471317875318
 20
3.052436586554678
 10
-1.917182763953258
 20
3.02205226587973
 10
-1.9254396283882305
 20
2.9913572310937218
 10
-1.9326074258164412
 20
2.9603897699314
 10
-1.938677215419658
 20
2.9291885099410657
 10
-1.9436414259898365
 20
2.8977923703021435
 10
-1.9474938653731355
 20
2.8662405132789854
 10
-1.9502297281937586
 20
2.8345722953714603
 10
-1.951845601847983
 20
2.8028272182232574
 10
-1.9523394707609025
 20
2.7710448793491493
 10
-1.9517107189005738
 20
2.7392649227426666
 10
-1.9499601305464282
 20
2.7075269894257965
 10
-1.9470898893109965
 20
2.6758706680023874
 10
-1.9431035754161554
 20
2.64433544527694
 10
-1.938006161227309
 20
2.6129606570003774
 10
-1.93180400505106
 20
2.5817854388042334
 10
-1.9245048432041192
 20
2.5508486773844603
 10
-1.9161177803633378
 20
2.520188961995753
 10
-1.906653278208906
 20
2.4898445363168817
 10
-1.8961231423748797
 20
2.459853250747091
 10
-1.884540507723313
 20
2.430252515193053
 10
-1.8719198219603674
 20
2.4010792524052746
 10
-1.8582768276148336
 20
2.372369851922166
 10
-1.8436285424015404
 20
2.3441601246792136
 10
-1.8279932379941528
 20
2.3164852583398776
 10
-1.8113904172338318
 20
2.2893797734039385
 10
-1.7938407898021838
 20
2.2628774801480307
 10
-1.7753662463888502
 20
2.2370114364520837
 10
-1.7559898313859525
 20
2.2118139065642706
 10
-1.736381692634967
 20
2.1880709697166583
 10
-1.715972799410025
 20
2.165012712350576
 10
-1.6947870428693748
 20
2.142666127035859
 10
-1.672849223586794
 20
2.121057373241334
 10
-1.6501850225194181
 20
2.1002117467118877
 10
-1.6268209709449755
 20
2.0801536498566424
 10
-1.6027844194036132
 20
2.060906563182888
 10
-1.5781035056806725
 20
2.042493017809214
 10
-1.5528071218678985
 20
2.0249345690900236
 10
-1.526924880541639
 20
2.0082517713822994
 10
-1.5004870800976242
 20
1.9924641539841594
 10
-1.4735246692829125
 20
1.9775901982733775
 10
-1.4460692109665154
 20
1.9636473160726207
 10
-1.4181528451911194
 20
1.9506518292667372
 10
-1.3898082515491503
 20
1.9386189506959524
 10
-1.3610686109272319
 20
1.9275627663473378
 10
-1.3319675666638107
 20
1.9174962188654059
 10
-1.3025391851654295
 20
1.9084310924011272
 10
-1.2728179160277455
 20
1.9003779988171108
 10
-1.2428385517079716
 20
1.893346365265093
 10
-1.2126361867959643
 20
1.8873444231502796
 10
-1.1822461769316237
 20
1.8823791984954583
 10
-1.1517040974166977
 20
1.8784565037161607
 10
-1.1210457015694524
 20
1.875580930816505
 10
-1.090306878870948
 20
1.873755846013681
 10
-1.0595236129519163
 20
1.8729833857973728
 10
-1.02873193946943
 20
1.873264454428731
 10
-0.9979679039226639
 20
1.8745987228818222
 10
-0.9672675194571385
 20
1.8769846292287935
 10
-0.9366667247068343
 20
1.8804193804683067
 10
-0.9062013417235324
 20
1.8848989557950928
 10
-0.8759070340426316
 20
1.8904181113068081
 10
-1.2668227752766466
 20
1.5786732103774415
  0
LWPOLYLINE
  5
6C
330
17
100
AcDbEntity
  8
SCAN_FOOTPRINTS
100
AcDbPolyline
 90
130
 70
1
 10
-1.5863487205898452
 20
1.2571979898989665
 10
-1.6146553590890629
 20
1.245076093500209
 10
-1.6433601120293488
 20
1.233929645004623
 10
-1.6724293769126435
 20
1.2237716927221776
 10
-1.7018291245341368
 20
1.2146141278045768
 10
-1.7315249388177028
 20
1.2064676703251829
 10
-1.761482057104212
 20
1.1993418567298322
 10
-1.7916654108455683
 20
1.1932450286732326
 10
-1.8220396666568224
 20
1.188184323254016
 10
-1.8525692676783119
 20
1.1841656646598726
 10
-1.8832184751994048
 20
1.1811937572325504
 10
-1.9139514104951254
 20
1.1792720799608343
 10
-1.9447320968266821
 20
1.178402882407956
 10
-1.975524501556731
 20
1.1785871820782
 10
-2.0062925783300805
 20
1.1798247632257852
 10
-2.0370003092704505
 20
1.1821141771074262
 10
-2.0676117471438937
 20
1.185452743678265
 10
-2.0980910574395235
 20
1.1898365547291987
 10
-2.1284025603182846
 20
1.1952604784619285
 10
-2.158510772380658
 20
1.2017181654963676
 10
-2.188380448204413
 20
1.209202056303385
 10
-2.2179766216037766
 20
1.2177033900541794
 10
-2.2472646465617188
 20
1.2272122148759204
 10
-2.276210237787442
 20
1.237717399501662
 10
-2.3047795108515983
 20
1.2492066463008777
 10
-2.3329390218522414
 20
1.261666505675375
 10
-2.3606558065650947
 20
1.2750823918037282
 10
-2.3878974190322895
 20
1.2894385997158047
 10
-2.4146319695444123
 20
1.3047183236773936
 10
-2.4408281619713907
 20
1.3209036768634164
 10
-2.4664553303985244
 20
1.3379757122966893
 10
-2.4914834750247645
 20
1.3559144450277267
 10
-2.515883297281231
 20
1.3746988755296197
 10
-2.540380882989603
 20
1.394952992772115
 10
-2.5641479672290535
 20
1.4160595480942568
 10
-2.5871549039078476
 20
1.4379922140395938
 10
-2.609372995111321
 20
1.4607236326949686
 10
-2.6307745268984872
 20
1.4842254498156655
 10
-2.651332803871282
 20
1.5084683501933356
 10
-2.671022182473309
 20
1.5334220942225953
 10
-2.6898181029765693
 20
1.559055555620676
 10
-2.707697120116265
 20
1.5853367602530792
 10
-2.7246369323354633
 20
1.6122329260168098
 10
-2.7406164096031542
 20
1.6397105037314323
 10
-2.7556156197709853
 20
1.667735218986953
 10
-2.769615853435812
 20
1.6962721148963198
 10
-2.7825996472770456
 20
1.7252855956992175
 10
-2.794550805839686
 20
1.754739471162769
 10
-2.8054544217358717
 20
1.7845970017237551
 10
-2.815296894239748
 20
1.8148209443160481
 10
-2.8240659462524578
 20
1.845373598826093
 10
-2.8317506396160943
 20
1.8762168551184928
 10
-2.838341388757513
 20
1.9073122405730367
 10
-2.8438299726449836
 20
1.9386209680738786
 10
-2.8482095450427725
 20
1.9701039843910029
 10
-2.8514746430508544
 20
2.001722018893631
 10
-2.8536211939191154
 20
2.0334356325348066
 10
-2.854646520127531
 20
2.065205267046052
 10
-2.854549342725999
 20
2.096991294280741
 10
-2.8533297829296473
 20
2.1287540656446335
 10
-2.8509893619676356
 20
2.160453961551913
 10
-2.847530999185638
 20
2.192051440845044
 10
-2.842959008404367
 20
2.223507090116801
 10
-2.8372790925386924
 20
2.254781672872941
 10
-2.5255341916093257
 20
2.6456974141069556
 10
-2.5255341916093257
 20
2.6456974141069556
 10
-2.531214107475
 20
2.6144228313508155
 10
-2.535786098256271
 20
2.582967182079059
 10
-2.539244461038269
 20
2.5513697027859275
 10
-2.54158488200028
 20
2.5196698068786483
 10
-2.542804441796632
 20
2.487907035514756
 10
-2.5429016191981644
 20
2.456121008280067
 10
-2.5418762929897483
 20
2.4243513737688214
 10
-2.5397297421214877
 20
2.392637760127646
 10
-2.5364646441134053
 20
2.3610197256250176
 10
-2.5320850717156165
 20
2.3295367093078934
 10
-2.526596487828146
 20
2.2982279818070515
 10
-2.5200057386867276
 20
2.2671325963525075
 10
-2.512321045323091
 20
2.236289340060108
 10
-2.503551993310381
 20
2.205736685550063
 10
-2.493709520806505
 20
2.17551274295777
 10
-2.482805904910319
 20
2.145655212396784
 10
-2.470854746347679
 20
2.116201336933232
 10
-2.457870952506445
 20
2.0871878561303348
 10
-2.443870718841618
 20
2.0586509602209677
 10
-2.4288715086737875
 20
2.030626244965447
 10
-2.4128920314060966
 20
2.0031486672508243
 10
-2.395952219186898
 20
1.976252501487094
 10
-2.3780732020472026
 20
1.9499712968546907
 10
-2.359277281543942
 20
1.92433783545661
 10
-2.339587902941915
 20
1.8993840914273503
 10
-2.3190296259691205
 20
1.8751411910496802
 10
-2.297628094181954
 20
1.8516393739289836
 10
-2.275410002978481
 20
1.8289079552736085
 10
-2.252403066299687
 20
1.8069752893282713
 10
-2.228635982060236
 20
1.7858687340061297
 10
-2.204138396351864
 20
1.7656146167636346
 10
-2.179738574095398
 20
1.7468301862617415
 10
-2.1547104294691573
 20
1.728891453530704
 10
-2.129083261042024
 20
1.711819418097431
 10
-2.102887068615045
 20
1.6956340649114083
 10
-2.076152518102923
 20
1.6803543409498194
 10
-2.0489109056357275
 20
1.665998133037743
 10
-2.0211941209228743
 20
1.6525822469093898
 10
-1.9930346099222311
 20
1.6401223875348925
 10
-1.9644653368580751
 20
1.6286331407356767
 10
-1.9355197456323519
 20
1.6181279561099353
 10
-1.9062317206744097
 20
1.6086191312881941
 10
-1.876635547275046
 20
1.6001177975374
 10
-1.846765871451291
 20
1.5926339067303823
 10
-1.8166576593889179
 20
1.5861762196959432
 10
-1.7863461565101566
 20
1.5807522959632134
 10
-1.7558668462145266
 20
1.5763684849122797
 10
-1.7252554083410836
 20
1.573029918341441
 10
-1.6945476774007135
 20
1.5707405044598
 10
-1.6637796006273642
 20
1.5695029233122146
 10
-1.6329871958973152
 20
1.5693186236419707
 10
-1.6022065095657583
 20
1.570187821194849
 10
-1.5714735742700379
 20
1.5721094984665651
 10
-1.5408243667489447
 20
1.5750814058938873
 10
-1.5102947657274552
 20
1.5791000644880306
 10
-1.4799205099162014
 20
1.5841607699072473
 10
-1.449737156174845
 20
1.590257597963847
 10
-1.4197800378883358
 20
1.5973834115591976
 10
-1.39008422360477
 20
1.6055298690385913
 10
-1.3606844759832764
 20
1.614687433956192
 10
-1.3316152110999817
 20
1.6248453862386378
 10
-1.3029104581596958
 20
1.635991834734224
 10
-1.2746038196604785
 20
1.6481137311329812
 10
-1.5863487205898452
 20
1.2571979898989665
  0
LWPOLYLINE
  5
6D
330
17
100
AcDbEntity
  8
SCAN_FOOTPRINTS
100
AcDbPolyline
 90
130
 70
1
 10
-1.8263285170372843
 20
0.8726816126053272
 10
-1.8512280733022388
 20
0.8545648178215927
 10
-1.8767328200264732
 20
0.837310425628291
 10
-1.9028129007188306
 20
0.8209386344462696
 10
-1.9294377853878957
 20
0.8054686095016688
 10
-1.9565763062811614
 20
0.790918460390633
 10
-1.9841966943707758
 20
0.7773052198797671
 10
-2.0122666165431564
 20
0.7646448239671544
 10
-2.040753213448937
 20
0.7529520932272822
 10
-2.069623137968941
 20
0.7422407154617068
 10
-2.0988425942511486
 20
0.7325232296757754
 10
-2.1283773772729595
 20
0.7238110114001512
 10
-2.158192912882449
 20
0.7161142593743357
 10
-2.1882542982717235
 20
0.7094419836077709
 10
-2.2185263428350224
 20
0.7038019948324967
 10
-2.248973609363714
 20
0.6992008953597146
 10
-2.279560455529972
 20
0.6956440713509583
 10
-2.3102510756105743
 20
0.6931356865129169
 10
-2.341009542401973
 20
0.691678677223299
 10
-2.3717998492775707
 20
0.6912747490934343
 10
-2.402585952337977
 20
0.6919243749716423
 10
-2.4333318126048913
 20
0.6936267943897054
 10
-2.4640014382092277
 20
0.6963800144530913
 10
-2.494558926524094
 20
0.7001808121738842
 10
-2.5249685061933
 20
0.7050247382436964
 10
-2.5551945790061956
 20
0.710906122242138
 10
-2.5852017615698233
 20
0.7178180792747523
 10
-2.6149549267295984
 20
0.7257525180326447
 10
-2.644419244690029
 20
0.7347001502643715
 10
-2.6735602237873435
 20
0.7446505016489956
 10
-2.7023437508662878
 20
0.7555919240575889
 10
-2.730736131213836
 20
0.7675116091888223
 10
-2.758704128003059
 20
0.7803956035626805
 10
-2.787094473176478
 20
0.7946906821474903
 10
-2.814962317395579
 20
0.8099793782786752
 10
-2.8422728994478437
 20
0.8262426214601049
 10
-2.8689921532268565
 20
0.8434601255853973
 10
-2.89508675022498
 20
0.861610414241981
 10
-2.9205241411059712
 20
0.8806708474998961
 10
-2.9452725963057005
 20
0.9006176501519194
 10
-2.969301245610314
 20
0.9214259413697894
 10
-2.99258011666248
 20
0.9430697657395355
 10
-3.0150801723476843
 20
0.9655221256372049
 10
-3.036773347013946
 20
0.9887550149045955
 10
-3.0576325814797642
 20
1.0127394537829975
 10
-3.077631856786638
 20
1.0374455250613626
 10
-3.0967462266540555
 20
1.0628424113938113
 10
-3.114951848596467
 20
1.0888984337399366
 10
-3.1322260136634275
 20
1.1155810908799435
 10
-3.1485471747658176
 20
1.1428570999553491
 10
-3.163894973552803
 20
1.17069243798466
 10
-3.178250265806009
 20
1.199052384302254
 10
-3.191595145319243
 20
1.2279015638675215
 10
-3.2039129662339607
 20
1.2572039913902493
 10
-3.215188363802634
 20
1.2869231162172041
 10
-3.2254072735541106
 20
1.3170218679239272
 10
-3.2345569488370605
 20
1.347462702554869
 10
-3.24262597671963
 20
1.3782076494541906
 10
-3.2496042922254667
 20
1.409218358628809
 10
-3.255483190888363
 20
1.440456148584617
 10
-3.260255339609848
 20
1.4718820545762
 10
-3.2639147858062003
 20
1.5034568772098706
 10
-3.2664569648334547
 20
1.5351412313393962
 10
-3.267878705681155
 20
1.5668955951934205
 10
-3.050936836122376
 20
2.01738002914463
 10
-3.050936836122376
 20
2.01738002914463
 10
-3.0495150952746757
 20
1.9856256652906057
 10
-3.0469729162474213
 20
1.9539413111610804
 10
-3.0433134700510687
 20
1.9223664885274094
 10
-3.0385413213295838
 20
1.8909405825358263
 10
-3.0326624226666876
 20
1.8597027925800185
 10
-3.025684107160851
 20
1.8286920834054001
 10
-3.0176150792782814
 20
1.7979471365060786
 10
-3.0084654039953316
 20
1.7675063018751365
 10
-2.998246494243855
 20
1.7374075501684136
 10
-2.9869710966751817
 20
1.7076884253414588
 10
-2.974653275760464
 20
1.678385997818731
 10
-2.96130839624723
 20
1.6495368182534635
 10
-2.9469531039940233
 20
1.6211768719358695
 10
-2.9316053052070385
 20
1.5933415339065586
 10
-2.9152841441046484
 20
1.5660655248311532
 10
-2.898009979037688
 20
1.539382867691146
 10
-2.879804357095276
 20
1.5133268453450208
 10
-2.860689987227859
 20
1.487929959012572
 10
-2.8406907119209848
 20
1.463223887734207
 10
-2.819831477455167
 20
1.439239448855805
 10
-2.7981383027889053
 20
1.4160065595884144
 10
-2.775638247103701
 20
1.3935541996907452
 10
-2.752359376051535
 20
1.371910375320999
 10
-2.7283307267469215
 20
1.351102084103129
 10
-2.703582271547192
 20
1.3311552814511056
 10
-2.678144880666201
 20
1.3120948481931904
 10
-2.6520502836680775
 20
1.2939445595366068
 10
-2.6253310298890646
 20
1.2767270554113144
 10
-2.5980204478368
 20
1.2604638122298846
 10
-2.570152603617699
 20
1.2451751160987
 10
-2.54176225844428
 20
1.23088003751389
 10
-2.513794261655057
 20
1.2179960431400316
 10
-2.4854018813075087
 20
1.2060763580087985
 10
-2.4566183542285644
 20
1.195134935600205
 10
-2.42747737513125
 20
1.185184584215581
 10
-2.3980130571708194
 20
1.1762369519838543
 10
-2.3682598920110443
 20
1.1683025132259617
 10
-2.3382527094474166
 20
1.1613905561933475
 10
-2.308026636634521
 20
1.155509172194906
 10
-2.277617056965315
 20
1.1506652461250937
 10
-2.247059568650448
 20
1.146864448404301
 10
-2.216389943046112
 20
1.144111228340915
 10
-2.185644082779198
 20
1.142408808922852
 10
-2.1548579797187917
 20
1.1417591830446439
 10
-2.1240676728431938
 20
1.1421631111745085
 10
-2.0933092060517953
 20
1.1436201204641263
 10
-2.062618585971193
 20
1.1461285053021677
 10
-2.032031739804935
 20
1.1496853293109242
 10
-2.0015844732762433
 20
1.1542864287837062
 10
-1.9713124287129444
 20
1.1599264175589805
 10
-1.9412510433236696
 20
1.1665986933255452
 10
-1.9114355077141805
 20
1.1742954453513608
 10
-1.8819007246923694
 20
1.1830076636269848
 10
-1.8526812684101621
 20
1.1927251494129163
 10
-1.8238113438901578
 20
1.2034365271784917
 10
-1.7953247469843772
 20
1.215129257918364
 10
-1.7672548248119968
 20
1.2277896538309767
 10
-1.7396344367223824
 20
1.2414028943418425
 10
-1.7124959158291164
 20
1.2559530434528783
 10
-1.6858710311600515
 20
1.271423068397479
 10
-1.659790950467694
 20
1.2877948595795006
 10
-1.6342862037434598
 20
1.3050492517728023
 10
-1.6093866474785052
 20
1.3231660465565367
 10
-1.8263285170372843
 20
0.8726816126053272
  0
LWPOLYLINE
  5
6E
330
17
100
AcDbEntity
  8
SCAN_FOOTPRINTS
100
AcDbPolyline
 90
130
 70
1
 10
-1.974728575556726
 20
0.44440533525459075
 10
-1.9949724818648005
 20
0.4212020938254824
 10
-2.0159983078736823
 20
0.3987049652071046
 10
-2.0377814402282546
 20
0.3769402850980202
 10
-2.060296379051748
 20
0.35593353177434034
 10
-2.0835167677965316
 20
0.33570929626422147
 10
-2.107415424097741
 20
0.3162912535609971
 10
-2.131964371593635
 20
0.2977021349086391
 10
-2.1571348726754165
 20
0.27996370119199987
 10
-2.1828974621281967
 20
0.26309671746297697
 10
-2.209221981623704
 20
0.2471209286324299
 10
-2.2360776150243784
 20
0.23205503635629288
 10
-2.263432924457506
 20
0.21791667714295193
 10
-2.291255887117175
 20
0.20472240170751138
 10
-2.3195139327509695
 20
0.1924876555971119
 10
-2.348173981787521
 20
0.1812267611099903
 10
-2.3772024840602706
 20
0.17095290052944145
 10
-2.406565458082135
 20
0.1616781006923072
 10
-2.436228530825079
 20
0.1534132189100641
 10
-2.4661569779580343
 20
0.14616793025898406
 10
-2.4963157644960714
 20
0.1399507162542477
 10
-2.526669585813221
 20
0.13476885492127377
 10
-2.5571829089709466
 20
0.13062841227588012
 10
-2.58782001431389
 20
0.12753423522325502
 10
-2.6185450372841856
 20
0.12548994588404927
 10
-2.649322010405407
 20
0.12449793735423242
 10
-2.6801149053869864
 20
0.12455937090367353
 10
-2.7108876752998325
 20
0.12567417461673058
 10
-2.741604296773758
 20
0.12784104347643777
 10
-2.7722288121673366
 20
0.13105744089218913
 10
-2.8027253716608116
 20
0.13531960166913481
 10
-2.833058275222786
 20
0.14062253641581351
 10
-2.8631920144015703
 20
0.14696003738485625
 10
-2.8940515085852843
 20
0.15457926238068864
 10
-2.9246227027089056
 20
0.1632834602568637
 10
-2.954867463511481
 20
0.17306177375187975
 10
-2.9847480649116673
 20
0.1839020057962112
 10
-3.014227235065713
 20
0.19579063472643582
 10
-3.0432682028588345
 20
0.20871283115160588
 10
-3.0718347437720026
 20
0.22265247645082598
 10
-3.099891225066934
 20
0.23759218287896405
 10
-3.1274026502329138
 20
0.2535133152554142
 10
-3.154334702640018
 20
0.2703960142088631
 10
-3.1806537883442756
 20
0.28821922094905766
 10
-3.2063270779913866
 20
0.30696070353468313
 10
-3.2313225477667196
 20
0.32659708460457987
 10
-3.255609019340511
 20
0.3471038705377091
 10
-3.2791561987584443
 20
0.36845548200549894
 10
-3.301934714229091
 20
0.3906252858784537
 10
-3.3239161527610874
 20
0.413585628447236
 10
-3.3450730956043415
 20
0.43730786991677395
 10
-3.365379152451062
 20
0.46176242013037516
 10
-3.384808994353954
 20
0.4869187754792805
 10
-3.403338385320514
 20
0.512745556951623
 10
-3.4209442125440193
 20
0.5392105492733271
 10
-3.4376045152334997
 20
0.5662807410921279
 10
-3.4532985120067345
 20
0.5939223661545853
 10
-3.468006626812099
 20
0.6221009454247329
 10
-3.4817105133469344
 20
0.6507813300918207
 10
-3.494393077941978
 20
0.6799277454135089
 10
-3.506038500883307
 20
0.7095038353398216
 10
-3.516632256145208
 20
0.7394727078622025
 10
-3.5261611295093465
 20
0.7697969810311014
 10
-3.5346132350476442
 20
0.8004388295846933
 10
-3.423352768069487
 20
1.2879027856756051
 10
-3.423352768069487
 20
1.2879027856756051
 10
-3.4149006625311893
 20
1.2572609371220134
 10
-3.405371789167051
 20
1.2269366639531145
 10
-3.39477803390515
 20
1.1969677914307335
 10
-3.3831326109638207
 20
1.1673917015044206
 10
-3.370450046368777
 20
1.1382452861827326
 10
-3.356746159833942
 20
1.1095649015156448
 10
-3.3420380450285774
 20
1.0813863222454971
 10
-3.3263440482553426
 20
1.0537446971830398
 10
-3.309683745565862
 20
1.026674505364239
 10
-3.2920779183423567
 20
1.000209513042535
 10
-3.2735485273757967
 20
0.9743827315701924
 10
-3.2541186854729047
 20
0.9492263762212869
 10
-3.2338126286261843
 20
0.9247718260076858
 10
-3.2126556857829303
 20
0.901049584538148
 10
-3.190674247250934
 20
0.8780892419693657
 10
-3.1678957317802876
 20
0.8559194380964108
 10
-3.144348552362354
 20
0.8345678266286211
 10
-3.120062080788563
 20
0.8140610406954918
 10
-3.09506661101323
 20
0.794424659625595
 10
-3.0693933213661184
 20
0.7756831770399695
 10
-3.043074235661861
 20
0.7578599702997749
 10
-3.016142183254757
 20
0.7409772713463262
 10
-2.9886307580887768
 20
0.7250561389698759
 10
-2.9605742767938454
 20
0.710116432541738
 10
-2.9320077358806773
 20
0.6961767872425177
 10
-2.9029667680875564
 20
0.6832545908173476
 10
-2.87348759793351
 20
0.671365961887123
 10
-2.8436069965333237
 20
0.6605257298427916
 10
-2.813362235730749
 20
0.6507474163477756
 10
-2.782791041607127
 20
0.6420432184716006
 10
-2.751931547423413
 20
0.6344239934757682
 10
-2.7217978082446295
 20
0.6280864925067253
 10
-2.691464904682655
 20
0.6227835577600467
 10
-2.6609683451891795
 20
0.6185213969831009
 10
-2.630343829795601
 20
0.6153049995673497
 10
-2.5996272083216754
 20
0.6131381307076424
 10
-2.568854438408829
 20
0.6120233269945853
 10
-2.5380615434272498
 20
0.6119618934451444
 10
-2.5072845703060285
 20
0.6129539019749612
 10
-2.4765595473357327
 20
0.6149981913141669
 10
-2.4459224419927894
 20
0.618092368366792
 10
-2.415409118835064
 20
0.6222328110121856
 10
-2.3850552975179147
 20
0.6274146723451597
 10
-2.354896510979877
 20
0.6336318863498959
 10
-2.3249680638469217
 20
0.6408771750009761
 10
-2.2953049911039782
 20
0.649142056783219
 10
-2.265942017082114
 20
0.6584168566203532
 10
-2.2369135148093644
 20
0.6686907172009022
 10
-2.208253465772813
 20
0.6799516116880238
 10
-2.1799954201390177
 20
0.6921863577984233
 10
-2.152172457479349
 20
0.7053806332338639
 10
-2.1248171480462212
 20
0.7195189924472046
 10
-2.0979615146455473
 20
0.7345848847233417
 10
-2.0716369951500395
 20
0.7505606735538889
 10
-2.0458744056972593
 20
0.7674276572829117
 10
-2.0207039046154778
 20
0.785166090999551
 10
-1.9961549571195838
 20
0.8037552096519089
 10
-1.9722563008183744
 20
0.8231732523551333
 10
-1.9490359120735912
 20
0.8433974878652521
 10
-1.9265209732500976
 20
0.864404241188932
 10
-1.9047378408955256
 20
0.8861689212980164
 10
-1.8837120148866435
 20
0.9086660499163943
 10
-1.863468108578569
 20
0.9318692913455027
 10
-1.974728575556726
 20
0.4444053352545907
  0
LWPOLYLINE
  5
6F
330
17
100
AcDbEntity
  8
SCAN_FOOTPRINTS
100
AcDbPolyline
 90
130
 70
1
 10
-2.024107497549326
 20
-0.006155281280882637
 10
-2.0386806399070423
 20
-0.03328146194181089
 10
-2.0541732224882834
 20
-0.05989322701651131
 10
-2.070567109290373
 20
-0.08595942411059962
 10
-2.0878431092214873
 20
-0.11144953948514642
 10
-2.105980998566225
 20
-0.13633373377681798
 10
-2.1249595446599896
 20
-0.16058287692857617
 10
-2.144756530744475
 20
-0.18416858229005048
 10
-2.165348781975158
 20
-0.2070632398476557
 10
-2.1867121925503463
 20
-0.22924004854556254
 10
-2.208821753930029
 20
-0.25067304765967696
 10
-2.231651584111497
 20
-0.27133714718791396
 10
-2.255174957927462
 20
-0.2912081572211766
 10
-2.2793643383311943
 20
-0.3102628162606637
 10
-2.3041914086320845
 20
-0.3284788184483624
 10
-2.3296271056438607
 20
-0.3458348396788388
 10
-2.3556416537066767
 20
-0.3623105625617657
 10
-2.382204599543245
 20
-0.37788670020596754
 10
-2.4092848479081974
 20
-0.39254501879713327
 10
-2.4368506979889526
 20
-0.40626835894277286
 10
-2.4648698805154785
 20
-0.4190406557594312
 10
-2.4933095955355014
 20
-0.4308469576786384
 10
-2.522136550810947
 20
-0.4416734439495886
 10
-2.5513170007906605
 20
-0.451507440818055
 10
-2.5808167861137927
 20
-0.46033743636260177
 10
-2.6106013735975933
 20
-0.46815309397072513
 10
-2.640635896662817
 20
-0.4749452644391504
 10
-2.6708851961494067
 20
-0.4807059966841164
 10
-2.7013138614746834
 20
-0.48542854704911076
 10
-2.7318862720858528
 20
-0.4891073871991639
 10
-2.762566639158313
 20
-0.49173821059245537
 10
-2.793319047490942
 20
-0.49331793752165687
 10
-2.824107497549326
 20
-0.4938447187191167
 10
-2.855888716846937
 20
-0.4932834070686657
 10
-2.8876302935475318
 20
-0.491600172274577
 10
-2.9192926345026535
 20
-0.4887971139352959
 10
-2.9508362453992825
 20
-0.48487772847149524
 10
-2.982221780023433
 20
-0.4798469047647823
 10
-3.0134100893390157
 20
-0.4737109180595084
 10
-3.0443622703207494
 20
-0.466477422135284
 10
-3.0750397144802077
 20
-0.4581554397599659
 10
-3.1054041560244734
 20
-0.44875535143502604
 10
-3.1354177195873274
 20
-0.43828888244733505
 10
-3.165042967473438
 20
-0.42676908824351983
 10
-3.194242946356615
 20
-0.41421033814513014
 10
-3.2229812333738797
 20
-0.40062829742493294
 10
-3.2512219815578614
 20
-0.3860399077666912
 10
-3.278929964550843
 20
-0.3704633661327968
 10
-3.3060706205446797
 20
-0.3539181020661231
 10
-3.3326100953917948
 20
-0.33642475345440387
 10
-3.358515284833457
 20
-0.31800514078737546
 10
-3.3837538757926877
 20
-0.2986822399387859
 10
-3.4082943866802724
 20
-0.2784801535072286
 10
-3.432106206663613
 20
-0.25742408075154205
 10
-3.455159633849431
 20
-0.23554028615828296
 10
-3.4774259123327
 20
-0.2128560666804762
 10
-3.498877268065586
 20
-0.1893997176885094
 10
-3.519486943501666
 20
-0.16520049767564074
 10
-3.5392292309721967
 20
-0.14028859176214817
 10
-3.558079504752814
 20
-0.11469507404364078
 10
-3.5760142517806575
 20
-0.0884518688304996
 10
-3.5930111009836057
 20
-0.06159171082679449
 10
-3.6090488511850394
 20
-0.034148104298348025
 10
-3.6241074975493257
 20
-0.006155281280882496
 10
-3.6241074975493257
 20
0.4938447187191175
 10
-3.6241074975493257
 20
0.4938447187191175
 10
-3.6090488511850394
 20
0.465851895701652
 10
-3.5930111009836057
 20
0.43840828917320557
 10
-3.5760142517806575
 20
0.41154813116950034
 10
-3.558079504752814
 20
0.3853049259563592
 10
-3.5392292309721967
 20
0.3597114082378519
 10
-3.519486943501666
 20
0.33479950232435923
 10
-3.498877268065586
 20
0.3106002823114906
 10
-3.4774259123327
 20
0.2871439333195237
 10
-3.455159633849431
 20
0.26445971384171707
 10
-3.432106206663613
 20
0.24257591924845803
 10
-3.4082943866802724
 20
0.22151984649277148
 10
-3.3837538757926877
 20
0.20131776006121405
 10
-3.358515284833457
 20
0.1819948592126246
 10
-3.3326100953917948
 20
0.1635752465455962
 10
-3.3060706205446797
 20
0.14608189793387694
 10
-3.278929964550843
 20
0.12953663386720315
 10
-3.2512219815578614
 20
0.11396009223330884
 10
-3.2229812333738797
 20
0.09937170257506713
 10
-3.194242946356615
 20
0.08578966185486991
 10
-3.165042967473438
 20
0.07323091175648011
 10
-3.135417719587327
 20
0.06171111755266489
 10
-3.105404156024473
 20
0.05124464856497401
 10
-3.0750397144802077
 20
0.04184456024003401
 10
-3.0443622703207494
 20
0.033522577864716116
 10
-3.0134100893390157
 20
0.026289081940491604
 10
-2.982221780023433
 20
0.020153095235217668
 10
-2.9508362453992825
 20
0.015122271528504844
 10
-2.9192926345026535
 20
0.011202886064704067
 10
-2.8876302935475318
 20
0.00839982772542299
 10
-2.855888716846937
 20
0.006716592931334381
 10
-2.824107497549326
 20
0.006155281280883342
 10
-2.793319047490942
 20
0.0066820624783430855
 10
-2.762566639158313
 20
0.00826178940754469
 10
-2.7318862720858528
 20
0.010892612800836032
 10
-2.7013138614746834
 20
0.014571452950889293
 10
-2.6708851961494067
 20
0.019294003315883653
 10
-2.640635896662817
 20
0.02505473556084952
 10
-2.6106013735975933
 20
0.03184690602927491
 10
-2.5808167861137927
 20
0.039662563637398326
 10
-2.5513170007906605
 20
0.048492559181945095
 10
-2.522136550810947
 20
0.05832655605041152
 10
-2.4933095955355014
 20
0.06915304232136169
 10
-2.464869880515478
 20
0.08095934424056886
 10
-2.4368506979889526
 20
0.09373164105722712
 10
-2.4092848479081974
 20
0.1074549812028668
 10
-2.382204599543245
 20
0.12211329979403242
 10
-2.3556416537066767
 20
0.13768943743823425
 10
-2.32962710564386
 20
0.15416516032116123
 10
-2.3041914086320845
 20
0.17152118155163765
 10
-2.2793643383311943
 20
0.18973718373933635
 10
-2.255174957927462
 20
0.20879184277882343
 10
-2.231651584111497
 20
0.22866285281208595
 10
-2.208821753930029
 20
0.24932695234032295
 10
-2.1867121925503463
 20
0.27075995145443754
 10
-2.165348781975158
 20
0.29293676015234427
 10
-2.144756530744475
 20
0.3158314177099496
 10
-2.1249595446599896
 20
0.33941712307142385
 10
-2.105980998566225
 20
0.36366626622318193
 10
-2.0878431092214873
 20
0.3885504605148535
 10
-2.070567109290373
 20
0.4140405758894003
 10
-2.0541732224882834
 20
0.44010677298348866
 10
-2.0386806399070423
 20
0.4667185380581891
 10
-2.0241074975493256
 20
0.49384471871911734
 10
-2.024107497549326
 20
-0.006155281280882692
  0
LWPOLYLINE
  5
70
330
17
100
AcDbEntity
  8
SCAN_FOOTPRINTS
100
AcDbPolyline
 90
130
 70
1
 10
-1.971989217677954
 20
-0.45640724631071616
 10
-1.980160837875354
 20
-0.48609614623605935
 10
-1.989343314246939
 20
-0.5154881227451832
 10
-1.9995258975573795
 20
-0.5445487688590177
 10
-2.0106966678212763
 20
-0.5732440654620993
 10
-2.0228425482569934
 20
-0.6015404211261928
 10
-2.0359493205946637
 20
-0.6294047114332519
 10
-2.05000164172045
 20
-0.6568043177516896
 10
-2.0649830616375753
 20
-0.6837071654205581
 10
-2.080876042723098
 20
-0.7100817612969472
 10
-2.09766198025789
 20
-0.7358972306226371
 10
-2.1153212242057853
 20
-0.7611233531668631
 10
-2.133833102216399
 20
-0.7857305986028678
 10
-2.1531759438246967
 20
-0.8096901610768346
 10
-2.1733271058189776
 20
-0.8329739929287403
 10
-2.1942629987475866
 20
-0.8555548375256423
 10
-2.215959114533307
 20
-0.8774062611689698
 10
-2.2383900551631317
 20
-0.8985026840384724
 10
-2.261529562419805
 20
-0.9188194101365917
 10
-2.2853505486203445
 20
-0.9383326561982105
 10
-2.3098251283255617
 20
-0.9570195795319367
 10
-2.3349246509834467
 20
-0.9748583047603245
 10
-2.360619734468218
 20
-0.9918279494277362
 10
-2.3868802994757723
 20
-1.0079086484458641
 10
-2.4136756047352628
 20
-1.0230815773482982
 10
-2.440974282995599
 20
-1.0373289743269127
 10
-2.4687443777447298
 20
-1.0506341610242835
 10
-2.4969533806187316
 20
-1.0629815620577872
 10
-2.5255682694569086
 20
-1.0743567232525293
 10
-2.5545555469583556
 20
-1.0847463285617645
 10
-2.583881279894732
 20
-1.0941382156549917
 10
-2.613511138833343
 20
-1.102521390155478
 10
-2.643410438324028
 20
-1.1098860385105531
 10
-2.6745197396931397
 20
-1.1164107867154702
 10
-2.7058400437736583
 20
-1.12183291942462
 10
-2.737332282895415
 20
-1.1261456732907578
 10
-2.768957174923481
 20
-1.1293436687605711
 10
-2.8006752722571013
 20
-1.1314229167849148
 10
-2.8324470110350246
 20
-1.1323808237945887
 10
-2.864232760485848
 20
-1.1322161949354492
 10
-2.895992872361827
 20
-1.1309292355588219
 10
-2.927687730394482
 20
-1.1285215509653552
 10
-2.9592777997103177
 20
-1.1249961444026333
 10
-2.9907236761450102
 20
-1.1203574133190481
 10
-3.0219861353945565
 20
-1.114611143878601
 10
-3.0530261819420716
 20
-1.107764503743477
 10
-3.083805097699204
 20
-1.099826033133397
 10
-3.114284490301505
 20
-1.0908056341728951
 10
-3.1444263409974913
 20
-1.0807145585398117
 10
-3.1741930520716943
 20
-1.0695653934304095
 10
-3.2035474937425095
 20
-1.0573720458586195
 10
-3.232453050476377
 20
-1.044149725308997
 10
-3.260873666660501
 20
-1.0299149247650325
 10
-3.288773891577156
 20
-1.0146854001364751
 10
-3.3161189236234616
 20
-0.9984801481113352
 10
-3.3428746537214855
 20
-0.9813193824601911
 10
-3.3690077078645158
 20
-0.9632245088223558
 10
-3.3944854887464357
 20
-0.9442180980053541
 10
-3.4192762164222756
 20
-0.9243238578310192
 10
-3.4433489679492184
 20
-0.9035666035633215
 10
-3.4666737159586183
 20
-0.8819722269548206
 10
-3.489221366110917
 20
-0.8595676639503491
 10
-3.510963793386734
 20
-0.8363808610882125
 10
-3.5318738771688722
 20
-0.8124407406408184
 10
-3.6431343441470294
 20
-0.3249767845499065
 10
-3.6431343441470294
 20
-0.3249767845499065
 10
-3.6222242603648906
 20
-0.34891690499730066
 10
-3.6004818330890735
 20
-0.3721037078594372
 10
-3.5779341829367755
 20
-0.39450827086390877
 10
-3.5546094349273756
 20
-0.41610264747240966
 10
-3.530536683400433
 20
-0.43685990174010736
 10
-3.505745955724593
 20
-0.4567541419144423
 10
-3.4802681748426725
 20
-0.4757605527314439
 10
-3.4541351206996422
 20
-0.49385542636927937
 10
-3.427379390601619
 20
-0.5110161920204234
 10
-3.400034358555313
 20
-0.5272214440455631
 10
-3.3721341336386583
 20
-0.5424509686741207
 10
-3.3437135174545336
 20
-0.5566857692180853
 10
-3.3148079607206666
 20
-0.5699080897677076
 10
-3.285453519049851
 20
-0.5821014373394975
 10
-3.255686807975648
 20
-0.5932506024488997
 10
-3.2255449572796615
 20
-0.6033416780819832
 10
-3.195065564677361
 20
-0.6123620770424852
 10
-3.1642866489202284
 20
-0.620300547652565
 10
-3.1332466023727137
 20
-0.627147187787689
 10
-3.101984143123167
 20
-0.6328934572281363
 10
-3.0705382666884744
 20
-0.6375321883117214
 10
-3.038948197372639
 20
-0.6410575948744432
 10
-3.007253339339984
 20
-0.6434652794679099
 10
-2.975493227464005
 20
-0.6447522388445371
 10
-2.9437074780131818
 20
-0.6449168677036768
 10
-2.9119357392352585
 20
-0.643958960694003
 10
-2.8802176419016376
 20
-0.6418797126696593
 10
-2.8485927498735717
 20
-0.6386817171998459
 10
-2.817100510751815
 20
-0.6343689633337082
 10
-2.7857802066712964
 20
-0.6289468306245585
 10
-2.754670905302185
 20
-0.6224220824196411
 10
-2.7247716058114997
 20
-0.6150574340645661
 10
-2.695141746872889
 20
-0.6066742595640797
 10
-2.6658160139365124
 20
-0.5972823724708527
 10
-2.6368287364350653
 20
-0.5868927671616172
 10
-2.6082138475968883
 20
-0.5755176059668752
 10
-2.5800048447228865
 20
-0.5631702049333718
 10
-2.552234749973756
 20
-0.5498650182360009
 10
-2.5249360717134195
 20
-0.5356176212573862
 10
-2.498140766453929
 20
-0.5204446923549523
 10
-2.471880201446375
 20
-0.5043639933368242
 10
-2.4461851179616034
 20
-0.48739434866941267
 10
-2.4210855953037185
 20
-0.46955562344102486
 10
-2.396611015598501
 20
-0.45086870010729874
 10
-2.3727900293979616
 20
-0.4313554540456799
 10
-2.349650522141289
 20
-0.41103872794756063
 10
-2.3272195815114642
 20
-0.38994230507805805
 10
-2.3055234657257433
 20
-0.3680908814347304
 10
-2.2845875727971343
 20
-0.34551003683782844
 10
-2.2644364108028534
 20
-0.3222262049859227
 10
-2.245093569194556
 20
-0.2982666425119559
 10
-2.2265816911839424
 20
-0.27365939707595127
 10
-2.208922447236047
 20
-0.24843327453172537
 10
-2.1921365097012546
 20
-0.2226178052060353
 10
-2.176243528615732
 20
-0.19624320932964634
 10
-2.1612621086986072
 20
-0.1693403616607777
 10
-2.1472097875728204
 20
-0.14194075534234007
 10
-2.13410301523515
 20
-0.11407646503528102
 10
-2.121957134799433
 20
-0.08578010937118752
 10
-2.1107863645355365
 20
-0.05708481276810584
 10
-2.1006037812250957
 20
-0.02802416665427132
 10
-2.091421304853511
 20
0.0013678098548525197
 10
-2.0832496846561113
 20
0.0310567097801957
 10
-1.971989217677954
 20
-0.4564072463107163
  0
LWPOLYLINE
  5
71
330
17
100
AcDbEntity
  8
SCAN_FOOTPRINTS
100
AcDbPolyline
 90
130
 70
1
 10
-1.8209871641223452
 20
-0.883773046219843
 10
-1.8223475030010157
 20
-0.9145359399972945
 10
-1.824759425454992
 20
-0.9452342915084688
 10
-1.8282201080278329
 20
-0.9758321644992114
 10
-1.8327254995584052
 20
-1.0062937403380257
 10
-1.8382703259232747
 20
-1.0365833599462522
 10
-1.8448480962107254
 20
-1.0666655655414727
 10
-1.852451110319183
 20
-1.0965051421452752
 10
-1.8610704679711438
 20
-1.1260671588067812
 10
-1.8706960791320633
 20
-1.155317009493689
 10
-1.8813166758219997
 20
-1.1842204536029521
 10
-1.892919825306193
 20
-1.2127436560436853
 10
-1.9054919446491332
 20
-1.2408532268453623
 10
-1.9190183166150825
 20
-1.268516260244944
 10
-1.9334831068964367
 20
-1.2957003732071875
 10
-1.9488693826497627
 20
-1.322373743333031
 10
-1.9651591323178024
 20
-1.3485051461116837
 10
-1.9823332867142525
 20
-1.3740639914728199
 10
-2.0003717413466284
 20
-1.399020359596073
 10
-2.019253379951082
 20
-1.4233450359359219
 10
-2.0389560992116262
 20
-1.4470095454209666
 10
-2.0594568346348274
 20
-1.4699861857875542
 10
-2.0807315875496744
 20
-1.492248060008738
 10
-2.1027554532010195
 20
-1.5137691077806072
 10
-2.125502649903707
 20
-1.5345241360291269
 10
-2.1489465492232522
 20
-1.5544888484017763
 10
-2.1730597071477518
 20
-1.5736398737094652
 10
-2.197813896214525
 20
-1.5919547932854297
 10
-2.2231801385538863
 20
-1.6094121672290786
 10
-2.2491287398113586
 20
-1.6259915595040775
 10
-2.2756293239086247
 20
-1.6416735618612808
 10
-2.3026508686025196
 20
-1.6564398165585095
 10
-2.330161741800441
 20
-1.670273037850583
 10
-2.359039174969276
 20
-1.6835566677908982
 10
-2.3883676756009207
 20
-1.695812279628395
 10
-2.418110660519609
 20
-1.7070245862126117
 10
-2.448231029538776
 20
-1.7171796017695167
 10
-2.478691211738319
 20
-1.7262646593467927
 10
-2.50945321232903
 20
-1.734268426614078
 10
-2.5404786600457476
 20
-1.7411809199984507
 10
-2.571728855010108
 20
-1.7469935171375326
 10
-2.603164817003194
 20
-1.751698967634671
 10
-2.6347473340878733
 20
-1.755291402102789
 10
-2.666437011520167
 20
-1.757766339485619
 10
-2.69819432088865
 20
-1.7591206926471898
 10
-2.7299796494205757
 20
-1.7593527722225937
 10
-2.761753349393237
 20
-1.7584622887252317
 10
-2.7934757875889176
 20
-1.7564503529079074
 10
-2.8251073947317495
 20
-1.753319474377319
 10
-2.856608714844819
 20
-1.7490735584636787
 10
-2.8879404544659386
 20
-1.7437179013493624
 10
-2.9190635316607128
 20
-1.7372591834626674
 10
-2.9499391247717472
 20
-1.729705461144921
 10
-2.980528720843202
 20
-1.7210661566013248
 10
-3.0107941636602833
 20
-1.7113520461480842
 10
-3.040697701343748
 20
-1.7005752467704682
 10
-3.07020203344006
 20
-1.6887492010085774
 10
-3.099270357448453
 20
-1.6758886601896672
 10
-3.127866414726872
 20
-1.6620096660279438
 10
-3.155954535719523
 20
-1.6471295306147835
 10
-3.183499684449622
 20
-1.631266814824337
 10
-3.2104675022218467
 20
-1.6144413051614512
 10
-3.236824350479968
 20
-1.596673989080789
 10
-3.262537352766216
 20
-1.5779870288079358
 10
-3.479479222324995
 20
-1.1275025948567263
 10
-3.479479222324995
 20
-1.1275025948567263
 10
-3.453766220038747
 20
-1.1461895551295793
 10
-3.4274093717806258
 20
-1.1639568712102417
 10
-3.400441554008401
 20
-1.1807823808731275
 10
-3.3728964052783015
 20
-1.196645096663574
 10
-3.344808284285651
 20
-1.211525232076734
 10
-3.316212227007232
 20
-1.2254042262384577
 10
-3.287143902998839
 20
-1.2382647670573679
 10
-3.257639570902527
 20
-1.2500908128192587
 10
-3.2277360332190623
 20
-1.2608676121968747
 10
-3.197470590401981
 20
-1.2705817226501153
 10
-3.1668809943305263
 20
-1.2792210271937112
 10
-3.136005401219492
 20
-1.2867747495114579
 10
-3.104882324024718
 20
-1.2932334673981527
 10
-3.073550584403598
 20
-1.298589124512469
 10
-3.0420492642905286
 20
-1.3028350404261095
 10
-3.0104176571476966
 20
-1.305965918956698
 10
-2.978695218952016
 20
-1.307977854774022
 10
-2.9469215189793547
 20
-1.3088683382713842
 10
-2.915136190447429
 20
-1.3086362586959803
 10
-2.8833788810789462
 20
-1.3072819055344094
 10
-2.8516892036466523
 20
-1.3048069681515795
 10
-2.820106686561973
 20
-1.3012145336834613
 10
-2.788670724568887
 20
-1.2965090831863229
 10
-2.7574205296045267
 20
-1.2906964860472412
 10
-2.726395081887809
 20
-1.2837839926628685
 10
-2.695633081297098
 20
-1.2757802253955832
 10
-2.665172899097555
 20
-1.266695167818307
 10
-2.6350525300783882
 20
-1.2565401522614021
 10
-2.6053095451596997
 20
-1.2453278456771855
 10
-2.575981044528055
 20
-1.2330722338396887
 10
-2.54710361135922
 20
-1.2197886038993733
 10
-2.5195927381612986
 20
-1.2059553826073
 10
-2.4925711934674037
 20
-1.1911891279100713
 10
-2.4660706093701377
 20
-1.175507125552868
 10
-2.4401220081126653
 20
-1.1589277332778691
 10
-2.414755765773304
 20
-1.1414703593342201
 10
-2.390001576706531
 20
-1.1231554397582557
 10
-2.3658884187820313
 20
-1.1040044144505665
 10
-2.342444519462486
 20
-1.0840397020779173
 10
-2.3196973227597986
 20
-1.0632846738293977
 10
-2.2976734571084534
 20
-1.0417636260575285
 10
-2.2763987041936065
 20
-1.0195017518363445
 10
-2.2558979687704053
 20
-0.9965251114697569
 10
-2.236195249509861
 20
-0.9728606019847124
 10
-2.2173136109054075
 20
-0.9485359256448636
 10
-2.1992751562730315
 20
-0.9235795575216104
 10
-2.1821010018765814
 20
-0.8980207121604742
 10
-2.1658112522085418
 20
-0.8718893093818212
 10
-2.150424976455216
 20
-0.8452159392559779
 10
-2.1359601861738615
 20
-0.8180318262937344
 10
-2.122433814207912
 20
-0.7903687928941525
 10
-2.1098616948649718
 20
-0.7622592220924758
 10
-2.0982585453807787
 20
-0.7337360196517427
 10
-2.0876379486908423
 20
-0.7048325755424795
 10
-2.078012337529923
 20
-0.6755827248555716
 10
-2.069392979877962
 20
-0.6460207081940655
 10
-2.0617899657695045
 20
-0.6161811315902632
 10
-2.0552121954820537
 20
-0.5860989259950427
 10
-2.0496673691171843
 20
-0.5558093063868161
 10
-2.045161977586612
 20
-0.5253477305480019
 10
-2.041701295013771
 20
-0.4947498575572592
 10
-2.0392893725597947
 20
-0.4640515060460849
 10
-2.037929033681124
 20
-0.43328861226863336
 10
-1.8209871641223452
 20
-0.883773046219843
  0
LWPOLYLINE
  5
72
330
17
100
AcDbEntity
  8
SCAN_FOOTPRINTS
100
AcDbPolyline
 90
130
 70
1
 10
-1.5786732103774404
 20
-1.2668227752766472
 10
-1.573154054865725
 20
-1.297117082957548
 10
-1.568674479538939
 20
-1.32758246594085
 10
-1.5652397282994257
 20
-1.3581832606911541
 10
-1.5628538219524541
 20
-1.3888836451566795
 10
-1.561519553499363
 20
-1.4196476807034457
 10
-1.5612384848680048
 20
-1.450439354185932
 10
-1.562010945084313
 20
-1.4812226201049636
 10
-1.5638360298871372
 20
-1.5119614428034678
 10
-1.566711602786793
 20
-1.5426198386507133
 10
-1.5706342975660905
 20
-1.573161918165639
 10
-1.5755995222209118
 20
-1.60355192802998
 10
-1.581601464335725
 20
-1.6337542929419873
 10
-1.5886330978877428
 20
-1.6637336572617611
 10
-1.596686191471759
 20
-1.6934549263994452
 10
-1.6057513179360379
 20
-1.7228833078978263
 10
-1.6158178654179698
 20
-1.7519843521612473
 10
-1.6268740497665841
 20
-1.780723992783166
 10
-1.6389069283373692
 20
-1.809068586425135
 10
-1.6519024151432524
 20
-1.836984952200531
 10
-1.6658452973440092
 20
-1.864440410516928
 10
-1.6807192530547912
 20
-1.8914028213316398
 10
-1.6965068704529314
 20
-1.9178406217756547
 10
-1.7131896681606555
 20
-1.9437228631019141
 10
-1.7307481168798455
 20
-1.969019246914688
 10
-1.7491616622535198
 20
-1.993700160637629
 10
-1.7684087489272744
 20
-2.017736712178991
 10
-1.7884668457825192
 20
-2.041100763753434
 10
-1.8093124723119658
 20
-2.06376496482081
 10
-1.8309212261064909
 20
-2.0857027841033906
 10
-1.8532678114212073
 20
-2.1068885406440407
 10
-1.87632606878729
 20
-2.1272974338689825
 10
-1.900069005634902
 20
-2.146905572619968
 10
-1.9252665355227156
 20
-2.166281987622866
 10
-1.9511325792186625
 20
-2.1847565310361996
 10
-1.9776348724745703
 20
-2.2023061584678474
 10
-2.004740357410509
 20
-2.2189089792281687
 10
-2.032415223749845
 20
-2.234544283635556
 10
-2.060624950992798
 20
-2.249192568848849
 10
-2.089334351475906
 20
-2.2628355631943835
 10
-2.1185076142636845
 20
-2.2754562489573287
 10
-2.148108349817723
 20
-2.2870388836088957
 10
-2.1780996353875133
 20
-2.297569019442922
 10
-2.2084440610663845
 20
-2.3070335215973534
 10
-2.2391037764550923
 20
-2.3154205844381353
 10
-2.270040537874865
 20
-2.322719746285076
 10
-2.301215756071009
 20
-2.328921902461325
 10
-2.3325905443475716
 20
-2.3340193166501715
 10
-2.364125767073019
 20
-2.3380056305450125
 10
-2.395782088496428
 20
-2.3408758717804443
 10
-2.4275200218132986
 20
-2.3426264601345896
 10
-2.4592999784197813
 20
-2.3432552119949186
 10
-2.491082317293889
 20
-2.342761343081999
 10
-2.522827394442092
 20
-2.341145469427775
 10
-2.554495612349617
 20
-2.3384096066071516
 10
-2.586047469372775
 20
-2.3345571672238528
 10
-2.6174436090116973
 20
-2.3295929566536744
 10
-2.648644869002032
 20
-2.3235231670504572
 10
-2.6796123301643537
 20
-2.3163553696222463
 10
-2.7103073649503617
 20
-2.308098505187274
 10
-2.7406916856253094
 20
-2.298762873021548
 10
-2.7707273920265605
 20
-2.288360118011955
 10
-2.80037701883871
 20
-2.276903216130902
 10
-2.8296035823262877
 20
-2.264406458250621
 10
-3.141348483255655
 20
-1.8734907170166064
 10
-3.141348483255655
 20
-1.8734907170166064
 10
-3.1121219197680765
 20
-1.8859874748968872
 10
-3.082472292955927
 20
-1.8974443767779396
 10
-3.052436586554676
 20
-1.9078471317875332
 10
-3.022052265879729
 20
-1.9171827639532593
 10
-2.9913572310937204
 20
-1.9254396283882316
 10
-2.960389769931399
 20
-1.9326074258164425
 10
-2.9291885099410644
 20
-1.9386772154196592
 10
-2.8977923703021418
 20
-1.9436414259898378
 10
-2.866240513278984
 20
-1.9474938653731368
 10
-2.834572295371459
 20
-1.95022972819376
 10
-2.802827218223256
 20
-1.9518456018479844
 10
-2.771044879349148
 20
-1.9523394707609039
 10
-2.7392649227426653
 20
-1.951710718900575
 10
-2.707526989425795
 20
-1.9499601305464294
 10
-2.6758706680023856
 20
-1.9470898893109976
 10
-2.6443354452769383
 20
-1.9431035754161565
 10
-2.612960657000376
 20
-1.93800616122731
 10
-2.581785438804232
 20
-1.9318040050510612
 10
-2.550848677384459
 20
-1.9245048432041203
 10
-2.5201889619957516
 20
-1.916117780363339
 10
-2.4898445363168804
 20
-1.9066532782089072
 10
-2.4598532507470896
 20
-1.8961231423748808
 10
-2.4302525151930516
 20
-1.884540507723314
 10
-2.4010792524052733
 20
-1.8719198219603685
 10
-2.3723698519221648
 20
-1.8582768276148345
 10
-2.3441601246792123
 20
-1.8436285424015413
 10
-2.3164852583398763
 20
-1.827993237994154
 10
-2.289379773403937
 20
-1.8113904172338327
 10
-2.2628774801480294
 20
-1.7938407898021846
 10
-2.2370114364520823
 20
-1.775366246388851
 10
-2.2118139065642692
 20
-1.7559898313859534
 10
-2.188070969716657
 20
-1.7363816926349678
 10
-2.1650127123505745
 20
-1.7159727994100258
 10
-2.142666127035858
 20
-1.6947870428693756
 10
-2.1210573732413325
 20
-1.6728492235867949
 10
-2.1002117467118864
 20
-1.6501850225194188
 10
-2.080153649856641
 20
-1.6268209709449764
 10
-2.0609065631828867
 20
-1.602784419403614
 10
-2.0424930178092127
 20
-1.5781035056806734
 10
-2.0249345690900227
 20
-1.5528071218678994
 10
-2.008251771382298
 20
-1.5269248805416398
 10
-1.9924641539841583
 20
-1.500487080097625
 10
-1.9775901982733761
 20
-1.4735246692829131
 10
-1.9636473160726193
 20
-1.4460692109665163
 10
-1.9506518292667363
 20
-1.4181528451911203
 10
-1.9386189506959512
 20
-1.3898082515491512
 10
-1.9275627663473367
 20
-1.3610686109272325
 10
-1.9174962188654048
 20
-1.3319675666638113
 10
-1.908431092401126
 20
-1.3025391851654304
 10
-1.9003779988171097
 20
-1.2728179160277464
 10
-1.893346365265092
 20
-1.2428385517079725
 10
-1.8873444231502785
 20
-1.2126361867959652
 10
-1.8823791984954572
 20
-1.1822461769316244
 10
-1.8784565037161598
 20
-1.1517040974166983
 10
-1.8755809308165041
 20
-1.1210457015694533
 10
-1.87375584601368
 20
-1.090306878870949
 10
-1.872983385797372
 20
-1.0595236129519172
 10
-1.87326445442873
 20
-1.0287319394694308
 10
-1.874598722881821
 20
-0.9979679039226647
 10
-1.8769846292287926
 20
-0.9672675194571394
 10
-1.8804193804683056
 20
-0.9366667247068351
 10
-1.884898955795092
 20
-0.9062013417235332
 10
-1.8904181113068073
 20
-0.8759070340426324
 10
-1.5786732103774404
 20
-1.2668227752766472
  0
LWPOLYLINE
  5
73
330
17
100
AcDbEntity
  8
SCAN_FOOTPRINTS
100
AcDbPolyline
 90
130
 70
1
 10
-1.2571979898989663
 20
-1.5863487205898457
 10
-1.245076093500209
 20
-1.6146553590890629
 10
-1.2339296450046229
 20
-1.643360112029349
 10
-1.2237716927221771
 20
-1.6724293769126435
 10
-1.2146141278045763
 20
-1.701829124534137
 10
-1.2064676703251824
 20
-1.731524938817703
 10
-1.199341856729832
 20
-1.7614820571042122
 10
-1.1932450286732323
 20
-1.7916654108455687
 10
-1.1881843232540157
 20
-1.8220396666568224
 10
-1.1841656646598722
 20
-1.852569267678312
 10
-1.18119375723255
 20
-1.883218475199405
 10
-1.1792720799608338
 20
-1.9139514104951256
 10
-1.1784028824079558
 20
-1.9447320968266824
 10
-1.1785871820781995
 20
-1.9755245015567313
 10
-1.1798247632257848
 20
-2.006292578330081
 10
-1.182114177107426
 20
-2.037000309270451
 10
-1.1854527436782645
 20
-2.0676117471438937
 10
-1.1898365547291982
 20
-2.098091057439524
 10
-1.195260478461928
 20
-2.128402560318285
 10
-1.2017181654963671
 20
-2.158510772380658
 10
-1.2092020563033845
 20
-2.188380448204413
 10
-1.2177033900541787
 20
-2.217976621603777
 10
-1.22721221487592
 20
-2.247264646561719
 10
-1.2377173995016615
 20
-2.2762102377874425
 10
-1.2492066463008773
 20
-2.3047795108515987
 10
-1.2616665056753744
 20
-2.332939021852242
 10
-1.2750823918037277
 20
-2.3606558065650947
 10
-1.2894385997158042
 20
-2.38789741903229
 10
-1.3047183236773932
 20
-2.4146319695444127
 10
-1.320903676863416
 20
-2.440828161971391
 10
-1.3379757122966889
 20
-2.466455330398525
 10
-1.355914445027726
 20
-2.491483475024765
 10
-1.3746988755296192
 20
-2.5158832972812313
 10
-1.3949529927721143
 20
-2.5403808829896035
 10
-1.4160595480942562
 20
-2.564147967229054
 10
-1.437992214039593
 20
-2.587154903907848
 10
-1.4607236326949682
 20
-2.609372995111321
 10
-1.4842254498156648
 20
-2.6307745268984877
 10
-1.508468350193335
 20
-2.6513328038712825
 10
-1.5334220942225947
 20
-2.671022182473309
 10
-1.5590555556206753
 20
-2.6898181029765698
 10
-1.5853367602530786
 20
-2.7076971201162654
 10
-1.6122329260168091
 20
-2.724636932335464
 10
-1.6397105037314317
 20
-2.7406164096031547
 10
-1.6677352189869523
 20
-2.755615619770986
 10
-1.6962721148963191
 20
-2.7696158534358126
 10
-1.7252855956992168
 20
-2.7825996472770465
 10
-1.7547394711627686
 20
-2.7945508058396866
 10
-1.7845970017237545
 20
-2.805454421735872
 10
-1.8148209443160475
 20
-2.8152968942397485
 10
-1.8453735988260924
 20
-2.8240659462524587
 10
-1.8762168551184921
 20
-2.8317506396160947
 10
-1.9073122405730363
 20
-2.8383413887575135
 10
-1.938620968073878
 20
-2.843829972644984
 10
-1.9701039843910022
 20
-2.848209545042773
 10
-2.0017220188936307
 20
-2.851474643050855
 10
-2.033435632534806
 20
-2.853621193919116
 10
-2.0652052670460512
 20
-2.854646520127532
 10
-2.0969912942807403
 20
-2.8545493427259996
 10
-2.1287540656446327
 20
-2.853329782929648
 10
-2.1604539615519123
 20
-2.8509893619676365
 10
-2.1920514408450438
 20
-2.8475309991856386
 10
-2.2235070901168004
 20
-2.8429590084043674
 10
-2.25478167287294
 20
-2.8372790925386933
 10
-2.645697414106955
 20
-2.525534191609326
 10
-2.645697414106955
 20
-2.525534191609326
 10
-2.614422831350815
 20
-2.5312141074750008
 10
-2.5829671820790585
 20
-2.5357860982562714
 10
-2.551369702785927
 20
-2.5392444610382694
 10
-2.519669806878648
 20
-2.541584882000281
 10
-2.4879070355147554
 20
-2.542804441796633
 10
-2.456121008280066
 20
-2.5429016191981653
 10
-2.424351373768821
 20
-2.541876292989749
 10
-2.3926377601276454
 20
-2.539729742121488
 10
-2.361019725625017
 20
-2.5364646441134058
 10
-2.329536709307893
 20
-2.5320850717156174
 10
-2.298227981807051
 20
-2.5265964878281464
 10
-2.267132596352507
 20
-2.520005738686728
 10
-2.2362893400601074
 20
-2.5123210453230915
 10
-2.2057366855500624
 20
-2.5035519933103814
 10
-2.1755127429577694
 20
-2.4937095208065054
 10
-2.1456552123967834
 20
-2.48280590491032
 10
-2.1162013369332318
 20
-2.4708547463476793
 10
-2.087187856130334
 20
-2.4578709525064455
 10
-2.0586509602209673
 20
-2.4438707188416187
 10
-2.0306262449654464
 20
-2.428871508673788
 10
-2.003148667250824
 20
-2.412892031406097
 10
-1.9762525014870935
 20
-2.3959522191868983
 10
-1.9499712968546903
 20
-2.378073202047203
 10
-1.9243378354566096
 20
-2.3592772815439425
 10
-1.8993840914273499
 20
-2.3395879029419153
 10
-1.8751411910496796
 20
-2.319029625969121
 10
-1.8516393739289831
 20
-2.2976280941819542
 10
-1.8289079552736078
 20
-2.2754100029784814
 10
-1.806975289328271
 20
-2.2524030662996872
 10
-1.7858687340061292
 20
-2.2286359820602364
 10
-1.7656146167636342
 20
-2.2041383963518646
 10
-1.746830186261741
 20
-2.1797385740953983
 10
-1.7288914535307036
 20
-2.1547104294691577
 10
-1.7118194180974307
 20
-2.1290832610420245
 10
-1.695634064911408
 20
-2.1028870686150456
 10
-1.680354340949819
 20
-2.0761525181029232
 10
-1.6659981330377425
 20
-2.048910905635728
 10
-1.6525822469093894
 20
-2.0211941209228748
 10
-1.640122387534892
 20
-1.9930346099222316
 10
-1.6286331407356762
 20
-1.9644653368580756
 10
-1.6181279561099349
 20
-1.9355197456323523
 10
-1.6086191312881937
 20
-1.9062317206744102
 10
-1.6001177975373995
 20
-1.8766355472750464
 10
-1.5926339067303819
 20
-1.8467658714512911
 10
-1.5861762196959428
 20
-1.816657659388918
 10
-1.5807522959632132
 20
-1.786346156510157
 10
-1.5763684849122792
 20
-1.755866846214527
 10
-1.5730299183414407
 20
-1.725255408341084
 10
-1.5707405044597997
 20
-1.6945476774007138
 10
-1.5695029233122142
 20
-1.6637796006273646
 10
-1.5693186236419705
 20
-1.6329871958973157
 10
-1.5701878211948486
 20
-1.6022065095657587
 10
-1.5721094984665647
 20
-1.5714735742700383
 10
-1.5750814058938871
 20
-1.5408243667489452
 10
-1.5791000644880304
 20
-1.5102947657274557
 10
-1.584160769907247
 20
-1.4799205099162018
 10
-1.5902575979638467
 20
-1.4497371561748453
 10
-1.5973834115591974
 20
-1.4197800378883363
 10
-1.605529869038591
 20
-1.3900842236047701
 10
-1.614687433956192
 20
-1.3606844759832768
 10
-1.6248453862386376
 20
-1.3316152110999822
 10
-1.6359918347342237
 20
-1.3029104581596962
 10
-1.6481137311329812
 20
-1.2746038196604788
 10
-1.2571979898989663
 20
-1.5863487205898457
  0
LWPOLYLINE
  5
74
330
17
100
AcDbEntity
  8
SCAN_FOOTPRINTS
100
AcDbPolyline
 90
130
 70
1
 10
-0.8726816126053274
 20
-1.8263285170372843
 10
-0.8545648178215928
 20
-1.8512280733022388
 10
-0.8373104256282913
 20
-1.8767328200264732
 10
-0.8209386344462697
 20
-1.9028129007188306
 10
-0.805468609501669
 20
-1.9294377853878957
 10
-0.7909184603906332
 20
-1.9565763062811614
 10
-0.7773052198797672
 20
-1.9841966943707758
 10
-0.7646448239671546
 20
-2.0122666165431564
 10
-0.7529520932272824
 20
-2.040753213448937
 10
-0.742240715461707
 20
-2.069623137968941
 10
-0.7325232296757757
 20
-2.0988425942511486
 10
-0.7238110114001515
 20
-2.1283773772729595
 10
-0.7161142593743359
 20
-2.158192912882449
 10
-0.7094419836077711
 20
-2.1882542982717235
 10
-0.7038019948324968
 20
-2.2185263428350224
 10
-0.6992008953597149
 20
-2.248973609363714
 10
-0.6956440713509584
 20
-2.279560455529972
 10
-0.6931356865129171
 20
-2.3102510756105743
 10
-0.6916786772232992
 20
-2.341009542401973
 10
-0.6912747490934346
 20
-2.3717998492775707
 10
-0.6919243749716425
 20
-2.402585952337977
 10
-0.6936267943897056
 20
-2.4333318126048913
 10
-0.6963800144530914
 20
-2.4640014382092277
 10
-0.7001808121738844
 20
-2.494558926524094
 10
-0.7050247382436966
 20
-2.5249685061933
 10
-0.7109061222421382
 20
-2.5551945790061956
 10
-0.7178180792747525
 20
-2.5852017615698233
 10
-0.725752518032645
 20
-2.6149549267295984
 10
-0.7347001502643717
 20
-2.644419244690029
 10
-0.7446505016489958
 20
-2.6735602237873435
 10
-0.7555919240575891
 20
-2.7023437508662878
 10
-0.7675116091888226
 20
-2.730736131213836
 10
-0.7803956035626807
 20
-2.758704128003059
 10
-0.7946906821474905
 20
-2.787094473176478
 10
-0.8099793782786755
 20
-2.814962317395579
 10
-0.8262426214601051
 20
-2.8422728994478437
 10
-0.8434601255853975
 20
-2.868992153226857
 10
-0.8616104142419813
 20
-2.89508675022498
 10
-0.8806708474998963
 20
-2.9205241411059712
 10
-0.9006176501519196
 20
-2.945272596305701
 10
-0.9214259413697896
 20
-2.969301245610314
 10
-0.9430697657395357
 20
-2.99258011666248
 10
-0.9655221256372051
 20
-3.0150801723476843
 10
-0.9887550149045957
 20
-3.036773347013946
 10
-1.0127394537829977
 20
-3.0576325814797642
 10
-1.0374455250613628
 20
-3.077631856786638
 10
-1.0628424113938115
 20
-3.0967462266540555
 10
-1.0888984337399368
 20
-3.114951848596467
 10
-1.1155810908799437
 20
-3.1322260136634275
 10
-1.1428570999553493
 20
-3.1485471747658176
 10
-1.1706924379846602
 20
-3.163894973552803
 10
-1.1990523843022542
 20
-3.178250265806009
 10
-1.2279015638675217
 20
-3.191595145319243
 10
-1.2572039913902495
 20
-3.2039129662339607
 10
-1.2869231162172043
 20
-3.215188363802634
 10
-1.3170218679239274
 20
-3.2254072735541106
 10
-1.3474627025548693
 20
-3.2345569488370605
 10
-1.3782076494541908
 20
-3.24262597671963
 10
-1.4092183586288092
 20
-3.2496042922254667
 10
-1.4404561485846172
 20
-3.255483190888363
 10
-1.4718820545762001
 20
-3.260255339609848
 10
-1.5034568772098709
 20
-3.2639147858062003
 10
-1.5351412313393964
 20
-3.2664569648334547
 10
-1.5668955951934207
 20
-3.267878705681155
 10
-2.01738002914463
 20
-3.050936836122376
 10
-2.01738002914463
 20
-3.050936836122376
 10
-1.985625665290606
 20
-3.0495150952746757
 10
-1.9539413111610804
 20
-3.0469729162474213
 10
-1.9223664885274097
 20
-3.0433134700510687
 10
-1.8909405825358268
 20
-3.0385413213295838
 10
-1.859702792580019
 20
-3.0326624226666876
 10
-1.8286920834054003
 20
-3.025684107160851
 10
-1.797947136506079
 20
-3.0176150792782814
 10
-1.767506301875137
 20
-3.0084654039953316
 10
-1.7374075501684139
 20
-2.998246494243855
 10
-1.707688425341459
 20
-2.9869710966751817
 10
-1.6783859978187312
 20
-2.974653275760464
 10
-1.6495368182534638
 20
-2.96130839624723
 10
-1.62117687193587
 20
-2.9469531039940233
 10
-1.593341533906559
 20
-2.9316053052070385
 10
-1.5660655248311532
 20
-2.9152841441046484
 10
-1.5393828676911463
 20
-2.898009979037688
 10
-1.5133268453450213
 20
-2.879804357095276
 10
-1.4879299590125723
 20
-2.860689987227859
 10
-1.4632238877342072
 20
-2.8406907119209848
 10
-1.4392394488558051
 20
-2.819831477455167
 10
-1.4160065595884146
 20
-2.7981383027889053
 10
-1.3935541996907452
 20
-2.775638247103701
 10
-1.3719103753209991
 20
-2.752359376051535
 10
-1.3511020841031292
 20
-2.7283307267469215
 10
-1.3311552814511058
 20
-2.703582271547192
 10
-1.3120948481931907
 20
-2.678144880666201
 10
-1.293944559536607
 20
-2.6520502836680775
 10
-1.2767270554113146
 20
-2.6253310298890646
 10
-1.2604638122298848
 20
-2.5980204478368
 10
-1.2451751160987001
 20
-2.570152603617699
 10
-1.2308800375138902
 20
-2.54176225844428
 10
-1.2179960431400318
 20
-2.513794261655057
 10
-1.2060763580087988
 20
-2.4854018813075087
 10
-1.1951349356002052
 20
-2.4566183542285644
 10
-1.1851845842155813
 20
-2.42747737513125
 10
-1.1762369519838547
 20
-2.3980130571708194
 10
-1.168302513225962
 20
-2.3682598920110443
 10
-1.1613905561933477
 20
-2.3382527094474166
 10
-1.1555091721949062
 20
-2.308026636634521
 10
-1.150665246125094
 20
-2.277617056965315
 10
-1.146864448404301
 20
-2.247059568650448
 10
-1.1441112283409152
 20
-2.216389943046112
 10
-1.1424088089228521
 20
-2.185644082779198
 10
-1.141759183044644
 20
-2.1548579797187917
 10
-1.1421631111745087
 20
-2.1240676728431938
 10
-1.1436201204641265
 20
-2.0933092060517953
 10
-1.146128505302168
 20
-2.062618585971193
 10
-1.1496853293109244
 20
-2.032031739804935
 10
-1.1542864287837065
 20
-2.0015844732762433
 10
-1.1599264175589807
 20
-1.9713124287129444
 10
-1.1665986933255454
 20
-1.9412510433236696
 10
-1.174295445351361
 20
-1.9114355077141805
 10
-1.183007663626985
 20
-1.8819007246923694
 10
-1.1927251494129165
 20
-1.8526812684101621
 10
-1.2034365271784917
 20
-1.8238113438901578
 10
-1.2151292579183641
 20
-1.7953247469843772
 10
-1.227789653830977
 20
-1.7672548248119968
 10
-1.2414028943418427
 20
-1.7396344367223824
 10
-1.2559530434528785
 20
-1.7124959158291164
 10
-1.2714230683974792
 20
-1.6858710311600515
 10
-1.2877948595795008
 20
-1.659790950467694
 10
-1.3050492517728023
 20
-1.6342862037434598
 10
-1.323166046556537
 20
-1.6093866474785052
 10
-0.8726816126053274
 20
-1.8263285170372843
  0
LWPOLYLINE
  5
75
330
17
100
AcDbEntity
  8
SCAN_FOOTPRINTS
100
AcDbPolyline
 90
130
 70
1
 10
-0.4444053352545917
 20
-1.9747285755567257
 10
-0.42120209382548335
 20
-1.9949724818648003
 10
-0.3987049652071055
 20
-2.0159983078736823
 10
-0.37694028509802113
 20
-2.0377814402282546
 10
-0.3559335317743413
 20
-2.060296379051748
 10
-0.33570929626422247
 20
-2.083516767796531
 10
-0.316291253560998
 20
-2.1074154240977405
 10
-0.2977021349086401
 20
-2.1319643715936345
 10
-0.2799637011920009
 20
-2.157134872675416
 10
-0.263096717462978
 20
-2.1828974621281962
 10
-0.24712092863243096
 20
-2.209221981623704
 10
-0.23205503635629393
 20
-2.236077615024378
 10
-0.21791667714295304
 20
-2.2634329244575055
 10
-0.2047224017075125
 20
-2.2912558871171744
 10
-0.192487655597113
 20
-2.3195139327509695
 10
-0.18122676110999142
 20
-2.348173981787521
 10
-0.17095290052944256
 20
-2.3772024840602706
 10
-0.16167810069230837
 20
-2.406565458082135
 10
-0.15341321891006526
 20
-2.4362285308250784
 10
-0.14616793025898522
 20
-2.466156977958034
 10
-0.13995071625424893
 20
-2.4963157644960714
 10
-0.134768854921275
 20
-2.5266695858132207
 10
-0.13062841227588134
 20
-2.5571829089709466
 10
-0.12753423522325624
 20
-2.5878200143138894
 10
-0.1254899458840506
 20
-2.6185450372841856
 10
-0.12449793735423376
 20
-2.6493220104054065
 10
-0.12455937090367486
 20
-2.6801149053869864
 10
-0.12567417461673192
 20
-2.710887675299832
 10
-0.1278410434764391
 20
-2.7416042967737577
 10
-0.13105744089219046
 20
-2.7722288121673366
 10
-0.13531960166913615
 20
-2.8027253716608116
 10
-0.1406225364158149
 20
-2.833058275222786
 10
-0.14696003738485763
 20
-2.8631920144015703
 10
-0.15457926238069003
 20
-2.894051508585284
 10
-0.16328346025686513
 20
-2.9246227027089056
 10
-0.1730617737518812
 20
-2.9548674635114804
 10
-0.18390200579621263
 20
-2.984748064911667
 10
-0.19579063472643726
 20
-3.014227235065713
 10
-0.20871283115160738
 20
-3.043268202858834
 10
-0.22265247645082747
 20
-3.071834743772002
 10
-0.23759218287896555
 20
-3.0998912250669335
 10
-0.25351331525541576
 20
-3.1274026502329138
 10
-0.2703960142088646
 20
-3.1543347026400177
 10
-0.2882192209490592
 20
-3.180653788344275
 10
-0.3069607035346847
 20
-3.2063270779913866
 10
-0.3265970846045815
 20
-3.2313225477667196
 10
-0.3471038705377107
 20
-3.255609019340511
 10
-0.36845548200550055
 20
-3.279156198758444
 10
-0.3906252858784553
 20
-3.3019347142290907
 10
-0.4135856284472377
 20
-3.323916152761087
 10
-0.43730786991677556
 20
-3.345073095604341
 10
-0.46176242013037677
 20
-3.3653791524510615
 10
-0.4869187754792821
 20
-3.3848089943539534
 10
-0.5127455569516247
 20
-3.4033383853205135
 10
-0.5392105492733288
 20
-3.420944212544019
 10
-0.5662807410921296
 20
-3.4376045152334993
 10
-0.5939223661545869
 20
-3.453298512006734
 10
-0.6221009454247346
 20
-3.4680066268120986
 10
-0.6507813300918225
 20
-3.481710513346934
 10
-0.6799277454135105
 20
-3.4943930779419774
 10
-0.7095038353398234
 20
-3.5060385008833066
 10
-0.7394727078622042
 20
-3.5166322561452077
 10
-0.7697969810311032
 20
-3.5261611295093456
 10
-0.8004388295846949
 20
-3.534613235047644
 10
-1.2879027856756067
 20
-3.423352768069486
 10
-1.2879027856756067
 20
-3.423352768069486
 10
-1.2572609371220151
 20
-3.4149006625311884
 10
-1.226936663953116
 20
-3.40537178916705
 10
-1.196967791430735
 20
-3.3947780339051494
 10
-1.1673917015044224
 20
-3.38313261096382
 10
-1.1382452861827344
 20
-3.3704500463687768
 10
-1.1095649015156464
 20
-3.3567461598339414
 10
-1.081386322245499
 20
-3.342038045028577
 10
-1.0537446971830413
 20
-3.326344048255342
 10
-1.0266745053642405
 20
-3.309683745565861
 10
-1.0002095130425366
 20
-3.292077918342356
 10
-0.9743827315701941
 20
-3.2735485273757963
 10
-0.9492263762212885
 20
-3.2541186854729043
 10
-0.9247718260076874
 20
-3.233812628626184
 10
-0.9010495845381495
 20
-3.21265568578293
 10
-0.8780892419693671
 20
-3.1906742472509335
 10
-0.8559194380964124
 20
-3.1678957317802867
 10
-0.8345678266286225
 20
-3.1443485523623536
 10
-0.8140610406954933
 20
-3.1200620807885624
 10
-0.7944246596255966
 20
-3.0950666110132294
 10
-0.775683177039971
 20
-3.069393321366118
 10
-0.7578599702997764
 20
-3.0430742356618605
 10
-0.7409772713463276
 20
-3.0161421832547566
 10
-0.7250561389698773
 20
-2.9886307580887763
 10
-0.7101164325417393
 20
-2.960574276793845
 10
-0.6961767872425191
 20
-2.932007735880677
 10
-0.6832545908173491
 20
-2.902966768087556
 10
-0.6713659618871245
 20
-2.8734875979335097
 10
-0.660525729842793
 20
-2.8436069965333233
 10
-0.6507474163477769
 20
-2.8133622357307484
 10
-0.642043218471602
 20
-2.7827910416071266
 10
-0.6344239934757695
 20
-2.7519315474234127
 10
-0.6280864925067267
 20
-2.721797808244629
 10
-0.622783557760048
 20
-2.6914649046826544
 10
-0.6185213969831023
 20
-2.660968345189179
 10
-0.615304999567351
 20
-2.6303438297956006
 10
-0.6131381307076438
 20
-2.599627208321675
 10
-0.6120233269945866
 20
-2.5688544384088288
 10
-0.6119618934451456
 20
-2.5380615434272493
 10
-0.6129539019749625
 20
-2.507284570306028
 10
-0.6149981913141681
 20
-2.4765595473357322
 10
-0.6180923683667932
 20
-2.445922441992789
 10
-0.6222328110121869
 20
-2.4154091188350635
 10
-0.6274146723451608
 20
-2.3850552975179142
 10
-0.633631886349897
 20
-2.3548965109798767
 10
-0.6408771750009772
 20
-2.3249680638469212
 10
-0.6491420567832201
 20
-2.295304991103978
 10
-0.6584168566203543
 20
-2.2659420170821134
 10
-0.6686907172009033
 20
-2.2369135148093635
 10
-0.6799516116880249
 20
-2.2082534657728123
 10
-0.6921863577984244
 20
-2.1799954201390173
 10
-0.7053806332338649
 20
-2.1521724574793484
 10
-0.7195189924472056
 20
-2.124817148046221
 10
-0.7345848847233427
 20
-2.0979615146455464
 10
-0.7505606735538899
 20
-2.071636995150039
 10
-0.7674276572829126
 20
-2.045874405697259
 10
-0.785166090999552
 20
-2.0207039046154773
 10
-0.8037552096519099
 20
-1.9961549571195834
 10
-0.8231732523551343
 20
-1.9722563008183738
 10
-0.843397487865253
 20
-1.9490359120735905
 10
-0.8644042411889329
 20
-1.926520973250097
 10
-0.8861689212980173
 20
-1.904737840895525
 10
-0.9086660499163952
 20
-1.8837120148866429
 10
-0.9318692913455036
 20
-1.8634681085785685
 10
-0.44440533525459164
 20
-1.9747285755567257
  0
LWPOLYLINE
  5
76
330
17
100
AcDbEntity
  8
SCAN_FOOTPRINTS
100
AcDbPolyline
 90
130
 70
1
 10
0.006155281280882513
 20
-2.024107497549326
 10
0.03328146194181077
 20
-2.0386806399070423
 10
0.05989322701651118
 20
-2.0541732224882834
 10
0.0859594241105995
 20
-2.070567109290373
 10
0.11144953948514631
 20
-2.0878431092214873
 10
0.13633373377681784
 20
-2.105980998566225
 10
0.16058287692857603
 20
-2.1249595446599896
 10
0.18416858229005031
 20
-2.144756530744475
 10
0.20706323984765554
 20
-2.165348781975158
 10
0.22924004854556237
 20
-2.1867121925503463
 10
0.25067304765967685
 20
-2.208821753930029
 10
0.27133714718791385
 20
-2.231651584111497
 10
0.2912081572211765
 20
-2.255174957927462
 10
0.3102628162606636
 20
-2.2793643383311943
 10
0.3284788184483623
 20
-2.3041914086320845
 10
0.3458348396788387
 20
-2.3296271056438607
 10
0.3623105625617656
 20
-2.3556416537066767
 10
0.3778867002059674
 20
-2.382204599543245
 10
0.3925450187971331
 20
-2.4092848479081974
 10
0.4062683589427727
 20
-2.4368506979889526
 10
0.41904065575943106
 20
-2.4648698805154785
 10
0.43084695767863823
 20
-2.4933095955355014
 10
0.4416734439495884
 20
-2.522136550810947
 10
0.45150744081805483
 20
-2.5513170007906605
 10
0.4603374363626016
 20
-2.5808167861137927
 10
0.468153093970725
 20
-2.6106013735975933
 10
0.4749452644391503
 20
-2.640635896662817
 10
0.4807059966841163
 20
-2.6708851961494067
 10
0.4854285470491106
 20
-2.7013138614746834
 10
0.48910738719916375
 20
-2.7318862720858528
 10
0.4917382105924552
 20
-2.762566639158313
 10
0.4933179375216567
 20
-2.793319047490942
 10
0.49384471871911656
 20
-2.824107497549326
 10
0.4932834070686655
 20
-2.855888716846937
 10
0.4916001722745768
 20
-2.8876302935475318
 10
0.48879711393529574
 20
-2.9192926345026535
 10
0.4848777284714951
 20
-2.9508362453992825
 10
0.4798469047647821
 20
-2.982221780023433
 10
0.47371091805950816
 20
-3.0134100893390157
 10
0.46647742213528376
 20
-3.0443622703207494
 10
0.45815543975996575
 20
-3.0750397144802077
 10
0.4487553514350259
 20
-3.1054041560244734
 10
0.4382888824473349
 20
-3.1354177195873274
 10
0.42676908824351967
 20
-3.165042967473438
 10
0.41421033814513
 20
-3.194242946356615
 10
0.4006282974249328
 20
-3.2229812333738797
 10
0.38603990776669106
 20
-3.2512219815578614
 10
0.37046336613279657
 20
-3.278929964550843
 10
0.3539181020661229
 20
-3.3060706205446797
 10
0.33642475345440365
 20
-3.3326100953917948
 10
0.31800514078737524
 20
-3.3585152848334574
 10
0.2986822399387857
 20
-3.3837538757926877
 10
0.2784801535072284
 20
-3.4082943866802724
 10
0.25742408075154183
 20
-3.432106206663613
 10
0.23554028615828274
 20
-3.455159633849431
 10
0.212856066680476
 20
-3.4774259123327
 10
0.1893997176885092
 20
-3.498877268065586
 10
0.1652004976756405
 20
-3.519486943501666
 10
0.14028859176214792
 20
-3.5392292309721967
 10
0.11469507404364056
 20
-3.558079504752814
 10
0.0884518688304994
 20
-3.5760142517806575
 10
0.06159171082679427
 20
-3.5930111009836057
 10
0.0341481042983478
 20
-3.6090488511850394
 10
0.006155281280882275
 20
-3.6241074975493257
 10
-0.4938447187191177
 20
-3.6241074975493257
 10
-0.4938447187191177
 20
-3.6241074975493257
 10
-0.4658518957016522
 20
-3.6090488511850394
 10
-0.4384082891732058
 20
-3.593011100983605
 10
-0.4115481311695005
 20
-3.576014251780657
 10
-0.38530492595635935
 20
-3.5580795047528135
 10
-0.3597114082378521
 20
-3.539229230972196
 10
-0.3347995023243594
 20
-3.519486943501666
 10
-0.31060028231149084
 20
-3.498877268065586
 10
-0.2871439333195239
 20
-3.4774259123327
 10
-0.2644597138417173
 20
-3.455159633849431
 10
-0.24257591924845825
 20
-3.432106206663613
 10
-0.2215198464927717
 20
-3.4082943866802724
 10
-0.2013177600612143
 20
-3.3837538757926877
 10
-0.18199485921262484
 20
-3.358515284833457
 10
-0.1635752465455964
 20
-3.3326100953917948
 10
-0.14608189793387716
 20
-3.3060706205446797
 10
-0.12953663386720338
 20
-3.278929964550843
 10
-0.11396009223330904
 20
-3.2512219815578614
 10
-0.0993717025750673
 20
-3.2229812333738797
 10
-0.08578966185487011
 20
-3.194242946356615
 10
-0.0732309117564803
 20
-3.165042967473438
 10
-0.06171111755266508
 20
-3.135417719587327
 10
-0.051244648564974196
 20
-3.105404156024473
 10
-0.041844560240034204
 20
-3.0750397144802077
 10
-0.0335225778647163
 20
-3.0443622703207494
 10
-0.026289081940491787
 20
-3.0134100893390157
 10
-0.020153095235217848
 20
-2.982221780023433
 10
-0.015122271528505024
 20
-2.9508362453992825
 10
-0.011202886064704246
 20
-2.9192926345026535
 10
-0.008399827725423168
 20
-2.8876302935475318
 10
-0.006716592931334556
 20
-2.855888716846937
 10
-0.006155281280883515
 20
-2.824107497549326
 10
-0.0066820624783432555
 20
-2.793319047490942
 10
-0.008261789407544858
 20
-2.762566639158313
 10
-0.0108926128008362
 20
-2.7318862720858528
 10
-0.01457145295088946
 20
-2.7013138614746834
 10
-0.019294003315883816
 20
-2.6708851961494067
 10
-0.02505473556084968
 20
-2.640635896662817
 10
-0.03184690602927507
 20
-2.6106013735975933
 10
-0.039662563637398486
 20
-2.5808167861137927
 10
-0.048492559181945255
 20
-2.5513170007906605
 10
-0.05832655605041167
 20
-2.522136550810947
 10
-0.06915304232136184
 20
-2.4933095955355014
 10
-0.080959344240569
 20
-2.464869880515478
 10
-0.09373164105722726
 20
-2.4368506979889526
 10
-0.10745498120286695
 20
-2.4092848479081974
 10
-0.12211329979403256
 20
-2.382204599543245
 10
-0.13768943743823442
 20
-2.3556416537066767
 10
-0.1541651603211614
 20
-2.32962710564386
 10
-0.1715211815516378
 20
-2.3041914086320845
 10
-0.18973718373933648
 20
-2.2793643383311943
 10
-0.2087918427788236
 20
-2.255174957927462
 10
-0.22866285281208612
 20
-2.231651584111497
 10
-0.24932695234032312
 20
-2.208821753930029
 10
-0.27075995145443765
 20
-2.1867121925503463
 10
-0.2929367601523444
 20
-2.165348781975158
 10
-0.3158314177099497
 20
-2.1447565307444747
 10
-0.339417123071424
 20
-2.124959544659989
 10
-0.3636662662231821
 20
-2.105980998566225
 10
-0.38855046051485365
 20
-2.0878431092214873
 10
-0.41404057588940046
 20
-2.070567109290373
 10
-0.44010677298348877
 20
-2.054173222488283
 10
-0.4667185380581892
 20
-2.0386806399070423
 10
-0.49384471871911745
 20
-2.0241074975493256
 10
0.006155281280882568
 20
-2.024107497549326
  0
LWPOLYLINE
  5
77
330
17
100
AcDbEntity
  8
SCAN_FOOTPRINTS
100
AcDbPolyline
 90
130
 70
1
 10
0.45640724631071516
 20
-1.9719892176779545
 10
0.4860961462360583
 20
-1.9801608378753541
 10
0.5154881227451822
 20
-1.9893433142469394
 10
0.5445487688590167
 20
-1.99952589755738
 10
0.5732440654620983
 20
-2.0106966678212768
 10
0.6015404211261918
 20
-2.0228425482569934
 10
0.6294047114332508
 20
-2.035949320594664
 10
0.6568043177516886
 20
-2.0500016417204505
 10
0.6837071654205571
 20
-2.0649830616375757
 10
0.7100817612969461
 20
-2.0808760427230983
 10
0.735897230622636
 20
-2.0976619802578904
 10
0.761123353166862
 20
-2.1153212242057857
 10
0.7857305986028666
 20
-2.1338331022164
 10
0.8096901610768334
 20
-2.1531759438246967
 10
0.8329739929287392
 20
-2.173327105818978
 10
0.8555548375256412
 20
-2.194262998747587
 10
0.8774062611689687
 20
-2.215959114533308
 10
0.8985026840384713
 20
-2.2383900551631326
 10
0.9188194101365905
 20
-2.2615295624198053
 10
0.9383326561982093
 20
-2.285350548620345
 10
0.9570195795319355
 20
-2.309825128325562
 10
0.9748583047603234
 20
-2.334924650983447
 10
0.991827949427735
 20
-2.360619734468219
 10
1.0079086484458628
 20
-2.3868802994757727
 10
1.0230815773482969
 20
-2.413675604735263
 10
1.0373289743269114
 20
-2.4409742829956
 10
1.0506341610242824
 20
-2.46874437774473
 10
1.0629815620577858
 20
-2.496953380618732
 10
1.074356723252528
 20
-2.5255682694569095
 10
1.0847463285617631
 20
-2.5545555469583565
 10
1.0941382156549904
 20
-2.5838812798947326
 10
1.1025213901554767
 20
-2.613511138833344
 10
1.1098860385105516
 20
-2.643410438324029
 10
1.116410786715469
 20
-2.6745197396931406
 10
1.1218329194246186
 20
-2.7058400437736587
 10
1.1261456732907562
 20
-2.7373322828954154
 10
1.1293436687605696
 20
-2.7689571749234814
 10
1.1314229167849135
 20
-2.800675272257102
 10
1.1323808237945872
 20
-2.8324470110350255
 10
1.1322161949354475
 20
-2.864232760485849
 10
1.13092923555882
 20
-2.895992872361828
 10
1.1285215509653537
 20
-2.927687730394483
 10
1.1249961444026317
 20
-2.9592777997103186
 10
1.1203574133190466
 20
-2.990723676145011
 10
1.1146111438785993
 20
-3.0219861353945574
 10
1.1077645037434753
 20
-3.053026181942072
 10
1.0998260331333956
 20
-3.083805097699205
 10
1.0908056341728933
 20
-3.1142844903015052
 10
1.08071455853981
 20
-3.144426340997492
 10
1.0695653934304077
 20
-3.1741930520716948
 10
1.0573720458586178
 20
-3.2035474937425104
 10
1.0441497253089955
 20
-3.2324530504763773
 10
1.029914924765031
 20
-3.260873666660502
 10
1.0146854001364733
 20
-3.288773891577157
 10
0.9984801481113335
 20
-3.3161189236234625
 10
0.9813193824601895
 20
-3.342874653721486
 10
0.9632245088223541
 20
-3.369007707864516
 10
0.9442180980053523
 20
-3.3944854887464366
 10
0.9243238578310174
 20
-3.4192762164222765
 10
0.9035666035633196
 20
-3.443348967949219
 10
0.8819722269548188
 20
-3.466673715958619
 10
0.8595676639503473
 20
-3.4892213661109173
 10
0.8363808610882106
 20
-3.5109637933867344
 10
0.8124407406408165
 20
-3.5318738771688727
 10
0.32497678454990464
 20
-3.6431343441470294
 10
0.32497678454990464
 20
-3.6431343441470294
 10
0.34891690499729877
 20
-3.622224260364891
 10
0.37210370785943536
 20
-3.600481833089074
 10
0.39450827086390694
 20
-3.577934182936776
 10
0.4161026474724079
 20
-3.5546094349273756
 10
0.43685990174010547
 20
-3.530536683400433
 10
0.45675414191444047
 20
-3.505745955724593
 10
0.475760552731442
 20
-3.4802681748426734
 10
0.4938554263692776
 20
-3.454135120699643
 10
0.5110161920204215
 20
-3.427379390601619
 10
0.5272214440455614
 20
-3.400034358555313
 10
0.5424509686741189
 20
-3.3721341336386583
 10
0.5566857692180835
 20
-3.343713517454534
 10
0.5699080897677059
 20
-3.3148079607206666
 10
0.5821014373394957
 20
-3.2854535190498515
 10
0.5932506024488979
 20
-3.255686807975649
 10
0.6033416780819816
 20
-3.225544957279662
 10
0.6123620770424836
 20
-3.1950655646773614
 10
0.6203005476525634
 20
-3.164286648920229
 10
0.6271471877876874
 20
-3.133246602372714
 10
0.6328934572281347
 20
-3.1019841431231674
 10
0.6375321883117199
 20
-3.070538266688475
 10
0.6410575948744417
 20
-3.0389481973726395
 10
0.6434652794679083
 20
-3.0072533393399845
 10
0.6447522388445356
 20
-2.9754932274640056
 10
0.6449168677036753
 20
-2.943707478013182
 10
0.6439589606940016
 20
-2.911935739235259
 10
0.6418797126696577
 20
-2.880217641901638
 10
0.6386817171998445
 20
-2.848592749873572
 10
0.6343689633337066
 20
-2.8171005107518154
 10
0.6289468306245569
 20
-2.785780206671297
 10
0.6224220824196397
 20
-2.7546709053021856
 10
0.6150574340645647
 20
-2.7247716058115
 10
0.6066742595640783
 20
-2.6951417468728893
 10
0.5972823724708513
 20
-2.665816013936513
 10
0.5868927671616159
 20
-2.6368287364350658
 10
0.5755176059668737
 20
-2.608213847596889
 10
0.5631702049333704
 20
-2.580004844722887
 10
0.5498650182359994
 20
-2.5522347499737563
 10
0.5356176212573849
 20
-2.52493607171342
 10
0.5204446923549509
 20
-2.4981407664539295
 10
0.504363993336823
 20
-2.4718802014463757
 10
0.4873943486694114
 20
-2.446185117961604
 10
0.46955562344102353
 20
-2.421085595303719
 10
0.4508687001072974
 20
-2.3966110155985016
 10
0.4313554540456786
 20
-2.372790029397962
 10
0.41103872794755936
 20
-2.3496505221412893
 10
0.38994230507805683
 20
-2.3272195815114647
 10
0.36809088143472923
 20
-2.3055234657257437
 10
0.3455100368378272
 20
-2.2845875727971348
 10
0.3222262049859215
 20
-2.2644364108028534
 10
0.29826664251195467
 20
-2.245093569194556
 10
0.2736593970759501
 20
-2.2265816911839424
 10
0.2484332745317242
 20
-2.208922447236047
 10
0.2226178052060342
 20
-2.192136509701255
 10
0.19624320932964517
 20
-2.176243528615732
 10
0.16934036166077654
 20
-2.1612621086986072
 10
0.1419407553423389
 20
-2.147209787572821
 10
0.1140764650352799
 20
-2.1341030152351506
 10
0.08578010937118641
 20
-2.121957134799433
 10
0.05708481276810473
 20
-2.1107863645355365
 10
0.02802416665427021
 20
-2.100603781225096
 10
-0.00136780985485363
 20
-2.091421304853511
 10
-0.0310567097801967
 20
-2.0832496846561113
 10
0.4564072463107152
 20
-1.9719892176779545
  0
LWPOLYLINE
  5
78
330
17
100
AcDbEntity
  8
SCAN_FOOTPRINTS
100
AcDbPolyline
 90
130
 70
1
 10
0.8837730462198428
 20
-1.8209871641223452
 10
0.9145359399972943
 20
-1.8223475030010157
 10
0.9452342915084686
 20
-1.824759425454992
 10
0.9758321644992113
 20
-1.8282201080278326
 10
1.0062937403380254
 20
-1.8327254995584052
 10
1.036583359946252
 20
-1.8382703259232747
 10
1.0666655655414725
 20
-1.8448480962107254
 10
1.096505142145275
 20
-1.852451110319183
 10
1.126067158806781
 20
-1.8610704679711436
 10
1.1553170094936889
 20
-1.870696079132063
 10
1.1842204536029521
 20
-1.8813166758219995
 10
1.212743656043685
 20
-1.8929198253061927
 10
1.240853226845362
 20
-1.9054919446491332
 10
1.2685162602449438
 20
-1.9190183166150825
 10
1.2957003732071875
 20
-1.9334831068964367
 10
1.3223737433330307
 20
-1.9488693826497625
 10
1.3485051461116835
 20
-1.9651591323178024
 10
1.3740639914728199
 20
-1.9823332867142525
 10
1.399020359596073
 20
-2.0003717413466284
 10
1.4233450359359217
 20
-2.019253379951082
 10
1.4470095454209664
 20
-2.0389560992116262
 10
1.469986185787554
 20
-2.0594568346348274
 10
1.492248060008738
 20
-2.0807315875496744
 10
1.513769107780607
 20
-2.1027554532010195
 10
1.5345241360291269
 20
-2.125502649903707
 10
1.554488848401776
 20
-2.1489465492232522
 10
1.5736398737094652
 20
-2.1730597071477518
 10
1.5919547932854297
 20
-2.197813896214525
 10
1.6094121672290784
 20
-2.2231801385538863
 10
1.6259915595040773
 20
-2.2491287398113586
 10
1.6416735618612806
 20
-2.2756293239086247
 10
1.6564398165585092
 20
-2.3026508686025196
 10
1.6702730378505828
 20
-2.330161741800441
 10
1.683556667790898
 20
-2.359039174969276
 10
1.6958122796283948
 20
-2.3883676756009207
 10
1.7070245862126114
 20
-2.418110660519609
 10
1.7171796017695165
 20
-2.448231029538776
 10
1.7262646593467927
 20
-2.478691211738319
 10
1.7342684266140778
 20
-2.50945321232903
 10
1.7411809199984507
 20
-2.5404786600457476
 10
1.7469935171375321
 20
-2.571728855010108
 10
1.7516989676346708
 20
-2.603164817003194
 10
1.7552914021027886
 20
-2.6347473340878733
 10
1.757766339485619
 20
-2.666437011520167
 10
1.7591206926471896
 20
-2.69819432088865
 10
1.7593527722225935
 20
-2.729979649420576
 10
1.7584622887252315
 20
-2.761753349393237
 10
1.7564503529079072
 20
-2.7934757875889176
 10
1.753319474377319
 20
-2.8251073947317495
 10
1.7490735584636785
 20
-2.856608714844819
 10
1.743717901349362
 20
-2.887940454465939
 10
1.7372591834626672
 20
-2.919063531660713
 10
1.7297054611449205
 20
-2.9499391247717472
 10
1.7210661566013246
 20
-2.9805287208432025
 10
1.711352046148084
 20
-3.0107941636602837
 10
1.700575246770468
 20
-3.040697701343748
 10
1.6887492010085772
 20
-3.07020203344006
 10
1.675888660189667
 20
-3.099270357448453
 10
1.6620096660279433
 20
-3.127866414726872
 10
1.6471295306147833
 20
-3.155954535719523
 10
1.6312668148243368
 20
-3.1834996844496226
 10
1.614441305161451
 20
-3.2104675022218467
 10
1.5966739890807888
 20
-3.236824350479968
 10
1.5779870288079356
 20
-3.262537352766216
 10
1.1275025948567259
 20
-3.479479222324995
 10
1.1275025948567259
 20
-3.479479222324995
 10
1.146189555129579
 20
-3.453766220038747
 10
1.1639568712102413
 20
-3.4274093717806258
 10
1.1807823808731273
 20
-3.400441554008401
 10
1.1966450966635735
 20
-3.372896405278302
 10
1.2115252320767338
 20
-3.344808284285651
 10
1.2254042262384575
 20
-3.316212227007232
 10
1.2382647670573674
 20
-3.2871439029988387
 10
1.2500908128192585
 20
-3.257639570902527
 10
1.2608676121968745
 20
-3.2277360332190628
 10
1.270581722650115
 20
-3.1974705904019816
 10
1.279221027193711
 20
-3.1668809943305263
 10
1.2867747495114576
 20
-3.1360054012194922
 10
1.2932334673981525
 20
-3.104882324024718
 10
1.2985891245124688
 20
-3.073550584403598
 10
1.3028350404261093
 20
-3.0420492642905286
 10
1.3059659189566977
 20
-3.0104176571476966
 10
1.3079778547740217
 20
-2.978695218952016
 10
1.3088683382713837
 20
-2.946921518979355
 10
1.30863625869598
 20
-2.915136190447429
 10
1.3072819055344091
 20
-2.8833788810789462
 10
1.304806968151579
 20
-2.8516892036466523
 10
1.301214533683461
 20
-2.820106686561973
 10
1.2965090831863226
 20
-2.788670724568887
 10
1.290696486047241
 20
-2.7574205296045267
 10
1.2837839926628682
 20
-2.726395081887809
 10
1.275780225395583
 20
-2.695633081297098
 10
1.2666951678183067
 20
-2.665172899097555
 10
1.256540152261402
 20
-2.6350525300783882
 10
1.2453278456771852
 20
-2.6053095451596997
 10
1.2330722338396884
 20
-2.575981044528055
 10
1.219788603899373
 20
-2.54710361135922
 10
1.2059553826072997
 20
-2.5195927381612986
 10
1.191189127910071
 20
-2.4925711934674037
 10
1.1755071255528677
 20
-2.4660706093701377
 10
1.158927733277869
 20
-2.4401220081126653
 10
1.14147035933422
 20
-2.414755765773304
 10
1.1231554397582555
 20
-2.3900015767065304
 10
1.1040044144505665
 20
-2.3658884187820313
 10
1.0840397020779171
 20
-2.342444519462486
 10
1.0632846738293975
 20
-2.3196973227597986
 10
1.0417636260575283
 20
-2.2976734571084534
 10
1.0195017518363443
 20
-2.2763987041936065
 10
0.9965251114697568
 20
-2.2558979687704053
 10
0.9728606019847121
 20
-2.236195249509861
 10
0.9485359256448633
 20
-2.2173136109054075
 10
0.9235795575216101
 20
-2.1992751562730315
 10
0.898020712160474
 20
-2.1821010018765814
 10
0.871889309381821
 20
-2.1658112522085418
 10
0.8452159392559777
 20
-2.1504249764552155
 10
0.8180318262937342
 20
-2.1359601861738615
 10
0.7903687928941523
 20
-2.122433814207912
 10
0.7622592220924755
 20
-2.1098616948649718
 10
0.7337360196517424
 20
-2.0982585453807783
 10
0.7048325755424792
 20
-2.087637948690842
 10
0.6755827248555715
 20
-2.0780123375299224
 10
0.6460207081940653
 20
-2.069392979877962
 10
0.6161811315902629
 20
-2.0617899657695045
 10
0.5860989259950424
 20
-2.0552121954820537
 10
0.5558093063868159
 20
-2.0496673691171843
 10
0.5253477305480018
 20
-2.0451619775866114
 10
0.494749857557259
 20
-2.041701295013771
 10
0.4640515060460847
 20
-2.0392893725597947
 10
0.43328861226863313
 20
-2.0379290336811238
 10
0.8837730462198429
 20
-1.8209871641223452
  0
LWPOLYLINE
  5
79
330
17
100
AcDbEntity
  8
SCAN_FOOTPRINTS
100
AcDbPolyline
 90
130
 70
1
 10
1.266822775276646
 20
-1.5786732103774415
 10
1.2971170829575471
 20
-1.5731540548657261
 10
1.3275824659408488
 20
-1.5686744795389398
 10
1.358183260691153
 20
-1.5652397282994268
 10
1.3888836451566784
 20
-1.5628538219524555
 10
1.4196476807034446
 20
-1.5615195534993642
 10
1.450439354185931
 20
-1.561238484868006
 10
1.4812226201049628
 20
-1.5620109450843143
 10
1.511961442803467
 20
-1.5638360298871383
 10
1.5426198386507122
 20
-1.566711602786794
 10
1.5731619181656382
 20
-1.5706342975660916
 10
1.603551928029979
 20
-1.5755995222209132
 10
1.6337542929419864
 20
-1.5816014643357263
 10
1.6637336572617603
 20
-1.588633097887744
 10
1.6934549263994443
 20
-1.5966861914717603
 10
1.7228833078978252
 20
-1.605751317936039
 10
1.7519843521612462
 20
-1.6158178654179713
 10
1.780723992783165
 20
-1.6268740497665857
 10
1.8090685864251341
 20
-1.6389069283373705
 10
1.83698495220053
 20
-1.651902415143254
 10
1.864440410516927
 20
-1.6658452973440108
 10
1.891402821331639
 20
-1.6807192530547928
 10
1.9178406217756536
 20
-1.6965068704529327
 10
1.9437228631019132
 20
-1.713189668160657
 10
1.9690192469146872
 20
-1.730748116879847
 10
1.993700160637628
 20
-1.7491616622535213
 10
2.01773671217899
 20
-1.7684087489272757
 10
2.0411007637534326
 20
-1.7884668457825208
 10
2.0637649648208085
 20
-1.8093124723119671
 10
2.0857027841033893
 20
-1.8309212261064924
 10
2.1068885406440394
 20
-1.8532678114212089
 10
2.127297433868981
 20
-1.8763260687872916
 10
2.146905572619967
 20
-1.9000690056349037
 10
2.166281987622865
 20
-1.9252665355227172
 10
2.1847565310361983
 20
-1.951132579218664
 10
2.202306158467846
 20
-1.9776348724745718
 10
2.2189089792281673
 20
-2.004740357410511
 10
2.2345442836355547
 20
-2.032415223749847
 10
2.249192568848848
 20
-2.0606249509927994
 10
2.262835563194382
 20
-2.089334351475908
 10
2.2754562489573273
 20
-2.1185076142636863
 10
2.2870388836088944
 20
-2.1481083498177242
 10
2.2975690194429204
 20
-2.178099635387515
 10
2.307033521597352
 20
-2.2084440610663862
 10
2.315420584438134
 20
-2.2391037764550936
 10
2.322719746285075
 20
-2.2700405378748667
 10
2.3289219024613237
 20
-2.3012157560710107
 10
2.3340193166501697
 20
-2.3325905443475734
 10
2.3380056305450108
 20
-2.3641257670730207
 10
2.340875871780443
 20
-2.39578208849643
 10
2.3426264601345883
 20
-2.4275200218133
 10
2.343255211994917
 20
-2.4592999784197827
 10
2.342761343081998
 20
-2.4910823172938907
 10
2.341145469427773
 20
-2.5228273944420936
 10
2.3384096066071502
 20
-2.5544956123496187
 10
2.334557167223851
 20
-2.5860474693727764
 10
2.3295929566536726
 20
-2.617443609011699
 10
2.323523167050456
 20
-2.6486448690020334
 10
2.316355369622245
 20
-2.679612330164355
 10
2.3080985051872727
 20
-2.7103073649503635
 10
2.298762873021546
 20
-2.740691685625311
 10
2.288360118011953
 20
-2.7707273920265623
 10
2.2769032161309
 20
-2.800377018838711
 10
2.26440645825062
 20
-2.8296035823262895
 10
1.8734907170166046
 20
-3.141348483255656
 10
1.8734907170166046
 20
-3.141348483255656
 10
1.8859874748968852
 20
-3.112121919768078
 10
1.8974443767779379
 20
-3.082472292955929
 10
1.9078471317875312
 20
-3.052436586554678
 10
1.9171827639532575
 20
-3.02205226587973
 10
1.9254396283882298
 20
-2.9913572310937218
 10
1.9326074258164407
 20
-2.9603897699314
 10
1.9386772154196577
 20
-2.9291885099410657
 10
1.943641425989836
 20
-2.897792370302143
 10
1.947493865373135
 20
-2.8662405132789854
 10
1.9502297281937582
 20
-2.8345722953714603
 10
1.9518456018479826
 20
-2.8028272182232574
 10
1.952339470760902
 20
-2.7710448793491493
 10
1.9517107189005733
 20
-2.7392649227426666
 10
1.9499601305464278
 20
-2.7075269894257965
 10
1.947089889310996
 20
-2.6758706680023874
 10
1.943103575416155
 20
-2.64433544527694
 10
1.9380061612273085
 20
-2.6129606570003774
 10
1.9318040050510596
 20
-2.5817854388042334
 10
1.9245048432041187
 20
-2.5508486773844603
 10
1.9161177803633374
 20
-2.520188961995753
 10
1.9066532782089056
 20
-2.4898445363168817
 10
1.8961231423748792
 20
-2.459853250747091
 10
1.8845405077233124
 20
-2.430252515193053
 10
1.871919821960367
 20
-2.4010792524052746
 10
1.8582768276148331
 20
-2.372369851922166
 10
1.84362854240154
 20
-2.3441601246792136
 10
1.8279932379941524
 20
-2.3164852583398776
 10
1.8113904172338313
 20
-2.2893797734039385
 10
1.7938407898021833
 20
-2.2628774801480307
 10
1.7753662463888498
 20
-2.2370114364520837
 10
1.755989831385952
 20
-2.2118139065642706
 10
1.7363816926349664
 20
-2.1880709697166583
 10
1.7159727994100245
 20
-2.165012712350576
 10
1.6947870428693743
 20
-2.142666127035859
 10
1.6728492235867936
 20
-2.121057373241334
 10
1.6501850225194177
 20
-2.1002117467118877
 10
1.626820970944975
 20
-2.0801536498566424
 10
1.6027844194036127
 20
-2.060906563182888
 10
1.578103505680672
 20
-2.042493017809214
 10
1.552807121867898
 20
-2.0249345690900236
 10
1.5269248805416387
 20
-2.0082517713822994
 10
1.5004870800976238
 20
-1.9924641539841594
 10
1.473524669282912
 20
-1.9775901982733775
 10
1.446069210966515
 20
-1.9636473160726207
 10
1.418152845191119
 20
-1.9506518292667372
 10
1.38980825154915
 20
-1.9386189506959524
 10
1.3610686109272314
 20
-1.9275627663473378
 10
1.3319675666638102
 20
-1.9174962188654059
 10
1.3025391851654293
 20
-1.9084310924011272
 10
1.272817916027745
 20
-1.9003779988171108
 10
1.2428385517079712
 20
-1.893346365265093
 10
1.212636186795964
 20
-1.8873444231502796
 10
1.1822461769316233
 20
-1.8823791984954583
 10
1.1517040974166972
 20
-1.8784565037161607
 10
1.121045701569452
 20
-1.875580930816505
 10
1.0903068788709476
 20
-1.873755846013681
 10
1.059523612951916
 20
-1.8729833857973728
 10
1.0287319394694299
 20
-1.873264454428731
 10
0.9979679039226634
 20
-1.8745987228818222
 10
0.9672675194571382
 20
-1.8769846292287935
 10
0.936666724706834
 20
-1.8804193804683067
 10
0.9062013417235321
 20
-1.8848989557950928
 10
0.8759070340426311
 20
-1.8904181113068081
 10
1.266822775276646
 20
-1.5786732103774415
  0
LWPOLYLINE
  5
7A
330
17
100
AcDbEntity
  8
SCAN_FOOTPRINTS
100
AcDbPolyline
 90
130
 70
1
 10
1.5863487205898457
 20
-1.2571979898989663
 10
1.6146553590890629
 20
-1.245076093500209
 10
1.643360112029349
 20
-1.2339296450046229
 10
1.6724293769126435
 20
-1.2237716927221771
 10
1.701829124534137
 20
-1.2146141278045763
 10
1.731524938817703
 20
-1.2064676703251824
 10
1.7614820571042122
 20
-1.199341856729832
 10
1.7916654108455687
 20
-1.1932450286732323
 10
1.8220396666568224
 20
-1.1881843232540157
 10
1.852569267678312
 20
-1.1841656646598722
 10
1.883218475199405
 20
-1.18119375723255
 10
1.9139514104951256
 20
-1.1792720799608338
 10
1.9447320968266824
 20
-1.1784028824079558
 10
1.9755245015567313
 20
-1.1785871820781995
 10
2.006292578330081
 20
-1.1798247632257848
 10
2.037000309270451
 20
-1.182114177107426
 10
2.0676117471438937
 20
-1.1854527436782645
 10
2.098091057439524
 20
-1.1898365547291982
 10
2.128402560318285
 20
-1.195260478461928
 10
2.158510772380658
 20
-1.2017181654963671
 10
2.188380448204413
 20
-1.2092020563033845
 10
2.217976621603777
 20
-1.2177033900541787
 10
2.247264646561719
 20
-1.22721221487592
 10
2.2762102377874425
 20
-1.2377173995016615
 10
2.3047795108515987
 20
-1.2492066463008773
 10
2.332939021852242
 20
-1.2616665056753744
 10
2.3606558065650947
 20
-1.2750823918037277
 10
2.38789741903229
 20
-1.2894385997158042
 10
2.4146319695444127
 20
-1.3047183236773932
 10
2.440828161971391
 20
-1.320903676863416
 10
2.466455330398525
 20
-1.3379757122966889
 10
2.491483475024765
 20
-1.355914445027726
 10
2.5158832972812313
 20
-1.3746988755296192
 10
2.5403808829896035
 20
-1.3949529927721143
 10
2.564147967229054
 20
-1.4160595480942562
 10
2.587154903907848
 20
-1.437992214039593
 10
2.609372995111321
 20
-1.4607236326949682
 10
2.6307745268984877
 20
-1.4842254498156648
 10
2.6513328038712825
 20
-1.508468350193335
 10
2.671022182473309
 20
-1.5334220942225947
 10
2.6898181029765698
 20
-1.5590555556206753
 10
2.7076971201162654
 20
-1.5853367602530786
 10
2.724636932335464
 20
-1.6122329260168091
 10
2.7406164096031547
 20
-1.6397105037314317
 10
2.755615619770986
 20
-1.6677352189869523
 10
2.7696158534358126
 20
-1.6962721148963191
 10
2.7825996472770465
 20
-1.7252855956992168
 10
2.7945508058396866
 20
-1.7547394711627686
 10
2.805454421735872
 20
-1.7845970017237545
 10
2.8152968942397485
 20
-1.8148209443160475
 10
2.8240659462524587
 20
-1.8453735988260924
 10
2.8317506396160947
 20
-1.8762168551184921
 10
2.8383413887575135
 20
-1.9073122405730363
 10
2.843829972644984
 20
-1.938620968073878
 10
2.848209545042773
 20
-1.9701039843910022
 10
2.851474643050855
 20
-2.0017220188936307
 10
2.853621193919116
 20
-2.033435632534806
 10
2.854646520127532
 20
-2.0652052670460512
 10
2.8545493427259996
 20
-2.0969912942807403
 10
2.853329782929648
 20
-2.1287540656446327
 10
2.8509893619676365
 20
-2.1604539615519123
 10
2.8475309991856386
 20
-2.1920514408450438
 10
2.8429590084043674
 20
-2.2235070901168004
 10
2.8372790925386933
 20
-2.25478167287294
 10
2.525534191609326
 20
-2.645697414106955
 10
2.525534191609326
 20
-2.645697414106955
 10
2.5312141074750008
 20
-2.614422831350815
 10
2.5357860982562714
 20
-2.5829671820790585
 10
2.5392444610382694
 20
-2.551369702785927
 10
2.541584882000281
 20
-2.519669806878648
 10
2.542804441796633
 20
-2.4879070355147554
 10
2.5429016191981653
 20
-2.456121008280066
 10
2.541876292989749
 20
-2.424351373768821
 10
2.539729742121488
 20
-2.3926377601276454
 10
2.5364646441134058
 20
-2.361019725625017
 10
2.5320850717156174
 20
-2.329536709307893
 10
2.5265964878281464
 20
-2.298227981807051
 10
2.520005738686728
 20
-2.267132596352507
 10
2.5123210453230915
 20
-2.2362893400601074
 10
2.5035519933103814
 20
-2.2057366855500624
 10
2.4937095208065054
 20
-2.1755127429577694
 10
2.48280590491032
 20
-2.1456552123967834
 10
2.4708547463476793
 20
-2.1162013369332318
 10
2.4578709525064455
 20
-2.087187856130334
 10
2.4438707188416187
 20
-2.0586509602209673
 10
2.428871508673788
 20
-2.0306262449654464
 10
2.412892031406097
 20
-2.003148667250824
 10
2.3959522191868983
 20
-1.9762525014870935
 10
2.378073202047203
 20
-1.9499712968546903
 10
2.3592772815439425
 20
-1.9243378354566096
 10
2.3395879029419153
 20
-1.8993840914273499
 10
2.319029625969121
 20
-1.8751411910496796
 10
2.2976280941819542
 20
-1.8516393739289831
 10
2.2754100029784814
 20
-1.8289079552736078
 10
2.2524030662996872
 20
-1.806975289328271
 10
2.2286359820602364
 20
-1.7858687340061292
 10
2.2041383963518646
 20
-1.7656146167636342
 10
2.1797385740953983
 20
-1.746830186261741
 10
2.1547104294691577
 20
-1.7288914535307036
 10
2.1290832610420245
 20
-1.7118194180974307
 10
2.1028870686150456
 20
-1.695634064911408
 10
2.0761525181029232
 20
-1.680354340949819
 10
2.048910905635728
 20
-1.6659981330377425
 10
2.0211941209228748
 20
-1.6525822469093894
 10
1.9930346099222316
 20
-1.640122387534892
 10
1.9644653368580756
 20
-1.6286331407356762
 10
1.9355197456323523
 20
-1.6181279561099349
 10
1.9062317206744102
 20
-1.6086191312881937
 10
1.8766355472750464
 20
-1.6001177975373995
 10
1.8467658714512911
 20
-1.5926339067303819
 10
1.816657659388918
 20
-1.5861762196959428
 10
1.786346156510157
 20
-1.5807522959632132
 10
1.755866846214527
 20
-1.5763684849122792
 10
1.725255408341084
 20
-1.5730299183414407
 10
1.6945476774007138
 20
-1.5707405044597997
 10
1.6637796006273646
 20
-1.5695029233122142
 10
1.6329871958973157
 20
-1.5693186236419705
 10
1.6022065095657587
 20
-1.5701878211948486
 10
1.5714735742700383
 20
-1.5721094984665647
 10
1.5408243667489452
 20
-1.5750814058938871
 10
1.5102947657274557
 20
-1.5791000644880304
 10
1.4799205099162018
 20
-1.584160769907247
 10
1.4497371561748453
 20
-1.5902575979638467
 10
1.4197800378883363
 20
-1.5973834115591974
 10
1.3900842236047701
 20
-1.605529869038591
 10
1.3606844759832768
 20
-1.614687433956192
 10
1.3316152110999822
 20
-1.6248453862386376
 10
1.3029104581596962
 20
-1.6359918347342237
 10
1.2746038196604788
 20
-1.6481137311329812
 10
1.5863487205898457
 20
-1.2571979898989663
  0
LWPOLYLINE
  5
7B
330
17
100
AcDbEntity
  8
SCAN_FOOTPRINTS
100
AcDbPolyline
 90
130
 70
1
 10
1.826328517037285
 20
-0.8726816126053258
 10
1.8512280733022395
 20
-0.8545648178215912
 10
1.876732820026474
 20
-0.8373104256282896
 10
1.902812900718831
 20
-0.8209386344462681
 10
1.9294377853878961
 20
-0.8054686095016673
 10
1.956576306281162
 20
-0.7909184603906315
 10
1.9841966943707765
 20
-0.7773052198797655
 10
2.012266616543157
 20
-0.7646448239671528
 10
2.0407532134489372
 20
-0.7529520932272805
 10
2.069623137968942
 20
-0.7422407154617052
 10
2.098842594251149
 20
-0.7325232296757738
 10
2.12837737727296
 20
-0.7238110114001497
 10
2.1581929128824493
 20
-0.716114259374334
 10
2.188254298271724
 20
-0.7094419836077692
 10
2.2185263428350233
 20
-0.703801994832495
 10
2.2489736093637145
 20
-0.699200895359713
 10
2.2795604555299724
 20
-0.6956440713509565
 10
2.3102510756105747
 20
-0.6931356865129151
 10
2.3410095424019732
 20
-0.6916786772232971
 10
2.371799849277571
 20
-0.6912747490934325
 10
2.4025859523379776
 20
-0.6919243749716404
 10
2.4333318126048917
 20
-0.6936267943897035
 10
2.464001438209228
 20
-0.6963800144530893
 10
2.4945589265240944
 20
-0.7001808121738823
 10
2.5249685061933005
 20
-0.7050247382436944
 10
2.555194579006196
 20
-0.710906122242136
 10
2.5852017615698237
 20
-0.7178180792747503
 10
2.614954926729599
 20
-0.7257525180326427
 10
2.6444192446900296
 20
-0.7347001502643694
 10
2.673560223787344
 20
-0.7446505016489935
 10
2.702343750866288
 20
-0.7555919240575868
 10
2.7307361312138365
 20
-0.7675116091888201
 10
2.7587041280030595
 20
-0.7803956035626782
 10
2.787094473176479
 20
-0.7946906821474882
 10
2.8149623173955796
 20
-0.8099793782786731
 10
2.842272899447844
 20
-0.8262426214601026
 10
2.8689921532268574
 20
-0.843460125585395
 10
2.8950867502249804
 20
-0.8616104142419787
 10
2.9205241411059717
 20
-0.8806708474998939
 10
2.9452725963057014
 20
-0.900617650151917
 10
2.969301245610315
 20
-0.921425941369787
 10
2.9925801166624804
 20
-0.9430697657395332
 10
3.015080172347685
 20
-0.9655221256372025
 10
3.0367733470139466
 20
-0.9887550149045932
 10
3.0576325814797647
 20
-1.012739453782995
 10
3.0776318567866388
 20
-1.0374455250613601
 10
3.096746226654056
 20
-1.0628424113938089
 10
3.114951848596468
 20
-1.0888984337399341
 10
3.1322260136634283
 20
-1.115581090879941
 10
3.1485471747658185
 20
-1.1428570999553467
 10
3.1638949735528032
 20
-1.1706924379846575
 10
3.1782502658060094
 20
-1.1990523843022516
 10
3.1915951453192437
 20
-1.227901563867519
 10
3.2039129662339616
 20
-1.2572039913902466
 10
3.215188363802635
 20
-1.2869231162172015
 10
3.2254072735541115
 20
-1.3170218679239245
 10
3.234556948837062
 20
-1.3474627025548664
 10
3.242625976719631
 20
-1.378207649454188
 10
3.2496042922254675
 20
-1.4092183586288065
 10
3.2554831908883637
 20
-1.4404561485846146
 10
3.260255339609849
 20
-1.4718820545761973
 10
3.2639147858062016
 20
-1.5034568772098682
 10
3.266456964833456
 20
-1.5351412313393935
 10
3.267878705681156
 20
-1.5668955951934178
 10
3.050936836122377
 20
-2.0173800291446273
 10
3.050936836122377
 20
-2.0173800291446273
 10
3.0495150952746775
 20
-1.9856256652906032
 10
3.0469729162474226
 20
-1.9539413111610777
 10
3.0433134700510704
 20
-1.922366488527407
 10
3.038541321329585
 20
-1.890940582535824
 10
3.032662422666689
 20
-1.8597027925800163
 10
3.0256841071608522
 20
-1.8286920834053977
 10
3.0176150792782828
 20
-1.7979471365060764
 10
3.008465403995333
 20
-1.7675063018751342
 10
2.9982464942438565
 20
-1.7374075501684114
 10
2.986971096675183
 20
-1.7076884253414564
 10
2.974653275760465
 20
-1.6783859978187285
 10
2.961308396247231
 20
-1.649536818253461
 10
2.9469531039940247
 20
-1.6211768719358672
 10
2.9316053052070394
 20
-1.5933415339065564
 10
2.9152841441046498
 20
-1.5660655248311508
 10
2.8980099790376888
 20
-1.5393828676911439
 10
2.8798043570952774
 20
-1.5133268453450186
 10
2.8606899872278597
 20
-1.4879299590125699
 10
2.840690711920986
 20
-1.4632238877342048
 10
2.819831477455168
 20
-1.4392394488558027
 10
2.798138302788906
 20
-1.4160065595884122
 10
2.7756382471037018
 20
-1.393554199690743
 10
2.752359376051536
 20
-1.3719103753209967
 10
2.7283307267469223
 20
-1.3511020841031267
 10
2.703582271547193
 20
-1.3311552814511034
 10
2.678144880666202
 20
-1.3120948481931884
 10
2.6520502836680784
 20
-1.2939445595366048
 10
2.6253310298890655
 20
-1.2767270554113124
 10
2.598020447836801
 20
-1.2604638122298826
 10
2.5701526036177
 20
-1.245175116098698
 10
2.541762258444281
 20
-1.230880037513888
 10
2.513794261655058
 20
-1.2179960431400298
 10
2.4854018813075096
 20
-1.2060763580087965
 10
2.4566183542285653
 20
-1.1951349356002032
 10
2.427477375131251
 20
-1.185184584215579
 10
2.3980130571708203
 20
-1.1762369519838525
 10
2.368259892011045
 20
-1.16830251322596
 10
2.3382527094474175
 20
-1.1613905561933457
 10
2.308026636634522
 20
-1.155509172194904
 10
2.277617056965316
 20
-1.150665246125092
 10
2.247059568650449
 20
-1.146864448404299
 10
2.2163899430461127
 20
-1.1441112283409134
 10
2.1856440827791985
 20
-1.1424088089228501
 10
2.1548579797187926
 20
-1.141759183044642
 10
2.1240676728431946
 20
-1.142163111174507
 10
2.0933092060517957
 20
-1.1436201204641248
 10
2.062618585971194
 20
-1.1461285053021661
 10
2.032031739804936
 20
-1.1496853293109226
 10
2.0015844732762442
 20
-1.1542864287837047
 10
1.9713124287129453
 20
-1.159926417558979
 10
1.9412510433236705
 20
-1.1665986933255437
 10
1.9114355077141814
 20
-1.1742954453513592
 10
1.8819007246923702
 20
-1.1830076636269835
 10
1.852681268410163
 20
-1.192725149412915
 10
1.8238113438901586
 20
-1.2034365271784901
 10
1.795324746984378
 20
-1.2151292579183626
 10
1.7672548248119977
 20
-1.2277896538309754
 10
1.7396344367223833
 20
-1.2414028943418411
 10
1.7124959158291175
 20
-1.255953043452877
 10
1.6858710311600524
 20
-1.2714230683974777
 10
1.659790950467695
 20
-1.2877948595794992
 10
1.6342862037434607
 20
-1.305049251772801
 10
1.6093866474785061
 20
-1.3231660465565356
 10
1.826328517037285
 20
-0.8726816126053257
  0
LWPOLYLINE
  5
7C
330
17
100
AcDbEntity
  8
SCAN_FOOTPRINTS
100
AcDbPolyline
 90
130
 70
1
 10
1.9747285755567257
 20
-0.44440533525459186
 10
1.9949724818648003
 20
-0.4212020938254835
 10
2.0159983078736823
 20
-0.39870496520710574
 10
2.0377814402282546
 20
-0.37694028509802135
 10
2.060296379051748
 20
-0.3559335317743415
 10
2.083516767796531
 20
-0.33570929626422263
 10
2.1074154240977405
 20
-0.31629125356099824
 10
2.1319643715936345
 20
-0.29770213490864034
 10
2.1571348726754165
 20
-0.27996370119200115
 10
2.1828974621281962
 20
-0.26309671746297825
 10
2.209221981623704
 20
-0.24712092863243118
 10
2.236077615024378
 20
-0.23205503635629415
 10
2.263432924457506
 20
-0.21791667714295326
 10
2.2912558871171744
 20
-0.2047224017075127
 10
2.3195139327509695
 20
-0.19248765559711323
 10
2.348173981787521
 20
-0.1812267611099917
 10
2.3772024840602706
 20
-0.17095290052944284
 10
2.406565458082135
 20
-0.1616781006923086
 10
2.4362285308250784
 20
-0.15341321891006554
 10
2.466156977958034
 20
-0.1461679302589855
 10
2.4963157644960714
 20
-0.13995071625424915
 10
2.5266695858132207
 20
-0.13476885492127522
 10
2.5571829089709466
 20
-0.13062841227588157
 10
2.5878200143138894
 20
-0.12753423522325646
 10
2.6185450372841856
 20
-0.12548994588405082
 10
2.6493220104054065
 20
-0.12449793735423398
 10
2.6801149053869864
 20
-0.12455937090367508
 10
2.710887675299832
 20
-0.12567417461673214
 10
2.7416042967737577
 20
-0.12784104347643932
 10
2.7722288121673366
 20
-0.13105744089219074
 10
2.8027253716608116
 20
-0.13531960166913642
 10
2.833058275222786
 20
-0.14062253641581518
 10
2.8631920144015703
 20
-0.1469600373848579
 10
2.894051508585284
 20
-0.1545792623806903
 10
2.9246227027089056
 20
-0.1632834602568654
 10
2.9548674635114804
 20
-0.17306177375188148
 10
2.984748064911667
 20
-0.1839020057962129
 10
3.014227235065713
 20
-0.1957906347264376
 10
3.043268202858834
 20
-0.20871283115160766
 10
3.071834743772002
 20
-0.22265247645082775
 10
3.0998912250669335
 20
-0.23759218287896583
 10
3.1274026502329138
 20
-0.25351331525541604
 10
3.1543347026400177
 20
-0.2703960142088649
 10
3.180653788344275
 20
-0.2882192209490595
 10
3.2063270779913866
 20
-0.30696070353468496
 10
3.2313225477667196
 20
-0.32659708460458176
 10
3.255609019340511
 20
-0.34710387053771097
 10
3.279156198758444
 20
-0.3684554820055008
 10
3.3019347142290907
 20
-0.3906252858784556
 10
3.323916152761087
 20
-0.41358562844723795
 10
3.345073095604341
 20
-0.43730786991677584
 10
3.3653791524510615
 20
-0.46176242013037705
 10
3.3848089943539534
 20
-0.4869187754792824
 10
3.4033383853205135
 20
-0.512745556951625
 10
3.4209442125440184
 20
-0.5392105492733291
 10
3.4376045152334993
 20
-0.5662807410921298
 10
3.453298512006734
 20
-0.5939223661545873
 10
3.4680066268120986
 20
-0.6221009454247349
 10
3.481710513346934
 20
-0.6507813300918227
 10
3.494393077941977
 20
-0.6799277454135109
 10
3.5060385008833066
 20
-0.7095038353398236
 10
3.5166322561452077
 20
-0.7394727078622045
 10
3.5261611295093456
 20
-0.7697969810311034
 10
3.5346132350476434
 20
-0.8004388295846953
 10
3.423352768069486
 20
-1.2879027856756071
 10
3.423352768069486
 20
-1.2879027856756071
 10
3.4149006625311884
 20
-1.2572609371220151
 10
3.40537178916705
 20
-1.2269366639531163
 10
3.394778033905149
 20
-1.1969677914307355
 10
3.38313261096382
 20
-1.1673917015044224
 10
3.3704500463687763
 20
-1.1382452861827346
 10
3.356746159833941
 20
-1.1095649015156466
 10
3.342038045028577
 20
-1.0813863222454991
 10
3.326344048255342
 20
-1.0537446971830415
 10
3.309683745565861
 20
-1.026674505364241
 10
3.292077918342356
 20
-1.0002095130425368
 10
3.2735485273757963
 20
-0.9743827315701943
 10
3.2541186854729043
 20
-0.9492263762212887
 10
3.233812628626184
 20
-0.9247718260076876
 10
3.21265568578293
 20
-0.9010495845381498
 10
3.1906742472509335
 20
-0.8780892419693674
 10
3.1678957317802867
 20
-0.8559194380964126
 10
3.1443485523623536
 20
-0.8345678266286227
 10
3.1200620807885624
 20
-0.8140610406954936
 10
3.095066611013229
 20
-0.7944246596255968
 10
3.069393321366118
 20
-0.7756831770399713
 10
3.0430742356618605
 20
-0.7578599702997766
 10
3.0161421832547566
 20
-0.7409772713463278
 10
2.9886307580887763
 20
-0.7250561389698775
 10
2.960574276793845
 20
-0.7101164325417396
 10
2.932007735880677
 20
-0.6961767872425193
 10
2.9029667680875555
 20
-0.6832545908173493
 10
2.8734875979335097
 20
-0.6713659618871247
 10
2.8436069965333233
 20
-0.6605257298427932
 10
2.8133622357307484
 20
-0.6507474163477771
 10
2.7827910416071266
 20
-0.6420432184716022
 10
2.7519315474234127
 20
-0.6344239934757697
 10
2.721797808244629
 20
-0.6280864925067269
 10
2.6914649046826544
 20
-0.6227835577600482
 10
2.660968345189179
 20
-0.6185213969831025
 10
2.6303438297956006
 20
-0.6153049995673512
 10
2.599627208321675
 20
-0.613138130707644
 10
2.5688544384088288
 20
-0.6120233269945868
 10
2.5380615434272493
 20
-0.6119618934451458
 10
2.507284570306028
 20
-0.6129539019749627
 10
2.4765595473357322
 20
-0.6149981913141683
 10
2.445922441992789
 20
-0.6180923683667934
 10
2.4154091188350635
 20
-0.622232811012187
 10
2.385055297517914
 20
-0.627414672345161
 10
2.3548965109798767
 20
-0.6336318863498972
 10
2.3249680638469212
 20
-0.6408771750009773
 10
2.295304991103978
 20
-0.6491420567832203
 10
2.2659420170821134
 20
-0.6584168566203545
 10
2.2369135148093635
 20
-0.6686907172009035
 10
2.2082534657728123
 20
-0.679951611688025
 10
2.1799954201390173
 20
-0.6921863577984245
 10
2.1521724574793484
 20
-0.705380633233865
 10
2.124817148046221
 20
-0.7195189924472059
 10
2.0979615146455464
 20
-0.7345848847233429
 10
2.071636995150039
 20
-0.75056067355389
 10
2.045874405697259
 20
-0.7674276572829128
 10
2.0207039046154773
 20
-0.7851660909995521
 10
1.9961549571195834
 20
-0.80375520965191
 10
1.9722563008183738
 20
-0.8231732523551343
 10
1.9490359120735905
 20
-0.8433974878652531
 10
1.9265209732500972
 20
-0.864404241188933
 10
1.904737840895525
 20
-0.8861689212980175
 10
1.8837120148866429
 20
-0.9086660499163952
 10
1.8634681085785685
 20
-0.9318692913455036
 10
1.9747285755567257
 20
-0.4444053352545918
  0
ENDSEC
  0
SECTION
  2
OBJECTS
  0
DICTIONARY
  5
A
330
0
100
AcDbDictionary
281
1
  3
ACAD_COLOR
350
B
  3
ACAD_GROUP
350
C
  3
ACAD_LAYOUT
350
D
  3
ACAD_MATERIAL
350
E
  3
ACAD_MLEADERSTYLE
350
F
  3
ACAD_MLINESTYLE
350
10
  3
ACAD_PLOTSETTINGS
350
11
  3
ACAD_PLOTSTYLENAME
350
12
  3
ACAD_SCALELIST
350
14
  3
ACAD_TABLESTYLE
350
15
  3
ACAD_VISUALSTYLE
350
16
  3
EZDXF_META
350
2D
  0
DICTIONARY
  5
B
330
A
100
AcDbDictionary
281
1
  0
DICTIONARY
  5
C
330
A
100
AcDbDictionary
281
1
  0
DICTIONARY
  5
D
330
A
100
AcDbDictionary
281
1
  3
Model
350
1A
  3
Layout1
350
1E
  0
DICTIONARY
  5
E
330
A
100
AcDbDictionary
281
1
  3
ByBlock
350
1F
  3
ByLayer
350
20
  3
Global
350
21
  0
DICTIONARY
  5
F
330
A
100
AcDbDictionary
281
1
  3
Standard
350
2C
  0
DICTIONARY
  5
10
330
A
100
AcDbDictionary
281
1
  3
Standard
350
22
  0
DICTIONARY
  5
11
330
A
100
AcDbDictionary
281
1
  0
ACDBDICTIONARYWDFLT
  5
12
330
A
100
AcDbDictionary
281
1
  3
Normal
350
13
100
AcDbDictionaryWithDefault
340
13
  0
ACDBPLACEHOLDER
  5
13
330
12
  0
DICTIONARY
  5
14
330
A
100
AcDbDictionary
281
1
  0
DICTIONARY
  5
15
330
A
100
AcDbDictionary
281
1
  0
DICTIONARY
  5
16
330
A
100
AcDbDictionary
281
1
  0
LAYOUT
  5
1A
330
D
100
AcDbPlotSettings
  1

  4
A3
  6

 40
7.5
 41
20.0
 42
7.5
 43
20.0
 44
420.0
 45
297.0
 46
0.0
 47
0.0
 48
0.0
 49
0.0
140
0.0
141
0.0
142
1.0
143
1.0
 70
1024
 72
1
 73
0
 74
5
  7

 75
16
 76
0
 77
2
 78
300
147
1.0
148
0.0
149
0.0
100
AcDbLayout
  1
Model
 70
1
 71
0
 10
0.0
 20
0.0
 11
420.0
 21
297.0
 12
0.0
 22
0.0
 32
0.0
 14
1e+20
 24
1e+20
 34
1e+20
 15
-1e+20
 25
-1e+20
 35
-1e+20
146
0.0
 13
0.0
 23
0.0
 33
0.0
 16
1.0
 26
0.0
 36
0.0
 17
0.0
 27
1.0
 37
0.0
 76
1
330
17
  0
LAYOUT
  5
1E
330
D
100
AcDbPlotSettings
  1

  4
A3
  6

 40
7.5
 41
20.0
 42
7.5
 43
20.0
 44
420.0
 45
297.0
 46
0.0
 47
0.0
 48
0.0
 49
0.0
140
0.0
141
0.0
142
1.0
143
1.0
 70
0
 72
1
 73
0
 74
5
  7

 75
16
 76
0
 77
2
 78
300
147
1.0
148
0.0
149
0.0
100
AcDbLayout
  1
Layout1
 70
1
 71
1
 10
0.0
 20
0.0
 11
420.0
 21
297.0
 12
0.0
 22
0.0
 32
0.0
 14
1e+20
 24
1e+20
 34
1e+20
 15
-1e+20
 25
-1e+20
 35
-1e+20
146
0.0
 13
0.0
 23
0.0
 33
0.0
 16
1.0
 26
0.0
 36
0.0
 17
0.0
 27
1.0
 37
0.0
 76
1
330
1B
  0
MATERIAL
  5
1F
102
{ACAD_REACTORS
330
E
102
}
330
E
100
AcDbMaterial
  1
ByBlock
  2

 70
0
 40
1.0
 71
1
 41
1.0
 91
-1023410177
 42
1.0
 72
1
  3

 73
1
 74
1
 75
1
 44
0.5
 73
0
 45
1.0
 46
1.0
 77
1
  4

 78
1
 79
1
170
1
 48
1.0
171
1
  6

172
1
173
1
174
1
140
1.0
141
1.0
175
1
  7

176
1
177
1
178
1
143
1.0
179
1
  8

270
1
271
1
272
1
145
1.0
146
1.0
273
1
  9

274
1
275
1
276
1
 42
1.0
 72
1
  3

 73
1
 74
1
 75
1
 94
63
  0
MATERIAL
  5
20
102
{ACAD_REACTORS
330
E
102
}
330
E
100
AcDbMaterial
  1
ByLayer
  2

 70
0
 40
1.0
 71
1
 41
1.0
 91
-1023410177
 42
1.0
 72
1
  3

 73
1
 74
1
 75
1
 44
0.5
 73
0
 45
1.0
 46
1.0
 77
1
  4

 78
1
 79
1
170
1
 48
1.0
171
1
  6

172
1
173
1
174
1
140
1.0
141
1.0
175
1
  7

176
1
177
1
178
1
143
1.0
179
1
  8

270
1
271
1
272
1
145
1.0
146
1.0
273
1
  9

274
1
275
1
276
1
 42
1.0
 72
1
  3

 73
1
 74
1
 75
1
 94
63
  0
MATERIAL
  5
21
102
{ACAD_REACTORS
330
E
102
}
330
E
100
AcDbMaterial
  1
Global
  2

 70
0
 40
1.0
 71
1
 41
1.0
 91
-1023410177
 42
1.0
 72
1
  3

 73
1
 74
1
 75
1
 44
0.5
 73
0
 45
1.0
 46
1.0
 77
1
  4

 78
1
 79
1
170
1
 48
1.0
171
1
  6

172
1
173
1
174
1
140
1.0
141
1.0
175
1
  7

176
1
177
1
178
1
143
1.0
179
1
  8

270
1
271
1
272
1
145
1.0
146
1.0
273
1
  9

274
1
275
1
276
1
 42
1.0
 72
1
  3

 73
1
 74
1
 75
1
 94
63
  0
MLINESTYLE
  5
22
102
{ACAD_REACTORS
330
10
102
}
330
10
100
AcDbMlineStyle
  2
Standard
 70
0
  3

 62
256
 51
90.0
 52
90.0
 71
2
 49
0.5
 62
256
  6
BYLAYER
 49
-0.5
 62
256
  6
BYLAYER
  0
MLEADERSTYLE
  5
2C
102
{ACAD_REACTORS
330
F
102
}
330
F
100
AcDbMLeaderStyle
179
2
170
2
171
1
172
0
 90
2
 40
0.0
 41
0.0
173
1
 91
-1056964608
 92
-2
290
1
 42
2.0
291
1
 43
8.0
  3
Standard
 44
4.0
300

342
29
174
1
175
1
176
0
178
1
 93
-1056964608
 45
4.0
292
0
297
0
 46
4.0
 94
-1056964608
 47
1.0
 49
1.0
140
1.0
294
1
141
0.0
177
0
142
1.0
295
0
296
0
143
3.75
271
0
272
9
273
9
  0
DICTIONARY
  5
2D
330
A
100
AcDbDictionary
280
1
281
1
  3
CREATED_BY_EZDXF
350
2E
  3
WRITTEN_BY_EZDXF
350
7F
  0
DICTIONARYVAR
  5
2E
330
2D
100
DictionaryVariables
280
0
  1
1.4.4 @ 2026-07-13T06:19:05.294903+00:00
  0
DICTIONARYVAR
  5
7F
330
2D
100
DictionaryVariables
280
0
  1
1.4.4 @ 2026-07-13T06:19:05.321546+00:00
  0
ENDSEC
  0
EOF
