  0
SECTION
  2
HEADER
  9
$ACADVER
  1
AC1024
  9
$ACADMAINTVER
 70
6
  9
$DWGCODEPAGE
  3
ANSI_1252
  9
$LASTSAVEDBY
  1
ezdxf
  9
$INSBASE
 10
0.0
 20
0.0
 30
0.0
  9
$EXTMIN
 10
1e+20
 20
1e+20
 30
1e+20
  9
$EXTMAX
 10
-1e+20
 20
-1e+20
 30
-1e+20
  9
$LIMMIN
 10
0.0
 20
0.0
  9
$LIMMAX
 10
420.0
 20
297.0
  9
$ORTHOMODE
 70
0
  9
$REGENMODE
 70
1
  9
$FILLMODE
 70
1
  9
$QTEXTMODE
 70
0
  9
$MIRRTEXT
 70
1
  9
$LTSCALE
 40
1.0
  9
$ATTMODE
 70
1
  9
$TEXTSIZE
 40
2.5
  9
$TRACEWID
 40
1.0
  9
$TEXTSTYLE
  7
Standard
  9
$CLAYER
  8
0
  9
$CELTYPE
  6
ByLayer
  9
$CECOLOR
 62
256
  9
$CELTSCALE
 40
1.0
  9
$DISPSILH
 70
0
  9
$DIMSCALE
 40
1.0
  9
$DIMASZ
 40
2.5
  9
$DIMEXO
 40
0.625
  9
$DIMDLI
 40
3.75
  9
$DIMRND
 40
0.0
  9
$DIMDLE
 40
0.0
  9
$DIMEXE
 40
1.25
  9
$DIMTP
 40
0.0
  9
$DIMTM
 40
0.0
  9
$DIMTXT
 40
2.5
  9
$DIMCEN
 40
2.5
  9
$DIMTSZ
 40
0.0
  9
$DIMTOL
 70
0
  9
$DIMLIM
 70
0
  9
$DIMTIH
 70
0
  9
$DIMTOH
 70
0
  9
$DIMSE1
 70
0
  9
$DIMSE2
 70
0
  9
$DIMTAD
 70
1
  9
$DIMZIN
 70
8
  9
$DIMBLK
  1

  9
$DIMASO
 70
1
  9
$DIMSHO
 70
1
  9
$DIMPOST
  1

  9
$DIMAPOST
  1

  9
$DIMALT
 70
0
  9
$DIMALTD
 70
3
  9
$DIMALTF
 40
0.03937007874
  9
$DIMLFAC
 40
1.0
  9
$DIMTOFL
 70
1
  9
$DIMTVP
 40
0.0
  9
$DIMTIX
 70
0
  9
$DIMSOXD
 70
0
  9
$DIMSAH
 70
0
  9
$DIMBLK1
  1

  9
$DIMBLK2
  1

  9
$DIMSTYLE
  2
ISO-25
  9
$DIMCLRD
 70
0
  9
$DIMCLRE
 70
0
  9
$DIMCLRT
 70
0
  9
$DIMTFAC
 40
1.0
  9
$DIMGAP
 40
0.625
  9
$DIMJUST
 70
0
  9
$DIMSD1
 70
0
  9
$DIMSD2
 70
0
  9
$DIMTOLJ
 70
0
  9
$DIMTZIN
 70
8
  9
$DIMALTZ
 70
0
  9
$DIMALTTZ
 70
0
  9
$DIMUPT
 70
0
  9
$DIMDEC
 70
2
  9
$DIMTDEC
 70
2
  9
$DIMALTU
 70
2
  9
$DIMALTTD
 70
3
  9
$DIMTXSTY
  7
Standard
  9
$DIMAUNIT
 70
0
  9
$DIMADEC
 70
0
  9
$DIMALTRND
 40
0.0
  9
$DIMAZIN
 70
0
  9
$DIMDSEP
 70
44
  9
$DIMATFIT
 70
3
  9
$DIMFRAC
 70
0
  9
$DIMLDRBLK
  1

  9
$DIMLUNIT
 70
2
  9
$DIMLWD
 70
-2
  9
$DIMLWE
 70
-2
  9
$DIMTMOVE
 70
0
  9
$DIMFXL
 40
1.0
  9
$DIMFXLON
 70
0
  9
$DIMJOGANG
 40
0.785398163397
  9
$DIMTFILL
 70
0
  9
$DIMTFILLCLR
 70
0
  9
$DIMARCSYM
 70
0
  9
$DIMLTYPE
  6

  9
$DIMLTEX1
  6

  9
$DIMLTEX2
  6

  9
$DIMTXTDIRECTION
 70
0
  9
$LUNITS
 70
2
  9
$LUPREC
 70
4
  9
$SKETCHINC
 40
1.0
  9
$FILLETRAD
 40
10.0
  9
$AUNITS
 70
0
  9
$AUPREC
 70
2
  9
$MENU
  1
.
  9
$ELEVATION
 40
0.0
  9
$PELEVATION
 40
0.0
  9
$THICKNESS
 40
0.0
  9
$LIMCHECK
 70
0
  9
$CHAMFERA
 40
0.0
  9
$CHAMFERB
 40
0.0
  9
$CHAMFERC
 40
0.0
  9
$CHAMFERD
 40
0.0
  9
$SKPOLY
 70
0
  9
$TDCREATE
 40
2461251.899976852
  9
$TDUCREATE
 40
2458532.153996898
  9
$TDUPDATE
 40
2461251.899976852
  9
$TDUUPDATE
 40
2458532.1544311
  9
$TDINDWG
 40
0.0
  9
$TDUSRTIMER
 40
0.0
  9
$USRTIMER
 70
1
  9
$ANGBASE
 50
0.0
  9
$ANGDIR
 70
0
  9
$PDMODE
 70
0
  9
$PDSIZE
 40
0.0
  9
$PLINEWID
 40
0.0
  9
$SPLFRAME
 70
0
  9
$SPLINETYPE
 70
6
  9
$SPLINESEGS
 70
8
  9
$HANDSEED
  5
210
  9
$SURFTAB1
 70
6
  9
$SURFTAB2
 70
6
  9
$SURFTYPE
 70
6
  9
$SURFU
 70
6
  9
$SURFV
 70
6
  9
$UCSBASE
  2

  9
$UCSNAME
  2

  9
$UCSORG
 10
0.0
 20
0.0
 30
0.0
  9
$UCSXDIR
 10
1.0
 20
0.0
 30
0.0
  9
$UCSYDIR
 10
0.0
 20
1.0
 30
0.0
  9
$UCSORTHOREF
  2

  9
$UCSORTHOVIEW
 70
0
  9
$UCSORGTOP
 10
0.0
 20
0.0
 30
0.0
  9
$UCSORGBOTTOM
 10
0.0
 20
0.0
 30
0.0
  9
$UCSORGLEFT
 10
0.0
 20
0.0
 30
0.0
  9
$UCSORGRIGHT
 10
0.0
 20
0.0
 30
0.0
  9
$UCSORGFRONT
 10
0.0
 20
0.0
 30
0.0
  9
$UCSORGBACK
 10
0.0
 20
0.0
 30
0.0
  9
$PUCSBASE
  2

  9
$PUCSNAME
  2

  9
$PUCSORG
 10
0.0
 20
0.0
 30
0.0
  9
$PUCSXDIR
 10
1.0
 20
0.0
 30
0.0
  9
$PUCSYDIR
 10
0.0
 20
1.0
 30
0.0
  9
$PUCSORTHOREF
  2

  9
$PUCSORTHOVIEW
 70
0
  9
$PUCSORGTOP
 10
0.0
 20
0.0
 30
0.0
  9
$PUCSORGBOTTOM
 10
0.0
 20
0.0
 30
0.0
  9
$PUCSORGLEFT
 10
0.0
 20
0.0
 30
0.0
  9
$PUCSORGRIGHT
 10
0.0
 20
0.0
 30
0.0
  9
$PUCSORGFRONT
 10
0.0
 20
0.0
 30
0.0
  9
$PUCSORGBACK
 10
0.0
 20
0.0
 30
0.0
  9
$USERI1
 70
0
  9
$USERI2
 70
0
  9
$USERI3
 70
0
  9
$USERI4
 70
0
  9
$USERI5
 70
0
  9
$USERR1
 40
0.0
  9
$USERR2
 40
0.0
  9
$USERR3
 40
0.0
  9
$USERR4
 40
0.0
  9
$USERR5
 40
0.0
  9
$WORLDVIEW
 70
1
  9
$SHADEDGE
 70
3
  9
$SHADEDIF
 70
70
  9
$TILEMODE
 70
1
  9
$MAXACTVP
 70
64
  9
$PINSBASE
 10
0.0
 20
0.0
 30
0.0
  9
$PLIMCHECK
 70
0
  9
$PEXTMIN
 10
1e+20
 20
1e+20
 30
1e+20
  9
$PEXTMAX
 10
-1e+20
 20
-1e+20
 30
-1e+20
  9
$PLIMMIN
 10
0.0
 20
0.0
  9
$PLIMMAX
 10
420.0
 20
297.0
  9
$UNITMODE
 70
0
  9
$VISRETAIN
 70
1
  9
$PLINEGEN
 70
0
  9
$PSLTSCALE
 70
1
  9
$TREEDEPTH
 70
3020
  9
$CMLSTYLE
  2
Standard
  9
$CMLJUST
 70
0
  9
$CMLSCALE
 40
20.0
  9
$PROXYGRAPHICS
 70
1
  9
$MEASUREMENT
 70
1
  9
$CELWEIGHT
370
-1
  9
$ENDCAPS
280
0
  9
$JOINSTYLE
280
0
  9
$LWDISPLAY
290
0
  9
$INSUNITS
 70
6
  9
$HYPERLINKBASE
  1

  9
$STYLESHEET
  1

  9
$XEDIT
290
1
  9
$CEPSNTYPE
380
0
  9
$PSTYLEMODE
290
1
  9
$FINGERPRINTGUID
  2
{A7467BD8-DFE5-427B-919C-E34B065C18A6}
  9
$VERSIONGUID
  2
{060267A1-ABF3-4908-848D-CC6C99D91364}
  9
$EXTNAMES
290
1
  9
$PSVPSCALE
 40
0.0
  9
$OLESTARTUP
290
0
  9
$SORTENTS
280
127
  9
$INDEXCTL
280
0
  9
$HIDETEXT
280
1
  9
$XCLIPFRAME
280
1
  9
$HALOGAP
280
0
  9
$OBSCOLOR
 70
257
  9
$OBSLTYPE
280
0
  9
$INTERSECTIONDISPLAY
280
0
  9
$INTERSECTIONCOLOR
 70
257
  9
$DIMASSOC
280
2
  9
$PROJECTNAME
  1

  9
$CAMERADISPLAY
290
0
  9
$LENSLENGTH
 40
50.0
  9
$CAMERAHEIGHT
 40
0.0
  9
$STEPSPERSEC
 40
24.0
  9
$STEPSIZE
 40
100.0
  9
$3DDWFPREC
 40
2.0
  9
$PSOLWIDTH
 40
0.005
  9
$PSOLHEIGHT
 40
0.08
  9
$LOFTANG1
 40
1.570796326795
  9
$LOFTANG2
 40
1.570796326795
  9
$LOFTMAG1
 40
0.0
  9
$LOFTMAG2
 40
0.0
  9
$LOFTPARAM
 70
7
  9
$LOFTNORMALS
280
1
  9
$LATITUDE
 40
37.795
  9
$LONGITUDE
 40
-122.394
  9
$NORTHDIRECTION
 40
0.0
  9
$TIMEZONE
 70
-8000
  9
$LIGHTGLYPHDISPLAY
280
1
  9
$TILEMODELIGHTSYNCH
280
1
  9
$CMATERIAL
347
20
  9
$SOLIDHIST
280
0
  9
$SHOWHIST
280
1
  9
$DWFFRAME
280
2
  9
$DGNFRAME
280
2
  9
$REALWORLDSCALE
290
1
  9
$INTERFERECOLOR
 62
256
  9
$CSHADOW
280
0
  9
$SHADOWPLANELOCATION
 40
0.0
  0
ENDSEC
  0
SECTION
  2
CLASSES
  0
CLASS
  1
ACDBDICTIONARYWDFLT
  2
AcDbDictionaryWithDefault
  3
ObjectDBX Classes
 90
0
 91
0
280
0
281
0
  0
CLASS
  1
SUN
  2
AcDbSun
  3
SCENEOE
 90
1153
 91
0
280
0
281
0
  0
CLASS
  1
VISUALSTYLE
  2
AcDbVisualStyle
  3
ObjectDBX Classes
 90
4095
 91
0
280
0
281
0
  0
CLASS
  1
MATERIAL
  2
AcDbMaterial
  3
ObjectDBX Classes
 90
1153
 91
0
280
0
281
0
  0
CLASS
  1
SCALE
  2
AcDbScale
  3
ObjectDBX Classes
 90
1153
 91
0
280
0
281
0
  0
CLASS
  1
TABLESTYLE
  2
AcDbTableStyle
  3
ObjectDBX Classes
 90
4095
 91
0
280
0
281
0
  0
CLASS
  1
MLEADERSTYLE
  2
AcDbMLeaderStyle
  3
ACDB_MLEADERSTYLE_CLASS
 90
4095
 91
0
280
0
281
0
  0
CLASS
  1
DICTIONARYVAR
  2
AcDbDictionaryVar
  3
ObjectDBX Classes
 90
0
 91
0
280
0
281
0
  0
CLASS
  1
CELLSTYLEMAP
  2
AcDbCellStyleMap
  3
ObjectDBX Classes
 90
1152
 91
0
280
0
281
0
  0
CLASS
  1
MENTALRAYRENDERSETTINGS
  2
AcDbMentalRayRenderSettings
  3
SCENEOE
 90
1024
 91
0
280
0
281
0
  0
CLASS
  1
ACDBDETAILVIEWSTYLE
  2
AcDbDetailViewStyle
  3
ObjectDBX Classes
 90
1025
 91
0
280
0
281
0
  0
CLASS
  1
ACDBSECTIONVIEWSTYLE
  2
AcDbSectionViewStyle
  3
ObjectDBX Classes
 90
1025
 91
0
280
0
281
0
  0
CLASS
  1
RASTERVARIABLES
  2
AcDbRasterVariables
  3
ISM
 90
0
 91
0
280
0
281
0
  0
CLASS
  1
LAYOUT
  2
AcDbLayout
  3
ObjectDBX Classes
 90
0
 91
0
280
0
281
0
  0
CLASS
  1
ACDBPLACEHOLDER
  2
AcDbPlaceHolder
  3
ObjectDBX Classes
 90
0
 91
0
280
0
281
0
  0
ENDSEC
  0
SECTION
  2
TABLES
  0
TABLE
  2
VPORT
  5
8
330
0
100
AcDbSymbolTable
 70
1
  0
VPORT
  5
23
330
8
100
AcDbSymbolTableRecord
100
AcDbViewportTableRecord
  2
*Active
 70
0
 10
0.0
 20
0.0
 11
1.0
 21
1.0
 12
0.0
 22
0.0
 13
0.0
 23
0.0
 14
0.5
 24
0.5
 15
0.5
 25
0.5
 16
0.0
 26
0.0
 36
1.0
 17
0.0
 27
0.0
 37
0.0
 40
1000.0
 41
1.34
 42
50.0
 43
0.0
 44
0.0
 50
0.0
 51
0.0
 71
0
 72
1000
 73
1
 74
3
 75
0
 76
0
 77
0
 78
0
281
0
 65
0
146
0.0
  0
ENDTAB
  0
TABLE
  2
LTYPE
  5
2
330
0
100
AcDbSymbolTable
 70
3
  0
LTYPE
  5
24
330
2
100
AcDbSymbolTableRecord
100
AcDbLinetypeTableRecord
  2
ByBlock
 70
0
  3

 72
65
 73
0
 40
0.0
  0
LTYPE
  5
25
330
2
100
AcDbSymbolTableRecord
100
AcDbLinetypeTableRecord
  2
ByLayer
 70
0
  3

 72
65
 73
0
 40
0.0
  0
LTYPE
  5
26
330
2
100
AcDbSymbolTableRecord
100
AcDbLinetypeTableRecord
  2
Continuous
 70
0
  3

 72
65
 73
0
 40
0.0
  0
ENDTAB
  0
TABLE
  2
LAYER
  5
1
330
0
100
AcDbSymbolTable
 70
7
  0
LAYER
  5
27
330
1
100
AcDbSymbolTableRecord
100
AcDbLayerTableRecord
  2
0
 70
0
 62
7
  6
Continuous
370
-3
390
13
347
21
  0
LAYER
  5
28
330
1
100
AcDbSymbolTableRecord
100
AcDbLayerTableRecord
  2
Defpoints
 70
0
 62
7
  6
Continuous
290
0
370
-3
390
13
347
21
  0
LAYER
  5
2F
330
1
100
AcDbSymbolTableRecord
100
AcDbLayerTableRecord
  2
TANK_BOUNDARY
 70
0
 62
7
  6
Continuous
370
-3
390
13
347
21
  0
LAYER
  5
30
330
1
100
AcDbSymbolTableRecord
100
AcDbLayerTableRecord
  2
OBSERVED_GEOMETRY
 70
0
 62
3
  6
Continuous
370
-3
390
13
347
21
  0
LAYER
  5
31
330
1
100
AcDbSymbolTableRecord
100
AcDbLayerTableRecord
  2
PREDICTED_GEOMETRY_HIGH
 70
0
 62
5
  6
Continuous
370
-3
390
13
347
21
  0
LAYER
  5
32
330
1
100
AcDbSymbolTableRecord
100
AcDbLayerTableRecord
  2
PREDICTED_GEOMETRY_MEDIUM
 70
0
 62
2
  6
Continuous
370
-3
390
13
347
21
  0
LAYER
  5
33
330
1
100
AcDbSymbolTableRecord
100
AcDbLayerTableRecord
  2
PREDICTED_GEOMETRY_LOW
 70
0
 62
1
  6
Continuous
370
-3
390
13
347
21
  0
ENDTAB
  0
TABLE
  2
STYLE
  5
5
330
0
100
AcDbSymbolTable
 70
1
  0
STYLE
  5
29
330
5
100
AcDbSymbolTableRecord
100
AcDbTextStyleTableRecord
  2
Standard
 70
0
 40
0.0
 41
1.0
 50
0.0
 71
0
 42
2.5
  3
txt
  4

  0
ENDTAB
  0
TABLE
  2
VIEW
  5
7
330
0
100
AcDbSymbolTable
 70
0
  0
ENDTAB
  0
TABLE
  2
UCS
  5
6
330
0
100
AcDbSymbolTable
 70
0
  0
ENDTAB
  0
TABLE
  2
APPID
  5
3
330
0
100
AcDbSymbolTable
 70
4
  0
APPID
  5
2A
330
3
100
AcDbSymbolTableRecord
100
AcDbRegAppTableRecord
  2
ACAD
 70
0
  0
APPID
  5
10E
330
3
100
AcDbSymbolTableRecord
100
AcDbRegAppTableRecord
  2
DXF_PREDICTOR
 70
0
  0
APPID
  5
20D
330
3
100
AcDbSymbolTableRecord
100
AcDbRegAppTableRecord
  2
HATCHBACKGROUNDCOLOR
 70
0
  0
APPID
  5
20E
330
3
100
AcDbSymbolTableRecord
100
AcDbRegAppTableRecord
  2
EZDXF
 70
0
  0
ENDTAB
  0
TABLE
  2
DIMSTYLE
  5
4
330
0
100
AcDbSymbolTable
 70
1
100
AcDbDimStyleTable
  0
DIMSTYLE
105
2B
330
4
100
AcDbSymbolTableRecord
100
AcDbDimStyleTableRecord
  2
Standard
 70
0
 40
1.0
 41
2.5
 42
0.625
 43
3.75
 44
1.25
 45
0.0
 46
0.0
 47
0.0
 48
0.0
 49
2.5
140
2.5
141
2.5
142
0.0
143
0.03937007874
144
1.0
145
0.0
146
1.0
147
0.625
148
0.0
 69
0
 70
0
 71
0
 72
0
 73
0
 74
0
 75
0
 76
0
 77
1
 78
8
 79
3
170
0
171
3
172
1
173
0
174
0
175
0
176
0
177
0
178
0
179
2
271
2
272
2
273
2
274
3
275
0
276
0
277
2
278
44
279
0
280
0
281
0
282
0
283
0
284
8
285
0
286
0
288
0
289
3
290
0
371
-2
372
-2
  0
ENDTAB
  0
TABLE
  2
BLOCK_RECORD
  5
9
330
0
100
AcDbSymbolTable
 70
2
  0
BLOCK_RECORD
  5
17
330
9
100
AcDbSymbolTableRecord
100
AcDbBlockTableRecord
  2
*Model_Space
340
1A
 70
0
280
1
281
0
  0
BLOCK_RECORD
  5
1B
330
9
100
AcDbSymbolTableRecord
100
AcDbBlockTableRecord
  2
*Paper_Space
340
1E
 70
0
280
1
281
0
  0
ENDTAB
  0
ENDSEC
  0
SECTION
  2
BLOCKS
  0
BLOCK
  5
18
330
17
100
AcDbEntity
  8
0
100
AcDbBlockBegin
  2
*Model_Space
 70
0
 10
0.0
 20
0.0
 30
0.0
  3
*Model_Space
  1

  0
ENDBLK
  5
19
330
17
100
AcDbEntity
  8
0
100
AcDbBlockEnd
  0
BLOCK
  5
1C
330
1B
100
AcDbEntity
  8
0
100
AcDbBlockBegin
  2
*Paper_Space
 70
0
 10
0.0
 20
0.0
 30
0.0
  3
*Paper_Space
  1

  0
ENDBLK
  5
1D
330
1B
100
AcDbEntity
  8
0
100
AcDbBlockEnd
  0
ENDSEC
  0
SECTION
  2
ENTITIES
  0
CIRCLE
  5
34
330
17
100
AcDbEntity
  8
TANK_BOUNDARY
100
AcDbCircle
 10
0.0
 20
0.0
 30
0.0
 40
22.86
  0
LINE
  5
35
330
17
100
AcDbEntity
  8
OBSERVED_GEOMETRY
100
AcDbLine
 10
-20.51533445957231
 20
-5.9436
 30
0.0
 11
-20.409033026338168
 21
-5.9436
 31
0.0
  0
LINE
  5
36
330
17
100
AcDbEntity
  8
OBSERVED_GEOMETRY
100
AcDbLine
 10
-20.407409482253943
 20
-5.9436
 30
0.0
 11
-18.73469100702861
 21
-5.9436
 31
0.0
  0
LINE
  5
37
330
17
100
AcDbEntity
  8
OBSERVED_GEOMETRY
100
AcDbLine
 10
18.73705226742093
 20
-5.9436
 30
0.0
 11
20.40857350996709
 21
-5.9436
 31
0.0
  0
LINE
  5
38
330
17
100
AcDbEntity
  8
OBSERVED_GEOMETRY
100
AcDbLine
 10
20.409014112305282
 20
-5.9436
 30
0.0
 11
20.51533445957232
 21
-5.9436
 31
0.0
  0
LINE
  5
39
330
17
100
AcDbEntity
  8
OBSERVED_GEOMETRY
100
AcDbLine
 10
20.1168
 20
-4.419600000000001
 30
0.0
 11
20.1168
 21
-5.943600000000002
 31
0.0
  0
LINE
  5
3A
330
17
100
AcDbEntity
  8
OBSERVED_GEOMETRY
100
AcDbLine
 10
-20.1168
 20
-4.419600000000001
 30
0.0
 11
-20.1168
 21
-5.943600000000002
 31
0.0
  0
LINE
  5
3B
330
17
100
AcDbEntity
  8
OBSERVED_GEOMETRY
100
AcDbLine
 10
-20.1168
 20
0.762
 30
0.0
 11
-20.1168
 21
-0.762
 31
0.0
  0
LINE
  5
3C
330
17
100
AcDbEntity
  8
OBSERVED_GEOMETRY
100
AcDbLine
 10
-20.88121448841041
 20
-4.419600000000001
 30
0.0
 11
-19.15136104153588
 21
-4.419600000000001
 31
0.0
  0
LINE
  5
3D
330
17
100
AcDbEntity
  8
OBSERVED_GEOMETRY
100
AcDbLine
 10
19.15484920735702
 20
-4.419600000000001
 30
0.0
 11
20.88121448841041
 21
-4.419600000000001
 31
0.0
  0
LINE
  5
3E
330
17
100
AcDbEntity
  8
OBSERVED_GEOMETRY
100
AcDbLine
 10
-19.812
 20
-0.762
 30
0.0
 11
-19.812
 21
-4.419600000000001
 31
0.0
  0
LINE
  5
3F
330
17
100
AcDbEntity
  8
OBSERVED_GEOMETRY
100
AcDbLine
 10
-18.288
 20
7.201046092826763
 30
0.0
 11
-18.288
 21
9.601200000000002
 31
0.0
  0
LINE
  5
40
330
17
100
AcDbEntity
  8
OBSERVED_GEOMETRY
100
AcDbLine
 10
-20.51533445957231
 20
5.9436
 30
0.0
 11
-18.73705226742093
 21
5.9436
 31
0.0
  0
LINE
  5
41
330
17
100
AcDbEntity
  8
OBSERVED_GEOMETRY
100
AcDbLine
 10
18.73469100702861
 20
5.9436
 30
0.0
 11
20.51533445957232
 21
5.9436
 31
0.0
  0
LINE
  5
42
330
17
100
AcDbEntity
  8
OBSERVED_GEOMETRY
100
AcDbLine
 10
18.288
 20
-7.201046092826766
 30
0.0
 11
18.288
 21
-9.601200000000002
 31
0.0
  0
LINE
  5
43
330
17
100
AcDbEntity
  8
OBSERVED_GEOMETRY
100
AcDbLine
 10
18.288
 20
7.2114346308486965
 30
0.0
 11
18.288
 21
9.601200000000002
 31
0.0
  0
LINE
  5
44
330
17
100
AcDbEntity
  8
OBSERVED_GEOMETRY
100
AcDbLine
 10
-20.35448792497917
 20
6.613574033560627
 30
0.0
 11
-21.13848131823047
 21
3.348006532898617
 31
0.0
  0
LINE
  5
45
330
17
100
AcDbEntity
  8
OBSERVED_GEOMETRY
100
AcDbLine
 10
-18.491997164837866
 20
-13.435222368009104
 30
0.0
 11
-17.31456160697546
 21
-12.57976536123635
 31
0.0
  0
LINE
  5
46
330
17
100
AcDbEntity
  8
OBSERVED_GEOMETRY
100
AcDbLine
 10
-19.06929948634244
 20
-9.71629339232252
 30
0.0
 11
-17.31456160697536
 21
-12.57976536123649
 31
0.0
  0
LINE
  5
47
330
17
100
AcDbEntity
  8
OBSERVED_GEOMETRY
100
AcDbLine
 10
-20.367229790486803
 20
-10.377621913953908
 30
0.0
 11
-19.06929948634252
 21
-9.71629339232236
 31
0.0
  0
LINE
  5
48
330
17
100
AcDbEntity
  8
OBSERVED_GEOMETRY
100
AcDbLine
 10
-20.35448792497918
 20
-6.61357403356061
 30
0.0
 11
-19.06929948634244
 21
-9.716293392322541
 31
0.0
  0
LINE
  5
49
330
17
100
AcDbEntity
  8
OBSERVED_GEOMETRY
100
AcDbLine
 10
-21.736168464404457
 20
-7.062509254721346
 30
0.0
 11
-20.35448792497925
 21
-6.613574033560392
 31
0.0
  0
LINE
  5
4A
330
17
100
AcDbEntity
  8
OBSERVED_GEOMETRY
100
AcDbLine
 10
-21.13848131823047
 20
-3.348006532898601
 30
0.0
 11
-20.35448792497918
 21
-6.613574033560615
 31
0.0
  0
LINE
  5
4B
330
17
100
AcDbEntity
  8
OBSERVED_GEOMETRY
100
AcDbLine
 10
-22.573726411716496
 20
-3.575327023758656
 30
0.0
 11
-21.13848131823052
 21
-3.348006532898344
 31
0.0
  0
LINE
  5
4C
330
17
100
AcDbEntity
  8
OBSERVED_GEOMETRY
100
AcDbLine
 10
-21.40197514682956
 20
1.87e-14
 30
0.0
 11
-21.13848131823048
 21
-3.348006532898586
 31
0.0
  0
LINE
  5
4D
330
17
100
AcDbEntity
  8
OBSERVED_GEOMETRY
100
AcDbLine
 10
-22.855719901792227
 20
4.199119336368279e-15
 30
0.0
 11
-21.40197514682957
 21
3.9e-15
 31
0.0
  0
LINE
  5
4E
330
17
100
AcDbEntity
  8
OBSERVED_GEOMETRY
100
AcDbLine
 10
-21.13848131823048
 20
3.348006532898609
 30
0.0
 11
-21.40197514682957
 21
8e-15
 31
0.0
  0
LINE
  5
4F
330
17
100
AcDbEntity
  8
OBSERVED_GEOMETRY
100
AcDbLine
 10
-22.575185006200773
 20
3.575558042429977
 30
0.0
 11
-21.13848131823048
 21
3.348006532898604
 31
0.0
  0
LINE
  5
50
330
17
100
AcDbEntity
  8
OBSERVED_GEOMETRY
100
AcDbLine
 10
-17.31456160697538
 20
-12.57976536123645
 30
0.0
 11
-15.13348175710914
 21
-15.13348175710915
 31
0.0
  0
LINE
  5
51
330
17
100
AcDbEntity
  8
OBSERVED_GEOMETRY
100
AcDbLine
 10
-21.738977538784347
 20
7.0634219783157866
 30
0.0
 11
-20.35448792497918
 21
6.613574033560599
 31
0.0
  0
LINE
  5
52
330
17
100
AcDbEntity
  8
OBSERVED_GEOMETRY
100
AcDbLine
 10
-19.06929948634243
 20
9.716293392322557
 30
0.0
 11
-20.35448792497919
 21
6.613574033560612
 31
0.0
  0
LINE
  5
53
330
17
100
AcDbEntity
  8
OBSERVED_GEOMETRY
100
AcDbLine
 10
-20.36760582152477
 20
10.377813511337752
 30
0.0
 11
-19.06929948634244
 21
9.716293392322516
 31
0.0
  0
LINE
  5
54
330
17
100
AcDbEntity
  8
OBSERVED_GEOMETRY
100
AcDbLine
 10
-17.31456160697535
 20
12.5797653612365
 30
0.0
 11
-19.06929948634244
 21
9.716293392322527
 31
0.0
  0
LINE
  5
55
330
17
100
AcDbEntity
  8
OBSERVED_GEOMETRY
100
AcDbLine
 10
-18.489949006984432
 20
13.433734294224685
 30
0.0
 11
-17.31456160697539
 21
12.57976536123647
 31
0.0
  0
LINE
  5
56
330
17
100
AcDbEntity
  8
OBSERVED_GEOMETRY
100
AcDbLine
 10
-15.13348175710914
 20
15.13348175710915
 30
0.0
 11
-17.31456160697538
 21
12.57976536123646
 31
0.0
  0
LINE
  5
57
330
17
100
AcDbEntity
  8
OBSERVED_GEOMETRY
100
AcDbLine
 10
-16.16110821553652
 20
16.16110821553653
 30
0.0
 11
-15.13348175710914
 21
15.13348175710915
 31
0.0
  0
LINE
  5
58
330
17
100
AcDbEntity
  8
OBSERVED_GEOMETRY
100
AcDbLine
 10
-12.57976536123645
 20
17.31456160697538
 30
0.0
 11
-15.13348175710914
 21
15.13348175710914
 31
0.0
  0
LINE
  5
59
330
17
100
AcDbEntity
  8
OBSERVED_GEOMETRY
100
AcDbLine
 10
-13.434385292702986
 20
18.49084502952022
 30
0.0
 11
-12.57976536123646
 21
17.31456160697538
 31
0.0
  0
LINE
  5
5A
330
17
100
AcDbEntity
  8
OBSERVED_GEOMETRY
100
AcDbLine
 10
-9.7162933923225
 20
19.06929948634245
 30
0.0
 11
-12.57976536123645
 21
17.31456160697538
 31
0.0
  0
LINE
  5
5B
330
17
100
AcDbEntity
  8
OBSERVED_GEOMETRY
100
AcDbLine
 10
-10.376807690842494
 20
20.365631787654124
 30
0.0
 11
-9.716293392322516
 21
19.06929948634245
 31
0.0
  0
LINE
  5
5C
330
17
100
AcDbEntity
  8
OBSERVED_GEOMETRY
100
AcDbLine
 10
-21.3420044462292
 20
0.762
 30
0.0
 11
-19.643063835205623
 21
0.762
 31
0.0
  0
LINE
  5
5D
330
17
100
AcDbEntity
  8
OBSERVED_GEOMETRY
100
AcDbLine
 10
19.63996725780541
 20
0.762
 30
0.0
 11
21.34200444622921
 21
0.762
 31
0.0
  0
LINE
  5
5E
330
17
100
AcDbEntity
  8
OBSERVED_GEOMETRY
100
AcDbLine
 10
20.1168
 20
0.762
 30
0.0
 11
20.1168
 21
-0.762
 31
0.0
  0
LINE
  5
5F
330
17
100
AcDbEntity
  8
OBSERVED_GEOMETRY
100
AcDbLine
 10
-21.3420044462292
 20
-0.762
 30
0.0
 11
-21.242579366991954
 21
-0.762
 31
0.0
  0
LINE
  5
60
330
17
100
AcDbEntity
  8
OBSERVED_GEOMETRY
100
AcDbLine
 10
-21.241353404680144
 20
-0.762
 30
0.0
 11
-19.63996725780541
 21
-0.762
 31
0.0
  0
LINE
  5
61
330
17
100
AcDbEntity
  8
OBSERVED_GEOMETRY
100
AcDbLine
 10
19.643063835205623
 20
-0.762
 30
0.0
 11
21.243410184392875
 21
-0.762
 31
0.0
  0
LINE
  5
62
330
17
100
AcDbEntity
  8
OBSERVED_GEOMETRY
100
AcDbLine
 10
21.243945996817384
 20
-0.762
 30
0.0
 11
21.34200444622921
 21
-0.762
 31
0.0
  0
LINE
  5
63
330
17
100
AcDbEntity
  8
OBSERVED_GEOMETRY
100
AcDbLine
 10
-6.613574033560567
 20
20.3544879249792
 30
0.0
 11
-9.716293392322507
 21
19.06929948634245
 31
0.0
  0
LINE
  5
64
330
17
100
AcDbEntity
  8
OBSERVED_GEOMETRY
100
AcDbLine
 10
-3.348006532898595
 20
-21.13848131823047
 30
0.0
 11
3.4e-15
 21
-21.40197514682956
 31
0.0
  0
LINE
  5
65
330
17
100
AcDbEntity
  8
OBSERVED_GEOMETRY
100
AcDbLine
 10
-3.575822094233825
 20
-22.576852163677252
 30
0.0
 11
-3.348006532898607
 21
-21.13848131823048
 31
0.0
  0
LINE
  5
66
330
17
100
AcDbEntity
  8
OBSERVED_GEOMETRY
100
AcDbLine
 10
-6.61357403356058
 20
-20.35448792497919
 30
0.0
 11
-3.348006532898544
 21
-21.13848131823049
 31
0.0
  0
LINE
  5
67
330
17
100
AcDbEntity
  8
OBSERVED_GEOMETRY
100
AcDbLine
 10
-7.064057741244208
 20
-21.74093421588262
 30
0.0
 11
-6.61357403356062
 21
-20.35448792497918
 31
0.0
  0
LINE
  5
68
330
17
100
AcDbEntity
  8
OBSERVED_GEOMETRY
100
AcDbLine
 10
-9.716293392322484
 20
-19.06929948634246
 30
0.0
 11
-6.613574033560546
 21
-20.35448792497921
 31
0.0
  0
LINE
  5
69
330
17
100
AcDbEntity
  8
OBSERVED_GEOMETRY
100
AcDbLine
 10
-10.375945688299927
 20
-20.363940012408207
 30
0.0
 11
-9.716293392322553
 21
-19.06929948634242
 31
0.0
  0
LINE
  5
6A
330
17
100
AcDbEntity
  8
OBSERVED_GEOMETRY
100
AcDbLine
 10
-12.57976536123645
 20
-17.31456160697538
 30
0.0
 11
-9.716293392322495
 21
-19.06929948634246
 31
0.0
  0
LINE
  5
6B
330
17
100
AcDbEntity
  8
OBSERVED_GEOMETRY
100
AcDbLine
 10
-13.434137287083047
 20
-18.490503679068652
 30
0.0
 11
-12.57976536123651
 21
-17.31456160697534
 31
0.0
  0
LINE
  5
6C
330
17
100
AcDbEntity
  8
OBSERVED_GEOMETRY
100
AcDbLine
 10
-15.13348175710913
 20
-15.13348175710915
 30
0.0
 11
-12.57976536123644
 21
-17.3145616069754
 31
0.0
  0
LINE
  5
6D
330
17
100
AcDbEntity
  8
OBSERVED_GEOMETRY
100
AcDbLine
 10
-16.16185409663527
 20
-16.16185409663512
 30
0.0
 11
-15.13348175710922
 21
-15.13348175710907
 31
0.0
  0
LINE
  5
6E
330
17
100
AcDbEntity
  8
OBSERVED_GEOMETRY
100
AcDbLine
 10
16.16297302586598
 20
-16.16297302586607
 30
0.0
 11
15.13348175710909
 21
-15.13348175710919
 31
0.0
  0
LINE
  5
6F
330
17
100
AcDbEntity
  8
OBSERVED_GEOMETRY
100
AcDbLine
 10
21.40197514682957
 20
-3.02e-14
 30
0.0
 11
21.13848131823048
 21
3.348006532898578
 31
0.0
  0
LINE
  5
70
330
17
100
AcDbEntity
  8
OBSERVED_GEOMETRY
100
AcDbLine
 10
22.8588847572341
 20
-2.5490015297993905e-13
 30
0.0
 11
21.40197514682957
 21
-2.551e-13
 31
0.0
  0
LINE
  5
71
330
17
100
AcDbEntity
  8
OBSERVED_GEOMETRY
100
AcDbLine
 10
21.13848131823047
 20
-3.348006532898589
 30
0.0
 11
21.40197514682957
 21
2.31e-14
 31
0.0
  0
LINE
  5
72
330
17
100
AcDbEntity
  8
OBSERVED_GEOMETRY
100
AcDbLine
 10
22.573413876190315
 20
-3.57527752299474
 30
0.0
 11
21.13848131823044
 21
-3.34800653289881
 31
0.0
  0
LINE
  5
73
330
17
100
AcDbEntity
  8
OBSERVED_GEOMETRY
100
AcDbLine
 10
20.3544879249792
 20
-6.613574033560585
 30
0.0
 11
21.13848131823049
 21
-3.348006532898568
 31
0.0
  0
LINE
  5
74
330
17
100
AcDbEntity
  8
OBSERVED_GEOMETRY
100
AcDbLine
 10
21.736569723703884
 20
-7.062639631771436
 30
0.0
 11
20.35448792497913
 21
-6.613574033560761
 31
0.0
  0
LINE
  5
75
330
17
100
AcDbEntity
  8
OBSERVED_GEOMETRY
100
AcDbLine
 10
19.06929948634246
 20
-9.716293392322502
 30
0.0
 11
20.35448792497921
 21
-6.613574033560553
 31
0.0
  0
LINE
  5
76
330
17
100
AcDbEntity
  8
OBSERVED_GEOMETRY
100
AcDbLine
 10
20.36469188359933
 20
-10.376328785806646
 30
0.0
 11
19.06929948634239
 21
-9.716293392322635
 31
0.0
  0
LINE
  5
77
330
17
100
AcDbEntity
  8
OBSERVED_GEOMETRY
100
AcDbLine
 10
17.31456160697538
 20
-12.57976536123645
 30
0.0
 11
19.06929948634245
 21
-9.716293392322505
 31
0.0
  0
LINE
  5
78
330
17
100
AcDbEntity
  8
OBSERVED_GEOMETRY
100
AcDbLine
 10
18.491485089925735
 20
-13.4348503238082
 30
0.0
 11
17.31456160697532
 21
-12.57976536123654
 31
0.0
  0
LINE
  5
79
330
17
100
AcDbEntity
  8
OBSERVED_GEOMETRY
100
AcDbLine
 10
15.13348175710914
 20
-15.13348175710913
 30
0.0
 11
17.31456160697539
 21
-12.57976536123644
 31
0.0
  0
LINE
  5
7A
330
17
100
AcDbEntity
  8
OBSERVED_GEOMETRY
100
AcDbLine
 10
22.576122757032977
 20
3.575706567570692
 30
0.0
 11
21.13848131823048
 21
3.348006532898598
 31
0.0
  0
LINE
  5
7B
330
17
100
AcDbEntity
  8
OBSERVED_GEOMETRY
100
AcDbLine
 10
12.57976536123647
 20
-17.31456160697536
 30
0.0
 11
15.13348175710919
 21
-15.1334817571091
 31
0.0
  0
LINE
  5
7C
330
17
100
AcDbEntity
  8
OBSERVED_GEOMETRY
100
AcDbLine
 10
13.436369612400474
 20
-18.493576211276356
 30
0.0
 11
12.57976536123643
 21
-17.31456160697541
 31
0.0
  0
LINE
  5
7D
330
17
100
AcDbEntity
  8
OBSERVED_GEOMETRY
100
AcDbLine
 10
9.716293392322516
 20
-19.06929948634244
 30
0.0
 11
12.57976536123646
 21
-17.31456160697538
 31
0.0
  0
LINE
  5
7E
330
17
100
AcDbEntity
  8
OBSERVED_GEOMETRY
100
AcDbLine
 10
-18.20592040674212
 20
-11.1252
 30
0.0
 11
-18.113725651392734
 21
-11.1252
 31
0.0
  0
LINE
  5
7F
330
17
100
AcDbEntity
  8
OBSERVED_GEOMETRY
100
AcDbLine
 10
-18.11199960268809
 20
-11.1252
 30
0.0
 11
-16.202989193288314
 21
-11.1252
 31
0.0
  0
LINE
  5
80
330
17
100
AcDbEntity
  8
OBSERVED_GEOMETRY
100
AcDbLine
 10
16.20726692067737
 20
-11.1252
 30
0.0
 11
18.111735810953622
 21
-11.1252
 31
0.0
  0
LINE
  5
81
330
17
100
AcDbEntity
  8
OBSERVED_GEOMETRY
100
AcDbLine
 10
18.112558838470783
 20
-11.1252
 30
0.0
 11
18.20592040674212
 21
-11.1252
 31
0.0
  0
LINE
  5
82
330
17
100
AcDbEntity
  8
OBSERVED_GEOMETRY
100
AcDbLine
 10
-12.8016
 20
-14.915872629314066
 30
0.0
 11
-12.8016
 21
-16.3068
 31
0.0
  0
LINE
  5
83
330
17
100
AcDbEntity
  8
OBSERVED_GEOMETRY
100
AcDbLine
 10
-16.4592
 20
-10.742796511832129
 30
0.0
 11
-16.4592
 21
-11.1252
 31
0.0
  0
LINE
  5
84
330
17
100
AcDbEntity
  8
OBSERVED_GEOMETRY
100
AcDbLine
 10
16.4592
 20
-10.747495746587683
 30
0.0
 11
16.4592
 21
-11.1252
 31
0.0
  0
LINE
  5
85
330
17
100
AcDbEntity
  8
OBSERVED_GEOMETRY
100
AcDbLine
 10
-7.555329592563302
 20
-19.9644
 30
0.0
 11
-7.294736412421775
 21
-19.9644
 31
0.0
  0
LINE
  5
86
330
17
100
AcDbEntity
  8
OBSERVED_GEOMETRY
100
AcDbLine
 10
-7.294224052533034
 20
-19.9644
 30
0.0
 11
7.555329592563304
 21
-19.9644
 31
0.0
  0
LINE
  5
87
330
17
100
AcDbEntity
  8
OBSERVED_GEOMETRY
100
AcDbLine
 10
13.75970260150845
 20
-16.3068
 30
0.0
 11
10.972433797077255
 21
-16.3068
 31
0.0
  0
LINE
  5
88
330
17
100
AcDbEntity
  8
OBSERVED_GEOMETRY
100
AcDbLine
 10
-10.976095060335492
 20
-16.3068
 30
0.0
 11
-13.75970260150844
 21
-16.3068
 31
0.0
  0
LINE
  5
89
330
17
100
AcDbEntity
  8
OBSERVED_GEOMETRY
100
AcDbLine
 10
-15.43299227260045
 20
-14.7828
 30
0.0
 11
-12.952831574737532
 21
-14.7828
 31
0.0
  0
LINE
  5
8A
330
17
100
AcDbEntity
  8
OBSERVED_GEOMETRY
100
AcDbLine
 10
12.958096898897335
 20
-14.7828
 30
0.0
 11
15.43299227260044
 21
-14.7828
 31
0.0
  0
LINE
  5
8B
330
17
100
AcDbEntity
  8
OBSERVED_GEOMETRY
100
AcDbLine
 10
-19.812
 20
-5.943600000000002
 30
0.0
 11
-19.812
 21
-7.697556061536698
 31
0.0
  0
LINE
  5
8C
330
17
100
AcDbEntity
  8
OBSERVED_GEOMETRY
100
AcDbLine
 10
-19.812
 20
-7.69760051819032
 30
0.0
 11
-19.812
 21
-7.923255739468986
 31
0.0
  0
LINE
  5
8D
330
17
100
AcDbEntity
  8
OBSERVED_GEOMETRY
100
AcDbLine
 10
19.812
 20
-5.943600000000002
 30
0.0
 11
19.812
 21
-7.92325573946899
 31
0.0
  0
LINE
  5
8E
330
17
100
AcDbEntity
  8
OBSERVED_GEOMETRY
100
AcDbLine
 10
12.8016
 20
-14.91484781005843
 30
0.0
 11
12.8016
 21
-16.3068
 31
0.0
  0
LINE
  5
8F
330
17
100
AcDbEntity
  8
OBSERVED_GEOMETRY
100
AcDbLine
 10
-1.8288
 20
-19.9644
 30
0.0
 11
-1.8288
 21
-21.2580454653887
 31
0.0
  0
LINE
  5
90
330
17
100
AcDbEntity
  8
OBSERVED_GEOMETRY
100
AcDbLine
 10
5.486400000000001
 20
-19.9644
 30
0.0
 11
5.486400000000001
 21
-20.62509846822374
 31
0.0
  0
LINE
  5
91
330
17
100
AcDbEntity
  8
OBSERVED_GEOMETRY
100
AcDbLine
 10
-5.486400000000001
 20
-19.9644
 30
0.0
 11
-5.486400000000001
 21
-20.62509846822375
 31
0.0
  0
LINE
  5
92
330
17
100
AcDbEntity
  8
OBSERVED_GEOMETRY
100
AcDbLine
 10
1.8288
 20
-19.9644
 30
0.0
 11
1.8288
 21
-21.2580454653887
 31
0.0
  0
LINE
  5
93
330
17
100
AcDbEntity
  8
OBSERVED_GEOMETRY
100
AcDbLine
 10
-20.1168
 20
-0.762
 30
0.0
 11
-20.09180000000001
 21
-0.762
 31
0.0
  0
LINE
  5
94
330
17
100
AcDbEntity
  8
OBSERVED_GEOMETRY
100
AcDbLine
 10
-19.11697273038195
 20
-9.601200000000002
 30
0.0
 11
-17.151089738420257
 21
-9.601200000000002
 31
0.0
  0
LINE
  5
95
330
17
100
AcDbEntity
  8
OBSERVED_GEOMETRY
100
AcDbLine
 10
17.151373102506383
 20
-9.601200000000002
 30
0.0
 11
19.11697273038195
 21
-9.601200000000002
 31
0.0
  0
LINE
  5
96
330
17
100
AcDbEntity
  8
OBSERVED_GEOMETRY
100
AcDbLine
 10
21.13848131823048
 20
3.348006532898567
 30
0.0
 11
20.35448792497919
 21
6.613574033560584
 31
0.0
  0
LINE
  5
97
330
17
100
AcDbEntity
  8
OBSERVED_GEOMETRY
100
AcDbLine
 10
21.737773575680134
 20
7.0630307869896845
 30
0.0
 11
20.35448792497919
 21
6.613574033560595
 31
0.0
  0
LINE
  5
98
330
17
100
AcDbEntity
  8
OBSERVED_GEOMETRY
100
AcDbLine
 10
20.3544879249792
 20
6.613574033560563
 30
0.0
 11
19.06929948634246
 21
9.716293392322502
 31
0.0
  0
LINE
  5
99
330
17
100
AcDbEntity
  8
OBSERVED_GEOMETRY
100
AcDbLine
 10
20.364503911464077
 20
10.376233009219789
 30
0.0
 11
19.06929948634244
 21
9.716293392322513
 31
0.0
  0
LINE
  5
9A
330
17
100
AcDbEntity
  8
OBSERVED_GEOMETRY
100
AcDbLine
 10
19.06929948634246
 20
9.716293392322491
 30
0.0
 11
17.31456160697538
 21
12.57976536123645
 31
0.0
  0
LINE
  5
9B
330
17
100
AcDbEntity
  8
OBSERVED_GEOMETRY
100
AcDbLine
 10
18.49011967236436
 20
13.433858289881263
 30
0.0
 11
17.31456160697538
 21
12.57976536123646
 31
0.0
  0
LINE
  5
9C
330
17
100
AcDbEntity
  8
OBSERVED_GEOMETRY
100
AcDbLine
 10
17.31456160697538
 20
12.57976536123646
 30
0.0
 11
15.13348175710914
 21
15.13348175710915
 31
0.0
  0
LINE
  5
9D
330
17
100
AcDbEntity
  8
OBSERVED_GEOMETRY
100
AcDbLine
 10
16.160735296501336
 20
16.160735296501326
 30
0.0
 11
15.13348175710914
 21
15.13348175710914
 31
0.0
  0
LINE
  5
9E
330
17
100
AcDbEntity
  8
OBSERVED_GEOMETRY
100
AcDbLine
 10
15.13348175710915
 20
15.13348175710914
 30
0.0
 11
12.57976536123646
 21
17.31456160697538
 31
0.0
  0
LINE
  5
9F
330
17
100
AcDbEntity
  8
OBSERVED_GEOMETRY
100
AcDbLine
 10
13.435873486681716
 20
18.4928933528067
 30
0.0
 11
12.57976536123646
 21
17.31456160697538
 31
0.0
  0
LINE
  5
A0
330
17
100
AcDbEntity
  8
OBSERVED_GEOMETRY
100
AcDbLine
 10
10.37695136953693
 20
20.36591377296924
 30
0.0
 11
9.716293392322516
 21
19.06929948634244
 31
0.0
  0
LINE
  5
A1
330
17
100
AcDbEntity
  8
OBSERVED_GEOMETRY
100
AcDbLine
 10
9.716293392322514
 20
19.06929948634245
 30
0.0
 11
6.613574033560594
 21
20.35448792497919
 31
0.0
  0
LINE
  5
A2
330
17
100
AcDbEntity
  8
OBSERVED_GEOMETRY
100
AcDbLine
 10
7.062949293341716
 20
21.737522764021385
 30
0.0
 11
6.613574033560599
 21
20.35448792497919
 31
0.0
  0
LINE
  5
A3
330
17
100
AcDbEntity
  8
OBSERVED_GEOMETRY
100
AcDbLine
 10
6.613574033560607
 20
20.35448792497919
 30
0.0
 11
3.348006532898602
 21
21.13848131823048
 31
0.0
  0
LINE
  5
A4
330
17
100
AcDbEntity
  8
OBSERVED_GEOMETRY
100
AcDbLine
 10
3.575376525665566
 20
22.57403895445455
 30
0.0
 11
3.348006532898603
 21
21.13848131823048
 31
0.0
  0
LINE
  5
A5
330
17
100
AcDbEntity
  8
OBSERVED_GEOMETRY
100
AcDbLine
 10
3.348006532898606
 20
21.13848131823048
 30
0.0
 11
9e-16
 21
21.40197514682957
 31
0.0
  0
LINE
  5
A6
330
17
100
AcDbEntity
  8
OBSERVED_GEOMETRY
100
AcDbLine
 10
2.799304374277554e-15
 20
22.854928802040845
 30
0.0
 11
2.6e-15
 21
21.40197514682957
 31
0.0
  0
LINE
  5
A7
330
17
100
AcDbEntity
  8
OBSERVED_GEOMETRY
100
AcDbLine
 10
4.4e-15
 20
21.40197514682956
 30
0.0
 11
-3.348006532898603
 21
21.13848131823047
 31
0.0
  0
LINE
  5
A8
330
17
100
AcDbEntity
  8
OBSERVED_GEOMETRY
100
AcDbLine
 10
-3.576020154415904
 20
22.57810266645192
 30
0.0
 11
-3.348006532898597
 21
21.13848131823048
 31
0.0
  0
LINE
  5
A9
330
17
100
AcDbEntity
  8
OBSERVED_GEOMETRY
100
AcDbLine
 10
-3.3480065328986
 20
21.13848131823047
 30
0.0
 11
-6.613574033560599
 21
20.35448792497919
 31
0.0
  0
LINE
  5
AA
330
17
100
AcDbEntity
  8
OBSERVED_GEOMETRY
100
AcDbLine
 10
-7.0635360825881275
 20
21.739328715624872
 30
0.0
 11
-6.613574033560594
 21
20.35448792497919
 31
0.0
  0
LINE
  5
AB
330
17
100
AcDbEntity
  8
OBSERVED_GEOMETRY
100
AcDbLine
 10
12.57976536123649
 20
17.31456160697536
 30
0.0
 11
9.71629339232252
 21
19.06929948634244
 31
0.0
  0
LINE
  5
AC
330
17
100
AcDbEntity
  8
OBSERVED_GEOMETRY
100
AcDbLine
 10
0.0
 20
-22.857038502801498
 30
0.0
 11
0.0
 21
-21.40197514682957
 31
0.0
  0
LINE
  5
AD
330
17
100
AcDbEntity
  8
OBSERVED_GEOMETRY
100
AcDbLine
 10
7.5e-15
 20
-21.40197514682956
 30
0.0
 11
3.348006532898606
 21
-21.13848131823048
 31
0.0
  0
LINE
  5
AE
330
17
100
AcDbEntity
  8
OBSERVED_GEOMETRY
100
AcDbLine
 10
3.348006532898605
 20
-21.13848131823047
 30
0.0
 11
3.575475532905829
 21
-22.574664061567695
 31
0.0
  0
LINE
  5
AF
330
17
100
AcDbEntity
  8
OBSERVED_GEOMETRY
100
AcDbLine
 10
3.575475532905822
 20
-22.574664061567695
 30
0.0
 11
3.3480065328986
 21
-21.13848131823048
 31
0.0
  0
LINE
  5
B0
330
17
100
AcDbEntity
  8
OBSERVED_GEOMETRY
100
AcDbLine
 10
3.348006532898606
 20
-21.13848131823047
 30
0.0
 11
6.613574033560608
 21
-20.35448792497918
 31
0.0
  0
LINE
  5
B1
330
17
100
AcDbEntity
  8
OBSERVED_GEOMETRY
100
AcDbLine
 10
7.062688524199096
 20
-21.73672019912416
 30
0.0
 11
6.613574033560591
 21
-20.35448792497919
 31
0.0
  0
LINE
  5
B2
330
17
100
AcDbEntity
  8
OBSERVED_GEOMETRY
100
AcDbLine
 10
6.613574033560601
 20
-20.35448792497919
 30
0.0
 11
9.716293392322523
 21
-19.06929948634245
 31
0.0
  0
LINE
  5
B3
330
17
100
AcDbEntity
  8
OBSERVED_GEOMETRY
100
AcDbLine
 10
10.375897802769055
 20
-20.363846031762403
 30
0.0
 11
9.716293392322497
 21
-19.06929948634246
 31
0.0
  0
LINE
  5
B4
330
17
100
AcDbEntity
  8
OBSERVED_GEOMETRY
100
AcDbLine
 10
-18.288
 20
-7.2114346308486965
 30
0.0
 11
-18.288
 21
-9.601200000000002
 31
0.0
  0
LINE
  5
B5
330
17
100
AcDbEntity
  8
OBSERVED_GEOMETRY
100
AcDbLine
 10
-15.24
 20
-12.411767619108128
 30
0.0
 11
-15.24
 21
-14.7828
 31
0.0
  0
LINE
  5
B6
330
17
100
AcDbEntity
  8
OBSERVED_GEOMETRY
100
AcDbLine
 10
-16.764
 20
-11.1252
 30
0.0
 11
-16.764
 21
-13.2243901798818
 31
0.0
  0
LINE
  5
B7
330
17
100
AcDbEntity
  8
OBSERVED_GEOMETRY
100
AcDbLine
 10
-13.716
 20
-14.079832211563787
 30
0.0
 11
-13.716
 21
-14.7828
 31
0.0
  0
LINE
  5
B8
330
17
100
AcDbEntity
  8
OBSERVED_GEOMETRY
100
AcDbLine
 10
13.716
 20
-14.078385065190055
 30
0.0
 11
13.716
 21
-14.7828
 31
0.0
  0
LINE
  5
B9
330
17
100
AcDbEntity
  8
OBSERVED_GEOMETRY
100
AcDbLine
 10
3.048
 20
19.417124421274597
 30
0.0
 11
3.048
 21
19.9644
 31
0.0
  0
LINE
  5
BA
330
17
100
AcDbEntity
  8
OBSERVED_GEOMETRY
100
AcDbLine
 10
-1.524
 20
19.598020417479177
 30
0.0
 11
-1.524
 21
19.9644
 31
0.0
  0
LINE
  5
BB
330
17
100
AcDbEntity
  8
OBSERVED_GEOMETRY
100
AcDbLine
 10
12.8016
 20
14.915872629314066
 30
0.0
 11
12.8016
 21
16.3068
 31
0.0
  0
LINE
  5
BC
330
17
100
AcDbEntity
  8
OBSERVED_GEOMETRY
100
AcDbLine
 10
-12.8016
 20
14.914847810058427
 30
0.0
 11
-12.8016
 21
16.3068
 31
0.0
  0
LINE
  5
BD
330
17
100
AcDbEntity
  8
OBSERVED_GEOMETRY
100
AcDbLine
 10
2e-16
 20
-19.655728621082236
 30
0.0
 11
2e-16
 21
-19.9644
 31
0.0
  0
LINE
  5
BE
330
17
100
AcDbEntity
  8
OBSERVED_GEOMETRY
100
AcDbLine
 10
16.764
 20
11.1252
 30
0.0
 11
16.764
 21
13.066569539406323
 31
0.0
  0
LINE
  5
BF
330
17
100
AcDbEntity
  8
OBSERVED_GEOMETRY
100
AcDbLine
 10
16.764
 20
13.068194243838063
 30
0.0
 11
16.764
 21
13.2243901798818
 31
0.0
  0
LINE
  5
C0
330
17
100
AcDbEntity
  8
OBSERVED_GEOMETRY
100
AcDbLine
 10
-16.764
 20
11.1252
 30
0.0
 11
-16.764
 21
13.071508185407886
 31
0.0
  0
LINE
  5
C1
330
17
100
AcDbEntity
  8
OBSERVED_GEOMETRY
100
AcDbLine
 10
-16.764
 20
13.072316573612383
 30
0.0
 11
-16.764
 21
13.2243901798818
 31
0.0
  0
LINE
  5
C2
330
17
100
AcDbEntity
  8
OBSERVED_GEOMETRY
100
AcDbLine
 10
-16.4592
 20
10.747495746587681
 30
0.0
 11
-16.4592
 21
11.1252
 31
0.0
  0
LINE
  5
C3
330
17
100
AcDbEntity
  8
OBSERVED_GEOMETRY
100
AcDbLine
 10
4.572
 20
19.118187280461505
 30
0.0
 11
4.572
 21
19.9644
 31
0.0
  0
LINE
  5
C4
330
17
100
AcDbEntity
  8
OBSERVED_GEOMETRY
100
AcDbLine
 10
-3.048
 20
19.416889544581686
 30
0.0
 11
-3.048
 21
19.9644
 31
0.0
  0
LINE
  5
C5
330
17
100
AcDbEntity
  8
OBSERVED_GEOMETRY
100
AcDbLine
 10
7.62
 20
18.119291616176085
 30
0.0
 11
7.62
 21
19.84185955746432
 31
0.0
  0
LINE
  5
C6
330
17
100
AcDbEntity
  8
OBSERVED_GEOMETRY
100
AcDbLine
 10
7.62
 20
19.842248553558353
 30
0.0
 11
7.62
 21
19.9644
 31
0.0
  0
LINE
  5
C7
330
17
100
AcDbEntity
  8
OBSERVED_GEOMETRY
100
AcDbLine
 10
-9.144
 20
17.39835931963065
 30
0.0
 11
-9.144
 21
19.30635117109894
 31
0.0
  0
LINE
  5
C8
330
17
100
AcDbEntity
  8
OBSERVED_GEOMETRY
100
AcDbLine
 10
12.192
 20
16.3068
 30
0.0
 11
12.192
 21
17.55218452595445
 31
0.0
  0
LINE
  5
C9
330
17
100
AcDbEntity
  8
OBSERVED_GEOMETRY
100
AcDbLine
 10
-12.192
 20
16.3068
 30
0.0
 11
-12.192
 21
17.410329744150065
 31
0.0
  0
LINE
  5
CA
330
17
100
AcDbEntity
  8
OBSERVED_GEOMETRY
100
AcDbLine
 10
-12.192
 20
17.41122634364509
 30
0.0
 11
-12.192
 21
17.55218452595444
 31
0.0
  0
LINE
  5
CB
330
17
100
AcDbEntity
  8
OBSERVED_GEOMETRY
100
AcDbLine
 10
10.668
 20
16.507592550295747
 30
0.0
 11
10.668
 21
18.4860929270797
 31
0.0
  0
LINE
  5
CC
330
17
100
AcDbEntity
  8
OBSERVED_GEOMETRY
100
AcDbLine
 10
-4.572
 20
19.11571302099135
 30
0.0
 11
-4.572
 21
19.9644
 31
0.0
  0
LINE
  5
CD
330
17
100
AcDbEntity
  8
OBSERVED_GEOMETRY
100
AcDbLine
 10
9.144
 20
17.40082013736988
 30
0.0
 11
9.144
 21
19.30635117109894
 31
0.0
  0
LINE
  5
CE
330
17
100
AcDbEntity
  8
OBSERVED_GEOMETRY
100
AcDbLine
 10
1.524
 20
19.595718307084777
 30
0.0
 11
1.524
 21
19.9644
 31
0.0
  0
LINE
  5
CF
330
17
100
AcDbEntity
  8
OBSERVED_GEOMETRY
100
AcDbLine
 10
6.096
 20
18.687338777764978
 30
0.0
 11
6.096
 21
19.9644
 31
0.0
  0
LINE
  5
D0
330
17
100
AcDbEntity
  8
OBSERVED_GEOMETRY
100
AcDbLine
 10
-7.62
 20
18.11804874057334
 30
0.0
 11
-7.62
 21
19.9644
 31
0.0
  0
LINE
  5
D1
330
17
100
AcDbEntity
  8
OBSERVED_GEOMETRY
100
AcDbLine
 10
2e-16
 20
19.655728621082236
 30
0.0
 11
2e-16
 21
19.9644
 31
0.0
  0
LINE
  5
D2
330
17
100
AcDbEntity
  8
OBSERVED_GEOMETRY
100
AcDbLine
 10
-10.668
 20
16.51193846460987
 30
0.0
 11
-10.668
 21
18.38381559741108
 31
0.0
  0
LINE
  5
D3
330
17
100
AcDbEntity
  8
OBSERVED_GEOMETRY
100
AcDbLine
 10
-10.668
 20
18.38712903572426
 30
0.0
 11
-10.668
 21
18.4860929270797
 31
0.0
  0
LINE
  5
D4
330
17
100
AcDbEntity
  8
OBSERVED_GEOMETRY
100
AcDbLine
 10
-6.096
 20
18.68593860602093
 30
0.0
 11
-6.096
 21
19.9644
 31
0.0
  0
LINE
  5
D5
330
17
100
AcDbEntity
  8
OBSERVED_GEOMETRY
100
AcDbLine
 10
13.75970260150845
 20
16.3068
 30
0.0
 11
10.976095060335494
 21
16.3068
 31
0.0
  0
LINE
  5
D6
330
17
100
AcDbEntity
  8
OBSERVED_GEOMETRY
100
AcDbLine
 10
-10.972433797077256
 20
16.3068
 30
0.0
 11
-13.75970260150844
 21
16.3068
 31
0.0
  0
LINE
  5
D7
330
17
100
AcDbEntity
  8
OBSERVED_GEOMETRY
100
AcDbLine
 10
-7.555329592563302
 20
19.9644
 30
0.0
 11
7.294224052533028
 21
19.9644
 31
0.0
  0
LINE
  5
D8
330
17
100
AcDbEntity
  8
OBSERVED_GEOMETRY
100
AcDbLine
 10
7.295373178262625
 20
19.9644
 30
0.0
 11
7.555329592563304
 21
19.9644
 31
0.0
  0
LINE
  5
D9
330
17
100
AcDbEntity
  8
OBSERVED_GEOMETRY
100
AcDbLine
 10
5.486400000000001
 20
19.9644
 30
0.0
 11
5.486400000000001
 21
20.62509846822374
 31
0.0
  0
LINE
  5
DA
330
17
100
AcDbEntity
  8
OBSERVED_GEOMETRY
100
AcDbLine
 10
-1.8288
 20
19.9644
 30
0.0
 11
-1.8288
 21
21.176438274714265
 31
0.0
  0
LINE
  5
DB
330
17
100
AcDbEntity
  8
OBSERVED_GEOMETRY
100
AcDbLine
 10
-1.8288
 20
21.178158846840393
 30
0.0
 11
-1.8288
 21
21.2580454653887
 31
0.0
  0
LINE
  5
DC
330
17
100
AcDbEntity
  8
OBSERVED_GEOMETRY
100
AcDbLine
 10
-5.486400000000001
 20
19.9644
 30
0.0
 11
-5.486400000000001
 21
20.62509846822375
 31
0.0
  0
LINE
  5
DD
330
17
100
AcDbEntity
  8
OBSERVED_GEOMETRY
100
AcDbLine
 10
1.8288
 20
19.9644
 30
0.0
 11
1.8288
 21
21.177735358639318
 31
0.0
  0
LINE
  5
DE
330
17
100
AcDbEntity
  8
OBSERVED_GEOMETRY
100
AcDbLine
 10
1.8288
 20
21.17795834474321
 30
0.0
 11
1.8288
 21
21.2580454653887
 31
0.0
  0
LINE
  5
DF
330
17
100
AcDbEntity
  8
OBSERVED_GEOMETRY
100
AcDbLine
 10
19.812
 20
5.943600000000002
 30
0.0
 11
19.812
 21
7.697556061536698
 31
0.0
  0
LINE
  5
E0
330
17
100
AcDbEntity
  8
OBSERVED_GEOMETRY
100
AcDbLine
 10
19.812
 20
7.702452204005154
 30
0.0
 11
19.812
 21
7.92325573946899
 31
0.0
  0
LINE
  5
E1
330
17
100
AcDbEntity
  8
OBSERVED_GEOMETRY
100
AcDbLine
 10
-19.812
 20
-4.419600000000001
 30
0.0
 11
-19.787
 21
-4.419600000000001
 31
0.0
  0
LINE
  5
E2
330
17
100
AcDbEntity
  8
OBSERVED_GEOMETRY
100
AcDbLine
 10
-15.43299227260045
 20
14.7828
 30
0.0
 11
-12.958096898897335
 21
14.7828
 31
0.0
  0
LINE
  5
E3
330
17
100
AcDbEntity
  8
OBSERVED_GEOMETRY
100
AcDbLine
 10
12.952831574737528
 20
14.7828
 30
0.0
 11
15.43299227260044
 21
14.7828
 31
0.0
  0
LINE
  5
E4
330
17
100
AcDbEntity
  8
OBSERVED_GEOMETRY
100
AcDbLine
 10
16.4592
 20
10.742796511832125
 30
0.0
 11
16.4592
 21
11.1252
 31
0.0
  0
LINE
  5
E5
330
17
100
AcDbEntity
  8
OBSERVED_GEOMETRY
100
AcDbLine
 10
-10.668
 20
-16.507592550295744
 30
0.0
 11
-10.668
 21
-18.4860929270797
 31
0.0
  0
LINE
  5
E6
330
17
100
AcDbEntity
  8
OBSERVED_GEOMETRY
100
AcDbLine
 10
10.668
 20
-16.511938464609866
 30
0.0
 11
10.668
 21
-18.383815597411083
 31
0.0
  0
LINE
  5
E7
330
17
100
AcDbEntity
  8
OBSERVED_GEOMETRY
100
AcDbLine
 10
10.668
 20
-18.3842157318379
 30
0.0
 11
10.668
 21
-18.4860929270797
 31
0.0
  0
LINE
  5
E8
330
17
100
AcDbEntity
  8
OBSERVED_GEOMETRY
100
AcDbLine
 10
9.144
 20
-17.39835931963065
 30
0.0
 11
9.144
 21
-19.1872634212348
 31
0.0
  0
LINE
  5
E9
330
17
100
AcDbEntity
  8
OBSERVED_GEOMETRY
100
AcDbLine
 10
9.144
 20
-19.1887832740397
 30
0.0
 11
9.144
 21
-19.30635117109894
 31
0.0
  0
LINE
  5
EA
330
17
100
AcDbEntity
  8
OBSERVED_GEOMETRY
100
AcDbLine
 10
-1.524
 20
-19.595718307084777
 30
0.0
 11
-1.524
 21
-19.9644
 31
0.0
  0
LINE
  5
EB
330
17
100
AcDbEntity
  8
OBSERVED_GEOMETRY
100
AcDbLine
 10
6.096
 20
-18.68593860602093
 30
0.0
 11
6.096
 21
-19.9644
 31
0.0
  0
LINE
  5
EC
330
17
100
AcDbEntity
  8
OBSERVED_GEOMETRY
100
AcDbLine
 10
-9.144
 20
-17.40082013736988
 30
0.0
 11
-9.144
 21
-19.30635117109894
 31
0.0
  0
LINE
  5
ED
330
17
100
AcDbEntity
  8
OBSERVED_GEOMETRY
100
AcDbLine
 10
-4.572
 20
-19.118187280461505
 30
0.0
 11
-4.572
 21
-19.9644
 31
0.0
  0
LINE
  5
EE
330
17
100
AcDbEntity
  8
OBSERVED_GEOMETRY
100
AcDbLine
 10
-12.192
 20
-16.3068
 30
0.0
 11
-12.192
 21
-17.55218452595444
 31
0.0
  0
LINE
  5
EF
330
17
100
AcDbEntity
  8
OBSERVED_GEOMETRY
100
AcDbLine
 10
-7.62
 20
-18.119291616176085
 30
0.0
 11
-7.62
 21
-19.84185955746432
 31
0.0
  0
LINE
  5
F0
330
17
100
AcDbEntity
  8
OBSERVED_GEOMETRY
100
AcDbLine
 10
-7.62
 20
-19.844682097864144
 30
0.0
 11
-7.62
 21
-19.9644
 31
0.0
  0
LINE
  5
F1
330
17
100
AcDbEntity
  8
OBSERVED_GEOMETRY
100
AcDbLine
 10
12.192
 20
-16.3068
 30
0.0
 11
12.192
 21
-17.41032974415006
 31
0.0
  0
LINE
  5
F2
330
17
100
AcDbEntity
  8
OBSERVED_GEOMETRY
100
AcDbLine
 10
12.192
 20
-17.41465894881222
 30
0.0
 11
12.192
 21
-17.55218452595445
 31
0.0
  0
LINE
  5
F3
330
17
100
AcDbEntity
  8
OBSERVED_GEOMETRY
100
AcDbLine
 10
1.524
 20
-19.598020417479173
 30
0.0
 11
1.524
 21
-19.9644
 31
0.0
  0
LINE
  5
F4
330
17
100
AcDbEntity
  8
OBSERVED_GEOMETRY
100
AcDbLine
 10
4.572
 20
-19.11571302099135
 30
0.0
 11
4.572
 21
-19.9644
 31
0.0
  0
LINE
  5
F5
330
17
100
AcDbEntity
  8
OBSERVED_GEOMETRY
100
AcDbLine
 10
7.62
 20
-18.11804874057334
 30
0.0
 11
7.62
 21
-19.9644
 31
0.0
  0
LINE
  5
F6
330
17
100
AcDbEntity
  8
OBSERVED_GEOMETRY
100
AcDbLine
 10
-6.096
 20
-18.68733877776498
 30
0.0
 11
-6.096
 21
-19.9644
 31
0.0
  0
LINE
  5
F7
330
17
100
AcDbEntity
  8
OBSERVED_GEOMETRY
100
AcDbLine
 10
-3.048
 20
-19.417124421274597
 30
0.0
 11
-3.048
 21
-19.9644
 31
0.0
  0
LINE
  5
F8
330
17
100
AcDbEntity
  8
OBSERVED_GEOMETRY
100
AcDbLine
 10
3.048
 20
-19.416889544581686
 30
0.0
 11
3.048
 21
-19.9644
 31
0.0
  0
LINE
  5
F9
330
17
100
AcDbEntity
  8
OBSERVED_GEOMETRY
100
AcDbLine
 10
15.24
 20
-12.416601525719807
 30
0.0
 11
15.24
 21
-14.7828
 31
0.0
  0
LINE
  5
FA
330
17
100
AcDbEntity
  8
OBSERVED_GEOMETRY
100
AcDbLine
 10
16.764
 20
-11.1252
 30
0.0
 11
16.764
 21
-13.2243901798818
 31
0.0
  0
LINE
  5
FB
330
17
100
AcDbEntity
  8
OBSERVED_GEOMETRY
100
AcDbLine
 10
20.1168
 20
4.419600000000001
 30
0.0
 11
20.1168
 21
5.943600000000002
 31
0.0
  0
LINE
  5
FC
330
17
100
AcDbEntity
  8
OBSERVED_GEOMETRY
100
AcDbLine
 10
-20.1168
 20
4.419600000000001
 30
0.0
 11
-20.1168
 21
5.943600000000002
 31
0.0
  0
LINE
  5
FD
330
17
100
AcDbEntity
  8
OBSERVED_GEOMETRY
100
AcDbLine
 10
-19.812
 20
4.419600000000001
 30
0.0
 11
-19.787
 21
4.419600000000001
 31
0.0
  0
LINE
  5
FE
330
17
100
AcDbEntity
  8
OBSERVED_GEOMETRY
100
AcDbLine
 10
19.812
 20
0.762
 30
0.0
 11
19.812
 21
4.419600000000001
 31
0.0
  0
LINE
  5
FF
330
17
100
AcDbEntity
  8
OBSERVED_GEOMETRY
100
AcDbLine
 10
-20.88121448841041
 20
4.419600000000001
 30
0.0
 11
-19.154849207357024
 21
4.419600000000001
 31
0.0
  0
LINE
  5
100
330
17
100
AcDbEntity
  8
OBSERVED_GEOMETRY
100
AcDbLine
 10
19.15136104153588
 20
4.419600000000001
 30
0.0
 11
20.88121448841041
 21
4.419600000000001
 31
0.0
  0
LINE
  5
101
330
17
100
AcDbEntity
  8
OBSERVED_GEOMETRY
100
AcDbLine
 10
-19.812
 20
0.762
 30
0.0
 11
-19.812
 21
4.419600000000001
 31
0.0
  0
LINE
  5
102
330
17
100
AcDbEntity
  8
OBSERVED_GEOMETRY
100
AcDbLine
 10
-18.20592040674212
 20
11.1252
 30
0.0
 11
-16.20726692067737
 21
11.1252
 31
0.0
  0
LINE
  5
103
330
17
100
AcDbEntity
  8
OBSERVED_GEOMETRY
100
AcDbLine
 10
16.202989193288314
 20
11.1252
 30
0.0
 11
18.20592040674212
 21
11.1252
 31
0.0
  0
LINE
  5
104
330
17
100
AcDbEntity
  8
OBSERVED_GEOMETRY
100
AcDbLine
 10
-19.11697273038195
 20
9.601200000000002
 30
0.0
 11
-18.9660094621162
 21
9.601200000000002
 31
0.0
  0
LINE
  5
105
330
17
100
AcDbEntity
  8
OBSERVED_GEOMETRY
100
AcDbLine
 10
-18.963963365850216
 20
9.601200000000002
 30
0.0
 11
-17.151373102506387
 21
9.601200000000002
 31
0.0
  0
LINE
  5
106
330
17
100
AcDbEntity
  8
OBSERVED_GEOMETRY
100
AcDbLine
 10
17.151089738420257
 20
9.601200000000002
 30
0.0
 11
18.96369130782744
 21
9.601200000000002
 31
0.0
  0
LINE
  5
107
330
17
100
AcDbEntity
  8
OBSERVED_GEOMETRY
100
AcDbLine
 10
18.964167739342844
 20
9.601200000000002
 30
0.0
 11
19.11697273038195
 21
9.601200000000002
 31
0.0
  0
LINE
  5
108
330
17
100
AcDbEntity
  8
OBSERVED_GEOMETRY
100
AcDbLine
 10
-13.716
 20
14.078385065190053
 30
0.0
 11
-13.716
 21
14.7828
 31
0.0
  0
LINE
  5
109
330
17
100
AcDbEntity
  8
OBSERVED_GEOMETRY
100
AcDbLine
 10
15.24
 20
12.411767619108126
 30
0.0
 11
15.24
 21
14.7828
 31
0.0
  0
LINE
  5
10A
330
17
100
AcDbEntity
  8
OBSERVED_GEOMETRY
100
AcDbLine
 10
13.716
 20
14.079832211563787
 30
0.0
 11
13.716
 21
14.7828
 31
0.0
  0
LINE
  5
10B
330
17
100
AcDbEntity
  8
OBSERVED_GEOMETRY
100
AcDbLine
 10
-15.24
 20
12.416601525719809
 30
0.0
 11
-15.24
 21
14.7828
 31
0.0
  0
LINE
  5
10C
330
17
100
AcDbEntity
  8
OBSERVED_GEOMETRY
100
AcDbLine
 10
19.812
 20
-0.762
 30
0.0
 11
19.812
 21
-4.419600000000001
 31
0.0
  0
LINE
  5
10D
330
17
100
AcDbEntity
  8
PREDICTED_GEOMETRY_HIGH
100
AcDbLine
 10
-9.144
 20
-0.7619999999999987
 30
0.0
 11
-9.144
 21
-4.4196
 31
0.0
1001
DXF_PREDICTOR
1000
150ft_family
1040
0.999875850144696
1000
line:10000059
  0
LINE
  5
10F
330
17
100
AcDbEntity
  8
PREDICTED_GEOMETRY_HIGH
100
AcDbLine
 10
-18.288
 20
-0.7619999999999976
 30
0.0
 11
-18.288
 21
-4.419599999999998
 31
0.0
1001
DXF_PREDICTOR
1000
150ft_family
1040
0.999875850144696
1000
line:1000005D
  0
LINE
  5
110
330
17
100
AcDbEntity
  8
PREDICTED_GEOMETRY_HIGH
100
AcDbLine
 10
-12.192
 20
-0.7619999999999983
 30
0.0
 11
-12.192
 21
-4.419599999999999
 31
0.0
1001
DXF_PREDICTOR
1000
150ft_family
1040
0.999875850144696
1000
line:10000061
  0
LINE
  5
111
330
17
100
AcDbEntity
  8
PREDICTED_GEOMETRY_HIGH
100
AcDbLine
 10
-16.764
 20
-0.7619999999999978
 30
0.0
 11
-16.764
 21
-4.419599999999999
 31
0.0
1001
DXF_PREDICTOR
1000
150ft_family
1040
0.999875850144696
1000
line:10000065
  0
LINE
  5
112
330
17
100
AcDbEntity
  8
PREDICTED_GEOMETRY_HIGH
100
AcDbLine
 10
-3.048
 20
-0.7619999999999995
 30
0.0
 11
-3.0480000000000005
 21
-4.419600000000001
 31
0.0
1001
DXF_PREDICTOR
1000
150ft_family
1040
0.999875850144696
1000
line:10000069
  0
LINE
  5
113
330
17
100
AcDbEntity
  8
PREDICTED_GEOMETRY_HIGH
100
AcDbLine
 10
-13.716
 20
-0.7619999999999982
 30
0.0
 11
-13.716
 21
-4.419599999999999
 31
0.0
1001
DXF_PREDICTOR
1000
150ft_family
1040
0.999875850144696
1000
line:1000006D
  0
LINE
  5
114
330
17
100
AcDbEntity
  8
PREDICTED_GEOMETRY_HIGH
100
AcDbLine
 10
-4.572
 20
-0.7619999999999993
 30
0.0
 11
-4.572000000000001
 21
-4.419600000000001
 31
0.0
1001
DXF_PREDICTOR
1000
150ft_family
1040
0.999875850144696
1000
line:10000071
  0
LINE
  5
115
330
17
100
AcDbEntity
  8
PREDICTED_GEOMETRY_HIGH
100
AcDbLine
 10
-1.524
 20
-0.7619999999999998
 30
0.0
 11
-1.5240000000000005
 21
-4.419600000000001
 31
0.0
1001
DXF_PREDICTOR
1000
150ft_family
1040
0.999875850144696
1000
line:10000075
  0
LINE
  5
116
330
17
100
AcDbEntity
  8
PREDICTED_GEOMETRY_HIGH
100
AcDbLine
 10
-18.73469100702861
 20
-5.943599999999997
 30
0.0
 11
18.73705226742093
 21
-5.943600000000003
 31
0.0
1001
DXF_PREDICTOR
1000
150ft_family
1040
0.999875850144696
1000
line:10000079
  0
LINE
  5
117
330
17
100
AcDbEntity
  8
PREDICTED_GEOMETRY_HIGH
100
AcDbLine
 10
-12.8016
 20
-4.419599999999999
 30
0.0
 11
-12.8016
 21
-5.9436
 31
0.0
1001
DXF_PREDICTOR
1000
150ft_family
1040
0.999875850144696
1000
line:1000007D
  0
LINE
  5
118
330
17
100
AcDbEntity
  8
PREDICTED_GEOMETRY_HIGH
100
AcDbLine
 10
-1.8288000000000006
 20
-4.419600000000001
 30
0.0
 11
-1.8288000000000006
 21
-5.9436
 31
0.0
1001
DXF_PREDICTOR
1000
150ft_family
1040
0.999875850144696
1000
line:10000089
  0
LINE
  5
119
330
17
100
AcDbEntity
  8
PREDICTED_GEOMETRY_HIGH
100
AcDbLine
 10
16.4592
 20
-4.419600000000003
 30
0.0
 11
16.4592
 21
-5.9436000000000035
 31
0.0
1001
DXF_PREDICTOR
1000
150ft_family
1040
0.999875850144696
1000
line:1000008D
  0
LINE
  5
11A
330
17
100
AcDbEntity
  8
PREDICTED_GEOMETRY_HIGH
100
AcDbLine
 10
5.4864
 20
-4.419600000000002
 30
0.0
 11
5.4864
 21
-5.943600000000003
 31
0.0
1001
DXF_PREDICTOR
1000
150ft_family
1040
0.999875850144696
1000
line:10000091
  0
LINE
  5
11B
330
17
100
AcDbEntity
  8
PREDICTED_GEOMETRY_HIGH
100
AcDbLine
 10
-5.486400000000001
 20
-4.419600000000001
 30
0.0
 11
-5.486400000000001
 21
-5.9436
 31
0.0
1001
DXF_PREDICTOR
1000
150ft_family
1040
0.999875850144696
1000
line:10000095
  0
LINE
  5
11C
330
17
100
AcDbEntity
  8
PREDICTED_GEOMETRY_HIGH
100
AcDbLine
 10
12.8016
 20
-4.419600000000003
 30
0.0
 11
12.8016
 21
-5.943600000000003
 31
0.0
1001
DXF_PREDICTOR
1000
150ft_family
1040
0.999875850144696
1000
line:10000099
  0
LINE
  5
11D
330
17
100
AcDbEntity
  8
PREDICTED_GEOMETRY_HIGH
100
AcDbLine
 10
-9.144000000000002
 20
-4.4196
 30
0.0
 11
-9.144000000000004
 21
-5.9436
 31
0.0
1001
DXF_PREDICTOR
1000
150ft_family
1040
0.999875850144696
1000
line:1000009D
  0
LINE
  5
11E
330
17
100
AcDbEntity
  8
PREDICTED_GEOMETRY_HIGH
100
AcDbLine
 10
-16.4592
 20
-4.419599999999999
 30
0.0
 11
-16.4592
 21
-5.943599999999999
 31
0.0
1001
DXF_PREDICTOR
1000
150ft_family
1040
0.999875850144696
1000
line:100000A1
  0
LINE
  5
11F
330
17
100
AcDbEntity
  8
PREDICTED_GEOMETRY_HIGH
100
AcDbLine
 10
1.8287999999999993
 20
-4.419600000000001
 30
0.0
 11
1.8287999999999993
 21
-5.943600000000001
 31
0.0
1001
DXF_PREDICTOR
1000
150ft_family
1040
0.999875850144696
1000
line:100000A5
  0
LINE
  5
120
330
17
100
AcDbEntity
  8
PREDICTED_GEOMETRY_HIGH
100
AcDbLine
 10
-12.8016
 20
-9.6012
 30
0.0
 11
-12.801600000000004
 21
-11.125199999999998
 31
0.0
1001
DXF_PREDICTOR
1000
150ft_family
1040
0.999875850144696
1000
line:100000AD
  0
LINE
  5
121
330
17
100
AcDbEntity
  8
PREDICTED_GEOMETRY_HIGH
100
AcDbLine
 10
9.144000000000002
 20
-4.419600000000003
 30
0.0
 11
9.144
 21
-5.943600000000003
 31
0.0
1001
DXF_PREDICTOR
1000
150ft_family
1040
0.999875850144696
1000
line:100000B1
  0
LINE
  5
122
330
17
100
AcDbEntity
  8
PREDICTED_GEOMETRY_HIGH
100
AcDbLine
 10
-16.4592
 20
0.7620000000000022
 30
0.0
 11
-16.4592
 21
-0.7619999999999978
 31
0.0
1001
DXF_PREDICTOR
1000
150ft_family
1040
0.999875850144696
1000
line:100000B9
  0
LINE
  5
123
330
17
100
AcDbEntity
  8
PREDICTED_GEOMETRY_HIGH
100
AcDbLine
 10
9.949460197421506e-17
 20
-0.762
 30
0.0
 11
-3.8293130854955276e-16
 21
-4.419600000000001
 31
0.0
1001
DXF_PREDICTOR
1000
150ft_family
1040
0.999875850144696
1000
line:100000BD
  0
LINE
  5
124
330
17
100
AcDbEntity
  8
PREDICTED_GEOMETRY_HIGH
100
AcDbLine
 10
-19.15136104153588
 20
-4.419599999999998
 30
0.0
 11
19.15484920735702
 21
-4.4196000000000035
 31
0.0
1001
DXF_PREDICTOR
1000
150ft_family
1040
0.999875850144696
1000
line:100000C1
  0
LINE
  5
125
330
17
100
AcDbEntity
  8
PREDICTED_GEOMETRY_HIGH
100
AcDbLine
 10
1.524
 20
-0.7620000000000001
 30
0.0
 11
1.5239999999999994
 21
-4.419600000000001
 31
0.0
1001
DXF_PREDICTOR
1000
150ft_family
1040
0.999875850144696
1000
line:100000C5
  0
LINE
  5
126
330
17
100
AcDbEntity
  8
PREDICTED_GEOMETRY_HIGH
100
AcDbLine
 10
3.048
 20
-0.7620000000000005
 30
0.0
 11
3.047999999999999
 21
-4.419600000000002
 31
0.0
1001
DXF_PREDICTOR
1000
150ft_family
1040
0.999875850144696
1000
line:100000C9
  0
LINE
  5
127
330
17
100
AcDbEntity
  8
PREDICTED_GEOMETRY_HIGH
100
AcDbLine
 10
4.572
 20
-0.7620000000000006
 30
0.0
 11
4.571999999999999
 21
-4.419600000000002
 31
0.0
1001
DXF_PREDICTOR
1000
150ft_family
1040
0.999875850144696
1000
line:100000CD
  0
LINE
  5
128
330
17
100
AcDbEntity
  8
PREDICTED_GEOMETRY_HIGH
100
AcDbLine
 10
6.096
 20
-0.7620000000000008
 30
0.0
 11
6.096
 21
-4.419600000000002
 31
0.0
1001
DXF_PREDICTOR
1000
150ft_family
1040
0.999875850144696
1000
line:100000D1
  0
LINE
  5
129
330
17
100
AcDbEntity
  8
PREDICTED_GEOMETRY_HIGH
100
AcDbLine
 10
7.620000000000001
 20
-0.7620000000000009
 30
0.0
 11
7.620000000000001
 21
-4.419600000000003
 31
0.0
1001
DXF_PREDICTOR
1000
150ft_family
1040
0.999875850144696
1000
line:100000D5
  0
LINE
  5
12A
330
17
100
AcDbEntity
  8
PREDICTED_GEOMETRY_HIGH
100
AcDbLine
 10
9.144
 20
-0.7620000000000012
 30
0.0
 11
9.144
 21
-4.419600000000003
 31
0.0
1001
DXF_PREDICTOR
1000
150ft_family
1040
0.999875850144696
1000
line:100000D9
  0
LINE
  5
12B
330
17
100
AcDbEntity
  8
PREDICTED_GEOMETRY_HIGH
100
AcDbLine
 10
12.192
 20
-0.7620000000000016
 30
0.0
 11
12.192
 21
-4.419600000000003
 31
0.0
1001
DXF_PREDICTOR
1000
150ft_family
1040
0.999875850144696
1000
line:100000E1
  0
LINE
  5
12C
330
17
100
AcDbEntity
  8
PREDICTED_GEOMETRY_HIGH
100
AcDbLine
 10
-4.571999999999999
 20
11.1252
 30
0.0
 11
-4.571999999999998
 21
14.782800000000002
 31
0.0
1001
DXF_PREDICTOR
1000
150ft_family
1040
0.999875850144696
1000
line:100000E5
  0
LINE
  5
12D
330
17
100
AcDbEntity
  8
PREDICTED_GEOMETRY_HIGH
100
AcDbLine
 10
5.4864000000000015
 20
9.6012
 30
0.0
 11
5.4864000000000015
 21
11.125199999999998
 31
0.0
1001
DXF_PREDICTOR
1000
150ft_family
1040
0.999875850144696
1000
line:100000E9
  0
LINE
  5
12E
330
17
100
AcDbEntity
  8
PREDICTED_GEOMETRY_HIGH
100
AcDbLine
 10
-6.095999999999998
 20
5.943600000000003
 30
0.0
 11
-6.095999999999998
 21
9.601200000000004
 31
0.0
1001
DXF_PREDICTOR
1000
150ft_family
1040
0.999875850144696
1000
line:100000ED
  0
LINE
  5
12F
330
17
100
AcDbEntity
  8
PREDICTED_GEOMETRY_HIGH
100
AcDbLine
 10
-16.764
 20
5.9436000000000035
 30
0.0
 11
-16.764
 21
9.601200000000004
 31
0.0
1001
DXF_PREDICTOR
1000
150ft_family
1040
0.999875850144696
1000
line:100000F1
  0
LINE
  5
130
330
17
100
AcDbEntity
  8
PREDICTED_GEOMETRY_HIGH
100
AcDbLine
 10
-12.192
 20
5.943600000000003
 30
0.0
 11
-12.192
 21
9.601200000000004
 31
0.0
1001
DXF_PREDICTOR
1000
150ft_family
1040
0.999875850144696
1000
line:100000F5
  0
LINE
  5
131
330
17
100
AcDbEntity
  8
PREDICTED_GEOMETRY_HIGH
100
AcDbLine
 10
-1.5239999999999994
 20
5.943600000000001
 30
0.0
 11
-1.5239999999999987
 21
9.601200000000002
 31
0.0
1001
DXF_PREDICTOR
1000
150ft_family
1040
0.999875850144696
1000
line:100000F9
  0
LINE
  5
132
330
17
100
AcDbEntity
  8
PREDICTED_GEOMETRY_HIGH
100
AcDbLine
 10
-18.288
 20
5.9436000000000035
 30
0.0
 11
-18.288
 21
7.201046092826763
 31
0.0
1001
DXF_PREDICTOR
1000
150ft_family
1040
0.999875850144696
1000
line:100000FD
  0
LINE
  5
133
330
17
100
AcDbEntity
  8
PREDICTED_GEOMETRY_HIGH
100
AcDbLine
 10
9.839421046011225e-16
 20
5.943600000000001
 30
0.0
 11
1.4663680151248903e-15
 21
9.601200000000002
 31
0.0
1001
DXF_PREDICTOR
1000
150ft_family
1040
0.999875850144696
1000
line:10000101
  0
LINE
  5
134
330
17
100
AcDbEntity
  8
PREDICTED_GEOMETRY_HIGH
100
AcDbLine
 10
-13.716
 20
5.943600000000003
 30
0.0
 11
-13.716
 21
9.601200000000004
 31
0.0
1001
DXF_PREDICTOR
1000
150ft_family
1040
0.999875850144696
1000
line:10000105
  0
LINE
  5
135
330
17
100
AcDbEntity
  8
PREDICTED_GEOMETRY_HIGH
100
AcDbLine
 10
1.5240000000000005
 20
5.943600000000001
 30
0.0
 11
1.5240000000000011
 21
9.601200000000002
 31
0.0
1001
DXF_PREDICTOR
1000
150ft_family
1040
0.999875850144696
1000
line:10000109
  0
LINE
  5
136
330
17
100
AcDbEntity
  8
PREDICTED_GEOMETRY_HIGH
100
AcDbLine
 10
-9.143999999999998
 20
5.943600000000003
 30
0.0
 11
-9.143999999999998
 21
9.601200000000004
 31
0.0
1001
DXF_PREDICTOR
1000
150ft_family
1040
0.999875850144696
1000
line:1000010D
  0
LINE
  5
137
330
17
100
AcDbEntity
  8
PREDICTED_GEOMETRY_HIGH
100
AcDbLine
 10
-10.667999999999997
 20
5.943600000000003
 30
0.0
 11
-10.667999999999997
 21
9.601200000000004
 31
0.0
1001
DXF_PREDICTOR
1000
150ft_family
1040
0.999875850144696
1000
line:10000111
  0
LINE
  5
138
330
17
100
AcDbEntity
  8
PREDICTED_GEOMETRY_HIGH
100
AcDbLine
 10
-7.619999999999999
 20
5.943600000000003
 30
0.0
 11
-7.619999999999999
 21
9.601200000000004
 31
0.0
1001
DXF_PREDICTOR
1000
150ft_family
1040
0.999875850144696
1000
line:10000115
  0
LINE
  5
139
330
17
100
AcDbEntity
  8
PREDICTED_GEOMETRY_HIGH
100
AcDbLine
 10
-18.73705226742093
 20
5.943600000000003
 30
0.0
 11
18.73469100702861
 21
5.943599999999997
 31
0.0
1001
DXF_PREDICTOR
1000
150ft_family
1040
0.999875850144696
1000
line:10000119
  0
LINE
  5
13A
330
17
100
AcDbEntity
  8
PREDICTED_GEOMETRY_HIGH
100
AcDbLine
 10
18.288
 20
-5.9436000000000035
 30
0.0
 11
18.288
 21
-7.201046092826766
 31
0.0
1001
DXF_PREDICTOR
1000
150ft_family
1040
0.999875850144696
1000
line:1000011D
  0
LINE
  5
13B
330
17
100
AcDbEntity
  8
PREDICTED_GEOMETRY_HIGH
100
AcDbLine
 10
-4.571999999999999
 20
5.943600000000001
 30
0.0
 11
-4.571999999999999
 21
9.601200000000002
 31
0.0
1001
DXF_PREDICTOR
1000
150ft_family
1040
0.999875850144696
1000
line:10000121
  0
LINE
  5
13C
330
17
100
AcDbEntity
  8
PREDICTED_GEOMETRY_HIGH
100
AcDbLine
 10
9.144000000000002
 20
5.9436
 30
0.0
 11
9.144000000000002
 21
9.6012
 31
0.0
1001
DXF_PREDICTOR
1000
150ft_family
1040
0.999875850144696
1000
line:10000125
  0
LINE
  5
13D
330
17
100
AcDbEntity
  8
PREDICTED_GEOMETRY_HIGH
100
AcDbLine
 10
13.716
 20
5.9436
 30
0.0
 11
13.716
 21
9.6012
 31
0.0
1001
DXF_PREDICTOR
1000
150ft_family
1040
0.999875850144696
1000
line:10000129
  0
LINE
  5
13E
330
17
100
AcDbEntity
  8
PREDICTED_GEOMETRY_HIGH
100
AcDbLine
 10
18.288
 20
5.943599999999999
 30
0.0
 11
18.288
 21
7.2114346308486965
 31
0.0
1001
DXF_PREDICTOR
1000
150ft_family
1040
0.999875850144696
1000
line:1000012D
  0
LINE
  5
13F
330
17
100
AcDbEntity
  8
PREDICTED_GEOMETRY_HIGH
100
AcDbLine
 10
16.764
 20
5.943599999999999
 30
0.0
 11
16.764
 21
9.601199999999999
 31
0.0
1001
DXF_PREDICTOR
1000
150ft_family
1040
0.999875850144696
1000
line:10000131
  0
LINE
  5
140
330
17
100
AcDbEntity
  8
PREDICTED_GEOMETRY_HIGH
100
AcDbLine
 10
-15.240000000000002
 20
5.9436000000000035
 30
0.0
 11
-15.240000000000002
 21
9.601200000000004
 31
0.0
1001
DXF_PREDICTOR
1000
150ft_family
1040
0.999875850144696
1000
line:10000135
  0
LINE
  5
141
330
17
100
AcDbEntity
  8
PREDICTED_GEOMETRY_HIGH
100
AcDbLine
 10
3.0480000000000005
 20
5.943600000000001
 30
0.0
 11
3.048000000000001
 21
9.601200000000002
 31
0.0
1001
DXF_PREDICTOR
1000
150ft_family
1040
0.999875850144696
1000
line:10000139
  0
LINE
  5
142
330
17
100
AcDbEntity
  8
PREDICTED_GEOMETRY_HIGH
100
AcDbLine
 10
6.096000000000001
 20
5.9436
 30
0.0
 11
6.096000000000001
 21
9.6012
 31
0.0
1001
DXF_PREDICTOR
1000
150ft_family
1040
0.999875850144696
1000
line:1000013D
  0
LINE
  5
143
330
17
100
AcDbEntity
  8
PREDICTED_GEOMETRY_HIGH
100
AcDbLine
 10
12.192
 20
5.9436
 30
0.0
 11
12.192
 21
9.6012
 31
0.0
1001
DXF_PREDICTOR
1000
150ft_family
1040
0.999875850144696
1000
line:10000141
  0
LINE
  5
144
330
17
100
AcDbEntity
  8
PREDICTED_GEOMETRY_HIGH
100
AcDbLine
 10
10.668
 20
5.9436
 30
0.0
 11
10.668
 21
9.6012
 31
0.0
1001
DXF_PREDICTOR
1000
150ft_family
1040
0.999875850144696
1000
line:10000145
  0
LINE
  5
145
330
17
100
AcDbEntity
  8
PREDICTED_GEOMETRY_HIGH
100
AcDbLine
 10
-19.643063835205623
 20
0.7620000000000026
 30
0.0
 11
19.639967257805406
 21
0.7619999999999973
 31
0.0
1001
DXF_PREDICTOR
1000
150ft_family
1040
0.999875850144696
1000
line:100001A9
  0
LINE
  5
146
330
17
100
AcDbEntity
  8
PREDICTED_GEOMETRY_HIGH
100
AcDbLine
 10
-5.486400000000001
 20
0.7620000000000008
 30
0.0
 11
-5.486400000000001
 21
-0.7619999999999992
 31
0.0
1001
DXF_PREDICTOR
1000
150ft_family
1040
0.999875850144696
1000
line:100001AD
  0
LINE
  5
147
330
17
100
AcDbEntity
  8
PREDICTED_GEOMETRY_HIGH
100
AcDbLine
 10
-9.144000000000002
 20
0.7620000000000012
 30
0.0
 11
-9.144000000000002
 21
-0.7619999999999988
 31
0.0
1001
DXF_PREDICTOR
1000
150ft_family
1040
0.999875850144696
1000
line:100001B1
  0
LINE
  5
148
330
17
100
AcDbEntity
  8
PREDICTED_GEOMETRY_HIGH
100
AcDbLine
 10
-12.8016
 20
0.7620000000000017
 30
0.0
 11
-12.8016
 21
-0.7619999999999983
 31
0.0
1001
DXF_PREDICTOR
1000
150ft_family
1040
0.999875850144696
1000
line:100001B5
  0
LINE
  5
149
330
17
100
AcDbEntity
  8
PREDICTED_GEOMETRY_HIGH
100
AcDbLine
 10
1.8288
 20
-0.7620000000000002
 30
0.0
 11
5.486400000000001
 21
-0.7620000000000008
 31
0.0
1001
DXF_PREDICTOR
1000
150ft_family
1040
0.999875850144696
1000
line:100001B9
  0
LINE
  5
14A
330
17
100
AcDbEntity
  8
PREDICTED_GEOMETRY_HIGH
100
AcDbLine
 10
16.4592
 20
0.7619999999999978
 30
0.0
 11
16.4592
 21
-0.7620000000000022
 31
0.0
1001
DXF_PREDICTOR
1000
150ft_family
1040
0.999875850144696
1000
line:100001C1
  0
LINE
  5
14B
330
17
100
AcDbEntity
  8
PREDICTED_GEOMETRY_HIGH
100
AcDbLine
 10
12.8016
 20
0.7619999999999982
 30
0.0
 11
12.8016
 21
-0.7620000000000018
 31
0.0
1001
DXF_PREDICTOR
1000
150ft_family
1040
0.999875850144696
1000
line:100001C5
  0
LINE
  5
14C
330
17
100
AcDbEntity
  8
PREDICTED_GEOMETRY_HIGH
100
AcDbLine
 10
9.144000000000002
 20
0.7619999999999987
 30
0.0
 11
9.144000000000002
 21
-0.7620000000000013
 31
0.0
1001
DXF_PREDICTOR
1000
150ft_family
1040
0.999875850144696
1000
line:100001C9
  0
LINE
  5
14D
330
17
100
AcDbEntity
  8
PREDICTED_GEOMETRY_HIGH
100
AcDbLine
 10
5.486400000000001
 20
0.7619999999999991
 30
0.0
 11
5.486400000000001
 21
-0.7620000000000009
 31
0.0
1001
DXF_PREDICTOR
1000
150ft_family
1040
0.999875850144696
1000
line:100001CD
  0
LINE
  5
14E
330
17
100
AcDbEntity
  8
PREDICTED_GEOMETRY_HIGH
100
AcDbLine
 10
1.8288
 20
0.7619999999999997
 30
0.0
 11
1.8288
 21
-0.7620000000000003
 31
0.0
1001
DXF_PREDICTOR
1000
150ft_family
1040
0.999875850144696
1000
line:100001D1
  0
LINE
  5
14F
330
17
100
AcDbEntity
  8
PREDICTED_GEOMETRY_HIGH
100
AcDbLine
 10
-19.63996725780541
 20
-0.7619999999999973
 30
0.0
 11
19.64306383520562
 21
-0.7620000000000026
 31
0.0
1001
DXF_PREDICTOR
1000
150ft_family
1040
0.999875850144696
1000
line:100001D5
  0
LINE
  5
150
330
17
100
AcDbEntity
  8
PREDICTED_GEOMETRY_HIGH
100
AcDbLine
 10
-16.202989193288314
 20
-11.125199999999996
 30
0.0
 11
16.20726692067737
 21
-11.125200000000001
 31
0.0
1001
DXF_PREDICTOR
1000
150ft_family
1040
0.999875850144696
1000
line:10000245
  0
LINE
  5
151
330
17
100
AcDbEntity
  8
PREDICTED_GEOMETRY_HIGH
100
AcDbLine
 10
-1.828800000000002
 20
-14.782800000000002
 30
0.0
 11
-1.8288000000000022
 21
-16.3068
 31
0.0
1001
DXF_PREDICTOR
1000
150ft_family
1040
0.999875850144696
1000
line:10000249
  0
LINE
  5
152
330
17
100
AcDbEntity
  8
PREDICTED_GEOMETRY_HIGH
100
AcDbLine
 10
9.143999999999998
 20
-14.782800000000002
 30
0.0
 11
9.143999999999998
 21
-16.3068
 31
0.0
1001
DXF_PREDICTOR
1000
150ft_family
1040
0.999875850144696
1000
line:1000024D
  0
LINE
  5
153
330
17
100
AcDbEntity
  8
PREDICTED_GEOMETRY_HIGH
100
AcDbLine
 10
-12.801600000000004
 20
-14.782799999999998
 30
0.0
 11
-12.801600000000004
 21
-14.915872629314066
 31
0.0
1001
DXF_PREDICTOR
1000
150ft_family
1040
0.999875850144696
1000
line:10000251
  0
LINE
  5
154
330
17
100
AcDbEntity
  8
PREDICTED_GEOMETRY_HIGH
100
AcDbLine
 10
1.8287999999999986
 20
-9.601200000000002
 30
0.0
 11
1.8287999999999984
 21
-11.1252
 31
0.0
1001
DXF_PREDICTOR
1000
150ft_family
1040
0.999875850144696
1000
line:10000255
  0
LINE
  5
155
330
17
100
AcDbEntity
  8
PREDICTED_GEOMETRY_HIGH
100
AcDbLine
 10
-16.4592
 20
-9.601199999999999
 30
0.0
 11
-16.459200000000003
 21
-10.742796511832129
 31
0.0
1001
DXF_PREDICTOR
1000
150ft_family
1040
0.999875850144696
1000
line:10000259
  0
LINE
  5
156
330
17
100
AcDbEntity
  8
PREDICTED_GEOMETRY_HIGH
100
AcDbLine
 10
-9.144000000000004
 20
-9.6012
 30
0.0
 11
-9.144000000000004
 21
-11.125199999999998
 31
0.0
1001
DXF_PREDICTOR
1000
150ft_family
1040
0.999875850144696
1000
line:1000025D
  0
LINE
  5
157
330
17
100
AcDbEntity
  8
PREDICTED_GEOMETRY_HIGH
100
AcDbLine
 10
12.8016
 20
-9.601200000000004
 30
0.0
 11
12.801599999999999
 21
-11.1252
 31
0.0
1001
DXF_PREDICTOR
1000
150ft_family
1040
0.999875850144696
1000
line:10000261
  0
LINE
  5
158
330
17
100
AcDbEntity
  8
PREDICTED_GEOMETRY_HIGH
100
AcDbLine
 10
-5.4864000000000015
 20
-9.6012
 30
0.0
 11
-5.4864000000000015
 21
-11.125199999999998
 31
0.0
1001
DXF_PREDICTOR
1000
150ft_family
1040
0.999875850144696
1000
line:10000265
  0
LINE
  5
159
330
17
100
AcDbEntity
  8
PREDICTED_GEOMETRY_HIGH
100
AcDbLine
 10
5.486399999999999
 20
-9.601200000000004
 30
0.0
 11
5.486399999999999
 21
-11.1252
 31
0.0
1001
DXF_PREDICTOR
1000
150ft_family
1040
0.999875850144696
1000
line:10000269
  0
LINE
  5
15A
330
17
100
AcDbEntity
  8
PREDICTED_GEOMETRY_HIGH
100
AcDbLine
 10
16.4592
 20
-9.601200000000004
 30
0.0
 11
16.459199999999996
 21
-10.747495746587683
 31
0.0
1001
DXF_PREDICTOR
1000
150ft_family
1040
0.999875850144696
1000
line:1000026D
  0
LINE
  5
15B
330
17
100
AcDbEntity
  8
PREDICTED_GEOMETRY_HIGH
100
AcDbLine
 10
-1.8288000000000013
 20
-9.601200000000002
 30
0.0
 11
-1.8288000000000015
 21
-11.1252
 31
0.0
1001
DXF_PREDICTOR
1000
150ft_family
1040
0.999875850144696
1000
line:10000271
  0
LINE
  5
15C
330
17
100
AcDbEntity
  8
PREDICTED_GEOMETRY_HIGH
100
AcDbLine
 10
-10.668
 20
-5.9436
 30
0.0
 11
-10.668
 21
-9.6012
 31
0.0
1001
DXF_PREDICTOR
1000
150ft_family
1040
0.999875850144696
1000
line:10000275
  0
LINE
  5
15D
330
17
100
AcDbEntity
  8
PREDICTED_GEOMETRY_HIGH
100
AcDbLine
 10
6.095999999999998
 20
-5.943600000000003
 30
0.0
 11
6.095999999999998
 21
-9.601200000000004
 31
0.0
1001
DXF_PREDICTOR
1000
150ft_family
1040
0.999875850144696
1000
line:10000279
  0
LINE
  5
15E
330
17
100
AcDbEntity
  8
PREDICTED_GEOMETRY_HIGH
100
AcDbLine
 10
-9.144000000000002
 20
-5.9436
 30
0.0
 11
-9.144000000000002
 21
-9.6012
 31
0.0
1001
DXF_PREDICTOR
1000
150ft_family
1040
0.999875850144696
1000
line:1000027D
  0
LINE
  5
15F
330
17
100
AcDbEntity
  8
PREDICTED_GEOMETRY_HIGH
100
AcDbLine
 10
-4.572000000000001
 20
-5.943600000000001
 30
0.0
 11
-4.572000000000002
 21
-9.601200000000002
 31
0.0
1001
DXF_PREDICTOR
1000
150ft_family
1040
0.999875850144696
1000
line:10000281
  0
LINE
  5
160
330
17
100
AcDbEntity
  8
PREDICTED_GEOMETRY_HIGH
100
AcDbLine
 10
-13.716
 20
-5.9436
 30
0.0
 11
-13.716
 21
-9.6012
 31
0.0
1001
DXF_PREDICTOR
1000
150ft_family
1040
0.999875850144696
1000
line:10000285
  0
LINE
  5
161
330
17
100
AcDbEntity
  8
PREDICTED_GEOMETRY_HIGH
100
AcDbLine
 10
-12.192
 20
-5.9436
 30
0.0
 11
-12.192
 21
-9.6012
 31
0.0
1001
DXF_PREDICTOR
1000
150ft_family
1040
0.999875850144696
1000
line:10000289
  0
LINE
  5
162
330
17
100
AcDbEntity
  8
PREDICTED_GEOMETRY_HIGH
100
AcDbLine
 10
-7.620000000000002
 20
-5.9436
 30
0.0
 11
-7.620000000000002
 21
-9.6012
 31
0.0
1001
DXF_PREDICTOR
1000
150ft_family
1040
0.999875850144696
1000
line:1000028D
  0
LINE
  5
163
330
17
100
AcDbEntity
  8
PREDICTED_GEOMETRY_HIGH
100
AcDbLine
 10
12.192
 20
-5.943600000000003
 30
0.0
 11
12.192
 21
-9.601200000000004
 31
0.0
1001
DXF_PREDICTOR
1000
150ft_family
1040
0.999875850144696
1000
line:10000291
  0
LINE
  5
164
330
17
100
AcDbEntity
  8
PREDICTED_GEOMETRY_HIGH
100
AcDbLine
 10
3.047999999999999
 20
-5.943600000000001
 30
0.0
 11
3.0479999999999987
 21
-9.601200000000002
 31
0.0
1001
DXF_PREDICTOR
1000
150ft_family
1040
0.999875850144696
1000
line:10000295
  0
LINE
  5
165
330
17
100
AcDbEntity
  8
PREDICTED_GEOMETRY_HIGH
100
AcDbLine
 10
-15.240000000000002
 20
-5.943599999999999
 30
0.0
 11
-15.240000000000002
 21
-9.601199999999999
 31
0.0
1001
DXF_PREDICTOR
1000
150ft_family
1040
0.999875850144696
1000
line:10000299
  0
LINE
  5
166
330
17
100
AcDbEntity
  8
PREDICTED_GEOMETRY_HIGH
100
AcDbLine
 10
10.972433797077255
 20
-16.3068
 30
0.0
 11
-10.976095060335492
 21
-16.306799999999996
 31
0.0
1001
DXF_PREDICTOR
1000
150ft_family
1040
0.999875850144696
1000
line:100002A1
  0
LINE
  5
167
330
17
100
AcDbEntity
  8
PREDICTED_GEOMETRY_HIGH
100
AcDbLine
 10
10.668
 20
-0.7620000000000013
 30
0.0
 11
10.668
 21
-4.419600000000003
 31
0.0
1001
DXF_PREDICTOR
1000
150ft_family
1040
0.999875850144696
1000
line:100002A5
  0
LINE
  5
168
330
17
100
AcDbEntity
  8
PREDICTED_GEOMETRY_HIGH
100
AcDbLine
 10
-12.952831574737532
 20
-14.782799999999998
 30
0.0
 11
12.958096898897336
 21
-14.782800000000003
 31
0.0
1001
DXF_PREDICTOR
1000
150ft_family
1040
0.999875850144696
1000
line:100002A9
  0
LINE
  5
169
330
17
100
AcDbEntity
  8
PREDICTED_GEOMETRY_HIGH
100
AcDbLine
 10
-3.0480000000000005
 20
-5.943600000000001
 30
0.0
 11
-3.048000000000001
 21
-9.601200000000002
 31
0.0
1001
DXF_PREDICTOR
1000
150ft_family
1040
0.999875850144696
1000
line:100002AD
  0
LINE
  5
16A
330
17
100
AcDbEntity
  8
PREDICTED_GEOMETRY_HIGH
100
AcDbLine
 10
-6.096000000000001
 20
-5.9436
 30
0.0
 11
-6.096000000000001
 21
-9.6012
 31
0.0
1001
DXF_PREDICTOR
1000
150ft_family
1040
0.999875850144696
1000
line:100002B1
  0
LINE
  5
16B
330
17
100
AcDbEntity
  8
PREDICTED_GEOMETRY_HIGH
100
AcDbLine
 10
13.716
 20
-5.943600000000003
 30
0.0
 11
13.716
 21
-9.601200000000004
 31
0.0
1001
DXF_PREDICTOR
1000
150ft_family
1040
0.999875850144696
1000
line:100002B5
  0
LINE
  5
16C
330
17
100
AcDbEntity
  8
PREDICTED_GEOMETRY_HIGH
100
AcDbLine
 10
7.619999999999999
 20
-5.943600000000003
 30
0.0
 11
7.619999999999999
 21
-9.601200000000004
 31
0.0
1001
DXF_PREDICTOR
1000
150ft_family
1040
0.999875850144696
1000
line:100002B9
  0
LINE
  5
16D
330
17
100
AcDbEntity
  8
PREDICTED_GEOMETRY_HIGH
100
AcDbLine
 10
-16.764
 20
-5.943599999999999
 30
0.0
 11
-16.764
 21
-9.601199999999999
 31
0.0
1001
DXF_PREDICTOR
1000
150ft_family
1040
0.999875850144696
1000
line:100002BD
  0
LINE
  5
16E
330
17
100
AcDbEntity
  8
PREDICTED_GEOMETRY_HIGH
100
AcDbLine
 10
9.144
 20
-9.601200000000004
 30
0.0
 11
9.144
 21
-11.1252
 31
0.0
1001
DXF_PREDICTOR
1000
150ft_family
1040
0.999875850144696
1000
line:100002C1
  0
LINE
  5
16F
330
17
100
AcDbEntity
  8
PREDICTED_GEOMETRY_HIGH
100
AcDbLine
 10
4.571999999999999
 20
-5.943600000000001
 30
0.0
 11
4.571999999999999
 21
-9.601200000000002
 31
0.0
1001
DXF_PREDICTOR
1000
150ft_family
1040
0.999875850144696
1000
line:100002C5
  0
LINE
  5
170
330
17
100
AcDbEntity
  8
PREDICTED_GEOMETRY_HIGH
100
AcDbLine
 10
1.5239999999999994
 20
-5.943600000000001
 30
0.0
 11
1.5239999999999987
 21
-9.601200000000002
 31
0.0
1001
DXF_PREDICTOR
1000
150ft_family
1040
0.999875850144696
1000
line:100002CD
  0
LINE
  5
171
330
17
100
AcDbEntity
  8
PREDICTED_GEOMETRY_HIGH
100
AcDbLine
 10
-5.486400000000002
 20
-14.782800000000002
 30
0.0
 11
-5.486400000000002
 21
-16.3068
 31
0.0
1001
DXF_PREDICTOR
1000
150ft_family
1040
0.999875850144696
1000
line:100002D5
  0
LINE
  5
172
330
17
100
AcDbEntity
  8
PREDICTED_GEOMETRY_HIGH
100
AcDbLine
 10
12.801599999999999
 20
-14.782800000000003
 30
0.0
 11
12.801599999999999
 21
-14.91484781005843
 31
0.0
1001
DXF_PREDICTOR
1000
150ft_family
1040
0.999875850144696
1000
line:100002D9
  0
LINE
  5
173
330
17
100
AcDbEntity
  8
PREDICTED_GEOMETRY_HIGH
100
AcDbLine
 10
-9.144000000000004
 20
-14.782800000000002
 30
0.0
 11
-9.144000000000004
 21
-16.3068
 31
0.0
1001
DXF_PREDICTOR
1000
150ft_family
1040
0.999875850144696
1000
line:100002DD
  0
LINE
  5
174
330
17
100
AcDbEntity
  8
PREDICTED_GEOMETRY_HIGH
100
AcDbLine
 10
1.828799999999998
 20
-14.782800000000002
 30
0.0
 11
1.8287999999999978
 21
-16.3068
 31
0.0
1001
DXF_PREDICTOR
1000
150ft_family
1040
0.999875850144696
1000
line:100002E1
  0
LINE
  5
175
330
17
100
AcDbEntity
  8
PREDICTED_GEOMETRY_HIGH
100
AcDbLine
 10
-17.151089738420257
 20
-9.601199999999999
 30
0.0
 11
17.15137310250638
 21
-9.601200000000004
 31
0.0
1001
DXF_PREDICTOR
1000
150ft_family
1040
0.999875850144696
1000
line:100002F9
  0
LINE
  5
176
330
17
100
AcDbEntity
  8
PREDICTED_GEOMETRY_HIGH
100
AcDbLine
 10
5.486399999999999
 20
-14.782800000000002
 30
0.0
 11
5.486399999999999
 21
-16.3068
 31
0.0
1001
DXF_PREDICTOR
1000
150ft_family
1040
0.999875850144696
1000
line:100002FD
  0
LINE
  5
177
330
17
100
AcDbEntity
  8
PREDICTED_GEOMETRY_HIGH
100
AcDbLine
 10
-1.8288
 20
0.7620000000000002
 30
0.0
 11
-1.8288
 21
-0.7619999999999998
 31
0.0
1001
DXF_PREDICTOR
1000
150ft_family
1040
0.999875850144696
1000
line:10000329
  0
LINE
  5
178
330
17
100
AcDbEntity
  8
PREDICTED_GEOMETRY_HIGH
100
AcDbLine
 10
-1.5239999999999982
 20
11.1252
 30
0.0
 11
-1.523999999999998
 21
14.782800000000002
 31
0.0
1001
DXF_PREDICTOR
1000
150ft_family
1040
0.999875850144696
1000
line:1000037D
  0
LINE
  5
179
330
17
100
AcDbEntity
  8
PREDICTED_GEOMETRY_HIGH
100
AcDbLine
 10
4.572000000000002
 20
11.1252
 30
0.0
 11
4.572000000000002
 21
14.782800000000002
 31
0.0
1001
DXF_PREDICTOR
1000
150ft_family
1040
0.999875850144696
1000
line:10000381
  0
LINE
  5
17A
330
17
100
AcDbEntity
  8
PREDICTED_GEOMETRY_HIGH
100
AcDbLine
 10
7.620000000000002
 20
11.125199999999998
 30
0.0
 11
7.620000000000003
 21
14.782800000000002
 31
0.0
1001
DXF_PREDICTOR
1000
150ft_family
1040
0.999875850144696
1000
line:10000385
  0
LINE
  5
17B
330
17
100
AcDbEntity
  8
PREDICTED_GEOMETRY_HIGH
100
AcDbLine
 10
6.096000000000001
 20
11.125199999999998
 30
0.0
 11
6.096000000000002
 21
14.782800000000002
 31
0.0
1001
DXF_PREDICTOR
1000
150ft_family
1040
0.999875850144696
1000
line:10000389
  0
LINE
  5
17C
330
17
100
AcDbEntity
  8
PREDICTED_GEOMETRY_HIGH
100
AcDbLine
 10
9.143999999999998
 20
-5.943600000000003
 30
0.0
 11
9.143999999999998
 21
-9.601200000000004
 31
0.0
1001
DXF_PREDICTOR
1000
150ft_family
1040
0.999875850144696
1000
line:1000038D
  0
LINE
  5
17D
330
17
100
AcDbEntity
  8
PREDICTED_GEOMETRY_HIGH
100
AcDbLine
 10
10.667999999999997
 20
-5.943600000000003
 30
0.0
 11
10.667999999999997
 21
-9.601200000000004
 31
0.0
1001
DXF_PREDICTOR
1000
150ft_family
1040
0.999875850144696
1000
line:10000391
  0
LINE
  5
17E
330
17
100
AcDbEntity
  8
PREDICTED_GEOMETRY_HIGH
100
AcDbLine
 10
15.240000000000002
 20
-5.9436000000000035
 30
0.0
 11
15.240000000000002
 21
-9.601200000000004
 31
0.0
1001
DXF_PREDICTOR
1000
150ft_family
1040
0.999875850144696
1000
line:10000395
  0
LINE
  5
17F
330
17
100
AcDbEntity
  8
PREDICTED_GEOMETRY_HIGH
100
AcDbLine
 10
-18.288
 20
-5.943599999999999
 30
0.0
 11
-18.288
 21
-7.2114346308486965
 31
0.0
1001
DXF_PREDICTOR
1000
150ft_family
1040
0.999875850144696
1000
line:10000399
  0
LINE
  5
180
330
17
100
AcDbEntity
  8
PREDICTED_GEOMETRY_HIGH
100
AcDbLine
 10
-5.839421046011225e-16
 20
-5.943600000000001
 30
0.0
 11
-1.0663680151248903e-15
 21
-9.601200000000002
 31
0.0
1001
DXF_PREDICTOR
1000
150ft_family
1040
0.999875850144696
1000
line:1000039D
  0
LINE
  5
181
330
17
100
AcDbEntity
  8
PREDICTED_GEOMETRY_HIGH
100
AcDbLine
 10
-15.240000000000004
 20
-11.125199999999996
 30
0.0
 11
-15.240000000000004
 21
-12.411767619108128
 31
0.0
1001
DXF_PREDICTOR
1000
150ft_family
1040
0.999875850144696
1000
line:100003A1
  0
LINE
  5
182
330
17
100
AcDbEntity
  8
PREDICTED_GEOMETRY_HIGH
100
AcDbLine
 10
3.0479999999999987
 20
-11.1252
 30
0.0
 11
3.047999999999998
 21
-14.782800000000002
 31
0.0
1001
DXF_PREDICTOR
1000
150ft_family
1040
0.999875850144696
1000
line:100003A5
  0
LINE
  5
183
330
17
100
AcDbEntity
  8
PREDICTED_GEOMETRY_HIGH
100
AcDbLine
 10
-3.048000000000001
 20
-11.1252
 30
0.0
 11
-3.048000000000002
 21
-14.782800000000002
 31
0.0
1001
DXF_PREDICTOR
1000
150ft_family
1040
0.999875850144696
1000
line:100003A9
  0
LINE
  5
184
330
17
100
AcDbEntity
  8
PREDICTED_GEOMETRY_HIGH
100
AcDbLine
 10
-6.096000000000001
 20
-11.125199999999998
 30
0.0
 11
-6.096000000000002
 21
-14.782800000000002
 31
0.0
1001
DXF_PREDICTOR
1000
150ft_family
1040
0.999875850144696
1000
line:100003AD
  0
LINE
  5
185
330
17
100
AcDbEntity
  8
PREDICTED_GEOMETRY_HIGH
100
AcDbLine
 10
6.095999999999998
 20
-11.1252
 30
0.0
 11
6.095999999999997
 21
-14.782800000000002
 31
0.0
1001
DXF_PREDICTOR
1000
150ft_family
1040
0.999875850144696
1000
line:100003B1
  0
LINE
  5
186
330
17
100
AcDbEntity
  8
PREDICTED_GEOMETRY_HIGH
100
AcDbLine
 10
7.619999999999999
 20
-11.1252
 30
0.0
 11
7.619999999999998
 21
-14.782800000000002
 31
0.0
1001
DXF_PREDICTOR
1000
150ft_family
1040
0.999875850144696
1000
line:100003B5
  0
LINE
  5
187
330
17
100
AcDbEntity
  8
PREDICTED_GEOMETRY_HIGH
100
AcDbLine
 10
-10.668
 20
-11.125199999999998
 30
0.0
 11
-10.668000000000001
 21
-14.782799999999998
 31
0.0
1001
DXF_PREDICTOR
1000
150ft_family
1040
0.999875850144696
1000
line:100003BD
  0
LINE
  5
188
330
17
100
AcDbEntity
  8
PREDICTED_GEOMETRY_HIGH
100
AcDbLine
 10
4.571999999999999
 20
-11.1252
 30
0.0
 11
4.571999999999998
 21
-14.782800000000002
 31
0.0
1001
DXF_PREDICTOR
1000
150ft_family
1040
0.999875850144696
1000
line:100003C1
  0
LINE
  5
189
330
17
100
AcDbEntity
  8
PREDICTED_GEOMETRY_HIGH
100
AcDbLine
 10
1.5239999999999982
 20
-11.1252
 30
0.0
 11
1.523999999999998
 21
-14.782800000000002
 31
0.0
1001
DXF_PREDICTOR
1000
150ft_family
1040
0.999875850144696
1000
line:100003C5
  0
LINE
  5
18A
330
17
100
AcDbEntity
  8
PREDICTED_GEOMETRY_HIGH
100
AcDbLine
 10
12.191999999999997
 20
-11.1252
 30
0.0
 11
12.191999999999997
 21
-14.782800000000003
 31
0.0
1001
DXF_PREDICTOR
1000
150ft_family
1040
0.999875850144696
1000
line:100003C9
  0
LINE
  5
18B
330
17
100
AcDbEntity
  8
PREDICTED_GEOMETRY_HIGH
100
AcDbLine
 10
-7.620000000000002
 20
-11.125199999999998
 30
0.0
 11
-7.620000000000003
 21
-14.782800000000002
 31
0.0
1001
DXF_PREDICTOR
1000
150ft_family
1040
0.999875850144696
1000
line:100003CD
  0
LINE
  5
18C
330
17
100
AcDbEntity
  8
PREDICTED_GEOMETRY_HIGH
100
AcDbLine
 10
-12.192000000000002
 20
-11.125199999999998
 30
0.0
 11
-12.192000000000002
 21
-14.782799999999998
 31
0.0
1001
DXF_PREDICTOR
1000
150ft_family
1040
0.999875850144696
1000
line:100003D1
  0
LINE
  5
18D
330
17
100
AcDbEntity
  8
PREDICTED_GEOMETRY_HIGH
100
AcDbLine
 10
-13.716000000000001
 20
-11.125199999999998
 30
0.0
 11
-13.716000000000001
 21
-14.079832211563787
 31
0.0
1001
DXF_PREDICTOR
1000
150ft_family
1040
0.999875850144696
1000
line:100003D5
  0
LINE
  5
18E
330
17
100
AcDbEntity
  8
PREDICTED_GEOMETRY_HIGH
100
AcDbLine
 10
-4.572000000000002
 20
-11.1252
 30
0.0
 11
-4.572000000000002
 21
-14.782800000000002
 31
0.0
1001
DXF_PREDICTOR
1000
150ft_family
1040
0.999875850144696
1000
line:100003D9
  0
LINE
  5
18F
330
17
100
AcDbEntity
  8
PREDICTED_GEOMETRY_HIGH
100
AcDbLine
 10
-9.144000000000002
 20
-11.125199999999998
 30
0.0
 11
-9.144000000000004
 21
-14.782800000000002
 31
0.0
1001
DXF_PREDICTOR
1000
150ft_family
1040
0.999875850144696
1000
line:100003DD
  0
LINE
  5
190
330
17
100
AcDbEntity
  8
PREDICTED_GEOMETRY_HIGH
100
AcDbLine
 10
13.715999999999996
 20
-11.1252
 30
0.0
 11
13.715999999999996
 21
-14.078385065190055
 31
0.0
1001
DXF_PREDICTOR
1000
150ft_family
1040
0.999875850144696
1000
line:100003E1
  0
LINE
  5
191
330
17
100
AcDbEntity
  8
PREDICTED_GEOMETRY_HIGH
100
AcDbLine
 10
3.048000000000002
 20
16.3068
 30
0.0
 11
3.0480000000000023
 21
19.417124421274597
 31
0.0
1001
DXF_PREDICTOR
1000
150ft_family
1040
0.999875850144696
1000
line:100003E5
  0
LINE
  5
192
330
17
100
AcDbEntity
  8
PREDICTED_GEOMETRY_HIGH
100
AcDbLine
 10
-1.5239999999999978
 20
16.3068
 30
0.0
 11
-1.5239999999999974
 21
19.598020417479177
 31
0.0
1001
DXF_PREDICTOR
1000
150ft_family
1040
0.999875850144696
1000
line:100003E9
  0
LINE
  5
193
330
17
100
AcDbEntity
  8
PREDICTED_GEOMETRY_HIGH
100
AcDbLine
 10
12.801600000000004
 20
14.782799999999998
 30
0.0
 11
12.801600000000004
 21
14.915872629314066
 31
0.0
1001
DXF_PREDICTOR
1000
150ft_family
1040
0.999875850144696
1000
line:100003ED
  0
LINE
  5
194
330
17
100
AcDbEntity
  8
PREDICTED_GEOMETRY_HIGH
100
AcDbLine
 10
9.144000000000004
 20
14.782800000000002
 30
0.0
 11
9.144000000000004
 21
16.3068
 31
0.0
1001
DXF_PREDICTOR
1000
150ft_family
1040
0.999875850144696
1000
line:100003F1
  0
LINE
  5
195
330
17
100
AcDbEntity
  8
PREDICTED_GEOMETRY_HIGH
100
AcDbLine
 10
-9.143999999999998
 20
14.782800000000002
 30
0.0
 11
-9.143999999999998
 21
16.3068
 31
0.0
1001
DXF_PREDICTOR
1000
150ft_family
1040
0.999875850144696
1000
line:100003F5
  0
LINE
  5
196
330
17
100
AcDbEntity
  8
PREDICTED_GEOMETRY_HIGH
100
AcDbLine
 10
-5.486399999999999
 20
14.782800000000002
 30
0.0
 11
-5.486399999999999
 21
16.3068
 31
0.0
1001
DXF_PREDICTOR
1000
150ft_family
1040
0.999875850144696
1000
line:100003F9
  0
LINE
  5
197
330
17
100
AcDbEntity
  8
PREDICTED_GEOMETRY_HIGH
100
AcDbLine
 10
-12.801599999999999
 20
14.782800000000003
 30
0.0
 11
-12.801599999999999
 21
14.914847810058427
 31
0.0
1001
DXF_PREDICTOR
1000
150ft_family
1040
0.999875850144696
1000
line:100003FD
  0
LINE
  5
198
330
17
100
AcDbEntity
  8
PREDICTED_GEOMETRY_HIGH
100
AcDbLine
 10
1.828800000000002
 20
14.782800000000002
 30
0.0
 11
1.8288000000000022
 21
16.3068
 31
0.0
1001
DXF_PREDICTOR
1000
150ft_family
1040
0.999875850144696
1000
line:10000401
  0
LINE
  5
199
330
17
100
AcDbEntity
  8
PREDICTED_GEOMETRY_HIGH
100
AcDbLine
 10
-1.828799999999998
 20
14.782800000000002
 30
0.0
 11
-1.8287999999999978
 21
16.3068
 31
0.0
1001
DXF_PREDICTOR
1000
150ft_family
1040
0.999875850144696
1000
line:10000405
  0
LINE
  5
19A
330
17
100
AcDbEntity
  8
PREDICTED_GEOMETRY_HIGH
100
AcDbLine
 10
5.486400000000002
 20
14.782800000000002
 30
0.0
 11
5.486400000000002
 21
16.3068
 31
0.0
1001
DXF_PREDICTOR
1000
150ft_family
1040
0.999875850144696
1000
line:10000409
  0
LINE
  5
19B
330
17
100
AcDbEntity
  8
PREDICTED_GEOMETRY_HIGH
100
AcDbLine
 10
-1.950815517751797e-15
 20
-16.3068
 30
0.0
 11
-2.3925286463893474e-15
 21
-19.655728621082236
 31
0.0
1001
DXF_PREDICTOR
1000
150ft_family
1040
0.999875850144696
1000
line:1000040D
  0
LINE
  5
19C
330
17
100
AcDbEntity
  8
PREDICTED_GEOMETRY_HIGH
100
AcDbLine
 10
-9.144
 20
9.601200000000004
 30
0.0
 11
-9.144
 21
11.1252
 31
0.0
1001
DXF_PREDICTOR
1000
150ft_family
1040
0.999875850144696
1000
line:10000415
  0
LINE
  5
19D
330
17
100
AcDbEntity
  8
PREDICTED_GEOMETRY_HIGH
100
AcDbLine
 10
1.5240000000000016
 20
11.1252
 30
0.0
 11
1.5240000000000018
 21
14.782800000000002
 31
0.0
1001
DXF_PREDICTOR
1000
150ft_family
1040
0.999875850144696
1000
line:10000419
  0
LINE
  5
19E
330
17
100
AcDbEntity
  8
PREDICTED_GEOMETRY_HIGH
100
AcDbLine
 10
9.144000000000002
 20
11.125199999999998
 30
0.0
 11
9.144000000000004
 21
14.782800000000002
 31
0.0
1001
DXF_PREDICTOR
1000
150ft_family
1040
0.999875850144696
1000
line:1000041D
  0
LINE
  5
19F
330
17
100
AcDbEntity
  8
PREDICTED_GEOMETRY_HIGH
100
AcDbLine
 10
9.144000000000004
 20
9.6012
 30
0.0
 11
9.144000000000004
 21
11.125199999999998
 31
0.0
1001
DXF_PREDICTOR
1000
150ft_family
1040
0.999875850144696
1000
line:10000421
  0
LINE
  5
1A0
330
17
100
AcDbEntity
  8
PREDICTED_GEOMETRY_HIGH
100
AcDbLine
 10
1.8288000000000013
 20
9.601200000000002
 30
0.0
 11
1.8288000000000015
 21
11.1252
 31
0.0
1001
DXF_PREDICTOR
1000
150ft_family
1040
0.999875850144696
1000
line:10000425
  0
LINE
  5
1A1
330
17
100
AcDbEntity
  8
PREDICTED_GEOMETRY_HIGH
100
AcDbLine
 10
-9.143999999999998
 20
11.1252
 30
0.0
 11
-9.143999999999998
 21
14.782800000000002
 31
0.0
1001
DXF_PREDICTOR
1000
150ft_family
1040
0.999875850144696
1000
line:10000429
  0
LINE
  5
1A2
330
17
100
AcDbEntity
  8
PREDICTED_GEOMETRY_HIGH
100
AcDbLine
 10
-16.4592
 20
9.601200000000004
 30
0.0
 11
-16.459199999999996
 21
10.747495746587681
 31
0.0
1001
DXF_PREDICTOR
1000
150ft_family
1040
0.999875850144696
1000
line:10000431
  0
LINE
  5
1A3
330
17
100
AcDbEntity
  8
PREDICTED_GEOMETRY_HIGH
100
AcDbLine
 10
4.572000000000002
 20
16.3068
 30
0.0
 11
4.572000000000003
 21
19.118187280461505
 31
0.0
1001
DXF_PREDICTOR
1000
150ft_family
1040
0.999875850144696
1000
line:10000435
  0
LINE
  5
1A4
330
17
100
AcDbEntity
  8
PREDICTED_GEOMETRY_HIGH
100
AcDbLine
 10
-3.047999999999998
 20
16.3068
 30
0.0
 11
-3.0479999999999974
 21
19.416889544581686
 31
0.0
1001
DXF_PREDICTOR
1000
150ft_family
1040
0.999875850144696
1000
line:10000439
  0
LINE
  5
1A5
330
17
100
AcDbEntity
  8
PREDICTED_GEOMETRY_HIGH
100
AcDbLine
 10
7.620000000000003
 20
16.3068
 30
0.0
 11
7.620000000000003
 21
18.119291616176085
 31
0.0
1001
DXF_PREDICTOR
1000
150ft_family
1040
0.999875850144696
1000
line:1000043D
  0
LINE
  5
1A6
330
17
100
AcDbEntity
  8
PREDICTED_GEOMETRY_HIGH
100
AcDbLine
 10
-9.143999999999998
 20
16.3068
 30
0.0
 11
-9.143999999999998
 21
17.39835931963065
 31
0.0
1001
DXF_PREDICTOR
1000
150ft_family
1040
0.999875850144696
1000
line:10000441
  0
LINE
  5
1A7
330
17
100
AcDbEntity
  8
PREDICTED_GEOMETRY_HIGH
100
AcDbLine
 10
10.668000000000001
 20
16.306799999999996
 30
0.0
 11
10.668000000000001
 21
16.507592550295747
 31
0.0
1001
DXF_PREDICTOR
1000
150ft_family
1040
0.999875850144696
1000
line:1000044D
  0
LINE
  5
1A8
330
17
100
AcDbEntity
  8
PREDICTED_GEOMETRY_HIGH
100
AcDbLine
 10
-4.571999999999998
 20
16.3068
 30
0.0
 11
-4.571999999999997
 21
19.11571302099135
 31
0.0
1001
DXF_PREDICTOR
1000
150ft_family
1040
0.999875850144696
1000
line:10000451
  0
LINE
  5
1A9
330
17
100
AcDbEntity
  8
PREDICTED_GEOMETRY_HIGH
100
AcDbLine
 10
9.144000000000004
 20
16.3068
 30
0.0
 11
9.144000000000004
 21
17.40082013736988
 31
0.0
1001
DXF_PREDICTOR
1000
150ft_family
1040
0.999875850144696
1000
line:10000455
  0
LINE
  5
1AA
330
17
100
AcDbEntity
  8
PREDICTED_GEOMETRY_HIGH
100
AcDbLine
 10
1.5240000000000022
 20
16.3068
 30
0.0
 11
1.5240000000000025
 21
19.595718307084777
 31
0.0
1001
DXF_PREDICTOR
1000
150ft_family
1040
0.999875850144696
1000
line:10000459
  0
LINE
  5
1AB
330
17
100
AcDbEntity
  8
PREDICTED_GEOMETRY_HIGH
100
AcDbLine
 10
6.096000000000002
 20
16.3068
 30
0.0
 11
6.096000000000002
 21
18.687338777764978
 31
0.0
1001
DXF_PREDICTOR
1000
150ft_family
1040
0.999875850144696
1000
line:1000045D
  0
LINE
  5
1AC
330
17
100
AcDbEntity
  8
PREDICTED_GEOMETRY_HIGH
100
AcDbLine
 10
-7.619999999999998
 20
16.3068
 30
0.0
 11
-7.619999999999998
 21
18.11804874057334
 31
0.0
1001
DXF_PREDICTOR
1000
150ft_family
1040
0.999875850144696
1000
line:10000461
  0
LINE
  5
1AD
330
17
100
AcDbEntity
  8
PREDICTED_GEOMETRY_HIGH
100
AcDbLine
 10
2.350815517751797e-15
 20
16.3068
 30
0.0
 11
2.7925286463893472e-15
 21
19.655728621082236
 31
0.0
1001
DXF_PREDICTOR
1000
150ft_family
1040
0.999875850144696
1000
line:10000465
  0
LINE
  5
1AE
330
17
100
AcDbEntity
  8
PREDICTED_GEOMETRY_HIGH
100
AcDbLine
 10
-10.667999999999996
 20
16.3068
 30
0.0
 11
-10.667999999999996
 21
16.51193846460987
 31
0.0
1001
DXF_PREDICTOR
1000
150ft_family
1040
0.999875850144696
1000
line:10000469
  0
LINE
  5
1AF
330
17
100
AcDbEntity
  8
PREDICTED_GEOMETRY_HIGH
100
AcDbLine
 10
-6.095999999999997
 20
16.3068
 30
0.0
 11
-6.095999999999997
 21
18.68593860602093
 31
0.0
1001
DXF_PREDICTOR
1000
150ft_family
1040
0.999875850144696
1000
line:1000046D
  0
LINE
  5
1B0
330
17
100
AcDbEntity
  8
PREDICTED_GEOMETRY_HIGH
100
AcDbLine
 10
10.976095060335494
 20
16.306799999999996
 30
0.0
 11
-10.972433797077256
 21
16.3068
 31
0.0
1001
DXF_PREDICTOR
1000
150ft_family
1040
0.999875850144696
1000
line:10000471
  0
LINE
  5
1B1
330
17
100
AcDbEntity
  8
PREDICTED_GEOMETRY_HIGH
100
AcDbLine
 10
-12.958096898897335
 20
14.782800000000003
 30
0.0
 11
12.952831574737527
 21
14.782799999999998
 31
0.0
1001
DXF_PREDICTOR
1000
150ft_family
1040
0.999875850144696
1000
line:10000491
  0
LINE
  5
1B2
330
17
100
AcDbEntity
  8
PREDICTED_GEOMETRY_HIGH
100
AcDbLine
 10
16.4592
 20
9.601199999999999
 30
0.0
 11
16.459200000000003
 21
10.742796511832125
 31
0.0
1001
DXF_PREDICTOR
1000
150ft_family
1040
0.999875850144696
1000
line:10000495
  0
LINE
  5
1B3
330
17
100
AcDbEntity
  8
PREDICTED_GEOMETRY_HIGH
100
AcDbLine
 10
-5.486399999999999
 20
9.601200000000004
 30
0.0
 11
-5.486399999999999
 21
11.1252
 31
0.0
1001
DXF_PREDICTOR
1000
150ft_family
1040
0.999875850144696
1000
line:10000499
  0
LINE
  5
1B4
330
17
100
AcDbEntity
  8
PREDICTED_GEOMETRY_HIGH
100
AcDbLine
 10
16.764
 20
-5.9436000000000035
 30
0.0
 11
16.764
 21
-9.601200000000004
 31
0.0
1001
DXF_PREDICTOR
1000
150ft_family
1040
0.999875850144696
1000
line:1000049D
  0
LINE
  5
1B5
330
17
100
AcDbEntity
  8
PREDICTED_GEOMETRY_HIGH
100
AcDbLine
 10
-1.5240000000000005
 20
-5.943600000000001
 30
0.0
 11
-1.5240000000000011
 21
-9.601200000000002
 31
0.0
1001
DXF_PREDICTOR
1000
150ft_family
1040
0.999875850144696
1000
line:100004A1
  0
LINE
  5
1B6
330
17
100
AcDbEntity
  8
PREDICTED_GEOMETRY_HIGH
100
AcDbLine
 10
-10.668000000000001
 20
-16.306799999999996
 30
0.0
 11
-10.668000000000001
 21
-16.507592550295744
 31
0.0
1001
DXF_PREDICTOR
1000
150ft_family
1040
0.999875850144696
1000
line:100004A5
  0
LINE
  5
1B7
330
17
100
AcDbEntity
  8
PREDICTED_GEOMETRY_HIGH
100
AcDbLine
 10
10.667999999999996
 20
-16.3068
 30
0.0
 11
10.667999999999996
 21
-16.511938464609866
 31
0.0
1001
DXF_PREDICTOR
1000
150ft_family
1040
0.999875850144696
1000
line:100004A9
  0
LINE
  5
1B8
330
17
100
AcDbEntity
  8
PREDICTED_GEOMETRY_HIGH
100
AcDbLine
 10
9.143999999999998
 20
-16.3068
 30
0.0
 11
9.143999999999998
 21
-17.39835931963065
 31
0.0
1001
DXF_PREDICTOR
1000
150ft_family
1040
0.999875850144696
1000
line:100004AD
  0
LINE
  5
1B9
330
17
100
AcDbEntity
  8
PREDICTED_GEOMETRY_HIGH
100
AcDbLine
 10
-1.5240000000000022
 20
-16.3068
 30
0.0
 11
-1.5240000000000025
 21
-19.595718307084777
 31
0.0
1001
DXF_PREDICTOR
1000
150ft_family
1040
0.999875850144696
1000
line:100004B1
  0
LINE
  5
1BA
330
17
100
AcDbEntity
  8
PREDICTED_GEOMETRY_HIGH
100
AcDbLine
 10
6.095999999999997
 20
-16.3068
 30
0.0
 11
6.095999999999997
 21
-18.68593860602093
 31
0.0
1001
DXF_PREDICTOR
1000
150ft_family
1040
0.999875850144696
1000
line:100004B5
  0
LINE
  5
1BB
330
17
100
AcDbEntity
  8
PREDICTED_GEOMETRY_HIGH
100
AcDbLine
 10
-9.144000000000004
 20
-16.3068
 30
0.0
 11
-9.144000000000004
 21
-17.40082013736988
 31
0.0
1001
DXF_PREDICTOR
1000
150ft_family
1040
0.999875850144696
1000
line:100004B9
  0
LINE
  5
1BC
330
17
100
AcDbEntity
  8
PREDICTED_GEOMETRY_HIGH
100
AcDbLine
 10
-4.572000000000002
 20
-16.3068
 30
0.0
 11
-4.572000000000003
 21
-19.118187280461505
 31
0.0
1001
DXF_PREDICTOR
1000
150ft_family
1040
0.999875850144696
1000
line:100004BD
  0
LINE
  5
1BD
330
17
100
AcDbEntity
  8
PREDICTED_GEOMETRY_HIGH
100
AcDbLine
 10
-7.620000000000003
 20
-16.3068
 30
0.0
 11
-7.620000000000003
 21
-18.119291616176085
 31
0.0
1001
DXF_PREDICTOR
1000
150ft_family
1040
0.999875850144696
1000
line:100004C5
  0
LINE
  5
1BE
330
17
100
AcDbEntity
  8
PREDICTED_GEOMETRY_HIGH
100
AcDbLine
 10
1.5239999999999978
 20
-16.3068
 30
0.0
 11
1.5239999999999974
 21
-19.598020417479173
 31
0.0
1001
DXF_PREDICTOR
1000
150ft_family
1040
0.999875850144696
1000
line:100004CD
  0
LINE
  5
1BF
330
17
100
AcDbEntity
  8
PREDICTED_GEOMETRY_HIGH
100
AcDbLine
 10
4.571999999999998
 20
-16.3068
 30
0.0
 11
4.571999999999997
 21
-19.11571302099135
 31
0.0
1001
DXF_PREDICTOR
1000
150ft_family
1040
0.999875850144696
1000
line:100004D1
  0
LINE
  5
1C0
330
17
100
AcDbEntity
  8
PREDICTED_GEOMETRY_HIGH
100
AcDbLine
 10
-1.8287999999999986
 20
9.601200000000002
 30
0.0
 11
-1.8287999999999984
 21
11.1252
 31
0.0
1001
DXF_PREDICTOR
1000
150ft_family
1040
0.999875850144696
1000
line:100004D5
  0
LINE
  5
1C1
330
17
100
AcDbEntity
  8
PREDICTED_GEOMETRY_HIGH
100
AcDbLine
 10
7.619999999999998
 20
-16.3068
 30
0.0
 11
7.619999999999998
 21
-18.11804874057334
 31
0.0
1001
DXF_PREDICTOR
1000
150ft_family
1040
0.999875850144696
1000
line:100004D9
  0
LINE
  5
1C2
330
17
100
AcDbEntity
  8
PREDICTED_GEOMETRY_HIGH
100
AcDbLine
 10
-6.096000000000002
 20
-16.3068
 30
0.0
 11
-6.096000000000002
 21
-18.68733877776498
 31
0.0
1001
DXF_PREDICTOR
1000
150ft_family
1040
0.999875850144696
1000
line:100004DD
  0
LINE
  5
1C3
330
17
100
AcDbEntity
  8
PREDICTED_GEOMETRY_HIGH
100
AcDbLine
 10
-3.048000000000002
 20
-16.3068
 30
0.0
 11
-3.0480000000000023
 21
-19.417124421274597
 31
0.0
1001
DXF_PREDICTOR
1000
150ft_family
1040
0.999875850144696
1000
line:100004E1
  0
LINE
  5
1C4
330
17
100
AcDbEntity
  8
PREDICTED_GEOMETRY_HIGH
100
AcDbLine
 10
3.047999999999998
 20
-16.3068
 30
0.0
 11
3.0479999999999974
 21
-19.416889544581686
 31
0.0
1001
DXF_PREDICTOR
1000
150ft_family
1040
0.999875850144696
1000
line:100004E5
  0
LINE
  5
1C5
330
17
100
AcDbEntity
  8
PREDICTED_GEOMETRY_HIGH
100
AcDbLine
 10
-1.2673788111764597e-15
 20
-11.1252
 30
0.0
 11
-1.7498047217002277e-15
 21
-14.782800000000002
 31
0.0
1001
DXF_PREDICTOR
1000
150ft_family
1040
0.999875850144696
1000
line:100004E9
  0
LINE
  5
1C6
330
17
100
AcDbEntity
  8
PREDICTED_GEOMETRY_HIGH
100
AcDbLine
 10
15.239999999999998
 20
-11.125200000000001
 30
0.0
 11
15.239999999999998
 21
-12.416601525719807
 31
0.0
1001
DXF_PREDICTOR
1000
150ft_family
1040
0.999875850144696
1000
line:100004ED
  0
LINE
  5
1C7
330
17
100
AcDbEntity
  8
PREDICTED_GEOMETRY_HIGH
100
AcDbLine
 10
10.667999999999997
 20
-11.1252
 30
0.0
 11
10.667999999999996
 21
-14.782800000000003
 31
0.0
1001
DXF_PREDICTOR
1000
150ft_family
1040
0.999875850144696
1000
line:100004F1
  0
LINE
  5
1C8
330
17
100
AcDbEntity
  8
PREDICTED_GEOMETRY_HIGH
100
AcDbLine
 10
9.143999999999998
 20
-11.1252
 30
0.0
 11
9.143999999999998
 21
-14.782800000000002
 31
0.0
1001
DXF_PREDICTOR
1000
150ft_family
1040
0.999875850144696
1000
line:100004F5
  0
LINE
  5
1C9
330
17
100
AcDbEntity
  8
PREDICTED_GEOMETRY_HIGH
100
AcDbLine
 10
-1.5240000000000016
 20
-11.1252
 30
0.0
 11
-1.5240000000000018
 21
-14.782800000000002
 31
0.0
1001
DXF_PREDICTOR
1000
150ft_family
1040
0.999875850144696
1000
line:100004FD
  0
LINE
  5
1CA
330
17
100
AcDbEntity
  8
PREDICTED_GEOMETRY_HIGH
100
AcDbLine
 10
-3.048
 20
0.7620000000000005
 30
0.0
 11
-3.047999999999999
 21
4.419600000000002
 31
0.0
1001
DXF_PREDICTOR
1000
150ft_family
1040
0.999875850144696
1000
line:10000501
  0
LINE
  5
1CB
330
17
100
AcDbEntity
  8
PREDICTED_GEOMETRY_HIGH
100
AcDbLine
 10
4.572
 20
0.7619999999999993
 30
0.0
 11
4.572000000000001
 21
4.419600000000001
 31
0.0
1001
DXF_PREDICTOR
1000
150ft_family
1040
0.999875850144696
1000
line:10000505
  0
LINE
  5
1CC
330
17
100
AcDbEntity
  8
PREDICTED_GEOMETRY_HIGH
100
AcDbLine
 10
-10.668
 20
0.7620000000000013
 30
0.0
 11
-10.668
 21
4.419600000000003
 31
0.0
1001
DXF_PREDICTOR
1000
150ft_family
1040
0.999875850144696
1000
line:10000509
  0
LINE
  5
1CD
330
17
100
AcDbEntity
  8
PREDICTED_GEOMETRY_HIGH
100
AcDbLine
 10
-13.716
 20
0.7620000000000017
 30
0.0
 11
-13.716
 21
4.419600000000003
 31
0.0
1001
DXF_PREDICTOR
1000
150ft_family
1040
0.999875850144696
1000
line:1000050D
  0
LINE
  5
1CE
330
17
100
AcDbEntity
  8
PREDICTED_GEOMETRY_HIGH
100
AcDbLine
 10
7.829313085495527e-16
 20
4.419600000000001
 30
0.0
 11
1.5240000000000005
 21
4.419600000000001
 31
0.0
1001
DXF_PREDICTOR
1000
150ft_family
1040
0.999875850144696
1000
line:10000511
  0
LINE
  5
1CF
330
17
100
AcDbEntity
  8
PREDICTED_GEOMETRY_HIGH
100
AcDbLine
 10
-5.4864
 20
4.419600000000002
 30
0.0
 11
-5.4864
 21
5.943600000000003
 31
0.0
1001
DXF_PREDICTOR
1000
150ft_family
1040
0.999875850144696
1000
line:10000515
  0
LINE
  5
1D0
330
17
100
AcDbEntity
  8
PREDICTED_GEOMETRY_HIGH
100
AcDbLine
 10
16.4592
 20
4.419599999999999
 30
0.0
 11
16.4592
 21
5.943599999999999
 31
0.0
1001
DXF_PREDICTOR
1000
150ft_family
1040
0.999875850144696
1000
line:10000519
  0
LINE
  5
1D1
330
17
100
AcDbEntity
  8
PREDICTED_GEOMETRY_HIGH
100
AcDbLine
 10
-12.8016
 20
4.419600000000003
 30
0.0
 11
-12.8016
 21
5.943600000000003
 31
0.0
1001
DXF_PREDICTOR
1000
150ft_family
1040
0.999875850144696
1000
line:1000051D
  0
LINE
  5
1D2
330
17
100
AcDbEntity
  8
PREDICTED_GEOMETRY_HIGH
100
AcDbLine
 10
-1.8287999999999993
 20
4.419600000000001
 30
0.0
 11
-1.8287999999999993
 21
5.9436
 31
0.0
1001
DXF_PREDICTOR
1000
150ft_family
1040
0.999875850144696
1000
line:10000521
  0
LINE
  5
1D3
330
17
100
AcDbEntity
  8
PREDICTED_GEOMETRY_HIGH
100
AcDbLine
 10
-1.524
 20
0.7620000000000001
 30
0.0
 11
-1.5239999999999994
 21
4.419600000000001
 31
0.0
1001
DXF_PREDICTOR
1000
150ft_family
1040
0.999875850144696
1000
line:10000525
  0
LINE
  5
1D4
330
17
100
AcDbEntity
  8
PREDICTED_GEOMETRY_HIGH
100
AcDbLine
 10
12.8016
 20
4.419599999999999
 30
0.0
 11
12.8016
 21
5.9436
 31
0.0
1001
DXF_PREDICTOR
1000
150ft_family
1040
0.999875850144696
1000
line:10000529
  0
LINE
  5
1D5
330
17
100
AcDbEntity
  8
PREDICTED_GEOMETRY_HIGH
100
AcDbLine
 10
9.144
 20
0.7619999999999987
 30
0.0
 11
9.144
 21
4.4196
 31
0.0
1001
DXF_PREDICTOR
1000
150ft_family
1040
0.999875850144696
1000
line:1000052D
  0
LINE
  5
1D6
330
17
100
AcDbEntity
  8
PREDICTED_GEOMETRY_HIGH
100
AcDbLine
 10
9.144000000000002
 20
4.4196
 30
0.0
 11
9.144000000000004
 21
5.9436
 31
0.0
1001
DXF_PREDICTOR
1000
150ft_family
1040
0.999875850144696
1000
line:10000531
  0
LINE
  5
1D7
330
17
100
AcDbEntity
  8
PREDICTED_GEOMETRY_HIGH
100
AcDbLine
 10
-9.144000000000002
 20
4.419600000000003
 30
0.0
 11
-9.144
 21
5.943600000000003
 31
0.0
1001
DXF_PREDICTOR
1000
150ft_family
1040
0.999875850144696
1000
line:10000539
  0
LINE
  5
1D8
330
17
100
AcDbEntity
  8
PREDICTED_GEOMETRY_HIGH
100
AcDbLine
 10
5.486400000000001
 20
4.419600000000001
 30
0.0
 11
5.486400000000001
 21
5.9436
 31
0.0
1001
DXF_PREDICTOR
1000
150ft_family
1040
0.999875850144696
1000
line:1000053D
  0
LINE
  5
1D9
330
17
100
AcDbEntity
  8
PREDICTED_GEOMETRY_HIGH
100
AcDbLine
 10
-16.4592
 20
4.419600000000003
 30
0.0
 11
-16.4592
 21
5.9436000000000035
 31
0.0
1001
DXF_PREDICTOR
1000
150ft_family
1040
0.999875850144696
1000
line:10000541
  0
LINE
  5
1DA
330
17
100
AcDbEntity
  8
PREDICTED_GEOMETRY_HIGH
100
AcDbLine
 10
1.8288000000000006
 20
4.419600000000001
 30
0.0
 11
1.8288000000000006
 21
5.943600000000001
 31
0.0
1001
DXF_PREDICTOR
1000
150ft_family
1040
0.999875850144696
1000
line:10000545
  0
LINE
  5
1DB
330
17
100
AcDbEntity
  8
PREDICTED_GEOMETRY_HIGH
100
AcDbLine
 10
-3.047999999999999
 20
5.943600000000001
 30
0.0
 11
-3.0479999999999987
 21
9.601200000000002
 31
0.0
1001
DXF_PREDICTOR
1000
150ft_family
1040
0.999875850144696
1000
line:10000551
  0
LINE
  5
1DC
330
17
100
AcDbEntity
  8
PREDICTED_GEOMETRY_HIGH
100
AcDbLine
 10
7.620000000000002
 20
5.9436
 30
0.0
 11
7.620000000000002
 21
9.6012
 31
0.0
1001
DXF_PREDICTOR
1000
150ft_family
1040
0.999875850144696
1000
line:10000555
  0
LINE
  5
1DD
330
17
100
AcDbEntity
  8
PREDICTED_GEOMETRY_HIGH
100
AcDbLine
 10
3.0050539802578493e-16
 20
0.762
 30
0.0
 11
7.829313085495527e-16
 21
4.419600000000001
 31
0.0
1001
DXF_PREDICTOR
1000
150ft_family
1040
0.999875850144696
1000
line:1000055D
  0
LINE
  5
1DE
330
17
100
AcDbEntity
  8
PREDICTED_GEOMETRY_HIGH
100
AcDbLine
 10
15.240000000000002
 20
0.7619999999999979
 30
0.0
 11
15.240000000000002
 21
4.419599999999999
 31
0.0
1001
DXF_PREDICTOR
1000
150ft_family
1040
0.999875850144696
1000
line:10000561
  0
LINE
  5
1DF
330
17
100
AcDbEntity
  8
PREDICTED_GEOMETRY_HIGH
100
AcDbLine
 10
16.764
 20
0.7619999999999978
 30
0.0
 11
16.764
 21
4.419599999999999
 31
0.0
1001
DXF_PREDICTOR
1000
150ft_family
1040
0.999875850144696
1000
line:10000565
  0
LINE
  5
1E0
330
17
100
AcDbEntity
  8
PREDICTED_GEOMETRY_HIGH
100
AcDbLine
 10
-19.154849207357024
 20
4.4196000000000035
 30
0.0
 11
19.151361041535875
 21
4.419599999999998
 31
0.0
1001
DXF_PREDICTOR
1000
150ft_family
1040
0.999875850144696
1000
line:10000569
  0
LINE
  5
1E1
330
17
100
AcDbEntity
  8
PREDICTED_GEOMETRY_HIGH
100
AcDbLine
 10
1.524
 20
0.7619999999999998
 30
0.0
 11
1.5240000000000005
 21
4.419600000000001
 31
0.0
1001
DXF_PREDICTOR
1000
150ft_family
1040
0.999875850144696
1000
line:1000056D
  0
LINE
  5
1E2
330
17
100
AcDbEntity
  8
PREDICTED_GEOMETRY_HIGH
100
AcDbLine
 10
12.192
 20
0.7619999999999983
 30
0.0
 11
12.192
 21
4.419599999999999
 31
0.0
1001
DXF_PREDICTOR
1000
150ft_family
1040
0.999875850144696
1000
line:10000571
  0
LINE
  5
1E3
330
17
100
AcDbEntity
  8
PREDICTED_GEOMETRY_HIGH
100
AcDbLine
 10
-12.192
 20
0.7620000000000016
 30
0.0
 11
-12.192
 21
4.419600000000003
 31
0.0
1001
DXF_PREDICTOR
1000
150ft_family
1040
0.999875850144696
1000
line:10000575
  0
LINE
  5
1E4
330
17
100
AcDbEntity
  8
PREDICTED_GEOMETRY_HIGH
100
AcDbLine
 10
6.096
 20
0.7619999999999991
 30
0.0
 11
6.096
 21
4.419600000000001
 31
0.0
1001
DXF_PREDICTOR
1000
150ft_family
1040
0.999875850144696
1000
line:10000579
  0
LINE
  5
1E5
330
17
100
AcDbEntity
  8
PREDICTED_GEOMETRY_HIGH
100
AcDbLine
 10
-16.764
 20
0.7620000000000022
 30
0.0
 11
-16.764
 21
4.419600000000003
 31
0.0
1001
DXF_PREDICTOR
1000
150ft_family
1040
0.999875850144696
1000
line:1000057D
  0
LINE
  5
1E6
330
17
100
AcDbEntity
  8
PREDICTED_GEOMETRY_HIGH
100
AcDbLine
 10
-6.096
 20
0.7620000000000008
 30
0.0
 11
-6.096
 21
4.419600000000002
 31
0.0
1001
DXF_PREDICTOR
1000
150ft_family
1040
0.999875850144696
1000
line:10000585
  0
LINE
  5
1E7
330
17
100
AcDbEntity
  8
PREDICTED_GEOMETRY_HIGH
100
AcDbLine
 10
15.240000000000002
 20
5.943599999999999
 30
0.0
 11
15.240000000000002
 21
9.601199999999999
 31
0.0
1001
DXF_PREDICTOR
1000
150ft_family
1040
0.999875850144696
1000
line:10000589
  0
LINE
  5
1E8
330
17
100
AcDbEntity
  8
PREDICTED_GEOMETRY_HIGH
100
AcDbLine
 10
13.716
 20
0.7619999999999982
 30
0.0
 11
13.716
 21
4.419599999999999
 31
0.0
1001
DXF_PREDICTOR
1000
150ft_family
1040
0.999875850144696
1000
line:1000058D
  0
LINE
  5
1E9
330
17
100
AcDbEntity
  8
PREDICTED_GEOMETRY_HIGH
100
AcDbLine
 10
18.288
 20
0.7619999999999976
 30
0.0
 11
18.288
 21
4.419599999999998
 31
0.0
1001
DXF_PREDICTOR
1000
150ft_family
1040
0.999875850144696
1000
line:10000591
  0
LINE
  5
1EA
330
17
100
AcDbEntity
  8
PREDICTED_GEOMETRY_HIGH
100
AcDbLine
 10
-4.572
 20
0.7620000000000006
 30
0.0
 11
-4.571999999999999
 21
4.419600000000002
 31
0.0
1001
DXF_PREDICTOR
1000
150ft_family
1040
0.999875850144696
1000
line:10000595
  0
LINE
  5
1EB
330
17
100
AcDbEntity
  8
PREDICTED_GEOMETRY_HIGH
100
AcDbLine
 10
-7.620000000000001
 20
0.7620000000000009
 30
0.0
 11
-7.620000000000001
 21
4.419600000000003
 31
0.0
1001
DXF_PREDICTOR
1000
150ft_family
1040
0.999875850144696
1000
line:10000599
  0
LINE
  5
1EC
330
17
100
AcDbEntity
  8
PREDICTED_GEOMETRY_HIGH
100
AcDbLine
 10
3.048
 20
0.7619999999999995
 30
0.0
 11
3.0480000000000005
 21
4.419600000000001
 31
0.0
1001
DXF_PREDICTOR
1000
150ft_family
1040
0.999875850144696
1000
line:1000059D
  0
LINE
  5
1ED
330
17
100
AcDbEntity
  8
PREDICTED_GEOMETRY_HIGH
100
AcDbLine
 10
7.620000000000001
 20
0.761999999999999
 30
0.0
 11
7.620000000000001
 21
4.4196
 31
0.0
1001
DXF_PREDICTOR
1000
150ft_family
1040
0.999875850144696
1000
line:100005A1
  0
LINE
  5
1EE
330
17
100
AcDbEntity
  8
PREDICTED_GEOMETRY_HIGH
100
AcDbLine
 10
-18.288
 20
0.7620000000000023
 30
0.0
 11
-18.288
 21
4.4196000000000035
 31
0.0
1001
DXF_PREDICTOR
1000
150ft_family
1040
0.999875850144696
1000
line:100005A5
  0
LINE
  5
1EF
330
17
100
AcDbEntity
  8
PREDICTED_GEOMETRY_HIGH
100
AcDbLine
 10
-15.240000000000002
 20
0.762000000000002
 30
0.0
 11
-15.240000000000002
 21
4.419600000000003
 31
0.0
1001
DXF_PREDICTOR
1000
150ft_family
1040
0.999875850144696
1000
line:100005A9
  0
LINE
  5
1F0
330
17
100
AcDbEntity
  8
PREDICTED_GEOMETRY_HIGH
100
AcDbLine
 10
-9.144
 20
0.7620000000000012
 30
0.0
 11
-9.144
 21
4.419600000000003
 31
0.0
1001
DXF_PREDICTOR
1000
150ft_family
1040
0.999875850144696
1000
line:100005AD
  0
LINE
  5
1F1
330
17
100
AcDbEntity
  8
PREDICTED_GEOMETRY_HIGH
100
AcDbLine
 10
10.668
 20
0.7619999999999986
 30
0.0
 11
10.668
 21
4.4196
 31
0.0
1001
DXF_PREDICTOR
1000
150ft_family
1040
0.999875850144696
1000
line:100005B1
  0
LINE
  5
1F2
330
17
100
AcDbEntity
  8
PREDICTED_GEOMETRY_HIGH
100
AcDbLine
 10
10.668
 20
11.125199999999998
 30
0.0
 11
10.668000000000001
 21
14.782799999999998
 31
0.0
1001
DXF_PREDICTOR
1000
150ft_family
1040
0.999875850144696
1000
line:100005B5
  0
LINE
  5
1F3
330
17
100
AcDbEntity
  8
PREDICTED_GEOMETRY_HIGH
100
AcDbLine
 10
-16.20726692067737
 20
11.125200000000001
 30
0.0
 11
16.202989193288314
 21
11.125199999999996
 31
0.0
1001
DXF_PREDICTOR
1000
150ft_family
1040
0.999875850144696
1000
line:100005B9
  0
LINE
  5
1F4
330
17
100
AcDbEntity
  8
PREDICTED_GEOMETRY_HIGH
100
AcDbLine
 10
-17.151373102506387
 20
9.601200000000004
 30
0.0
 11
17.151089738420257
 21
9.601199999999999
 31
0.0
1001
DXF_PREDICTOR
1000
150ft_family
1040
0.999875850144696
1000
line:100005BD
  0
LINE
  5
1F5
330
17
100
AcDbEntity
  8
PREDICTED_GEOMETRY_HIGH
100
AcDbLine
 10
-12.8016
 20
9.601200000000004
 30
0.0
 11
-12.801599999999999
 21
11.1252
 31
0.0
1001
DXF_PREDICTOR
1000
150ft_family
1040
0.999875850144696
1000
line:100005C1
  0
LINE
  5
1F6
330
17
100
AcDbEntity
  8
PREDICTED_GEOMETRY_HIGH
100
AcDbLine
 10
-13.715999999999996
 20
11.1252
 30
0.0
 11
-13.715999999999996
 21
14.078385065190053
 31
0.0
1001
DXF_PREDICTOR
1000
150ft_family
1040
0.999875850144696
1000
line:100005C5
  0
LINE
  5
1F7
330
17
100
AcDbEntity
  8
PREDICTED_GEOMETRY_HIGH
100
AcDbLine
 10
15.240000000000004
 20
11.125199999999996
 30
0.0
 11
15.240000000000004
 21
12.411767619108126
 31
0.0
1001
DXF_PREDICTOR
1000
150ft_family
1040
0.999875850144696
1000
line:100005C9
  0
LINE
  5
1F8
330
17
100
AcDbEntity
  8
PREDICTED_GEOMETRY_HIGH
100
AcDbLine
 10
-3.0479999999999987
 20
11.1252
 30
0.0
 11
-3.047999999999998
 21
14.782800000000002
 31
0.0
1001
DXF_PREDICTOR
1000
150ft_family
1040
0.999875850144696
1000
line:100005CD
  0
LINE
  5
1F9
330
17
100
AcDbEntity
  8
PREDICTED_GEOMETRY_HIGH
100
AcDbLine
 10
-6.095999999999998
 20
11.1252
 30
0.0
 11
-6.095999999999997
 21
14.782800000000002
 31
0.0
1001
DXF_PREDICTOR
1000
150ft_family
1040
0.999875850144696
1000
line:100005D1
  0
LINE
  5
1FA
330
17
100
AcDbEntity
  8
PREDICTED_GEOMETRY_HIGH
100
AcDbLine
 10
13.716000000000001
 20
11.125199999999998
 30
0.0
 11
13.716000000000001
 21
14.079832211563787
 31
0.0
1001
DXF_PREDICTOR
1000
150ft_family
1040
0.999875850144696
1000
line:100005D5
  0
LINE
  5
1FB
330
17
100
AcDbEntity
  8
PREDICTED_GEOMETRY_HIGH
100
AcDbLine
 10
-12.191999999999997
 20
11.1252
 30
0.0
 11
-12.191999999999997
 21
14.782800000000003
 31
0.0
1001
DXF_PREDICTOR
1000
150ft_family
1040
0.999875850144696
1000
line:100005D9
  0
LINE
  5
1FC
330
17
100
AcDbEntity
  8
PREDICTED_GEOMETRY_HIGH
100
AcDbLine
 10
-10.667999999999997
 20
11.1252
 30
0.0
 11
-10.667999999999996
 21
14.782800000000003
 31
0.0
1001
DXF_PREDICTOR
1000
150ft_family
1040
0.999875850144696
1000
line:100005DD
  0
LINE
  5
1FD
330
17
100
AcDbEntity
  8
PREDICTED_GEOMETRY_HIGH
100
AcDbLine
 10
-7.619999999999999
 20
11.1252
 30
0.0
 11
-7.619999999999998
 21
14.782800000000002
 31
0.0
1001
DXF_PREDICTOR
1000
150ft_family
1040
0.999875850144696
1000
line:100005E1
  0
LINE
  5
1FE
330
17
100
AcDbEntity
  8
PREDICTED_GEOMETRY_HIGH
100
AcDbLine
 10
4.572000000000001
 20
5.943600000000001
 30
0.0
 11
4.572000000000002
 21
9.601200000000002
 31
0.0
1001
DXF_PREDICTOR
1000
150ft_family
1040
0.999875850144696
1000
line:100005E5
  0
LINE
  5
1FF
330
17
100
AcDbEntity
  8
PREDICTED_GEOMETRY_HIGH
100
AcDbLine
 10
3.048000000000001
 20
11.1252
 30
0.0
 11
3.048000000000002
 21
14.782800000000002
 31
0.0
1001
DXF_PREDICTOR
1000
150ft_family
1040
0.999875850144696
1000
line:100005E9
  0
LINE
  5
200
330
17
100
AcDbEntity
  8
PREDICTED_GEOMETRY_HIGH
100
AcDbLine
 10
12.192000000000002
 20
11.125199999999998
 30
0.0
 11
12.192000000000002
 21
14.782799999999998
 31
0.0
1001
DXF_PREDICTOR
1000
150ft_family
1040
0.999875850144696
1000
line:100005ED
  0
LINE
  5
201
330
17
100
AcDbEntity
  8
PREDICTED_GEOMETRY_HIGH
100
AcDbLine
 10
-15.239999999999998
 20
11.125200000000001
 30
0.0
 11
-15.239999999999998
 21
12.416601525719809
 31
0.0
1001
DXF_PREDICTOR
1000
150ft_family
1040
0.999875850144696
1000
line:100005F1
  0
LINE
  5
202
330
17
100
AcDbEntity
  8
PREDICTED_GEOMETRY_HIGH
100
AcDbLine
 10
12.8016
 20
9.6012
 30
0.0
 11
12.801600000000004
 21
11.125199999999998
 31
0.0
1001
DXF_PREDICTOR
1000
150ft_family
1040
0.999875850144696
1000
line:100005F5
  0
LINE
  5
203
330
17
100
AcDbEntity
  8
PREDICTED_GEOMETRY_HIGH
100
AcDbLine
 10
1.6673788111764597e-15
 20
11.1252
 30
0.0
 11
2.149804721700228e-15
 21
14.782800000000002
 31
0.0
1001
DXF_PREDICTOR
1000
150ft_family
1040
0.999875850144696
1000
line:100005F9
  0
LINE
  5
204
330
17
100
AcDbEntity
  8
PREDICTED_GEOMETRY_HIGH
100
AcDbLine
 10
-7.620000000000001
 20
-0.761999999999999
 30
0.0
 11
-7.620000000000001
 21
-4.4196
 31
0.0
1001
DXF_PREDICTOR
1000
150ft_family
1040
0.999875850144696
1000
line:100005FD
  0
LINE
  5
205
330
17
100
AcDbEntity
  8
PREDICTED_GEOMETRY_HIGH
100
AcDbLine
 10
-10.668
 20
-0.7619999999999986
 30
0.0
 11
-10.668
 21
-4.4196
 31
0.0
1001
DXF_PREDICTOR
1000
150ft_family
1040
0.999875850144696
1000
line:10000601
  0
LINE
  5
206
330
17
100
AcDbEntity
  8
PREDICTED_GEOMETRY_HIGH
100
AcDbLine
 10
-15.240000000000002
 20
-0.7619999999999979
 30
0.0
 11
-15.240000000000002
 21
-4.419599999999999
 31
0.0
1001
DXF_PREDICTOR
1000
150ft_family
1040
0.999875850144696
1000
line:10000605
  0
LINE
  5
207
330
17
100
AcDbEntity
  8
PREDICTED_GEOMETRY_HIGH
100
AcDbLine
 10
-6.096
 20
-0.7619999999999991
 30
0.0
 11
-6.096
 21
-4.419600000000001
 31
0.0
1001
DXF_PREDICTOR
1000
150ft_family
1040
0.999875850144696
1000
line:10000609
  0
LINE
  5
208
330
17
100
AcDbEntity
  8
PREDICTED_GEOMETRY_HIGH
100
AcDbLine
 10
-3.8293130854955276e-16
 20
-4.419600000000001
 30
0.0
 11
1.5239999999999994
 21
-4.419600000000001
 31
0.0
1001
DXF_PREDICTOR
1000
150ft_family
1040
0.999875850144696
1000
line:1000060D
  0
LINE
  5
209
330
17
100
AcDbEntity
  8
PREDICTED_GEOMETRY_HIGH
100
AcDbLine
 10
18.288
 20
-0.7620000000000023
 30
0.0
 11
18.288
 21
-4.4196000000000035
 31
0.0
1001
DXF_PREDICTOR
1000
150ft_family
1040
0.999875850144696
1000
line:10000615
  0
LINE
  5
20A
330
17
100
AcDbEntity
  8
PREDICTED_GEOMETRY_HIGH
100
AcDbLine
 10
16.764
 20
-0.7620000000000022
 30
0.0
 11
16.764
 21
-4.419600000000003
 31
0.0
1001
DXF_PREDICTOR
1000
150ft_family
1040
0.999875850144696
1000
line:10000619
  0
LINE
  5
20B
330
17
100
AcDbEntity
  8
PREDICTED_GEOMETRY_HIGH
100
AcDbLine
 10
15.240000000000002
 20
-0.762000000000002
 30
0.0
 11
15.240000000000002
 21
-4.419600000000003
 31
0.0
1001
DXF_PREDICTOR
1000
150ft_family
1040
0.999875850144696
1000
line:1000061D
  0
LINE
  5
20C
330
17
100
AcDbEntity
  8
PREDICTED_GEOMETRY_HIGH
100
AcDbLine
 10
13.716
 20
-0.7620000000000017
 30
0.0
 11
13.716
 21
-4.419600000000003
 31
0.0
1001
DXF_PREDICTOR
1000
150ft_family
1040
0.999875850144696
1000
line:10000621
  0
ENDSEC
  0
SECTION
  2
OBJECTS
  0
DICTIONARY
  5
A
330
0
100
AcDbDictionary
281
1
  3
ACAD_COLOR
350
B
  3
ACAD_GROUP
350
C
  3
ACAD_LAYOUT
350
D
  3
ACAD_MATERIAL
350
E
  3
ACAD_MLEADERSTYLE
350
F
  3
ACAD_MLINESTYLE
350
10
  3
ACAD_PLOTSETTINGS
350
11
  3
ACAD_PLOTSTYLENAME
350
12
  3
ACAD_SCALELIST
350
14
  3
ACAD_TABLESTYLE
350
15
  3
ACAD_VISUALSTYLE
350
16
  3
EZDXF_META
350
2D
  0
DICTIONARY
  5
B
330
A
100
AcDbDictionary
281
1
  0
DICTIONARY
  5
C
330
A
100
AcDbDictionary
281
1
  0
DICTIONARY
  5
D
330
A
100
AcDbDictionary
281
1
  3
Model
350
1A
  3
Layout1
350
1E
  0
DICTIONARY
  5
E
330
A
100
AcDbDictionary
281
1
  3
ByBlock
350
1F
  3
ByLayer
350
20
  3
Global
350
21
  0
DICTIONARY
  5
F
330
A
100
AcDbDictionary
281
1
  3
Standard
350
2C
  0
DICTIONARY
  5
10
330
A
100
AcDbDictionary
281
1
  3
Standard
350
22
  0
DICTIONARY
  5
11
330
A
100
AcDbDictionary
281
1
  0
ACDBDICTIONARYWDFLT
  5
12
330
A
100
AcDbDictionary
281
1
  3
Normal
350
13
100
AcDbDictionaryWithDefault
340
13
  0
ACDBPLACEHOLDER
  5
13
330
12
  0
DICTIONARY
  5
14
330
A
100
AcDbDictionary
281
1
  0
DICTIONARY
  5
15
330
A
100
AcDbDictionary
281
1
  0
DICTIONARY
  5
16
330
A
100
AcDbDictionary
281
1
  0
LAYOUT
  5
1A
330
D
100
AcDbPlotSettings
  1

  4
A3
  6

 40
7.5
 41
20.0
 42
7.5
 43
20.0
 44
420.0
 45
297.0
 46
0.0
 47
0.0
 48
0.0
 49
0.0
140
0.0
141
0.0
142
1.0
143
1.0
 70
1024
 72
1
 73
0
 74
5
  7

 75
16
 76
0
 77
2
 78
300
147
1.0
148
0.0
149
0.0
100
AcDbLayout
  1
Model
 70
1
 71
0
 10
0.0
 20
0.0
 11
420.0
 21
297.0
 12
0.0
 22
0.0
 32
0.0
 14
1e+20
 24
1e+20
 34
1e+20
 15
-1e+20
 25
-1e+20
 35
-1e+20
146
0.0
 13
0.0
 23
0.0
 33
0.0
 16
1.0
 26
0.0
 36
0.0
 17
0.0
 27
1.0
 37
0.0
 76
1
330
17
  0
LAYOUT
  5
1E
330
D
100
AcDbPlotSettings
  1

  4
A3
  6

 40
7.5
 41
20.0
 42
7.5
 43
20.0
 44
420.0
 45
297.0
 46
0.0
 47
0.0
 48
0.0
 49
0.0
140
0.0
141
0.0
142
1.0
143
1.0
 70
0
 72
1
 73
0
 74
5
  7

 75
16
 76
0
 77
2
 78
300
147
1.0
148
0.0
149
0.0
100
AcDbLayout
  1
Layout1
 70
1
 71
1
 10
0.0
 20
0.0
 11
420.0
 21
297.0
 12
0.0
 22
0.0
 32
0.0
 14
1e+20
 24
1e+20
 34
1e+20
 15
-1e+20
 25
-1e+20
 35
-1e+20
146
0.0
 13
0.0
 23
0.0
 33
0.0
 16
1.0
 26
0.0
 36
0.0
 17
0.0
 27
1.0
 37
0.0
 76
1
330
1B
  0
MATERIAL
  5
1F
102
{ACAD_REACTORS
330
E
102
}
330
E
100
AcDbMaterial
  1
ByBlock
  2

 70
0
 40
1.0
 71
1
 41
1.0
 91
-1023410177
 42
1.0
 72
1
  3

 73
1
 74
1
 75
1
 44
0.5
 73
0
 45
1.0
 46
1.0
 77
1
  4

 78
1
 79
1
170
1
 48
1.0
171
1
  6

172
1
173
1
174
1
140
1.0
141
1.0
175
1
  7

176
1
177
1
178
1
143
1.0
179
1
  8

270
1
271
1
272
1
145
1.0
146
1.0
273
1
  9

274
1
275
1
276
1
 42
1.0
 72
1
  3

 73
1
 74
1
 75
1
 94
63
  0
MATERIAL
  5
20
102
{ACAD_REACTORS
330
E
102
}
330
E
100
AcDbMaterial
  1
ByLayer
  2

 70
0
 40
1.0
 71
1
 41
1.0
 91
-1023410177
 42
1.0
 72
1
  3

 73
1
 74
1
 75
1
 44
0.5
 73
0
 45
1.0
 46
1.0
 77
1
  4

 78
1
 79
1
170
1
 48
1.0
171
1
  6

172
1
173
1
174
1
140
1.0
141
1.0
175
1
  7

176
1
177
1
178
1
143
1.0
179
1
  8

270
1
271
1
272
1
145
1.0
146
1.0
273
1
  9

274
1
275
1
276
1
 42
1.0
 72
1
  3

 73
1
 74
1
 75
1
 94
63
  0
MATERIAL
  5
21
102
{ACAD_REACTORS
330
E
102
}
330
E
100
AcDbMaterial
  1
Global
  2

 70
0
 40
1.0
 71
1
 41
1.0
 91
-1023410177
 42
1.0
 72
1
  3

 73
1
 74
1
 75
1
 44
0.5
 73
0
 45
1.0
 46
1.0
 77
1
  4

 78
1
 79
1
170
1
 48
1.0
171
1
  6

172
1
173
1
174
1
140
1.0
141
1.0
175
1
  7

176
1
177
1
178
1
143
1.0
179
1
  8

270
1
271
1
272
1
145
1.0
146
1.0
273
1
  9

274
1
275
1
276
1
 42
1.0
 72
1
  3

 73
1
 74
1
 75
1
 94
63
  0
MLINESTYLE
  5
22
102
{ACAD_REACTORS
330
10
102
}
330
10
100
AcDbMlineStyle
  2
Standard
 70
0
  3

 62
256
 51
90.0
 52
90.0
 71
2
 49
0.5
 62
256
  6
BYLAYER
 49
-0.5
 62
256
  6
BYLAYER
  0
MLEADERSTYLE
  5
2C
102
{ACAD_REACTORS
330
F
102
}
330
F
100
AcDbMLeaderStyle
179
2
170
2
171
1
172
0
 90
2
 40
0.0
 41
0.0
173
1
 91
-1056964608
 92
-2
290
1
 42
2.0
291
1
 43
8.0
  3
Standard
 44
4.0
300

342
29
174
1
175
1
176
0
178
1
 93
-1056964608
 45
4.0
292
0
297
0
 46
4.0
 94
-1056964608
 47
1.0
 49
1.0
140
1.0
294
1
141
0.0
177
0
142
1.0
295
0
296
0
143
3.75
271
0
272
9
273
9
  0
DICTIONARY
  5
2D
330
A
100
AcDbDictionary
280
1
281
1
  3
CREATED_BY_EZDXF
350
2E
  3
WRITTEN_BY_EZDXF
350
20F
  0
DICTIONARYVAR
  5
2E
330
2D
100
DictionaryVariables
280
0
  1
1.4.4 @ 2026-07-30T04:35:58.558550+00:00
  0
DICTIONARYVAR
  5
20F
330
2D
100
DictionaryVariables
280
0
  1
1.4.4 @ 2026-07-30T04:35:58.619960+00:00
  0
ENDSEC
  0
EOF
